<svg width="188" height="188" viewBox="0 0 188 188" fill="none" xmlns="http://www.w3.org/2000/svg">
<path d="M114.336 73.2851C114.219 73.3112 114.095 73.2984 113.971 73.2474C113.846 73.1964 113.725 73.1082 113.612 72.9879C113.5 72.8676 113.4 72.7176 113.316 72.5464C113.233 72.3753 113.169 72.1864 113.128 71.9908C113.087 71.7951 113.07 71.5965 113.077 71.4063C113.084 71.2162 113.116 71.0383 113.17 70.883C113.224 70.7276 113.3 70.5978 113.393 70.5011C113.487 70.4043 113.595 70.3426 113.713 70.3194C113.83 70.2932 113.954 70.306 114.078 70.357C114.203 70.408 114.324 70.4962 114.437 70.6165C114.549 70.7368 114.649 70.8869 114.732 71.058C114.816 71.2291 114.88 71.418 114.921 71.6137C114.962 71.8093 114.979 72.008 114.972 72.1981C114.965 72.3882 114.933 72.5661 114.879 72.7215C114.825 72.8768 114.749 73.0066 114.655 73.1033C114.562 73.2001 114.454 73.2618 114.336 73.2851Z" fill="#191919"/>
<path d="M116.048 80.0175L116.057 80.0279C115.914 80.246 115.711 79.5635 115.587 79.3746C114.983 78.3714 114.269 77.4388 113.458 76.5941C113.425 76.5363 113.38 76.4858 113.327 76.4456C113.274 76.4055 113.213 76.3765 113.149 76.3604C113.084 76.3443 113.017 76.3414 112.951 76.3519C112.885 76.3624 112.822 76.3861 112.765 76.4215C112.709 76.457 112.66 76.5035 112.622 76.5582C112.584 76.6129 112.557 76.6747 112.544 76.74C112.53 76.8053 112.53 76.8726 112.543 76.938C112.556 77.0033 112.582 77.0654 112.62 77.1205C113.033 78.2113 113.558 79.2562 114.187 80.2384C114.569 80.8964 114.979 81.5291 115.736 81.6484C116.54 81.6694 117.321 81.3706 117.905 80.8175C118.251 80.5107 118.541 80.1458 118.761 79.7393C118.849 79.6451 118.896 79.5196 118.892 79.3905C118.888 79.2613 118.833 79.1391 118.739 79.0508C118.644 78.9624 118.519 78.9151 118.39 78.9192C118.261 78.9233 118.139 78.9786 118.05 79.0728L117.03 79.524C116.723 79.7257 116.393 79.8913 116.048 80.0175ZM116.048 80.0175H116.007C116.02 80.0194 116.034 80.0194 116.048 80.0175Z" fill="#191919"/>
<path d="M123.697 82.0152C124.758 80.442 125.327 78.5892 125.333 76.692C125.815 76.3596 126.273 75.9943 126.704 75.5988C126.293 74.9918 125.94 74.3476 125.649 73.6746C124.781 70.0133 124.427 66.2552 123.414 62.6145C128.184 59.3321 131.482 52.8592 129.182 47.0557C148.689 54.4459 153.306 71.5962 153.152 71.6414C156.04 74.9784 159.048 78.2317 162.014 81.4982C160.933 82.8972 159.766 84.2277 158.521 85.4819C154.306 90.2947 148.812 94.1299 143.272 97.293C141.53 95.9141 140.037 94.2239 138.384 92.7425C134.024 88.8368 129.172 84.5955 123.845 81.9795L123.697 82.0152Z" fill="#CB7428"/>
<path d="M51.2619 67.2966C54.5761 64.7586 58.0782 62.476 61.7382 60.4685C64.6694 58.6995 67.7808 57.2481 71.0198 56.1388C74.0339 51.8007 78.0407 48.2452 82.7066 45.7685C87.3725 43.2918 92.5625 41.9654 97.8446 41.8997C101.573 41.8395 105.441 41.6609 109.038 42.756C106.891 44.966 105.669 48.1798 104.425 50.9613C95.6619 51.1014 91.2072 61.1763 93.169 68.7593C91.3172 72.1357 91.1095 76.5613 95.1834 78.1151C91.0474 78.5494 87.0665 80.2865 83.1514 81.5931C74.0475 84.6255 64.9154 88.8433 57.2582 94.7286C52.4861 87.3822 49.0711 79.239 47.1757 70.6863C48.45 69.4545 49.8159 68.3214 51.2619 67.2966Z" fill="#CB7428"/>
<path d="M162.605 84.9141C164.629 88.1149 166.371 91.4849 167.814 94.9862C171.075 103.227 172.888 111.97 173.172 120.829C173.659 134.348 171.063 146.05 166.382 157.715C166.332 157.833 166.237 157.927 166.118 157.977C165.999 158.027 165.866 158.028 165.746 157.982C165.626 157.935 165.529 157.843 165.476 157.726C165.423 157.609 165.417 157.475 165.46 157.354C169.801 145.699 171.856 133.317 171.514 120.884C171.209 112.213 169.468 103.652 166.361 95.5511C165.06 92.0671 163.524 88.6753 161.764 85.3991C161.699 85.2869 161.681 85.1534 161.714 85.028C161.747 84.9026 161.829 84.7955 161.941 84.7303C162.053 84.6651 162.187 84.6472 162.312 84.6804C162.438 84.7136 162.545 84.7953 162.61 84.9075L162.605 84.9141Z" fill="#191919"/>
<path d="M165.867 150.4C165.339 152.584 164.398 154.647 163.095 156.478C162.589 157.147 162.015 157.761 161.381 158.311C161.294 158.403 161.174 158.458 161.048 158.464C160.921 158.471 160.797 158.429 160.7 158.346C160.604 158.264 160.543 158.147 160.529 158.021C160.516 157.895 160.552 157.769 160.629 157.668C160.902 157.253 162.431 154.509 162.482 154.414C163.523 152.489 164.005 151.064 164.456 150.245C164.998 149.267 165.208 148.905 165.619 149.036C166.098 149.19 165.956 149.727 165.867 150.4Z" fill="#191919"/>
<path d="M161.722 148.492C161.008 150.775 159.939 152.932 158.556 154.884C158.027 155.597 157.442 156.268 156.809 156.89C156.77 156.943 156.721 156.988 156.664 157.022C156.608 157.055 156.545 157.078 156.48 157.087C156.415 157.096 156.349 157.093 156.285 157.076C156.221 157.06 156.162 157.03 156.109 156.991C156.057 156.951 156.013 156.901 155.98 156.844C155.947 156.787 155.926 156.724 155.918 156.658C155.91 156.593 155.915 156.527 155.932 156.464C155.95 156.4 155.98 156.341 156.021 156.289C156.485 155.513 156.412 155.528 157.807 153.078C159.488 150.133 159.701 149.26 160.356 148.212C160.978 147.219 161.163 146.907 161.578 147.067C162.014 147.234 161.889 147.685 161.722 148.492Z" fill="#191919"/>
<path d="M144.972 98.8644C146.627 101.159 148.121 103.565 149.443 106.067C152.449 111.959 154.694 118.211 156.122 124.67C158.259 134.446 158.354 143.569 155.405 152.707C155.387 152.77 155.357 152.83 155.315 152.882C155.274 152.934 155.223 152.977 155.165 153.008C155.106 153.04 155.042 153.06 154.976 153.066C154.911 153.073 154.844 153.066 154.781 153.046C154.717 153.026 154.659 152.994 154.608 152.951C154.558 152.909 154.516 152.856 154.486 152.797C154.456 152.738 154.438 152.674 154.434 152.608C154.429 152.541 154.438 152.475 154.459 152.412C156.382 145.939 156.94 135.985 154.506 125.025C153.082 118.705 150.915 112.576 148.05 106.766C147.067 104.721 145.363 101.329 144.16 99.3973C144.124 99.3438 144.099 99.2838 144.087 99.2206C144.074 99.1574 144.074 99.0924 144.087 99.0294C144.1 98.9663 144.125 98.9064 144.162 98.8531C144.198 98.7999 144.244 98.7543 144.298 98.7191C144.352 98.6838 144.412 98.6596 144.475 98.6479C144.539 98.6361 144.604 98.637 144.667 98.6505C144.73 98.664 144.789 98.6899 144.842 98.7266C144.895 98.7633 144.94 98.8101 144.975 98.8644H144.972Z" fill="#191919"/>
<path d="M54.8813 99.2977C54.071 100.934 52.818 104.217 52.1788 105.945C50.1934 111.154 48.7709 116.559 47.9356 122.07C46.7259 129.953 46.823 137.981 48.2233 145.831C48.2498 145.959 48.2252 146.091 48.1549 146.201C48.0846 146.31 47.9741 146.387 47.8473 146.416C47.7206 146.444 47.5877 146.422 47.4772 146.353C47.3668 146.285 47.2877 146.176 47.257 146.05C45.3051 138.123 44.9792 129.883 46.2991 121.828C47.1241 116.19 48.6102 110.668 50.7265 105.378C51.6795 103.131 52.7785 100.95 54.0165 98.8475C54.0765 98.733 54.1794 98.6471 54.3027 98.6086C54.426 98.5701 54.5596 98.5821 54.674 98.6421C54.7885 98.702 54.8744 98.805 54.9129 98.9283C54.9514 99.0516 54.9394 99.1852 54.8794 99.2996L54.8813 99.2977Z" fill="#191919"/>
<path d="M42.6537 139.484C42.8643 139.88 43.1895 140.857 43.479 141.607C43.7883 142.412 44.1822 143.338 44.419 144.065C44.5676 144.517 44.6738 144.958 44.8167 145.408C44.8463 145.466 44.8642 145.529 44.8695 145.593C44.8747 145.658 44.8672 145.723 44.8472 145.785C44.8273 145.847 44.7953 145.904 44.7532 145.954C44.7111 146.003 44.6597 146.044 44.6019 146.074C44.544 146.103 44.4809 146.121 44.4162 146.126C44.3514 146.132 44.2862 146.124 44.2244 146.104C44.1626 146.084 44.1053 146.052 44.0557 146.01C44.0062 145.968 43.9655 145.917 43.9359 145.859C43.1418 144.893 42.5182 143.798 42.0916 142.622C41.7519 141.817 41.4735 140.988 41.2588 140.141C41.2282 139.952 41.2125 139.76 41.2118 139.568C41.1977 138.936 41.1488 138.5 41.5709 138.387C41.9929 138.274 42.2345 138.692 42.6537 139.484Z" fill="#191919"/>
<path d="M38.5231 141.459C38.8486 141.952 39.1209 142.478 39.3353 143.028C39.8639 144.155 40.4691 145.244 41.1467 146.288C41.2614 146.476 41.9165 147.589 42.2173 148.034C42.2619 148.081 42.2967 148.137 42.3198 148.198C42.3429 148.258 42.3538 148.323 42.3518 148.388C42.3499 148.453 42.3352 148.517 42.3086 148.576C42.282 148.635 42.2439 148.689 42.1967 148.733C42.1494 148.778 42.0938 148.813 42.0331 148.836C41.9723 148.859 41.9076 148.87 41.8427 148.868C41.7778 148.866 41.7138 148.851 41.6546 148.825C41.5953 148.798 41.5419 148.76 41.4973 148.713C40.9042 148.269 40.364 147.759 39.8871 147.192C38.6493 145.638 37.7606 143.836 37.2814 141.908C37.2034 141.264 37.0934 140.771 37.5427 140.623C37.992 140.475 38.1641 140.906 38.5231 141.459Z" fill="#191919"/>
<path d="M44.1649 73.3051C33.7883 83.7137 29.077 109.185 29.6053 123.898C29.9418 133.267 32.1292 142.97 37.2841 150.761C37.3205 150.815 37.346 150.876 37.359 150.939C37.372 151.003 37.3723 151.069 37.3599 151.133C37.3475 151.197 37.3226 151.257 37.2867 151.312C37.2508 151.366 37.2046 151.413 37.1507 151.449C37.0967 151.486 37.0361 151.511 36.9723 151.524C36.9086 151.537 36.8429 151.537 36.779 151.525C36.7151 151.513 36.6542 151.488 36.6 151.452C36.5457 151.416 36.499 151.37 36.4626 151.316C32.1058 144.869 29.3653 137.469 28.4726 129.74C27.0043 118.534 28.6042 106.311 31.5332 95.3894C33.9011 86.56 36.9711 78.8172 43.4834 72.6095C43.5285 72.5619 43.5827 72.524 43.6427 72.4979C43.7028 72.4718 43.7675 72.4581 43.833 72.4575C43.8984 72.457 43.9634 72.4697 44.0238 72.4949C44.0843 72.52 44.1391 72.5571 44.1849 72.6039C44.2307 72.6507 44.2665 72.7063 44.2904 72.7673C44.3142 72.8283 44.3255 72.8935 44.3235 72.9589C44.3216 73.0244 44.3064 73.0888 44.279 73.1482C44.2516 73.2077 44.2125 73.2611 44.164 73.3051H44.1649Z" fill="#191919"/>
<path d="M53.43 41.5423C61.357 35.5075 62.2585 21.3003 56.1917 13.6468C49.6117 5.34758 35.3434 2.11022 25.9622 6.99728C13.8447 13.3113 10.7436 34.5299 20.7922 44.0248C26.7622 49.6648 35.3134 52.0148 47.4638 47.5498C50.4182 50.2476 54.401 52.9389 58.3678 53.6232C58.4596 53.6408 58.5545 53.6318 58.6412 53.5971C58.728 53.5625 58.8031 53.5037 58.8575 53.4278C58.9119 53.3518 58.9434 53.2618 58.9482 53.1685C58.9531 53.0752 58.9311 52.9825 58.8848 52.9013C57.3536 50.2429 54.3512 44.5146 53.43 41.5423ZM57.4485 52.3918C54.0175 51.3578 50.6373 48.7878 48.0823 46.2931C47.9916 46.2056 47.878 46.1454 47.7547 46.1195C47.6313 46.0936 47.5031 46.1029 47.3848 46.1464C38.3185 49.4251 28.9674 49.5304 21.9165 42.8376C12.7101 34.0956 15.6185 14.2616 26.7265 8.46274C35.4083 3.93006 48.8024 6.96626 54.9584 14.631C60.668 21.7402 59.8408 35.3656 52.3687 40.81C52.2676 40.883 52.1913 40.9852 52.1501 41.1028C52.109 41.2205 52.1049 41.348 52.1384 41.468C52.9318 44.2852 55.9971 49.8491 57.4485 52.3918Z" fill="#191919"/>
<path d="M26.618 21.1734C26.7238 20.2938 27.0887 19.4655 27.6663 18.7937C28.2439 18.1218 29.0081 17.6368 29.8619 17.4002C33.0579 16.4066 35.8723 18.265 37.8143 21.0465C38.35 20.499 38.9294 19.996 39.5467 19.5425C41.7087 18.0385 44.5287 17.9915 46.3486 20.2005C47.0476 21.1508 47.5392 22.2374 47.7915 23.3899C48.0438 24.5424 48.0511 25.735 47.8131 26.8905C47.2359 29.5225 44.2505 32.4459 42.0612 34.104C40.6774 35.1368 39.2039 36.0434 37.6583 36.8131C37.5733 36.8581 37.4769 36.8772 37.3812 36.868C37.2855 36.8588 37.1945 36.8218 37.1196 36.7614C34.7593 34.8128 30.8329 31.409 28.9933 28.9115C27.6463 27.3038 26.8071 25.3323 26.5822 23.247C26.5241 22.5564 26.536 21.8616 26.618 21.1734Z" fill="#CB7428"/>
<path d="M149.591 70.1834C149.06 69.8708 148.554 69.5182 148.077 69.1287C147.753 68.8354 147.067 68.1267 147.325 67.7112C147.592 67.2797 148.713 67.7018 148.869 67.7704C149.465 68.083 150.019 68.4709 150.516 68.9247C150.586 69.014 151.08 69.8215 150.845 70.1355C150.61 70.4494 149.681 70.2182 149.591 70.1834Z" fill="#191919"/>
<path d="M77.6441 55.8038C77.3686 55.8799 75.9869 56.019 75.703 56.0482C75.0008 56.1215 73.0512 56.3377 72.9272 55.6449C72.8247 55.0743 74.3503 54.6391 74.5251 54.5931C75.5079 54.3788 76.5096 54.2635 77.5153 54.249C77.6553 54.2631 78.7702 54.4492 78.805 54.9315C78.8369 55.3817 77.7616 55.7718 77.6441 55.8038Z" fill="#191919"/>
<path d="M94.2823 68.9255C93.5604 62.8098 94.4572 57.3917 99.6093 54.0622C101.69 52.7462 103.917 52.2762 106.055 51.3625C107.935 45.5242 111.131 40.4895 117.267 40.4482C118.397 40.3845 119.525 40.5938 120.557 41.0582C127.433 44.5419 130.693 54.332 124.709 59.9456C120.667 63.7226 113.421 65.2961 107.952 64.8337C107.844 66.8744 106.983 68.5326 105.052 69.153C103.36 69.6963 101.163 69.2893 99.4213 68.9433C98.7841 68.827 98.1354 68.7863 97.4887 68.8221C96.1896 68.902 93.9759 70.0441 94.1366 72.2662C94.227 73.3326 94.6934 74.332 95.4526 75.0862C96.6004 76.203 98.6909 76.5273 100.289 76.6015C100.451 76.6105 100.606 76.6686 100.734 76.768C100.862 76.8674 100.957 77.0034 101.006 77.158C101.319 78.3973 101.899 79.553 102.707 80.5437C103.514 81.5344 104.529 82.336 105.68 82.892C107.998 84.0012 111.522 83.926 112.082 83.55C112.257 83.4323 112.469 83.3856 112.677 83.4193C114.719 83.8257 116.832 83.6824 118.8 83.0039C121.479 81.9435 122.645 79.5804 123.01 76.735C122.491 76.8788 121.962 76.9813 121.477 77.1157C121.356 77.1578 121.224 77.1516 121.107 77.0985C120.991 77.0453 120.9 76.9493 120.853 76.8305C120.806 76.7117 120.806 76.5792 120.855 76.4609C120.903 76.3426 120.995 76.2474 121.112 76.1954C121.847 75.8091 122.815 75.3861 123.388 74.9932C122.533 73.285 121.539 71.6501 120.415 70.1052C120.265 69.873 120.133 69.6352 119.987 69.4039C119.466 68.5946 119.185 68.3887 119.483 68.0391C119.973 67.461 121.355 68.7967 121.843 69.3786C122.164 69.7621 122.675 70.4906 122.953 70.9032C122.774 68.9381 122.423 66.9924 121.905 65.0884C121.885 65.0265 121.877 64.9612 121.883 64.8964C121.888 64.8316 121.907 64.7685 121.937 64.7109C121.967 64.6533 122.009 64.6023 122.059 64.561C122.109 64.5198 122.167 64.489 122.23 64.4705C122.292 64.452 122.358 64.4462 122.422 64.4535C122.487 64.4607 122.55 64.4809 122.606 64.5127C122.663 64.5446 122.713 64.5875 122.753 64.6389C122.793 64.6903 122.822 64.7492 122.839 64.812C123.038 65.439 123.261 66.0519 123.451 66.6789C124.061 68.8383 124.467 71.0505 124.662 73.2861C124.738 74.3117 124.594 73.6894 125.099 74.9048C125.165 75.0581 125.181 75.2282 125.146 75.3911C125.11 75.554 125.023 75.7016 124.899 75.8129C124.83 75.8664 124.76 75.9181 124.689 75.9689C124.252 83.2877 119.457 86.0918 112.67 85.101C111.089 85.7233 107.406 85.5531 104.967 84.3781C103.696 83.7703 102.566 82.9026 101.651 81.831C100.736 80.7595 100.056 79.508 99.6544 78.1572C97.7258 78.1106 95.8729 77.3978 94.4102 76.14C92.4897 74.1575 92.0404 70.6118 94.2823 68.9255ZM113.261 44.1104C113.283 44.1706 113.316 44.2259 113.359 44.2732C113.402 44.3206 113.454 44.3589 113.512 44.3862C113.57 44.4134 113.632 44.429 113.696 44.432C113.76 44.435 113.824 44.4254 113.884 44.4037C114.139 44.3727 114.37 44.3736 114.613 44.3567C117.002 44.1922 118.233 44.2693 120.243 45.902C120.869 46.4014 121.458 46.9442 122.008 47.5264C122.043 47.5833 122.09 47.6325 122.145 47.6708C122.2 47.7092 122.262 47.736 122.328 47.7496C122.394 47.7631 122.461 47.7632 122.527 47.7498C122.593 47.7363 122.655 47.7097 122.71 47.6714C122.766 47.6332 122.812 47.5841 122.848 47.5273C122.884 47.4704 122.907 47.4069 122.918 47.3406C122.928 47.2742 122.925 47.2065 122.908 47.1415C122.891 47.0765 122.862 47.0156 122.821 46.9624C122.42 46.157 121.904 45.4145 121.289 44.7581C120.058 43.4979 118.398 42.7474 116.639 42.6562C115.545 42.5615 114.452 42.8565 113.553 43.4891C113.432 43.5328 113.333 43.6228 113.279 43.7393C113.224 43.8558 113.217 43.9892 113.261 44.1104Z" fill="#191919"/>
<path d="M65.683 154.464C65.6454 153.398 65.7629 152.317 65.683 151.257C65.6144 150.342 65.9622 150.12 66.8138 150.122C95.1392 150.182 95.8189 149.742 95.8226 150.735C95.8245 151.283 95.2765 151.221 94.8855 151.234C67.6062 152.135 66.5675 150.289 66.5506 151.922C66.5375 153.193 66.5243 152.496 88.126 153.081C88.5509 153.092 89.3565 152.854 89.3377 153.504C89.3207 154.106 88.5349 153.875 88.0931 153.874C66.5544 153.802 66.6568 153.288 66.5656 154.397C66.481 155.424 64.8699 155.092 90.3585 155.351C91.2806 155.361 92.2328 155.567 93.1202 155.304C100.56 153.091 97.7327 143.953 92.168 144.082C84.3971 144.261 76.6225 144.228 68.8498 144.29C68.1899 144.296 67.3402 144.101 66.921 144.43C66.4848 144.774 66.8298 145.675 66.7085 146.318C66.451 147.682 66.6023 147.261 77.6509 147.166C80.0525 147.145 89.3424 146.985 90.8708 147.215C91.7168 147.342 91.7685 148.045 90.9262 148.193C90.5145 148.266 82.5557 148.437 81.6157 148.449C65.7159 148.668 65.6181 149.069 65.6792 147.588C65.7093 146.867 65.6285 146.138 65.6905 145.422C65.761 144.606 65.5693 144.153 64.6415 144.295C63.8106 144.422 63.6301 143.422 64.1978 143.021C64.2166 143.007 135.49 141.437 136.949 142.607C141.098 145.934 140.999 152.651 137.491 156.4C135.392 158.643 135.823 156.543 64.2608 156.404C63.8021 156.404 63.4308 156.332 63.4242 155.785C63.4064 154.215 65.7366 155.924 65.6849 154.464H65.683ZM135.624 155.886C138.006 155.843 140.638 148.213 136.552 144.032C136.002 143.469 136.379 143.609 128.753 143.609C130.726 147.75 130.453 151.725 128.848 155.899C131.185 155.899 133.406 155.926 135.625 155.886H135.624ZM124.063 155.731C127.508 155.67 127.576 155.93 127.815 155.308C129.256 151.559 129.168 147.876 127.409 144.248C127.073 143.555 126.933 143.751 123.236 143.751C124.196 145.372 124.753 146.947 124.921 148.665C125.477 154.382 122.362 155.76 124.063 155.73V155.731ZM120.115 155.697C122.148 155.718 122.347 155.648 123.029 153.72C124.181 150.471 123.701 147.371 122.062 144.399C121.634 143.622 121.434 143.785 119.479 143.785C121.49 147.569 121.19 151.245 119.654 154.913C119.408 155.502 119.382 155.689 120.115 155.696V155.697ZM118.354 155.017C119.903 151.5 120.089 147.998 118.328 144.497C118.123 144.089 117.901 143.765 117.299 143.776C96.3048 144.169 96.7898 143.992 96.286 144.184C99.6352 147.469 99.7781 152.469 96.02 155.57C118.367 155.57 117.857 156.145 118.354 155.017Z" fill="#191919"/>
<path d="M65.712 137.921C65.6744 137.028 65.7909 136.123 65.712 135.236C65.6433 134.47 65.9911 134.285 66.8427 134.287C95.1682 134.343 95.8478 133.971 95.8516 134.8C95.8534 135.258 95.3054 135.206 94.9144 135.217C67.6351 135.98 66.5965 134.426 66.5796 135.793C66.5664 136.857 66.5532 136.273 88.155 136.762C88.5798 136.772 89.3854 136.571 89.3666 137.117C89.3497 137.62 88.5639 137.427 88.1221 137.426C66.5833 137.358 66.6858 136.934 66.5946 137.864C66.51 138.723 64.8989 138.45 90.3874 138.663C91.3096 138.67 92.2618 138.843 93.1491 138.623C100.589 136.774 97.7616 129.121 92.1969 129.229C77.6432 129.511 67.3748 129.241 66.9499 129.522C66.5137 129.808 66.8587 130.563 66.7375 131.102C66.4799 132.244 66.6313 131.89 77.6798 131.811C80.0815 131.794 89.3713 131.659 90.8997 131.851C91.7457 131.957 91.7974 132.545 90.9552 132.671C90.5435 132.732 82.5846 132.874 81.6447 132.885C65.7449 133.071 65.6471 133.405 65.7082 132.164C65.7383 131.56 65.6574 130.95 65.7195 130.351C65.79 129.668 65.5982 129.289 64.6705 129.408C63.8395 129.514 63.6619 128.679 64.2268 128.342C64.2456 128.331 135.519 127.017 136.978 127.997C141.127 130.785 141.029 136.404 137.52 139.545C135.422 141.422 135.852 139.664 64.2898 139.546C63.8311 139.546 63.4598 139.485 63.4532 139.029C63.4353 137.714 65.7655 139.144 65.7138 137.923L65.712 137.921ZM135.653 139.11C138.035 139.074 140.665 132.691 136.581 129.189C136.03 128.717 136.408 128.834 128.782 128.834C130.755 132.302 130.481 135.629 128.877 139.123C131.214 139.123 133.435 139.145 135.654 139.111L135.653 139.11ZM124.092 138.982C127.536 138.931 127.605 139.148 127.844 138.627C129.284 135.49 129.196 132.406 127.438 129.369C127.102 128.789 126.962 128.954 123.265 128.954C124.225 130.312 124.782 131.63 124.95 133.068C125.506 137.854 122.391 139.007 124.092 138.982V138.982ZM120.144 138.955C122.177 138.974 122.376 138.912 123.058 137.299C124.21 134.58 123.73 131.982 122.091 129.498C121.663 128.848 121.463 128.984 119.508 128.984C121.519 132.152 121.22 135.229 119.683 138.299C119.437 138.791 119.411 138.949 120.144 138.955ZM118.385 138.385C119.934 135.441 120.119 132.51 118.359 129.578C118.154 129.237 117.932 128.965 117.33 128.975C96.3356 129.303 96.8207 129.157 96.3168 129.316C99.666 132.066 99.8089 136.25 96.0508 138.847C118.398 138.847 117.888 139.328 118.385 138.385Z" fill="#191919"/>
<path d="M74.4057 106.312C72.1676 107.315 73.728 108.876 73.0418 109.76C72.632 110.289 70.6214 108.89 67.6303 110.261C62.7236 112.511 65.0586 119.135 72.7288 120.723C76.3289 121.469 76.4446 120.017 77.4438 121.07C88.8805 133.121 107.799 123.791 106.541 108.689C106.414 107.164 106.052 106.731 104.39 106.282C98.9487 104.811 79.4516 104.05 74.4048 106.311L74.4057 106.312ZM74.5674 109.197C81.8128 111.357 97.7455 111.674 105.513 109.462C105.444 118.187 98.1723 125.455 89.0319 124.896C80.1988 124.355 74.3456 116.924 74.5674 109.196V109.197ZM73.5372 119.426C71.5567 119.365 67.7704 117.866 66.5625 115.099C65.2794 112.162 68.6587 110.391 72.1564 110.976C74.0833 111.298 72.3566 112.504 75.1286 117.834C75.513 118.573 77.2304 120.007 73.5372 119.425V119.426Z" fill="#191919"/>
<path d="M84.2428 61.476C84.0284 61.2485 83.6543 61.4628 83.7418 61.7627C85.101 66.394 91.1676 70.0289 89.6138 79.1552C88.6297 84.9342 84.9966 90.8204 87.3795 97.6277C87.7057 98.5611 89.3187 102.014 90.1449 101.472C90.6628 101.134 89.4371 99.2548 88.7152 96.4368C86.3201 87.0868 96.3836 78.0526 89.4738 67.9459C86.5147 63.6173 85.8238 63.1539 84.2428 61.476Z" fill="#AFA69C"/>
<path d="M81.5626 78.6092C83.3692 84.3845 78.4653 88.4979 80.4891 96.029C81.5306 99.9055 84.4455 101.171 83.717 99.631C82.2826 96.5986 81.5259 96.1371 82.073 90.5705C82.4715 86.5136 85.7775 81.7196 81.9498 76.3768C81.2702 75.4274 80.6696 75.7564 81.5626 78.6102V78.6092Z" fill="#AFA69C"/>
<path d="M94.7009 79.7051C93.2712 81.5832 92.1808 86.5482 93.9875 91.7566C94.6483 93.661 94.1792 95.2411 93.1471 96.9265C92.6029 97.8129 93.29 98.4888 94.1463 97.7819C95.5328 96.636 96.5085 93.9421 95.7509 91.5047C93.8183 85.2867 95.1841 81.0652 94.7 79.7051H94.7009Z" fill="#AFA69C"/>
</svg>
