<svg width="194" height="195" viewBox="0 0 194 195" fill="none" xmlns="http://www.w3.org/2000/svg">
<path d="M69.6751 74.6893C69.4685 73.1499 68.4742 73.177 68.2783 73.7057C68.2475 73.9409 68.2655 74.18 68.3313 74.408C68.397 74.636 68.5091 74.848 68.6605 75.0307C68.9001 75.3954 69.743 75.2101 69.6751 74.6893Z" fill="#2A2929"/>
<path d="M61.6761 161.071C62.5095 163.854 64.2791 166.263 66.6852 167.891C67.047 168.149 67.7813 168.419 67.9365 168.833C68.0809 169.595 68.1745 170.366 68.2169 171.141C68.1927 171.803 68.354 172.459 68.6825 173.034C68.7311 173.083 68.7903 173.119 68.8555 173.141C68.9207 173.163 68.9901 173.17 69.0582 173.16C69.1263 173.151 69.1914 173.126 69.2482 173.087C69.305 173.048 69.3521 172.997 69.3857 172.937C69.5718 172.266 69.5681 171.557 69.375 170.888C69.2829 170.142 69.2169 169.399 69.0957 168.663C68.9143 167.556 67.6184 167.16 66.8191 166.542C64.9031 164.987 63.3344 163.048 62.2145 160.85C62.1852 160.778 62.1287 160.722 62.0574 160.692C61.9862 160.662 61.9061 160.662 61.8347 160.691C61.7633 160.721 61.7065 160.777 61.6768 160.848C61.647 160.92 61.6468 161 61.6761 161.071Z" fill="#2A2929"/>
<path d="M72.4811 78.0318C72.5971 78.0062 72.7002 77.9402 72.7721 77.8456C73.2997 77.1006 73.7653 76.4692 73.1135 75.6515C72.4278 74.7642 71.6507 73.9514 70.7952 73.2264C70.7713 73.2063 70.7431 73.192 70.7127 73.1847C70.1576 71.7909 69.4967 70.4416 68.7359 69.1485C68.709 69.1012 68.6698 69.0619 68.6224 69.0351C68.7008 68.359 68.7351 67.6786 68.7252 66.998C68.7276 66.9188 68.7132 66.84 68.683 66.7668C68.6527 66.6936 68.6073 66.6276 68.5496 66.5732C68.57 64.4004 66.8521 63.2616 65.0411 62.0413C63.8593 61.2621 62.5141 60.7649 61.1096 60.5882C59.7051 60.4114 58.2787 60.5598 56.9406 61.0218C51.5571 62.7106 49.1806 64.2636 46.9234 74.3206C44.8311 83.6559 47.453 92.4781 44.3878 102.076C43.8553 103.743 43.2189 103.531 45.6488 105.822C52.4543 112.245 60.3085 111.053 68.0743 105.698C68.1871 105.63 68.2749 105.527 68.3252 105.405C68.3754 105.282 68.3854 105.147 68.3537 105.019C64.0508 94.293 66.9579 87.3778 63.7161 81.8401C63.662 81.7514 63.5859 81.6781 63.4953 81.6272C63.4047 81.5764 63.3025 81.5496 63.1986 81.5496C63.0947 81.5496 62.9925 81.5764 62.9019 81.6272C62.8113 81.6781 62.7352 81.7514 62.6811 81.8401C61.6626 83.2107 59.8041 82.1505 59.3831 80.8468C59.1518 80.126 59.1303 79.3542 59.321 78.6216C59.7362 77.9911 60.776 78.2414 61.2465 78.6012C61.3632 78.6657 61.4974 78.691 61.6296 78.6735C61.7617 78.6561 61.8848 78.5968 61.9808 78.5042C64.8151 76.0918 67.4584 74.5971 68.4177 70.2767C70.1501 74.889 73.6499 82.1505 71.5334 84.4135C71.0509 84.8355 70.4701 85.1296 69.8444 85.2687C69.2186 85.4079 68.568 85.3876 67.9521 85.2099C67.608 85.0606 67.2402 84.9729 66.8657 84.9509C66.7934 84.9521 66.7226 84.972 66.6601 85.0086C66.5977 85.0451 66.5457 85.0972 66.5093 85.1597C66.4728 85.2222 66.4531 85.293 66.452 85.3653C66.4509 85.4377 66.4684 85.5091 66.5029 85.5727C66.6969 85.8084 66.938 86.0011 67.2108 86.1382C67.4836 86.2754 67.782 86.354 68.0869 86.369C67.6524 87.5486 67.5903 89.6671 68.5108 90.6225C68.5807 90.6896 68.6705 90.732 68.7667 90.7432C68.8629 90.7544 68.9601 90.7337 69.0435 90.6845C69.1269 90.6352 69.1918 90.56 69.2284 90.4703C69.265 90.3807 69.2712 90.2815 69.2461 90.1879C68.9929 89.555 68.8123 88.8954 68.7077 88.2217C68.666 87.6213 68.7281 87.0209 68.6563 86.4204C68.7077 86.4204 68.7592 86.4301 68.8115 86.4311C69.7224 86.4556 70.6243 86.2455 71.4305 85.821C74.0001 84.4203 73.3482 80.8293 72.4811 78.0318ZM52.7977 65.1783C49.3532 70.655 50.4299 75.7679 49.7345 78.5285C49.7205 78.5725 49.6929 78.6109 49.6557 78.6381C49.6184 78.6653 49.5735 78.68 49.5274 78.68C49.4812 78.68 49.4363 78.6653 49.399 78.6381C49.3618 78.6109 49.3342 78.5725 49.3203 78.5285C49.012 77.1949 48.9557 75.8155 49.1544 74.4613C49.3658 71.6647 49.8082 68.3396 51.3388 66.0067C51.6346 65.5747 52.002 65.1965 52.4252 64.8883C52.6212 64.7321 52.9539 64.931 52.7977 65.1783ZM65.0615 71.0672C64.7096 71.7296 64.2189 72.3083 63.623 72.7638C63.5729 72.7911 63.5167 72.8053 63.4597 72.805C63.4026 72.8046 63.3466 72.7898 63.2968 72.7619C63.2471 72.734 63.2052 72.6938 63.1752 72.6453C63.1452 72.5968 63.1281 72.5414 63.1254 72.4844C63.0449 71.2573 65.0954 69.3746 65.6202 66.7934C65.718 66.0835 65.7628 65.3672 65.7541 64.6506C65.7568 64.5702 65.7852 64.4928 65.8353 64.4298C65.8853 64.3669 65.9542 64.3216 66.0319 64.3007C66.1096 64.2799 66.1919 64.2845 66.2668 64.314C66.3416 64.3434 66.405 64.3962 66.4476 64.4644C67.7018 66.2783 66.3274 69.2746 65.0615 71.0672ZM72.191 77.1317C71.9534 76.4527 71.3947 74.9065 71.3529 74.8134C72.3065 76.1132 72.8826 76.1888 72.191 77.1317Z" fill="#2A2929"/>
<path d="M69.1991 92.7587C70.4601 92.0603 70.9005 91.2445 72.8628 91.0815C75.9043 90.9621 78.9427 91.3862 81.8353 92.3338C89.0997 94.3708 99.4623 97.9792 104.54 103.511C104.883 103.883 105.159 103.596 104.841 103.22C103.224 101.316 101.912 100.571 99.9143 98.9521C97.5489 97.2158 94.9852 95.7671 92.2774 94.6366C89.5652 93.5078 86.7822 92.5575 83.9461 91.7916C81.076 90.8336 78.1026 90.2186 75.088 89.9592C73.548 89.7712 71.9854 89.974 70.5445 90.549C69.1467 91.2513 68.1457 92.5239 66.4259 92.2155C66.3592 92.1995 66.2892 92.2054 66.2261 92.2322C66.163 92.259 66.1102 92.3054 66.0754 92.3645C66.0407 92.4235 66.0258 92.4922 66.033 92.5604C66.0402 92.6286 66.0691 92.6926 66.1155 92.7431C66.9749 93.6268 68.2543 93.2815 69.1991 92.7587Z" fill="#2A2929"/>
<path d="M123.686 65.81C125.044 64.1193 127.055 57.9171 127.794 52.6257C127.864 52.1184 128.111 51.4297 127.649 51.0737C127.591 51.0216 127.518 50.9886 127.44 50.9794C127.362 50.9702 127.283 50.9852 127.214 51.0223C126.677 51.2532 126.74 51.9438 126.665 52.4404C125.473 60.4333 123.501 63.4597 123.209 65.552C123.199 65.7751 123.487 66.0574 123.686 65.81Z" fill="#2A2929"/>
<path d="M127.732 58.9384C127.735 58.9922 127.753 59.0441 127.784 59.0881C127.815 59.132 127.858 59.1661 127.908 59.1865C127.958 59.2068 128.013 59.2125 128.066 59.2029C128.119 59.1934 128.168 59.1689 128.208 59.1324C128.548 58.8511 128.924 58.5921 129.243 59.0596C129.691 59.7163 129.451 61.9958 129.305 62.8165C128.801 65.6566 127.89 66.2862 128.301 67.0282C128.329 67.0748 128.371 67.1111 128.422 67.1315C128.472 67.152 128.528 67.1556 128.58 67.1417C129.034 67.0117 129.158 66.582 129.316 66.1717C130.042 64.4184 130.422 62.5406 130.433 60.6427C130.412 59.7629 130.367 58.5814 129.491 58.0867C128.834 57.7181 127.688 58.0683 127.732 58.9384Z" fill="#2A2929"/>
<path d="M131.385 64.1541C131.293 64.8046 131.155 65.4477 130.972 66.0786C130.686 66.6999 130.504 67.3642 130.434 68.0448C130.443 68.2524 130.702 68.4599 130.899 68.3144C131.707 67.7159 131.935 66.421 132.141 65.5014C132.381 64.4244 132.503 63.3243 132.504 62.2209C132.504 61.4759 132.637 60.2954 131.944 59.7784C131.824 59.6816 131.68 59.6192 131.528 59.5981C131.375 59.577 131.22 59.5979 131.078 59.6585C130.936 59.7192 130.814 59.8173 130.724 59.9424C130.634 60.0674 130.58 60.2146 130.567 60.3682C130.569 60.4226 130.587 60.4753 130.618 60.5201C130.649 60.5648 130.692 60.5995 130.743 60.62C130.793 60.6406 130.848 60.646 130.902 60.6358C130.955 60.6255 131.005 60.5999 131.044 60.5622C131.774 59.8579 131.521 63.2132 131.385 64.1541Z" fill="#2A2929"/>
<path d="M133.786 61.5672C133.454 61.2267 132.79 61.1249 132.566 61.6293C132.505 61.7641 132.576 61.9795 132.76 61.9601C133.546 61.8805 133.268 63.4917 133.225 63.9786C132.8 68.9111 130.426 70.6843 128.341 73.9231C127.662 74.9804 126.799 76.0135 127.006 77.3181C126.211 76.8641 125.348 76.5424 124.45 76.3656C123.456 76.1501 122.445 76.0254 121.428 75.9931C122.047 75.3743 119.823 71.1615 119.254 68.5241C119.074 67.9616 119.021 67.3659 119.1 66.7804C119.178 66.1948 119.387 65.6343 119.71 65.1397C120.447 64.2522 121.665 64.1765 122.463 63.4122C122.508 63.3645 122.537 63.305 122.549 63.2408C122.56 63.1766 122.553 63.1105 122.528 63.0503C122.503 62.9902 122.461 62.9386 122.407 62.9018C122.353 62.865 122.29 62.8445 122.225 62.8428C121.629 62.8464 121.041 62.9723 120.497 63.2126C119.952 63.4529 119.462 63.8024 119.058 64.2396C116.73 66.6423 118.843 71.0112 120.072 73.895C120.302 74.6149 120.615 75.3059 121.003 75.9543C121.146 76.1425 121.266 75.9446 120.766 76.1726C120.721 76.1112 120.664 76.0602 120.597 76.0231C120.531 75.986 120.458 75.9637 120.382 75.9577C120.306 75.9517 120.23 75.9622 120.159 75.9884C120.088 76.0146 120.023 76.0559 119.969 76.1095C116.477 79.6015 113.61 83.692 110.634 87.6177C103.281 97.3177 102.434 98.5157 101.372 100.358C101.347 100.405 101.34 100.459 101.351 100.511C101.362 100.563 101.392 100.609 101.434 100.641C101.476 100.673 101.528 100.689 101.581 100.687C101.634 100.684 101.685 100.663 101.724 100.626C106.251 95.9034 115.308 82.2933 120.745 76.8758C120.8 76.824 120.843 76.7603 120.869 76.6896C122.093 77.0184 125.022 77.1678 126.851 78.521C126.949 78.5912 127.057 78.647 127.172 78.6868C126.158 83.3749 125.135 88.0318 123.705 92.6161C121.582 99.4751 118.777 106.104 115.333 112.404C114.352 114.226 113.006 115.825 111.379 117.103C107.373 119.998 101.817 119.027 97.2838 118.267C78.4783 115.133 84.729 115.785 80.4261 114.884C79.9295 114.78 79.7646 115.118 80.2321 115.318C81.561 115.888 82.5184 116.242 83.8027 116.766C84.7172 117.153 85.6717 117.438 86.6487 117.615C86.2655 119.178 86.1229 120.824 85.831 122.396C84.9073 127.431 83.6382 132.397 82.0324 137.258C78.4171 136.296 74.6751 135.898 70.9385 136.078C66.1863 136.294 61.4658 136.966 56.8424 138.086C51.1902 127.707 49.9214 121.381 47.3528 114.284C47.2403 113.973 46.927 114.005 46.9648 114.388C47.1308 115.724 47.3973 117.045 47.7622 118.341C45.731 119.506 43.8387 120.898 42.1216 122.49C41.5123 122.963 40.9965 123.546 40.6006 124.208C40.5755 124.254 40.5661 124.308 40.5736 124.36C40.5811 124.412 40.6053 124.46 40.6424 124.497C40.6796 124.535 40.7278 124.559 40.7798 124.567C40.8319 124.574 40.8851 124.565 40.9314 124.54C41.8597 124.076 43.2449 122.296 48.0212 119.272C49.4742 124.332 51.3433 129.264 53.6094 134.016C53.2439 133.986 52.8763 133.993 52.5123 134.037C51.944 134.031 51.3761 134.072 50.8148 134.161C50.8223 134.118 50.8207 134.073 50.81 134.031C50.7993 133.988 50.7798 133.948 50.7527 133.913C49.1823 132.02 40.6996 124.706 38.5617 123.077C37.2374 121.966 35.7893 121.011 34.2461 120.232C33.6777 119.982 33.7427 120.123 34.2772 120.48C34.8116 120.837 35.2472 121.272 36.4296 122.115C37.1319 122.615 37.8468 123.4 38.5306 123.926C39.8945 124.974 40.7248 126.141 42.0227 127.269C47.5177 132.058 48.4383 133.021 49.9185 134.027C48.7696 136.398 48.0979 138.972 47.9416 141.602C46.9716 140.952 41.7462 140.647 32.1393 137.152C27.5492 135.483 22.0279 133.316 19.3789 129.463C18.6814 128.528 18.1807 127.461 17.9067 126.328C17.6328 125.194 17.5915 124.017 17.7851 122.867C18.3138 120.404 19.9706 118.335 21.5109 116.409C31.4351 104.003 42.2972 98.9279 45.2101 97.0674C45.5195 96.8734 45.3255 96.306 44.9511 96.4457C33.8785 100.59 19.3721 115.005 17.0198 121.355C16.6148 122.502 16.4427 123.717 16.5136 124.931C16.5846 126.145 16.8972 127.332 17.433 128.424C19.6272 133.164 24.646 135.474 29.2312 137.303C33.7039 139.1 38.3178 140.523 43.0256 141.557C44.572 141.964 46.1577 142.203 47.7554 142.271C47.8155 142.272 47.8749 142.257 47.9276 142.228C47.9804 142.199 48.0247 142.157 48.0561 142.106C48.0895 142.131 48.1286 142.148 48.1699 142.154C48.2112 142.161 48.2536 142.158 48.2933 142.145C48.3331 142.131 48.369 142.109 48.3979 142.078C48.4269 142.048 48.4481 142.011 48.4596 141.971C48.5935 141.502 48.7176 141.04 48.8321 140.574C49.3695 140.978 49.9961 141.271 50.5393 141.681C50.8633 141.925 51.6781 142.778 52.0399 142.115C52.3619 141.526 51.3376 140.995 50.9642 140.757C50.3742 140.342 49.7101 140.043 49.0077 139.878C49.2834 138.624 49.629 137.387 50.0426 136.172C50.1988 135.708 50.4258 135.241 50.55 134.765C51.2039 134.92 51.8753 134.99 52.5472 134.972C53.0235 134.99 53.654 135.128 54.0478 134.827C55.9548 138.749 55.9121 138.134 55.6619 138.284C52.1495 140.677 49.8419 145.959 48.3044 149.947C46.3162 154.961 44.9099 160.187 44.113 165.522C43.5856 168.456 43.4626 171.448 43.7473 174.416C43.821 174.943 44.5883 174.768 44.6271 174.302C44.8395 171.736 44.7629 169.18 45.0723 166.613C46.0815 159.106 48.3008 151.812 51.6441 145.015C52.8627 142.775 54.3426 140.687 56.0528 138.795C56.0651 138.783 56.0756 138.769 56.0838 138.753C56.0944 138.765 56.1015 138.78 56.1042 138.795C56.1463 138.869 56.2061 138.93 56.2783 138.974C56.3505 139.019 56.4326 139.044 56.5172 139.048C56.6017 139.052 56.6859 139.035 56.7621 138.998C56.8383 138.961 56.9039 138.906 56.953 138.837C60.251 138.724 70.0277 135.958 79.3067 137.78C81.9054 138.292 81.9325 138.578 82.4835 138.443C82.4835 138.857 85.0821 145.967 86.3742 150.769C89.1261 160.989 89.2493 167.111 89.8099 170.763C89.8914 171.29 90.7188 171.146 90.7208 170.638C90.7528 164.056 87.4829 146.962 83.0529 138.267C83.0259 138.22 82.9863 138.18 82.9384 138.153C83.087 137.916 83.1989 137.658 83.2702 137.388C86.0541 129.52 87.5081 120.291 87.4926 117.794L95.6164 119.19C100.356 120.008 105.873 121.201 110.446 119.066C114.432 117.206 116.54 112.949 118.363 109.193C122.819 100.007 126.741 88.4431 128.101 78.5811C128.111 78.5194 128.103 78.456 128.077 78.399C128.052 78.3419 128.01 78.2939 127.956 78.261C127.954 78.1616 127.927 78.0642 127.878 77.9775C127.83 77.8908 127.761 77.8173 127.677 77.7634C127.728 77.7416 127.772 77.7075 127.806 77.6641C127.84 77.6207 127.862 77.5694 127.871 77.5151C128.343 74.6303 131.66 71.7717 132.91 69.0605C133.689 67.4042 134.136 65.611 134.225 63.7827C134.169 63.1085 134.292 62.0891 133.786 61.5672Z" fill="#2A2929"/>
<path d="M41.5806 40.4977C38.9315 39.9564 26.2545 37.1929 25.4844 37.0057C25.2089 36.9397 25.5814 37.7138 21.4346 26.8633C20.7075 24.7219 19.7432 22.6685 18.5595 20.7416C18.4537 20.5757 18.307 20.4399 18.1334 20.3473C17.9599 20.2546 17.7654 20.2081 17.5688 20.2124C17.3721 20.2167 17.1798 20.2716 17.0105 20.3717C16.8412 20.4719 16.7005 20.614 16.602 20.7843C13.7887 25.7407 11.7059 31.0774 10.4182 36.6293C10.3634 36.8664 10.402 37.1156 10.526 37.325C10.65 37.5344 10.85 37.688 11.0843 37.754C11.3186 37.8199 11.5693 37.793 11.7843 37.6789C11.9993 37.5649 12.1621 37.3724 12.2389 37.1415C13.7059 32.5385 15.5105 28.0501 17.638 23.7127C19.1667 26.7605 22.8295 37.5838 23.5958 38.4839C24.3621 39.3841 25.819 39.3987 26.7231 39.5849C28.5729 39.9632 36.9779 41.8469 38.788 42.2369C35.2504 45.0189 34.8187 45.0761 29.5914 49.2209C27.7018 50.7196 27.4903 51.4675 28.0161 53.8769C28.8091 58.328 29.3686 62.8175 29.6922 67.327C26.209 64.5245 22.871 61.5459 19.6915 58.403C19.4819 58.2009 19.2041 58.0847 18.913 58.0773C18.622 58.07 18.3387 58.172 18.1191 58.3632C13.8104 61.7233 9.37356 64.9893 5.20932 68.5027C4.20925 69.3446 5.47608 71.0198 6.55084 70.239C10.7219 67.2261 14.7319 63.9165 18.7962 60.7106C22.4216 64.2473 26.243 67.5774 30.2422 70.6852C30.4096 70.8319 30.6157 70.9273 30.8359 70.9598C31.0561 70.9923 31.2809 70.9605 31.4835 70.8683C31.6861 70.7762 31.8578 70.6275 31.9779 70.4401C32.0981 70.2528 32.1616 70.0347 32.1609 69.8122C31.8263 64.0453 31.1536 58.303 30.1462 52.615C30.0172 51.9486 29.9629 51.9069 30.9348 51.127C36.0603 47.0103 39.2516 45.0266 42.1102 42.4474C42.2553 42.3024 42.3594 42.1217 42.4122 41.9236C42.4649 41.7254 42.4644 41.5169 42.4106 41.319C42.3569 41.1211 42.2518 40.9409 42.1061 40.7967C41.9603 40.6525 41.7791 40.5493 41.5806 40.4977Z" fill="#CB7428"/>
<path d="M188.792 68.4815C184.612 64.9546 180.129 61.6536 175.883 58.3382C175.664 58.1471 175.381 58.0451 175.09 58.0522C174.799 58.0594 174.522 58.1753 174.312 58.377C171.138 61.5278 167.799 64.5089 164.31 67.3078C164.622 63.2503 165.259 57.6417 165.886 54.4504C166.371 51.9691 166.588 51.0612 164.806 49.5451C161.457 46.6894 158.501 44.8173 155.221 42.2274C157.039 41.8393 168.289 39.3823 168.42 39.359C169.994 39.0874 170.575 38.8178 171.302 36.6149C171.34 36.4995 175.389 25.6461 176.363 23.7032C178.483 28.0462 180.287 32.5364 181.762 37.1387C181.839 37.3689 182.001 37.5608 182.215 37.6747C182.43 37.7885 182.68 37.8157 182.913 37.7506C183.147 37.6855 183.347 37.533 183.472 37.3247C183.596 37.1165 183.636 36.8682 183.583 36.6314C182.296 31.0764 180.212 25.7367 177.398 20.7776C177.298 20.6079 177.157 20.4665 176.988 20.367C176.818 20.2676 176.626 20.2134 176.429 20.2097C176.233 20.206 176.038 20.2529 175.865 20.3459C175.692 20.4389 175.546 20.5749 175.44 20.7408C174.281 22.6231 173.338 24.6297 172.627 26.7228C172.627 26.7228 169.075 36.1105 168.753 36.8176C168.677 36.9816 168.569 37.0175 168.171 37.0863C168.171 37.0863 154.853 40.0012 152.403 40.5075C152.207 40.5575 152.028 40.659 151.884 40.8016C151.74 40.9441 151.637 41.1226 151.585 41.3184C151.533 41.5143 151.534 41.7204 151.589 41.9155C151.643 42.1106 151.749 42.2876 151.895 42.4281C155.399 45.4352 163.805 51.26 163.901 51.9904C163.993 52.6297 162.428 58.7989 161.817 69.7735C161.814 69.9974 161.875 70.2175 161.994 70.407C162.114 70.5964 162.286 70.747 162.489 70.8403C162.693 70.9336 162.919 70.9657 163.14 70.9324C163.362 70.8992 163.569 70.8023 163.736 70.6533C167.738 67.5492 171.559 64.2196 175.182 60.6807C179.209 63.8546 183.24 67.172 187.431 70.212C187.663 70.3529 187.938 70.404 188.205 70.3558C188.472 70.3076 188.711 70.1632 188.879 69.9502C189.047 69.7371 189.13 69.47 189.114 69.1993C189.098 68.9287 188.984 68.6734 188.792 68.4815Z" fill="#2A2929"/>
<path d="M147.241 40.8459C141.436 39.4229 135.267 39.6557 129.679 37.3888C129.679 37.285 125.322 23.9901 124.142 20.5514C124.131 20.5156 124.11 20.4837 124.081 20.4597C124.052 20.4357 124.017 20.4206 123.98 20.4161C123.942 20.4117 123.904 20.4182 123.871 20.4348C123.837 20.4514 123.809 20.4774 123.79 20.5097C115.725 37.9766 117.041 36.8291 116.526 37.317C116.29 37.4677 116.026 37.5668 115.75 37.608C110.311 39.256 104.75 40.4707 99.1188 41.2407C99.0868 41.2502 99.0579 41.2679 99.0348 41.2919C99.0116 41.3159 98.9951 41.3454 98.9867 41.3777C98.9783 41.41 98.9784 41.4439 98.9869 41.4761C98.9954 41.5083 99.0121 41.5378 99.0354 41.5617C103.211 45.5795 107.699 49.2584 112.458 52.5635C111.382 57.852 110.448 63.1773 109.548 68.5007C109.539 68.5412 109.543 68.5836 109.559 68.6218C109.576 68.66 109.604 68.6919 109.64 68.7127C109.676 68.7336 109.718 68.7424 109.759 68.7377C109.8 68.7331 109.839 68.7153 109.869 68.6869C113.97 64.5392 119.7 62.3741 123.457 57.8617L124.233 58.7618C125.427 52.1047 125.688 50.2404 126.873 49.6865C128.198 49.0657 128.767 50.607 128.828 51.6323C128.917 53.3884 128.782 55.1486 128.425 56.8703C128.675 56.7341 128.957 56.6637 129.242 56.6655C129.527 56.6674 129.808 56.7415 130.057 56.881C130.306 57.0204 130.515 57.2207 130.666 57.4631C130.817 57.7055 130.904 57.9821 130.918 58.2671C131.085 58.1868 131.267 58.1408 131.452 58.132C131.637 58.1232 131.821 58.1516 131.995 58.2157C132.314 58.3794 132.585 58.6225 132.783 58.9215C132.98 59.2206 133.098 59.5654 133.123 59.9229C133.353 59.8119 133.614 59.7811 133.863 59.8357C134.113 59.8902 134.337 60.0268 134.5 60.2236C135.186 61.0171 135.04 62.5002 135.048 63.4732C135.059 65.2164 134.875 66.9555 134.5 68.6578L134.748 68.9061C134.775 68.9297 134.809 68.9451 134.844 68.9507C134.88 68.9563 134.917 68.9519 134.95 68.9378C134.983 68.9238 135.012 68.9008 135.033 68.8714C135.054 68.842 135.066 68.8073 135.068 68.7713C135.61 64.6003 136.135 60.4293 136.351 56.2292C136.558 52.1251 136.246 52.1076 136.828 51.5819C140.493 48.2868 143.989 44.8088 147.304 41.1611C147.33 41.1405 147.35 41.113 147.361 41.0818C147.373 41.0506 147.375 41.0168 147.369 40.9842C147.362 40.9515 147.347 40.9214 147.324 40.897C147.302 40.8725 147.273 40.8549 147.241 40.8459Z" fill="#CB7428"/>
<path d="M93.8491 38.8206C87.9932 37.6246 81.8133 38.3851 76.0913 36.4606C76.0913 36.3636 73.3481 29.7394 69.5088 20.0064C69.4971 19.9661 69.4725 19.9307 69.439 19.9055C69.4054 19.8803 69.3645 19.8667 69.3226 19.8667C69.2806 19.8667 69.2397 19.8803 69.2062 19.9055C69.1726 19.9307 69.1481 19.9661 69.1363 20.0064C63.1116 35.0541 63.4812 36.9087 62.7818 37.3093C62.4326 37.5101 57.7378 39.1679 53.561 40.3416C51.0157 41.0564 48.4306 41.6268 45.8407 42.1846C45.8088 42.1943 45.78 42.212 45.757 42.236C45.734 42.2601 45.7175 42.2897 45.7092 42.3219C45.7009 42.3542 45.7011 42.388 45.7097 42.4202C45.7183 42.4524 45.735 42.4818 45.7582 42.5056C50.2123 46.213 54.9224 49.6015 59.8534 52.6461C59.574 54.6643 59.3086 56.6823 59.057 58.6999C61.8788 58.1819 65.4358 58.9336 67.4912 61.0599C68.8587 59.9321 70.0881 58.6466 71.1539 57.2303C74.7866 61.0706 79.205 64.0203 83.1277 67.5279C83.155 67.5517 83.1885 67.5674 83.2243 67.5731C83.2601 67.5789 83.2968 67.5745 83.3302 67.5604C83.3636 67.5464 83.3925 67.5233 83.4134 67.4937C83.4344 67.4641 83.4466 67.4292 83.4487 67.393C83.7145 63.2017 83.992 59.0006 83.9454 54.7888C83.8998 50.6556 83.5807 50.6682 84.1219 50.1211C86.9912 47.2179 90.4629 43.3505 93.919 39.0631C93.9415 39.047 93.9585 39.0243 93.9675 38.9982C93.9766 38.9721 93.9774 38.9438 93.9697 38.9172C93.9621 38.8906 93.9464 38.867 93.9248 38.8497C93.9032 38.8324 93.8768 38.8223 93.8491 38.8206Z" fill="#CB7428"/>
</svg>
