<svg width="945" height="534" viewBox="0 0 945 534" fill="none" xmlns="http://www.w3.org/2000/svg">
<path opacity="0.1" d="M-218.062 86.1379L-69.7748 0.775291L-62.6577 13.1387L-71.2525 35.3519C-75.6397 47.7402 -71.504 69.2226 -65.1025 80.3429L246.464 621.577C428.776 528.145 654.362 611.33 834.786 507.467C1001.62 411.428 887.342 292.951 815.66 334.215C755.72 368.72 826.263 444.095 772.505 475.041C708.87 511.673 681.792 393.184 793.625 328.807C919.669 256.248 1026.66 446.374 856.111 544.55C639.854 669.04 394.442 552.852 233.808 645.322L233.45 644.701L148.177 693.789L141.06 681.426L149.655 659.212C154.042 646.824 149.907 625.342 143.505 614.221L-139.254 123.029C-145.656 111.909 -161.713 94.0012 -175.072 95.1164L-210.961 98.511C-248.037 119.854 -334.135 160.36 -287.188 241.914C-268.689 274.049 -225.846 291.32 -204.83 279.222C-189.375 270.325 -185.745 245.199 -213.13 197.627C-232.334 164.266 -223.834 140.452 -205.909 130.134C-186.136 118.751 -154.802 124.577 -137.735 154.225C-108.213 205.51 -140.848 258.85 -188.423 286.237C-235.999 313.625 -295.329 314.88 -324.494 264.217C-372.863 180.193 -273.667 118.148 -218.062 86.1379Z" fill="#AFA69C"/>
</svg>
