<svg width="294" height="295" viewBox="0 0 294 295" fill="none" xmlns="http://www.w3.org/2000/svg">
<path d="M211.895 40.9677C205.268 33.0008 196.115 27.5421 185.955 25.4989C176.011 23.4659 163.851 23.2806 154.808 28.4007C154.671 28.4762 154.553 28.5815 154.462 28.7086C154.371 28.8358 154.31 28.9817 154.283 29.1357C133.537 38.2585 118.973 74.5881 139.615 101.098C141.119 100.557 142.448 100.347 144.072 99.8221C142.832 96.2559 143.109 92.4824 141.801 88.9323C140.75 86.0835 140.056 83.0773 140.419 81.5206C140.701 80.3152 143.461 80.718 144.51 81.3809C146.896 82.8877 147.436 86.8714 148.25 89.9466C148.216 89.1072 149.736 88.0356 150.593 88.0239C151.018 88.0454 151.432 88.1655 151.802 88.3747C152.172 88.584 152.489 88.8765 152.726 89.2293C153.174 89.7042 153.514 90.271 153.721 90.8904C153.686 90.5338 153.759 90.1748 153.93 89.8602C154.102 89.5456 154.364 89.2899 154.683 89.1264C155.062 88.867 155.509 88.7238 155.968 88.7144C156.428 88.705 156.88 88.8298 157.27 89.0734C158.387 89.5497 158.563 89.7041 159.42 90.9962C159.298 89.8084 159.979 89.7908 161.168 89.9481C162.293 90.152 163.294 90.7844 163.961 91.7121C168.339 96.8777 166.562 110.186 164.101 116.323C173.411 118.204 183.078 117.09 191.716 113.14C200.354 109.19 207.52 102.607 212.188 94.3346C221.494 78.3321 224.215 56.1778 211.895 40.9677ZM197.614 49.3467C195.86 53.1025 192.963 56.1293 190.411 59.3809C173.663 80.7209 178.269 86.1349 173.212 89.4454C172.861 89.6527 172.451 89.7378 172.046 89.6873C171.641 89.6367 171.264 89.4534 170.975 89.166C161.473 77.6736 154.298 71.4099 152.516 68.586C152.399 68.3785 152.353 68.1383 152.385 67.9021C152.417 67.6659 152.526 67.4468 152.694 67.2783C152.863 67.1097 153.082 67.001 153.318 66.9688C153.554 66.9366 153.795 66.9826 154.002 67.0999C158.265 69.4342 169.093 81.4089 172.268 85.0692C173.219 82.9773 173.738 74.5057 188.174 56.2983C190.418 53.135 193.122 50.3247 196.197 47.9605C197.127 47.3166 197.998 48.5191 197.614 49.3408V49.3467Z" fill="#6DA544"/>
<path d="M92.4199 140.481C91.582 139.912 90.3619 139.941 90.2149 141.354C90.0679 142.767 92.0142 144.491 93.1167 143.591C94.2192 142.692 93.2578 141.048 92.4199 140.481Z" fill="#191919"/>
<path d="M146.38 92.2193C145.895 89.3513 145.56 84.5429 142.814 82.8671C142.413 82.6216 141.735 82.9362 141.888 83.4551C142.339 85.0074 143.211 86.376 143.652 87.9474C144.673 92.353 145.397 96.822 145.82 101.324C143.985 100.953 142.078 101.281 140.473 102.245C138.868 103.209 137.681 104.738 137.147 106.533C136.976 107.424 137.012 108.343 137.251 109.219C137.491 110.095 137.927 110.904 138.527 111.585C140.14 113.816 141.935 115.909 143.894 117.843C144.188 118.124 144.795 117.83 144.541 117.424C141.189 112.057 138.661 110.621 138.492 108.054C138.473 107.143 138.709 106.245 139.173 105.46C139.638 104.676 140.312 104.037 141.12 103.616C142.674 102.756 144.232 102.952 145.874 102.62C145.892 103.371 145.886 104.123 145.857 104.874C145.855 104.984 145.894 105.09 145.968 105.172C146.042 105.253 146.143 105.303 146.253 105.312C146.362 105.321 146.471 105.288 146.556 105.219C146.642 105.151 146.698 105.052 146.714 104.944C147.37 100.717 147.257 96.406 146.38 92.2193Z" fill="#191919"/>
<path d="M149.667 93.1101C149.725 92.9267 149.836 92.7648 149.986 92.6452C150.137 92.5255 150.32 92.4535 150.511 92.4385C150.703 92.4235 150.895 92.4661 151.062 92.5609C151.229 92.6557 151.364 92.7983 151.45 92.9704C152.099 94.2653 152.659 95.6026 153.127 96.9732C153.543 98.4432 153.421 100.501 154.421 101.693C154.479 101.764 154.554 101.82 154.638 101.857C154.723 101.893 154.814 101.91 154.906 101.905C154.998 101.9 155.087 101.873 155.167 101.827C155.246 101.781 155.314 101.717 155.365 101.64C156.204 100.353 155.648 98.4403 155.26 97.0835C154.8 95.4404 154.111 93.8699 153.215 92.4177C152.617 91.4578 151.782 90.3773 150.505 90.5067C149.96 90.6104 149.471 90.909 149.13 91.3467C148.789 91.7844 148.619 92.3313 148.652 92.8851C148.63 93.4437 149.599 93.7377 149.667 93.1101Z" fill="#191919"/>
<path d="M155.591 92.8161C158.054 90.4538 158.678 96.1721 158.859 97.4305C159.487 101.852 159.006 102.205 159.82 103.216C159.873 103.278 159.939 103.326 160.013 103.358C160.087 103.391 160.168 103.406 160.249 103.402C160.33 103.399 160.408 103.377 160.48 103.339C160.551 103.301 160.612 103.247 160.66 103.181C161.561 101.97 161.061 99.9662 160.905 98.5491C160.78 96.7437 160.44 94.9597 159.891 93.2351C159.059 90.9786 156.457 89.7879 154.805 92.0826C154.446 92.575 155.136 93.2571 155.591 92.8161Z" fill="#191919"/>
<path d="M161.168 93.5303C163.226 93.9096 163.19 97.3053 163.318 98.8782C163.612 102.659 163.317 106.463 162.444 110.153C161.824 111.812 161.428 113.546 161.268 115.31C161.287 115.782 161.863 116.254 162.282 115.833C163.872 114.243 164.259 111.622 164.694 109.489C165.194 106.986 165.417 104.436 165.359 101.884C165.301 98.9444 165.495 92.0897 161.11 92.3764C160.415 92.422 160.591 93.423 161.168 93.5303Z" fill="#191919"/>
<path d="M146.432 185.036C146.521 185.108 146.54 185.126 146.432 185.036V185.036Z" fill="#191919"/>
<path d="M46.1863 251.25C48.3252 239.659 49.9172 227.73 48.1796 215.993C48.0547 215.154 46.6949 215.364 46.7096 216.186C47.1786 240.285 42.4143 256.358 38.1263 277.044C37.5912 279.632 36.4961 282.621 36.571 285.276C36.646 287.894 39.07 287.412 39.2273 285.992L39.4214 284.21C39.2317 282.887 44.0151 263.013 46.1863 251.25Z" fill="#191919"/>
<path d="M171.672 169.391C170.302 155.444 168.902 141.117 164.838 127.668C164.416 126.27 162.214 126.619 162.548 128.109C164.934 139.359 166.737 150.724 167.95 162.16C169.309 173.679 170.468 185.373 169.086 196.945C167.898 206.873 165.17 217.623 156.378 223.478C149.054 228.356 139.914 231.36 131.522 229.125C120.561 226.204 117.748 223.162 109.707 215.526C109.596 215.402 109.442 215.327 109.276 215.315C109.111 215.304 108.947 215.357 108.82 215.463C108.693 215.57 108.612 215.722 108.595 215.887C108.578 216.052 108.626 216.217 108.728 216.347C113.483 222.876 118.831 227.519 124.879 230.018C125.196 234.097 125.751 238.154 126.54 242.168C131.176 274.368 128.713 278.352 130.14 286.618C130.265 287.335 131.366 287.266 131.539 286.618C132.774 282.006 132.373 276.935 132.186 272.212C131.651 258.688 129.143 238.638 126.959 230.784C134.738 233.338 143.56 232.557 153.494 228.199C163.803 223.674 167.988 215.867 170.449 205.509C173.256 193.687 172.855 181.436 171.672 169.391Z" fill="#191919"/>
<path d="M277.461 20.3069C276.172 16.5481 273.213 12.1631 269.403 11.1473C266.763 10.6247 264.086 10.3092 261.397 10.2035C224.688 6.4771 197.992 8.25433 168.509 8.35135C168.336 8.34649 168.165 8.39525 168.02 8.491C136.168 9.46708 109.346 7.51051 74.8232 12.7907C72.2022 13.1921 69.5312 13.295 67.3424 15.081C63.8247 17.9593 62.1577 22.4751 61.4874 27.0189C58.9384 44.2723 59.8968 85.419 60.9626 104.979C61.4609 114.13 61.6976 125.549 68.6713 131.461C67.2896 132.793 66.3864 134.545 66.1017 136.443C64.5464 145.201 69.568 149.396 72.3948 155.792C73.6094 157.927 75.6105 159.501 77.9705 160.18C78.2262 162.523 77.8833 164.893 76.9738 167.067C62.4296 168.537 53.8081 172.596 42.1348 180.265C36.1238 184.012 30.4507 188.275 25.1798 193.007C15.4969 202.131 9.48171 214.298 11.9307 227.791C14.5855 242.422 26.0236 255.297 38.7435 262.419C39.8989 263.066 40.7413 261.452 39.7578 260.689C34.6951 256.759 29.5163 253.102 25.1798 248.33C14.2871 236.344 11.7587 222.83 15.0765 212.27C19.072 199.556 30.0132 191.065 41.0338 183.708C46.7701 179.578 52.9496 176.101 59.4573 173.343C72.0567 168.524 85.835 168.198 99.1194 169.374C106.968 170.07 115.744 172.799 123.276 175.195C130.741 177.57 143.762 185.595 146.524 185.91C146.524 185.91 149.221 186.605 147.625 184.722C146.422 183.302 142.503 181.209 137.504 178.883C137.661 178.834 137.803 178.745 137.916 178.626C138.029 178.507 138.11 178.36 138.151 178.201C138.439 175.775 138.457 173.325 138.204 170.895C137.83 145.86 143.238 128.796 144.829 121.078C144.855 120.979 144.851 120.874 144.817 120.777C144.782 120.681 144.719 120.596 144.636 120.536C147.607 120.693 150.597 120.536 153.568 120.64C156.47 120.745 159.652 121.503 162.518 121.081C162.662 121.05 162.793 120.974 162.89 120.863C162.988 120.752 163.047 120.612 163.059 120.465C163.071 120.318 163.035 120.171 162.956 120.045C162.878 119.92 162.761 119.824 162.623 119.77C159.848 118.64 156.261 118.878 153.306 118.826C150.172 118.67 147.03 118.858 143.937 119.385C143.812 119.413 143.7 119.483 143.62 119.583C143.541 119.683 143.497 119.807 143.497 119.935C143.497 120.063 143.541 120.188 143.62 120.288C143.7 120.388 143.812 120.458 143.937 120.486C142.528 121.291 135.824 145.917 136.212 172.017C136.229 173.287 136.137 177.182 136.823 178.554C126.72 173.904 112.352 168.689 104.538 167.752C100.569 167.276 96.5322 166.913 92.4941 166.723C91.7665 164.75 91.4455 162.65 91.5503 160.549C93.6657 160.843 95.9206 160.565 97.004 158.749C98.7871 155.759 96.6086 152.001 96.4454 148.872C96.4412 148.742 96.3912 148.619 96.3043 148.523C96.2174 148.427 96.0993 148.365 95.9711 148.349C95.8429 148.332 95.7129 148.361 95.6043 148.431C95.4957 148.502 95.4156 148.608 95.3782 148.732C94.3198 151.368 96.3073 153.959 95.8677 156.633C95.2415 160.445 91.0638 157.637 88.7544 158.521C88.6145 158.564 88.4921 158.651 88.4052 158.769C88.3183 158.887 88.2714 159.03 88.2714 159.176C88.2714 159.323 88.3183 159.465 88.4052 159.583C88.4921 159.701 88.6145 159.788 88.7544 159.832C89.3141 160.036 89.8861 160.206 90.4669 160.339C90.2112 161.79 90.2112 163.275 90.4669 164.726C90.556 165.369 90.6786 166.006 90.8344 166.637C86.8941 166.501 82.9494 166.577 79.0171 166.863C79.194 166.162 79.3226 165.449 79.4023 164.73C79.6061 163.337 79.5763 161.919 79.3141 160.536C80.549 160.875 81.8284 161.024 83.1081 160.977C86.9184 160.745 89.1351 156.17 87.4784 152.692C89.5982 152.692 91.468 150.318 89.9069 148.88C89.8284 148.807 89.7308 148.758 89.6253 148.739C89.5199 148.72 89.4111 148.731 89.3119 148.771C89.2127 148.812 89.1271 148.88 89.0653 148.967C89.0035 149.055 88.968 149.158 88.9631 149.266C88.4913 153.218 84.0651 149.092 83.5447 147.15C83.0155 145.176 84.9927 142.574 87.1462 144.231C87.6695 144.634 88.2105 143.69 88.0723 143.147C87.8944 142.449 87.7577 141.732 87.5652 141.032C87.8859 140.773 88.1839 140.486 88.456 140.177C89.954 139.382 91.3761 138.451 92.7043 137.397C93.9957 140.822 96.1171 143.873 98.8783 146.277C98.5112 146.511 98.098 146.663 97.6668 146.724C97.2355 146.784 96.7964 146.75 96.3793 146.625C96.1684 146.567 95.9428 146.595 95.7523 146.702C95.5619 146.81 95.422 146.989 95.3635 147.2C95.305 147.411 95.3327 147.637 95.4405 147.827C95.5483 148.018 95.7274 148.157 95.9383 148.216C96.7791 148.453 97.6692 148.45 98.5088 148.21C99.3484 147.969 100.104 147.499 100.692 146.853C100.844 146.7 100.929 146.492 100.929 146.276C100.929 146.06 100.844 145.853 100.692 145.699C95.5473 141.357 94.1478 136.806 93.6127 136.585C93.7877 136.428 93.9626 136.253 94.1375 136.096C102.301 136.46 110.48 136.32 118.626 135.677C124.974 135.149 131.256 135.947 137.924 135.834C138.046 135.362 138.151 134.873 138.274 134.383C131.953 134.383 128.327 134.075 122.454 133.894C117.488 133.747 115.566 134.914 95.7104 134.419C99.9381 129.274 100.06 123.1 97.6508 119.542C96.7425 118.11 95.4199 116.989 93.8589 116.327C92.2978 115.665 90.5723 115.494 88.9117 115.836C85.6057 116.718 83.7784 119.879 82.1291 122.598C78.8422 128.024 77.8499 127.877 72.9343 129.188C71.944 129.441 70.996 129.837 70.1207 130.364C65.2109 126.507 63.9967 120.104 63.3381 113.753C61.8034 98.943 61.1331 54.1786 62.5164 35.1818C62.8104 31.0922 62.9059 26.3618 64.4744 22.5266C65.3831 19.9138 67.0736 17.6438 69.3166 16.0247C70.3235 15.4162 70.766 15.2971 78.4762 14.1887C108.392 9.89044 135.018 11.2722 163.375 10.624C202.688 9.72433 231.108 8.81146 265.963 12.7217C268.654 13.023 270.58 13.4008 272.518 15.5529C275.284 18.6252 276.262 22.3693 276.958 26.4426C279.898 43.6416 281.401 95.4003 280.436 111.115C280.131 116.096 279.349 121.809 276.381 125.868C274.351 128.644 271.19 129.174 268.131 129.66C255.979 131.596 204.704 132.102 179.474 133.188C178.552 133.228 177.231 133.357 169.546 133.482C169.615 133.85 169.563 134.479 169.632 134.829C169.779 134.829 246.219 133.334 255.983 132.802C259.268 132.621 262.573 132.403 265.859 132.014C268.879 131.869 271.85 131.188 274.633 130.004C277.976 128.281 279.757 124.428 280.855 120.827C282.486 115.481 282.578 109.675 282.619 104.082C282.722 90.248 281.915 33.3046 277.461 20.3069Z" fill="#191919"/>
</svg>
