<svg width="210" height="210" viewBox="0 0 210 210" fill="none" xmlns="http://www.w3.org/2000/svg">
<g clip-path="url(#clip0_619_6079)">
<circle cx="195.86" cy="38.1802" r="75" stroke="#E6FC81" stroke-width="40"/>
<circle cx="224" cy="102.02" r="78" stroke="#DAC105" stroke-opacity="0.38" stroke-width="3"/>
<path d="M97.3687 95.346C95.4436 90.358 94.3445 89.4524 90.5152 89.0498C81.5744 88.1087 75.2093 88.986 71.7145 88.78C68.0703 88.5646 65.2657 89.0373 63.1963 89.5925C61.0421 90.1708 58.8325 90.7282 57.4334 95.963C56.693 98.7351 57.8276 97.2481 96.0532 97.2481C97.3384 97.2481 97.834 96.5538 97.3676 95.347L97.3687 95.346ZM86.3711 92.7066C83.7694 94.0002 65.661 91.1538 61.2387 95.1222C60.1585 96.0916 59.5415 95.1755 60.2725 94.1874C63.0384 90.4511 72.5364 90.7606 80.2359 91.1757C81.7574 91.2594 84.8161 91.3232 86.3826 92.1158C86.7496 92.302 86.7789 92.5038 86.3721 92.7066H86.3711Z" fill="#CB7428"/>
<path d="M30.0936 136.221C42.1422 136.221 55.8597 136.065 55.8827 136.065C79.1359 135.85 77.6521 136.434 79.5364 134.896C102.092 116.481 101.399 104.431 103.918 105.497C104.665 105.813 104.452 106.419 104.184 107.046C99.6714 117.578 90.7505 128.888 79.5406 136.49C77.468 137.895 75.1079 137.042 56.6408 137.46C30.0905 138.062 31.1833 137.42 28.9758 137.728C27.6718 137.91 27.2211 136.941 28.2292 135.955C29.7235 134.493 31.3757 133.219 32.9996 131.91C33.6312 131.402 70.146 131.581 74.5254 132.319C75.4174 132.47 74.7241 133.122 74.5411 133.124C70.5277 133.139 34.2974 132.43 33.5204 133.103C32.3942 134.077 31.2251 135.01 30.0936 136.221Z" fill="#CB7428"/>
<path d="M64.9291 125.236C64.9343 130.553 56.896 130.61 56.8155 125.292C56.7371 120.106 64.9228 119.664 64.9291 125.236Z" fill="#CB7428"/>
<path d="M88.0402 108.083C87.9984 113.402 79.9319 113.367 79.9381 108.157C79.9444 102.709 88.0831 102.698 88.0402 108.083Z" fill="#CB7428"/>
<path d="M52.4245 103.809C58.0692 103.83 57.4847 111.969 52.2258 111.887C50.1669 111.855 48.294 109.946 48.3055 107.888C48.3119 106.802 48.7492 105.762 49.5214 104.997C50.2937 104.233 51.3378 103.806 52.4245 103.81V103.809Z" fill="#CB7428"/>
<path d="M73.2362 111.948C71.0632 111.958 69.3263 110.177 69.3221 107.934C69.3179 105.797 71.2295 103.881 73.3794 103.866C78.6801 103.83 78.8871 111.919 73.2362 111.948Z" fill="#CB7428"/>
<path d="M78.2617 112.697C83.3386 112.836 83.5028 120.852 77.8225 120.772C75.8347 120.744 73.9137 118.711 73.9764 116.705C74.0475 114.392 75.9309 112.634 78.2617 112.697Z" fill="#CB7428"/>
<path d="M88.3735 120.836C86.1765 120.842 84.3695 119.047 84.379 116.869C84.3884 114.71 86.2842 112.78 88.4216 112.752C93.6731 112.683 93.9691 120.819 88.3735 120.835V120.836Z" fill="#CB7428"/>
<path d="M71.4698 116.597C71.4207 122.02 63.2642 121.811 63.374 116.578C63.4838 111.345 71.519 111.213 71.4698 116.597Z" fill="#CB7428"/>
<path d="M85.9298 125.555C85.8441 130.775 77.719 130.866 77.8256 125.401C77.926 120.194 86.0197 120.086 85.9298 125.555Z" fill="#CB7428"/>
<path d="M46.4767 120.46C44.2525 120.494 42.3745 118.698 42.341 116.502C42.3096 114.46 44.2525 112.453 46.323 112.389C51.6634 112.226 51.9165 120.376 46.4767 120.46Z" fill="#CB7428"/>
<path d="M56.8916 120.46C54.6632 120.491 52.9326 118.776 52.9075 116.51C52.8835 114.352 54.8211 112.354 56.9188 112.375C62.2404 112.428 62.4537 120.382 56.8916 120.46Z" fill="#CB7428"/>
<path d="M43.8959 125.068C43.8917 130.504 35.9015 130.369 35.8105 125.256C35.7719 123.115 37.6803 121.052 39.7863 121.06C42.5062 121.071 44.1124 123.195 43.8969 125.069L43.8959 125.068Z" fill="#CB7428"/>
<path d="M54.4502 125.105C54.3404 130.574 46.2582 130.314 46.344 125.119C46.3795 122.934 48.2576 121.056 50.4159 121.049C52.6318 121.043 54.4942 122.917 54.4502 125.105Z" fill="#CB7428"/>
<path d="M71.4659 129.339C66.1317 129.39 66.0763 121.422 71.5631 121.345C76.7393 121.273 77.0112 129.284 71.4659 129.339Z" fill="#CB7428"/>
<path d="M66.8751 107.783C66.8333 113.247 58.8222 113.206 58.8619 107.764C58.9006 102.546 66.9159 102.473 66.8762 107.783H66.8751Z" fill="#CB7428"/>
<path d="M98.3349 108.228C98.5943 110.429 96.3136 112.296 94.2138 112.198C88.9811 111.952 88.9916 104.296 94.5181 104.167C96.3031 104.125 98.6392 105.96 98.3349 108.228Z" fill="#CB7428"/>
<path d="M145.519 85.7759C145.532 83.4482 146.304 80.3362 147.696 80.3403C149.245 80.3445 150.005 83.9375 149.941 85.642C149.691 92.3471 145.888 92.712 145.519 85.7759Z" fill="#CB7428"/>
<path fill-rule="evenodd" clip-rule="evenodd" d="M64.9457 72.2245C63.7505 72.3385 63.0415 72.4514 62.9139 72.5591C60.101 74.9433 59.1316 77.2554 58.9246 77.75C58.9057 77.7949 58.8932 77.8253 58.8859 77.8389C57.3236 80.8421 57.0036 82.9617 56.8018 84.295C56.6178 85.508 56.533 86.0706 55.7017 86.057C50.9626 85.9817 50.6583 86.0591 49.9514 86.6081C45.5229 90.0453 43.1021 97.0505 41.6036 102.111C37.2681 116.75 26.5706 127.755 18.2343 136.33C12.1765 142.562 7.36528 147.512 7.153 151.639C7.04843 153.648 7.90591 155.292 8.76861 156.95V156.951C8.83658 157.079 8.9035 157.207 8.96938 157.336L8.97566 157.348C9.18166 157.746 9.35838 158.088 9.59471 158.382C11.0273 160.155 14.6549 160.158 40.2149 160.175C43.764 160.178 47.7356 160.18 52.1829 160.189C59.2372 160.201 64.4699 160.238 68.3421 160.266C77.1469 160.329 78.91 160.341 79.0365 159.893C79.0679 159.781 78.9968 159.639 78.9079 159.462C78.8556 159.356 78.796 159.238 78.7479 159.106C77.5966 155.915 77.5035 154.054 77.4491 152.987C77.3948 151.894 77.3812 151.636 76.3145 151.637H10.6101C8.75606 151.651 8.88259 151.31 9.3312 150.091C9.42635 149.834 9.53615 149.537 9.64386 149.197C10.288 147.169 13.4952 143.922 17.7491 139.614C23.9846 133.299 32.4715 124.705 38.4372 114.332C41.1424 109.627 42.391 105.546 43.5402 101.792C44.9854 97.0672 46.2726 92.8593 50.1062 88.5761L50.2243 88.4423C50.3707 88.276 50.4941 88.1369 50.6353 88.0177C51.3976 87.3798 52.6849 87.3662 60.9271 87.2878C65.6285 87.2428 72.5919 87.1759 83.0102 86.9595C84.0234 86.9385 85.0357 86.9866 86.0469 87.0734C87.1219 87.1644 89.0857 87.1111 92.6526 87.0128C98.0379 86.8643 107.079 86.6154 122.239 86.6154C122.211 86.7346 121.956 86.9647 121.562 87.3202C120.542 88.2404 118.595 89.9972 117.259 92.8342C115.94 95.6335 115.101 98.23 114.233 100.915C112.329 106.806 110.287 113.126 102.737 122.963C96.735 130.784 91.6529 135.68 87.7901 139.402C80.536 146.391 77.5819 149.237 80.9114 159.522L80.9261 159.567C80.9679 159.696 81.0024 159.804 81.0631 159.894C81.3663 160.339 82.3284 160.338 88.0714 160.332C89.3021 160.331 90.7546 160.329 92.4664 160.332H92.5815H92.5835C94.035 160.338 108.639 160.403 120.299 160.219C116.213 155.542 116.277 147.601 121.264 143.604C121.768 143.2 127.166 143 134.977 142.933L134.973 142.74L134.492 142.752H134.491C122.935 143.019 122.099 143.038 120.515 141.62C116.203 137.76 116.125 130.911 121.233 127.483C121.723 127.155 126.973 126.987 134.605 126.927C134.357 115.917 134.192 105.797 134.55 103.507C135.178 99.488 138.797 99.2381 143.364 98.9223C145.45 98.778 147.734 98.6211 150.021 98.0836C163.416 94.9361 154.161 71.6034 142.365 71.0836H142.363C136.385 70.8212 128.277 70.7229 119.518 70.7396C119.338 71.3758 119.163 72.0133 118.993 72.6522C124.78 72.6083 130.898 72.5821 137.282 72.5821C135.617 74.4833 133.982 76.4114 132.38 78.3659C129.721 81.5825 128.293 83.3089 126.461 84.2176C124.34 85.2706 121.675 85.2267 115.925 85.1337C111.076 85.0542 104.033 84.9402 93.2727 85.416V85.4181C92.9485 85.4317 92.6097 85.4296 91.9499 85.4244C89.6148 85.4066 83.2496 85.3585 59.2079 85.9158C58.4655 85.9326 58.2647 85.7977 58.4613 85.004C59.1954 82.0352 61.8473 75.143 64.3883 73.9698C64.5661 73.3957 64.7523 72.8132 64.9457 72.2245ZM150.666 88.7539C149.47 92.3124 148.151 92.3636 143.817 92.5309C143.18 92.555 142.477 92.5832 141.7 92.624C141.506 92.624 141.317 92.6261 141.135 92.6271C139.2 92.647 137.905 92.6596 136.963 90.3559C135.264 86.2013 136.271 79.6312 139.989 79.5057C141.393 79.4536 142.795 79.3682 144.194 79.2495C148.274 78.9285 149.689 78.8166 150.658 81.9317C151.356 84.1789 151.425 86.4931 150.666 88.7539Z" fill="#CB7428"/>
<path d="M89.8669 63.0549C89.3712 63.0695 88.7271 63.1856 88.7292 62.4097C88.7313 61.7342 89.1213 61.4246 89.8564 61.4142C116.603 61.021 116.589 60.5745 116.599 61.8272C116.613 63.515 113.052 62.3783 89.8669 63.0549Z" fill="#222222"/>
<path d="M140.894 53.7576C139.452 50.6414 135.61 48.3565 132.197 48.55C87.6521 51.0754 79.091 49.1555 76.2749 52.2957C67.6939 61.8607 62.2217 84.3004 63.3866 84.3286C63.3762 84.3767 65.408 84.5472 66.0772 84.5273C106.215 83.3049 115.328 84.177 115.604 82.8395C115.627 82.7956 118.683 64.8127 124.149 56.7598C124.846 55.734 124.698 56.2484 131.935 55.7831C140.149 55.255 141.833 55.7873 140.895 53.7597L140.894 53.7576ZM120.169 60.8809C117.343 67.9917 114.557 78.7969 114.669 81.9308C112.034 81.6307 65.5387 82.8992 65.157 82.9692C64.3717 83.1125 69.047 63.4376 76.5091 54.4143C78.7563 51.6965 78.1132 52.4944 105.955 51.2939C121.752 50.6121 113.924 50.8673 127.811 50.4459C124.127 53.2546 121.782 56.8288 120.17 60.8819L120.169 60.8809ZM126.005 54.4854C130.365 49.2161 134.874 48.7225 139.01 53.9364C128.675 54.2512 128.192 54.1476 126.005 54.4854Z" fill="#222222"/>
<path d="M102.808 56.7164C102.774 58.1145 102.834 57.6314 79.3409 57.9712C77.2798 58.0016 77.1512 57.9169 77.1104 57.599C77.0215 56.9067 78.5158 56.7206 78.8128 56.7133C104.401 56.0011 102.829 55.86 102.808 56.7164Z" fill="#222222"/>
<path d="M81.0599 61.6063C86.8353 61.4892 86.8437 61.2644 86.7631 62.0936C86.6272 63.4969 86.2758 63.133 78.226 63.1759C75.388 63.1916 74.838 63.1864 74.8568 62.4355C74.8819 61.3972 77.6655 61.6753 81.0599 61.6063Z" fill="#222222"/>
<path d="M104.598 56.9315C104.606 55.7101 104.819 56.027 118.321 55.7624C118.844 55.752 119.461 55.8492 119.467 56.5153C119.474 57.2536 118.862 57.2703 118.277 57.2829C105.372 57.5621 104.591 57.8277 104.598 56.9305V56.9315Z" fill="#222222"/>
<path d="M201.201 157.623C201.243 156.438 201.112 155.235 201.201 154.055C201.278 153.038 200.891 152.791 199.943 152.793C168.432 152.86 167.676 152.371 167.672 153.475C167.67 154.085 168.28 154.016 168.715 154.03C199.062 155.032 200.217 152.979 200.236 154.796C200.251 156.21 200.265 155.434 176.234 156.085C175.761 156.098 174.865 155.832 174.886 156.556C174.905 157.225 175.779 156.969 176.271 156.967C200.232 156.887 200.118 156.315 200.219 157.549C200.313 158.691 202.106 158.322 173.751 158.611C172.725 158.621 171.665 158.851 170.678 158.558C162.402 156.097 165.547 145.93 171.738 146.074C180.382 146.273 189.031 146.237 197.678 146.306C198.412 146.312 199.358 146.095 199.824 146.462C200.309 146.843 199.926 147.846 200.06 148.561C200.347 150.079 200.179 149.61 187.887 149.505C185.216 149.482 174.881 149.304 173.181 149.559C172.24 149.7 172.182 150.482 173.119 150.648C173.577 150.728 182.431 150.918 183.477 150.932C201.165 151.176 201.273 151.622 201.205 149.974C201.172 149.172 201.262 148.362 201.193 147.565C201.114 146.657 201.328 146.153 202.36 146.311C203.284 146.452 203.485 145.34 202.853 144.893C202.833 144.878 123.543 143.131 121.92 144.433C117.305 148.135 117.415 155.606 121.317 159.778C123.652 162.273 123.173 159.937 202.783 159.782C203.294 159.782 203.707 159.701 203.714 159.094C203.734 157.346 201.142 159.247 201.199 157.623H201.201ZM123.394 159.206C120.744 159.157 117.816 150.67 122.362 146.018C122.974 145.392 122.554 145.548 131.038 145.548C128.843 150.154 129.147 154.576 130.932 159.22C128.333 159.22 125.862 159.251 123.393 159.206H123.394ZM136.255 159.033C132.423 158.965 132.347 159.255 132.082 158.562C130.478 154.392 130.577 150.295 132.533 146.259C132.907 145.488 133.062 145.706 137.175 145.706C136.108 147.509 135.487 149.261 135.301 151.172C134.682 157.532 138.148 159.065 136.255 159.032V159.033ZM140.648 158.995C138.386 159.018 138.164 158.941 137.405 156.796C136.124 153.181 136.659 149.733 138.481 146.427C138.958 145.562 139.18 145.743 141.355 145.743C139.118 149.953 139.452 154.043 141.16 158.123C141.434 158.778 141.463 158.986 140.648 158.994V158.995ZM142.607 158.238C140.883 154.326 140.676 150.43 142.636 146.536C142.864 146.082 143.111 145.721 143.78 145.734C167.136 146.171 166.596 145.974 167.156 146.188C163.431 149.842 163.272 155.404 167.452 158.854C142.592 158.854 143.16 159.493 142.607 158.238Z" fill="#222222"/>
<path d="M201.169 139.22C201.211 138.227 201.081 137.22 201.169 136.233C201.245 135.381 200.858 135.176 199.911 135.178C168.4 135.239 167.644 134.825 167.64 135.748C167.638 136.258 168.247 136.199 168.682 136.212C199.03 137.061 200.185 135.332 200.204 136.853C200.218 138.037 200.233 137.387 176.202 137.931C175.729 137.941 174.833 137.718 174.854 138.325C174.873 138.885 175.747 138.67 176.238 138.669C200.2 138.594 200.086 138.122 200.187 139.157C200.281 140.112 202.074 139.809 173.718 140.045C172.693 140.054 171.633 140.246 170.646 140.001C162.369 137.944 165.515 129.431 171.705 129.551C187.896 129.864 199.319 129.564 199.792 129.876C200.277 130.195 199.893 131.035 200.028 131.634C200.315 132.904 200.146 132.511 187.855 132.423C185.183 132.404 174.849 132.254 173.148 132.467C172.207 132.585 172.15 133.24 173.087 133.379C173.545 133.447 182.399 133.605 183.444 133.617C201.132 133.825 201.241 134.196 201.173 132.815C201.14 132.144 201.23 131.465 201.161 130.798C201.082 130.039 201.296 129.618 202.328 129.749C203.252 129.868 203.45 128.939 202.821 128.564C202.8 128.551 123.511 127.089 121.888 128.18C117.273 131.281 117.381 137.533 121.285 141.026C123.619 143.115 123.141 141.159 202.751 141.028C203.261 141.028 203.674 140.96 203.682 140.452C203.702 138.99 201.109 140.581 201.167 139.222L201.169 139.22ZM123.362 140.543C120.712 140.502 117.786 133.402 122.33 129.506C122.942 128.981 122.522 129.112 131.006 129.112C128.811 132.969 129.115 136.67 130.9 140.557C128.3 140.557 125.829 140.582 123.361 140.544L123.362 140.543ZM136.223 140.4C132.391 140.343 132.315 140.585 132.049 140.006C130.447 136.515 130.546 133.085 132.501 129.707C132.874 129.061 133.03 129.244 137.143 129.244C136.075 130.755 135.455 132.221 135.269 133.821C134.65 139.145 138.115 140.428 136.223 140.401V140.4ZM140.616 140.371C138.354 140.392 138.132 140.323 137.373 138.528C136.092 135.503 136.626 132.614 138.449 129.85C138.926 129.126 139.148 129.278 141.323 129.278C139.086 132.802 139.418 136.225 141.128 139.641C141.402 140.188 141.43 140.363 140.616 140.371ZM142.572 139.736C140.849 136.461 140.643 133.2 142.601 129.939C142.829 129.559 143.076 129.257 143.745 129.267C167.101 129.632 166.562 129.47 167.122 129.647C163.396 132.707 163.237 137.361 167.418 140.25C142.558 140.25 143.125 140.786 142.572 139.736Z" fill="#222222"/>
<path d="M191.497 104.056C193.987 105.172 192.251 106.908 193.015 107.892C193.47 108.481 195.707 106.924 199.035 108.449C204.493 110.952 201.896 118.321 193.363 120.088C189.358 120.917 189.229 119.303 188.118 120.474C175.395 133.88 154.349 123.501 155.748 106.7C155.889 105.004 156.292 104.522 158.14 104.023C164.194 102.386 185.884 101.539 191.498 104.055L191.497 104.056ZM191.317 107.266C183.257 109.669 165.533 110.021 156.892 107.561C156.968 117.267 165.058 125.352 175.226 124.73C185.053 124.129 191.564 115.861 191.317 107.265V107.266ZM192.463 118.645C194.667 118.577 198.879 116.909 200.223 113.832C201.65 110.564 197.891 108.594 194 109.244C191.856 109.603 193.777 110.944 190.693 116.874C190.265 117.697 188.355 119.291 192.463 118.644V118.645Z" fill="#222222"/>
<path d="M180.554 54.1776C180.793 53.9245 181.209 54.163 181.111 54.4965C179.599 59.6487 172.85 63.6924 174.579 73.8451C175.674 80.2741 179.715 86.8223 177.065 94.3952C176.702 95.4336 174.907 99.2745 173.988 98.6721C173.412 98.2957 174.776 96.2053 175.579 93.0703C178.243 82.6688 167.048 72.6185 174.735 61.3752C178.027 56.5597 178.795 56.0442 180.554 54.1776Z" fill="#CB7428"/>
<path d="M183.535 73.2378C181.525 79.6626 186.981 84.2386 184.729 92.6167C183.571 96.9292 180.328 98.3367 181.138 96.6238C182.734 93.2504 183.576 92.737 182.967 86.5443C182.524 82.0311 178.846 76.698 183.104 70.7543C183.86 69.6981 184.529 70.0641 183.535 73.2388V73.2378Z" fill="#CB7428"/>
<path d="M168.92 74.457C170.51 76.5463 171.723 82.0697 169.713 87.8639C168.978 89.9825 169.5 91.7404 170.648 93.6153C171.254 94.6014 170.489 95.3533 169.537 94.5669C167.994 93.2922 166.909 90.2952 167.752 87.5837C169.901 80.6664 168.382 75.9702 168.921 74.457H168.92Z" fill="#CB7428"/>
</g>
<defs>
<clipPath id="clip0_619_6079">
<rect width="209.14" height="209.14" fill="white" transform="translate(0.859985 0.180176)"/>
</clipPath>
</defs>
</svg>
