<svg width="302" height="302" viewBox="0 0 302 302" fill="none" xmlns="http://www.w3.org/2000/svg">
<path d="M110.523 99.9352C110.313 100.075 110.032 100.075 109.682 99.9352C109.332 99.8652 108.947 99.6551 108.527 99.3049C108.107 99.0248 107.651 98.6747 107.161 98.2545C106.881 97.9744 106.706 97.6593 106.636 97.3091C106.566 96.8889 106.636 96.1886 106.846 95.2082C107.056 94.2278 107.371 92.6522 107.791 90.4813C108.072 89.0807 108.387 87.6801 108.737 86.2795C109.087 84.879 109.402 83.7235 109.682 82.8131C109.962 81.8327 110.102 81.3425 110.102 81.3425C110.453 81.2024 110.943 80.152 111.573 78.1912C112.273 76.2304 113.044 73.8494 113.884 71.0482C114.164 70.0678 114.654 68.4222 115.355 66.1112C116.055 63.8002 116.755 61.5593 117.455 59.3884C118.086 57.3576 118.611 55.5368 119.031 53.9262C119.451 52.2455 119.661 51.4051 119.661 51.4051C119.661 51.4051 119.136 51.7202 118.086 52.3505C117.105 52.9107 115.845 53.6811 114.304 54.6615C112.764 55.5718 111.258 56.5873 109.787 57.7077C108.597 58.408 107.161 59.3884 105.481 60.6489C103.87 61.9095 102.434 62.9249 101.174 63.6952C99.283 65.1658 98.1275 66.0062 97.7073 66.2162C97.2872 66.3563 96.7619 66.2513 96.1317 65.9011C95.2213 65.1308 94.591 64.3255 94.2409 63.4851C93.9608 62.6448 94.0308 61.8744 94.451 61.1742C94.591 61.1041 95.0112 60.824 95.7115 60.3338C96.4818 59.8436 97.3222 59.2834 98.2325 58.6531C99.1429 58.0229 99.9833 57.4276 100.754 56.8674C101.594 56.3071 102.189 55.922 102.539 55.7119C102.749 55.7119 103.135 55.4668 103.695 54.9766C104.255 54.4864 104.85 54.0312 105.481 53.611C105.831 53.1909 107.056 52.2455 109.157 50.7749C111.258 49.3042 113.534 47.6586 115.985 45.8378C118.576 44.2271 120.747 42.9316 122.498 41.9512C124.318 40.9708 125.369 40.5156 125.649 40.5856C125.859 40.5856 126.174 40.7257 126.594 41.0058C127.084 41.2859 127.54 41.6361 127.96 42.0562C128.38 42.4764 128.625 42.8966 128.695 43.3168C129.115 43.807 128.905 44.9274 128.065 46.6782C127.785 47.3084 127.33 48.4639 126.699 50.1446C126.069 51.7553 125.369 53.646 124.598 55.8169C123.898 57.9178 123.198 60.0187 122.498 62.1195C121.867 64.1504 121.342 65.9011 120.922 67.3717C120.362 69.5426 119.836 71.2233 119.346 72.4138C118.926 73.6043 118.506 74.7598 118.086 75.8802C117.736 76.9307 117.315 78.4013 116.825 80.2921C116.335 81.4125 115.81 82.8481 115.25 84.5989C114.759 86.2795 114.304 87.9602 113.884 89.6409C113.464 91.2516 113.149 92.5822 112.939 93.6326C112.378 95.1732 111.923 96.5388 111.573 97.7293C111.223 98.9198 110.873 99.6551 110.523 99.9352Z" fill="black"/>
<path d="M140.796 96.4688C140.516 96.3287 140.095 96.0836 139.535 95.7335C139.045 95.3133 138.52 94.8581 137.959 94.3679C137.469 93.8077 137.119 93.3175 136.909 92.8973C136.699 92.5471 136.699 91.9169 136.909 91.0065C137.189 90.0961 137.469 89.6409 137.749 89.6409C137.959 89.781 138.31 89.5359 138.8 88.9056C139.29 88.2754 139.78 87.6101 140.27 86.9098C140.761 86.1395 141.006 85.6843 141.006 85.5442C141.076 85.2641 141.251 85.054 141.531 84.914C141.881 84.7039 142.196 84.4938 142.476 84.2837C142.827 83.7235 143.282 83.1633 143.842 82.603C144.472 81.9728 144.962 81.4475 145.313 81.0274C145.873 80.3271 146.888 79.2767 148.359 77.8761C149.829 76.4755 151.265 75.0399 152.666 73.5693C154.136 71.9586 155.432 70.558 156.552 69.3675C157.673 68.107 158.268 67.2317 158.338 66.7415C158.338 66.7415 158.443 66.6364 158.653 66.4263C158.933 66.1462 159.248 65.9011 159.598 65.691C159.949 65.4809 160.404 65.1308 160.964 64.6406C161.594 64.1504 162.119 63.6952 162.54 63.275C162.68 62.7148 163.065 61.9445 163.695 60.9641C164.395 59.9136 165.096 59.0383 165.796 58.338C166.356 57.4976 166.881 56.5873 167.372 55.6069C167.862 54.5564 168.177 53.7861 168.317 53.2959C168.527 52.5256 168.527 52.0704 168.317 51.9303C168.107 51.7202 167.232 51.3701 165.691 50.8799C164.01 50.3197 162.155 50.1096 160.124 50.2496C158.163 50.3197 155.957 51.23 153.506 52.9808C152.526 53.1909 151.615 53.471 150.775 53.8211C150.004 54.1713 149.339 54.3113 148.779 54.2413C148.499 54.1012 148.184 53.7861 147.834 53.2959C147.483 52.8057 147.098 52.3505 146.678 51.9303L145.628 49.7244L148.884 47.9387C151.755 46.1179 154.346 44.8574 156.657 44.1571C159.038 43.4568 161.209 43.4218 163.17 44.0521C163.94 44.0521 164.641 44.1571 165.271 44.3672C165.901 44.5073 166.216 44.5773 166.216 44.5773C166.776 44.5073 167.477 44.8224 168.317 45.5227C169.157 46.1529 169.963 46.9583 170.733 47.9387C171.573 48.9191 172.204 49.8995 172.624 50.8799C173.744 52.5606 174.094 54.3463 173.674 56.2371C173.324 58.0579 172.274 60.2638 170.523 62.8549C170.173 63.275 169.403 64.1504 168.212 65.4809C167.022 66.8115 165.656 68.3171 164.115 69.9978C162.645 71.6085 161.279 73.0441 160.019 74.3046C158.828 75.5651 158.058 76.3704 157.708 76.7206C157.217 76.9307 156.377 77.666 155.187 78.9265C154.066 80.117 152.841 81.4475 151.51 82.9182C150.25 84.3187 149.164 85.5793 148.254 86.6997C147.413 87.7502 147.063 88.2754 147.203 88.2754C147.133 88.5555 147.238 88.6955 147.518 88.6955C147.799 88.6255 148.254 88.4855 148.884 88.2754C149.934 87.9252 151.3 87.5751 152.981 87.2249C154.731 86.8748 156.517 86.5947 158.338 86.3846C160.159 86.1045 161.734 85.9294 163.065 85.8594C164.465 85.7893 165.271 85.8594 165.481 86.0695C165.621 86.4196 165.726 86.5597 165.796 86.4896C165.936 86.3496 166.006 86.2795 166.006 86.2795C166.146 85.7893 167.022 85.6493 168.632 85.8594C170.313 86.0695 171.819 86.3846 173.149 86.8048C173.919 87.0149 174.515 87.1899 174.935 87.33C175.425 87.47 175.67 87.6801 175.67 87.9602C175.67 87.9602 175.74 88.1353 175.88 88.4855C176.09 88.7656 176.405 89.1507 176.826 89.6409C177.946 90.5513 178.086 91.1466 177.246 91.4267C176.405 91.7068 174.585 91.6018 171.783 91.1115C169.963 91.1115 168.457 91.2166 167.267 91.4267C166.987 91.5667 166.391 91.6368 165.481 91.6368C164.571 91.6368 163.695 91.6718 162.855 91.7418C161.594 91.6018 160.334 91.6718 159.073 91.9519C157.813 92.162 156.307 92.5471 154.556 93.1074C153.926 93.3175 152.946 93.6326 151.615 94.0528C150.285 94.4729 148.849 94.8931 147.308 95.3133C145.768 95.7335 144.367 96.0486 143.107 96.2587C141.916 96.4688 141.146 96.5388 140.796 96.4688Z" fill="#CB7428"/>
<circle cx="198.949" cy="64.3849" r="9.84783" fill="black"/>
<circle cx="236.153" cy="64.3849" r="9.84783" fill="black"/>
<path d="M94.9342 143.791C94.0735 143.207 92.8202 143.237 92.6692 144.688C92.5182 146.139 94.5175 147.911 95.65 146.986C96.7825 146.062 95.7949 144.374 94.9342 143.791Z" fill="#191919"/>
<path d="M150.363 94.2173C149.864 91.2713 149.52 86.3321 146.699 84.6107C146.287 84.3585 145.591 84.6816 145.748 85.2146C146.212 86.8092 147.107 88.215 147.56 89.8292C148.609 94.3546 149.353 98.9452 149.787 103.57C147.903 103.189 145.943 103.526 144.294 104.516C142.646 105.506 141.427 107.077 140.878 108.92C140.703 109.836 140.74 110.78 140.986 111.679C141.231 112.579 141.68 113.41 142.296 114.11C143.953 116.402 145.797 118.552 147.809 120.538C148.111 120.826 148.735 120.524 148.474 120.108C145.031 114.595 142.434 113.119 142.26 110.483C142.24 109.547 142.483 108.624 142.96 107.819C143.437 107.013 144.13 106.357 144.96 105.924C146.556 105.041 148.157 105.242 149.843 104.901C149.861 105.673 149.855 106.445 149.825 107.217C149.823 107.329 149.864 107.439 149.939 107.522C150.015 107.606 150.12 107.657 150.232 107.666C150.344 107.675 150.456 107.641 150.544 107.571C150.632 107.501 150.69 107.399 150.705 107.288C151.38 102.946 151.263 98.5179 150.363 94.2173Z" fill="#191919"/>
<path d="M153.738 95.1284C153.798 94.9401 153.912 94.7738 154.067 94.6509C154.221 94.528 154.409 94.4541 154.606 94.4387C154.803 94.4232 155 94.467 155.172 94.5644C155.343 94.6617 155.482 94.8082 155.57 94.985C156.236 96.3151 156.812 97.6889 157.293 99.0967C157.72 100.607 157.595 102.721 158.622 103.945C158.682 104.018 158.759 104.075 158.845 104.113C158.932 104.151 159.026 104.168 159.12 104.162C159.214 104.157 159.306 104.13 159.388 104.083C159.47 104.036 159.539 103.97 159.591 103.891C160.453 102.568 159.883 100.604 159.484 99.21C159.011 97.5222 158.304 95.909 157.384 94.4172C156.769 93.4312 155.911 92.3214 154.599 92.4542C154.039 92.5607 153.537 92.8675 153.187 93.3171C152.837 93.7668 152.663 94.3285 152.697 94.8974C152.674 95.4712 153.669 95.7732 153.738 95.1284Z" fill="#191919"/>
<path d="M159.826 94.8288C162.356 92.4022 162.997 98.2761 163.183 99.5687C163.828 104.111 163.334 104.473 164.171 105.512C164.225 105.575 164.292 105.625 164.369 105.658C164.445 105.691 164.528 105.706 164.611 105.703C164.693 105.699 164.775 105.677 164.848 105.638C164.921 105.598 164.984 105.543 165.033 105.476C165.958 104.232 165.445 102.173 165.285 100.718C165.156 98.8632 164.807 97.0307 164.243 95.2591C163.388 92.9413 160.716 91.7182 159.019 94.0753C158.65 94.5811 159.358 95.2818 159.826 94.8288Z" fill="#191919"/>
<path d="M165.554 95.5615C167.668 95.9511 167.631 99.4392 167.763 101.055C168.064 104.939 167.761 108.846 166.864 112.637C166.228 114.341 165.822 116.122 165.656 117.934C165.676 118.418 166.268 118.903 166.698 118.471C168.332 116.837 168.729 114.145 169.176 111.954C169.689 109.383 169.918 106.764 169.859 104.143C169.8 101.123 169.999 94.0817 165.495 94.3761C164.78 94.423 164.962 95.4513 165.554 95.5615Z" fill="#191919"/>
<path d="M150.417 189.559C150.509 189.632 150.528 189.651 150.417 189.559V189.559Z" fill="#191919"/>
<path d="M47.4422 257.573C49.6392 245.666 51.2746 233.413 49.4898 221.357C49.3614 220.495 47.9647 220.711 47.9798 221.555C48.4614 246.31 43.5675 262.82 39.1629 284.069C38.6132 286.728 37.4883 289.798 37.5653 292.525C37.6423 295.214 40.1323 294.719 40.2939 293.26L40.4932 291.43C40.2984 290.071 45.2119 269.656 47.4422 257.573Z" fill="#191919"/>
<path d="M176.343 173.488C174.936 159.161 173.498 144.444 169.323 130.629C168.89 129.193 166.628 129.551 166.971 131.082C169.422 142.638 171.274 154.313 172.52 166.06C173.917 177.892 175.107 189.904 173.687 201.791C172.467 211.99 169.665 223.032 160.633 229.047C153.11 234.057 143.721 237.143 135.101 234.847C123.842 231.846 120.952 228.722 112.692 220.878C112.578 220.751 112.42 220.673 112.25 220.661C112.08 220.649 111.912 220.704 111.781 220.814C111.651 220.923 111.568 221.079 111.55 221.248C111.533 221.418 111.582 221.588 111.687 221.722C116.571 228.428 122.065 233.198 128.277 235.765C128.603 239.954 129.173 244.121 129.983 248.245C134.746 281.321 132.215 285.413 133.681 293.904C133.81 294.641 134.941 294.57 135.119 293.904C136.387 289.167 135.975 283.958 135.783 279.106C135.234 265.214 132.658 244.619 130.414 236.551C138.405 239.174 147.466 238.372 157.671 233.895C168.26 229.248 172.559 221.228 175.087 210.588C177.971 198.445 177.559 185.861 176.343 173.488Z" fill="#191919"/>
<path d="M285.012 20.3474C283.688 16.4863 280.648 11.982 276.734 10.9386C274.022 10.4018 271.273 10.0777 268.511 9.96918C230.803 6.14133 203.38 7.96692 173.095 8.06658C172.917 8.06159 172.741 8.11168 172.592 8.21003C139.874 9.21267 112.322 7.20286 76.86 12.6268C74.1677 13.039 71.424 13.1447 69.1756 14.9794C65.5622 17.9359 63.8498 22.5747 63.1613 27.2421C60.5429 44.9649 61.5275 87.2313 62.6222 107.323C63.1341 116.723 63.3772 128.453 70.5406 134.526C69.1214 135.895 68.1936 137.694 67.9012 139.643C66.3036 148.64 71.4617 152.95 74.3655 159.52C75.6132 161.712 77.6687 163.33 80.0929 164.027C80.3556 166.434 80.0033 168.868 79.0691 171.101C64.1292 172.611 55.273 176.78 43.2821 184.658C37.1076 188.507 31.2801 192.886 25.8658 197.747C15.9194 207.119 9.7405 219.618 12.2562 233.478C14.9832 248.507 26.7325 261.731 39.7986 269.047C40.9854 269.712 41.8506 268.054 40.8405 267.27C35.64 263.234 30.3203 259.477 25.8658 254.576C14.6767 242.263 12.0795 228.382 15.4876 217.534C19.5917 204.474 30.8307 195.752 42.1511 188.194C48.0436 183.952 54.3912 180.381 61.076 177.547C74.0182 172.598 88.1714 172.262 101.817 173.47C109.879 174.186 118.894 176.989 126.631 179.45C134.299 181.89 147.674 190.133 150.512 190.456C150.512 190.456 153.283 191.171 151.643 189.236C150.408 187.778 146.382 185.627 141.246 183.239C141.408 183.188 141.553 183.097 141.67 182.975C141.786 182.852 141.869 182.702 141.911 182.538C142.207 180.046 142.225 177.529 141.965 175.033C141.582 149.316 147.137 131.788 148.771 123.861C148.798 123.759 148.793 123.651 148.758 123.552C148.723 123.452 148.658 123.366 148.573 123.304C151.625 123.465 154.696 123.304 157.748 123.411C160.728 123.518 163.998 124.297 166.941 123.864C167.089 123.832 167.223 123.754 167.323 123.64C167.424 123.526 167.484 123.382 167.497 123.231C167.509 123.08 167.472 122.928 167.391 122.8C167.311 122.671 167.191 122.572 167.049 122.517C164.198 121.356 160.514 121.6 157.479 121.548C154.259 121.387 151.032 121.58 147.854 122.121C147.726 122.15 147.611 122.222 147.529 122.325C147.447 122.428 147.402 122.555 147.402 122.687C147.402 122.818 147.447 122.946 147.529 123.049C147.611 123.152 147.726 123.223 147.854 123.252C146.408 124.08 139.52 149.375 139.919 176.185C139.937 177.49 139.842 181.492 140.547 182.9C130.169 178.124 115.41 172.767 107.383 171.805C103.306 171.316 99.1597 170.943 95.0117 170.748C94.2643 168.721 93.9346 166.564 94.0423 164.406C96.2152 164.708 98.5315 164.423 99.6444 162.556C101.476 159.485 99.2382 155.625 99.0706 152.41C99.0662 152.278 99.0149 152.151 98.9256 152.052C98.8364 151.954 98.7151 151.891 98.5834 151.873C98.4516 151.856 98.3181 151.886 98.2065 151.958C98.095 152.03 98.0127 152.14 97.9743 152.267C96.8871 154.974 98.9286 157.637 98.4772 160.383C97.8339 164.299 93.5425 161.415 91.1703 162.322C91.0265 162.367 90.9008 162.456 90.8116 162.577C90.7223 162.699 90.6742 162.845 90.6742 162.996C90.6742 163.146 90.7223 163.293 90.8116 163.414C90.9008 163.535 91.0265 163.624 91.1703 163.669C91.7452 163.879 92.3327 164.053 92.9294 164.19C92.6667 165.68 92.6667 167.205 92.9294 168.696C93.0209 169.356 93.1469 170.012 93.3069 170.659C89.2594 170.52 85.2073 170.598 81.168 170.891C81.3497 170.171 81.4819 169.439 81.5636 168.7C81.7731 167.269 81.7425 165.813 81.473 164.392C82.7416 164.741 84.0558 164.893 85.3704 164.845C89.2843 164.607 91.5614 159.908 89.8596 156.335C92.037 156.335 93.9577 153.896 92.3541 152.42C92.2735 152.344 92.1732 152.294 92.0649 152.274C91.9566 152.254 91.8449 152.266 91.743 152.308C91.641 152.349 91.5531 152.419 91.4896 152.509C91.4261 152.599 91.3897 152.705 91.3847 152.815C90.9 156.876 86.3534 152.637 85.8188 150.642C85.2752 148.614 87.3062 145.942 89.5183 147.643C90.0559 148.057 90.6116 147.088 90.4696 146.531C90.2869 145.813 90.1465 145.076 89.9487 144.358C90.2781 144.091 90.5842 143.797 90.8637 143.479C92.4025 142.662 93.8633 141.707 95.2276 140.623C96.5542 144.142 98.7334 147.276 101.57 149.745C101.193 149.986 100.768 150.142 100.325 150.204C99.8822 150.266 99.4311 150.231 99.0026 150.103C98.786 150.043 98.5543 150.072 98.3587 150.182C98.163 150.293 98.0193 150.477 97.9592 150.694C97.8992 150.91 97.9276 151.142 98.0383 151.338C98.1491 151.533 98.333 151.677 98.5496 151.737C99.4133 151.98 100.328 151.978 101.19 151.731C102.053 151.483 102.829 151.001 103.433 150.337C103.589 150.179 103.676 149.966 103.676 149.745C103.676 149.523 103.589 149.31 103.433 149.152C98.148 144.691 96.7104 140.016 96.1608 139.79C96.3405 139.628 96.5202 139.449 96.6999 139.287C105.086 139.661 113.487 139.517 121.855 138.857C128.375 138.315 134.829 139.135 141.678 139.018C141.804 138.534 141.911 138.031 142.038 137.528C135.545 137.528 131.819 137.211 125.787 137.025C120.686 136.874 118.711 138.073 98.3156 137.564C102.658 132.279 102.784 125.937 100.309 122.283C99.3757 120.812 98.0171 119.66 96.4136 118.98C94.8101 118.3 93.0377 118.125 91.3318 118.476C87.9358 119.382 86.0589 122.629 84.3647 125.422C80.9883 130.996 79.9691 130.845 74.9196 132.192C73.9024 132.451 72.9287 132.858 72.0295 133.4C66.9861 129.437 65.7388 122.86 65.0624 116.337C63.4859 101.123 62.7974 55.1408 64.2183 35.6271C64.5203 31.4263 64.6184 26.5671 66.2296 22.6275C67.163 19.9436 68.8995 17.6119 71.2035 15.9488C72.2379 15.3236 72.6924 15.2013 80.6123 14.0628C111.342 9.64755 138.693 11.067 167.821 10.401C208.204 9.47692 237.397 8.53921 273.201 12.5558C275.966 12.8654 277.944 13.2534 279.934 15.4641C282.776 18.62 283.78 22.4659 284.496 26.6501C287.516 44.3171 289.059 97.4842 288.068 113.626C287.754 118.744 286.951 124.611 283.902 128.78C281.817 131.633 278.57 132.176 275.428 132.676C262.945 134.665 210.275 135.184 184.358 136.3C183.412 136.341 182.054 136.474 174.16 136.602C174.231 136.98 174.178 137.626 174.249 137.985C174.4 137.985 252.92 136.45 262.949 135.903C266.324 135.717 269.719 135.494 273.094 135.094C276.196 134.945 279.248 134.246 282.107 133.03C285.54 131.26 287.371 127.302 288.499 123.603C290.173 118.111 290.268 112.148 290.311 106.402C290.416 92.1917 289.587 33.6988 285.012 20.3474Z" fill="#191919"/>
</svg>
