<svg width="188" height="188" viewBox="0 0 188 188" fill="none" xmlns="http://www.w3.org/2000/svg">
<path d="M52.3389 61.5644C52.4931 62.4423 52.8794 63.7264 53.2094 64.939C53.4516 66.0786 53.7829 67.1975 54.2001 68.2854C54.4013 68.8343 54.5366 69.3391 54.969 69.2367C55.455 69.1107 55.2003 67.9432 55.111 67.4234C54.8713 66.0313 53.9924 63.0627 53.795 62.3737C53.6582 61.8638 53.4754 61.3673 53.2488 60.8904C53.0185 60.4204 52.8493 59.926 52.4799 60.0444C52.1697 60.1375 52.1349 60.3668 52.3389 61.5644Z" fill="#2A2929"/>
<path d="M36.073 116.662C34.6094 115.825 32.846 114.594 30.8936 113.198C27.7304 110.99 24.8196 108.441 22.2136 105.597C22.1167 105.492 21.9871 105.422 21.8458 105.4C21.7046 105.378 21.56 105.405 21.4357 105.475C21.3114 105.546 21.2147 105.657 21.1614 105.789C21.1081 105.922 21.1012 106.069 21.142 106.206C21.4419 107.468 21.869 108.696 22.4167 109.872C23.2758 111.443 23.6979 113.425 24.8607 114.845C26.735 117.182 30.0936 117.501 33.0951 117.665C33.1548 117.672 33.2155 117.666 33.2724 117.646C33.3293 117.627 33.381 117.594 33.4233 117.551C33.4656 117.509 33.4974 117.457 33.5163 117.399C33.5352 117.342 33.5406 117.281 33.5322 117.222L35.2148 117.058C35.3858 117.144 35.555 117.231 35.7252 117.319C35.7683 117.341 35.8155 117.356 35.8641 117.36C35.9127 117.365 35.9618 117.36 36.0084 117.345C36.0551 117.331 36.0984 117.308 36.1361 117.276C36.1737 117.245 36.2048 117.207 36.2276 117.164C36.2504 117.121 36.2646 117.074 36.2692 117.025C36.2737 116.976 36.2687 116.927 36.2543 116.881C36.24 116.834 36.2166 116.791 36.1855 116.753C36.1543 116.715 36.1161 116.684 36.073 116.662Z" fill="#CB7428"/>
<path d="M125.415 89.144C123.039 87.9304 117.806 91.0879 120.236 93.3044L120.661 93.5864C121.997 94.1166 123.959 94.3769 125.173 93.3599C126.325 92.402 127.074 90.0003 125.415 89.144Z" fill="#CB7428"/>
<path d="M33.6733 96.0944L33.6658 96.1122C33.7457 96.2194 34.0277 96.6038 33.6733 96.0944Z" fill="#CB7428"/>
<path d="M59.5411 70.1813C58.6568 70.6515 57.8034 71.1777 56.9862 71.7568C56.9616 71.6941 56.9219 71.6384 56.8707 71.5947C56.8194 71.551 56.7582 71.5206 56.6924 71.5062C56.6266 71.4918 56.5582 71.4938 56.4934 71.5121C56.4286 71.5304 56.3693 71.5644 56.3207 71.6111C55.83 70.0958 56.0678 69.8091 55.7182 69.6126C52.3398 67.6621 51.0182 63.0965 49.9719 59.3967C49.2199 56.713 45.4599 46.5319 42.7697 45.9763C41.5318 45.7685 40.2622 45.86 39.067 46.2433C38.9748 46.2624 38.8883 46.303 38.8146 46.3617C38.741 46.4204 38.6821 46.4955 38.6428 46.5811C38.6034 46.6667 38.5848 46.7604 38.5882 46.8545C38.5917 46.9487 38.6173 47.0407 38.6628 47.1231C41.8936 52.781 43.893 61.7044 40.524 67.2316C39.1826 69.3823 37.516 70.3458 35.0006 69.7987C33.3551 69.3596 31.8142 68.5954 30.4688 67.5512C24.9792 63.497 23.8653 56.5053 16.3068 54.7315C16.2153 54.7106 16.1201 54.711 16.0288 54.7329C15.9375 54.7547 15.8525 54.7974 15.7804 54.8574C14.8617 55.6199 14.0028 56.4517 13.2114 57.3456C13.1258 57.435 13.0688 57.5479 13.0476 57.6699C13.0265 57.7918 13.0421 57.9173 13.0925 58.0303C13.1429 58.1433 13.2258 58.2388 13.3307 58.3045C13.4356 58.3703 13.5577 58.4033 13.6814 58.3994C20.3685 58.3458 22.1536 72.5661 23.3521 78.1394C23.8281 79.5773 24.4774 80.952 25.2857 82.2331C25.9512 83.4024 33.6037 95.9994 33.6695 96.0943C35.511 91.775 38.2812 88.7623 43.0695 87.8223C45.5784 87.3288 48.4914 88.219 50.6356 86.4123C52.6585 84.6959 53.387 81.5666 54.4792 79.2561C56.5839 74.7685 59.4612 71.6148 64.4338 70.4201C62.7982 70.2904 60.9981 69.4171 59.5411 70.1813ZM48.859 87.0769C48.0299 86.5223 47.261 85.8887 46.4723 85.2965C47.0351 85.1344 47.5589 84.859 48.0115 84.4872C48.4641 84.1154 48.836 83.6551 49.1043 83.1345C50.1055 83.5286 51.0673 84.0161 51.977 84.5906C51.1122 85.6173 50.0525 86.4624 48.859 87.0769Z" fill="#CB7428"/>
<path d="M34.7174 52.9342C34.4542 50.2317 33.7774 47.0216 34.4946 46.8853C35.5831 46.6776 35.9112 52.3458 35.9713 53.4569C35.9782 53.5438 35.9655 53.6312 35.9341 53.7125C35.9027 53.7939 35.8534 53.8671 35.7899 53.9269C35.5502 54.1675 35.2908 54.1017 34.9599 54.0209C34.1299 53.8225 33.7097 53.7549 33.7464 53.3563C33.783 52.9577 34.1891 52.969 34.6967 52.938L34.7174 52.9342Z" fill="#2A2929"/>
<path d="M27.7371 45.0928C28.0407 45.3748 28.381 45.638 28.6884 45.9087C28.9957 46.1794 29.2956 46.5018 29.6387 46.7547C29.7327 46.8242 30.5082 47.3582 30.7921 47.0827C31.076 46.8073 30.5608 46.0384 30.4885 45.9425C29.8449 45.2048 29.1029 44.5592 28.2832 44.024C27.0161 43.3867 26.626 44.1076 27.7371 45.0928Z" fill="#2A2929"/>
<path d="M29.6593 56.3558C30.1962 56.6755 30.7101 57.0323 31.1972 57.4237C31.5177 57.6417 32.2011 57.9877 32.4718 57.6521C32.9963 56.9941 30.6858 55.3463 29.9225 55.1432C29.5964 55.0727 28.866 55.0314 28.7889 55.4055C28.6695 55.7928 29.5635 56.2844 29.6593 56.3558Z" fill="#2A2929"/>
<path d="M37.6109 41.454C37.5887 41.347 37.5252 41.2532 37.4342 41.1928C37.3432 41.1325 37.232 41.1104 37.1249 41.1315C37.0209 41.1552 36.9297 41.2175 36.8697 41.3057C36.8097 41.394 36.7853 41.5017 36.8015 41.6072C36.8495 41.924 36.872 42.2417 36.9068 42.5594C36.23 42.5951 35.6049 44.2091 35.385 44.8455C35.2505 45.2356 35.2534 46.0553 35.5871 46.1615C35.9461 46.2686 36.3513 45.6529 36.4772 45.4208C36.6239 45.1284 36.5957 45.1171 37.0478 44.0878C37.1884 46.6155 37.1668 49.1496 36.983 51.6746C36.889 53.7069 36.7856 55.9845 35.855 57.7902C35.3062 58.9256 34.374 59.8307 33.2229 60.3456C32.0718 60.8605 30.7757 60.9523 29.5635 60.6046C27.6726 59.9505 26.0929 58.6158 25.1324 56.8606C25.1166 56.8085 25.0897 56.7604 25.0536 56.7197C25.0174 56.679 24.9729 56.6466 24.923 56.6249C24.8731 56.6031 24.8191 56.5924 24.7647 56.5935C24.7102 56.5946 24.6567 56.6076 24.6078 56.6314C24.5588 56.6553 24.5157 56.6895 24.4812 56.7316C24.4468 56.7738 24.4219 56.8229 24.4084 56.8756C24.3948 56.9284 24.3928 56.9834 24.4026 57.0369C24.4124 57.0905 24.4337 57.1413 24.465 57.1858C24.8831 58.2402 25.5212 59.1933 26.3366 59.9817C27.1521 60.7701 28.1262 61.3756 29.1941 61.758C30.6863 62.2086 32.2902 62.1124 33.7178 61.4866C35.1455 60.8608 36.3031 59.7465 36.983 58.3439C38 56.3229 38.1034 53.9569 38.2379 51.7451C38.555 48.3028 38.3436 44.8323 37.6109 41.454Z" fill="#2A2929"/>
<path d="M45.1196 118.792C46.3194 119.433 47.6189 119.866 48.9632 120.075C49.0145 120.089 49.0682 120.094 49.1212 120.088C49.1742 120.081 49.2254 120.065 49.272 120.039C49.3186 120.013 49.3597 119.978 49.3928 119.936C49.426 119.895 49.4506 119.847 49.4652 119.795C49.4798 119.744 49.4842 119.691 49.4781 119.638C49.472 119.585 49.4555 119.533 49.4296 119.487C49.4036 119.44 49.3688 119.399 49.327 119.366C49.2852 119.333 49.2373 119.308 49.186 119.294C47.9558 118.783 46.6827 118.382 45.3818 118.096C44.8968 118.011 44.705 118.521 45.1196 118.792Z" fill="#2A2929"/>
<path d="M46.4919 117.345C47.7187 117.912 49.0198 118.301 50.3562 118.502C50.46 118.529 50.5703 118.513 50.6626 118.459C50.755 118.404 50.822 118.315 50.8488 118.212C50.8756 118.108 50.86 117.998 50.8055 117.905C50.7511 117.813 50.6621 117.746 50.5583 117.719C49.3179 117.226 48.0298 116.864 46.7146 116.637C46.2221 116.569 46.0388 117.102 46.4919 117.345Z" fill="#2A2929"/>
<path d="M63.3856 67.3708C67.0685 67.7524 69.6347 67.4479 76.3942 67.5813C76.5022 67.5813 76.6057 67.6242 76.682 67.7006C76.7584 67.7769 76.8013 67.8804 76.8013 67.9884C76.8013 68.0963 76.7584 68.1998 76.682 68.2762C76.6057 68.3525 76.5022 68.3954 76.3942 68.3954C73.0225 68.4443 68.1373 69.1474 62.8394 68.5589C62.7164 68.5473 62.5999 68.4982 62.5057 68.4182C62.4116 68.3381 62.3443 68.2311 62.313 68.1115C59.8051 58.72 55.1013 47.0339 45.4193 47.4578C45.3203 47.4617 45.2235 47.4279 45.1485 47.3632C45.0734 47.2984 45.0258 47.2076 45.0151 47.1091C45.0125 47.0089 45.0491 46.9116 45.117 46.8379C45.1849 46.7642 45.2789 46.7199 45.3789 46.7143C55.9182 45.8664 60.4556 57.1821 63.3856 67.3708Z" fill="#2A2929"/>
<path d="M81.4524 71.8263C81.4411 72.3973 81.3461 72.9636 81.1704 73.507C80.9524 74.1331 80.7371 74.745 81.0699 74.9706C81.7138 75.3466 82.4141 74.0428 82.6274 72.8801C83.0382 70.6363 81.4524 69.2338 81.4524 71.8263Z" fill="#2A2929"/>
<path d="M83.3779 70.5451C83.3929 70.7585 83.203 72.2239 83.7417 72.3565C84.1374 72.4505 84.4777 71.7097 84.5106 71.6157C84.6899 70.9489 84.6828 70.2456 84.4899 69.5825C84.3141 69.0674 83.815 68.4996 83.4785 68.6679C83.0564 68.8531 83.3393 70.0647 83.3779 70.5451Z" fill="#2A2929"/>
<path d="M85.721 67.2927C85.8013 68.1097 85.7537 68.9343 85.58 69.7367C84.8844 73.147 81.8632 75.3767 78.7612 76.9249C77.9065 77.3602 77.0278 77.7465 76.1292 78.082C76.0775 78.0951 76.029 78.1186 75.9866 78.1509C75.9442 78.1832 75.9088 78.2238 75.8825 78.2701C75.8561 78.3165 75.8394 78.3677 75.8334 78.4206C75.8273 78.4736 75.832 78.5272 75.8472 78.5783C75.874 78.6805 75.9399 78.7681 76.0306 78.8222C76.1213 78.8764 76.2296 78.8927 76.3322 78.8679C77.3403 78.7034 78.3251 78.4194 79.266 78.0219C82.6857 76.5526 86.2859 73.5362 86.7522 69.9313C86.8586 68.9891 86.7549 68.0349 86.4485 67.1376C86.417 67.0531 86.3562 66.9827 86.2771 66.9393C86.1981 66.8959 86.106 66.8824 86.0178 66.9012C85.9296 66.92 85.8511 66.9699 85.7966 67.0418C85.7421 67.1136 85.7153 67.2027 85.721 67.2927Z" fill="#2A2929"/>
<path d="M28.1217 120.105C25.5151 119.47 23.6708 121.293 23.8917 124.139C24.2663 127.673 25.7705 130.992 28.1809 133.603C30.7011 135.994 33.2372 136.078 32.9354 132.982C32.9287 132.873 32.8796 132.771 32.7986 132.699C32.7176 132.626 32.6112 132.588 32.5024 132.592C32.3936 132.597 32.2911 132.645 32.2168 132.724C32.1425 132.804 32.1026 132.91 32.1054 133.018C32.1178 133.349 32.0628 133.678 31.9438 133.986C31.7332 134.533 31.0526 134.187 30.5478 133.886C28.6597 132.63 27.21 130.817 26.4006 128.699C25.689 127.077 24.6493 123.905 25.3666 122.28C25.5675 121.774 25.9375 121.354 26.4135 121.091C26.8895 120.828 27.4421 120.738 27.9769 120.837C28.0277 120.854 28.0815 120.86 28.1347 120.854C28.1878 120.848 28.2392 120.831 28.2853 120.804C28.3315 120.777 28.3713 120.741 28.4021 120.697C28.433 120.653 28.4542 120.604 28.4643 120.551C28.4744 120.499 28.4732 120.445 28.4608 120.393C28.4483 120.341 28.4249 120.292 28.3922 120.25C28.3594 120.207 28.318 120.173 28.2707 120.148C28.2234 120.123 28.1713 120.108 28.1179 120.105H28.1217Z" fill="#2A2929"/>
<path d="M59.0561 142.851C59.4114 147.093 63.9234 147.763 67.1279 148.831C68.1678 149.238 69.2698 149.462 70.3859 149.495C72.609 149.369 73.2209 147.343 70.7901 145.509C68.6356 143.89 66.687 143.347 65.2676 142.39C65.1822 142.328 65.0761 142.302 64.9715 142.316C64.8669 142.33 64.772 142.385 64.7065 142.468C64.6411 142.55 64.6102 142.655 64.6203 142.76C64.6305 142.866 64.6808 142.963 64.7609 143.031C65.8904 143.869 67.066 144.643 68.2822 145.349C69.2701 145.848 70.1554 146.528 70.8916 147.354C71.0303 147.526 71.1021 147.743 71.0937 147.964C70.4583 148.658 68.3969 147.93 67.533 147.644C64.3445 146.593 60.5375 146.026 59.7846 142.75C59.778 142.702 59.762 142.656 59.7376 142.615C59.7132 142.573 59.6808 142.537 59.6423 142.507C59.6038 142.478 59.56 142.457 59.5132 142.445C59.4665 142.433 59.4179 142.43 59.37 142.436C59.3222 142.443 59.2761 142.459 59.2345 142.483C59.1928 142.508 59.1563 142.54 59.1272 142.579C59.098 142.617 59.0768 142.661 59.0645 142.708C59.0523 142.754 59.0495 142.803 59.0561 142.851Z" fill="#2A2929"/>
<path d="M36.1739 30.1862C34.0008 28.3352 31.2188 27.355 28.3653 27.4348C25.9542 27.5016 22.9425 27.7563 21.0004 29.1738C18.7162 30.8724 16.1124 33.7403 17.1361 36.3817C13.9326 39.354 15.2918 44.4169 18.3694 47.3797C16.6614 48.833 17.6108 51.7667 19.5914 52.6926C19.3015 52.8468 19.0207 53.0172 18.7501 53.203C18.0836 53.6486 17.3899 54.4251 17.7386 54.8114C18.1353 55.2513 19.3714 54.3254 19.7822 54.0594C19.8762 54.002 21.2354 53.2641 21.3604 52.8252C21.3789 52.7742 21.3867 52.7199 21.3833 52.6658C21.3799 52.6116 21.3654 52.5588 21.3407 52.5104C21.316 52.4621 21.2817 52.4194 21.2398 52.3849C21.1979 52.3505 21.1494 52.325 21.0972 52.31C20.7638 52.1284 20.4457 51.9199 20.146 51.6868C19.4673 51.2522 18.9765 50.5785 18.7707 49.7993C18.7001 49.5336 18.7023 49.2537 18.777 48.9891C18.8518 48.7244 18.9964 48.4848 19.1956 48.2953C20.1178 47.4296 20.8481 48.1073 21.32 48.567C21.955 49.202 22.5119 49.9104 22.9791 50.6773C23.0376 50.7568 23.1191 50.8164 23.2126 50.8482C23.306 50.8799 23.407 50.8822 23.5018 50.8547C23.5966 50.8273 23.6807 50.7714 23.7427 50.6946C23.8047 50.6178 23.8417 50.5238 23.8486 50.4253C23.9477 48.8544 23.8866 47.2774 23.6663 45.7188C23.3791 43.7942 22.9668 41.8905 22.432 40.0195C24.3617 41.0337 26.4592 41.6898 28.6229 41.9559C30.6783 42.4277 32.8224 42.3433 34.8344 41.7115C39.5871 39.95 39.5448 33.4236 36.1739 30.1862ZM18.0667 38.6923C17.9801 39.358 17.8587 40.0188 17.7029 40.6719C17.6901 40.7773 17.6405 40.8748 17.5627 40.947C17.4849 41.0193 17.3841 41.0617 17.278 41.0667C16.3512 41.0385 17.0336 37.8331 17.8853 38.2016C18.0686 38.2805 18.0911 38.4892 18.0667 38.6923ZM25.3912 29.892C24.986 30.0273 24.6222 30.2247 24.2171 30.4005C22.3681 31.2042 20.8519 32.1188 19.9486 33.9227C19.7549 34.2737 19.5859 34.6377 19.4428 35.0122C19.4365 35.0615 19.4204 35.109 19.3956 35.1521C19.3707 35.1951 19.3376 35.2328 19.2981 35.263C19.2586 35.2931 19.2135 35.3151 19.1654 35.3278C19.1173 35.3404 19.0672 35.3433 19.018 35.3365C18.9206 35.3233 18.8322 35.2726 18.7718 35.1951C18.7114 35.1176 18.6837 35.0196 18.6946 34.9219C18.532 32.3491 21.211 30.1552 23.5704 29.3759C24.1074 29.2058 24.6655 29.1109 25.2285 29.0939C25.333 29.0738 25.4412 29.0959 25.5293 29.1555C25.6174 29.2151 25.6783 29.3072 25.6986 29.4116C25.7185 29.5158 25.6978 29.6237 25.6406 29.7131C25.5834 29.8024 25.4941 29.8665 25.3912 29.892Z" fill="#2A2929"/>
<path d="M99.5382 51.7272C99.3643 51.4057 99.1838 51.4189 99.0118 51.7272C98.9861 51.7731 98.9728 51.825 98.9733 51.8776C98.9738 51.9303 98.988 51.9819 99.0146 52.0273C99.0413 52.0727 99.0793 52.1104 99.125 52.1366C99.1706 52.1628 99.2224 52.1765 99.275 52.1765C99.3276 52.1765 99.3794 52.1628 99.4251 52.1366C99.4707 52.1104 99.5088 52.0727 99.5354 52.0273C99.562 51.9819 99.5762 51.9303 99.5767 51.8776C99.5772 51.825 99.5639 51.7731 99.5382 51.7272Z" fill="#2A2929"/>
<path d="M99.4179 54.1562C99.3922 54.2021 99.3789 54.254 99.3794 54.3066C99.3799 54.3593 99.3942 54.4109 99.4208 54.4563C99.4474 54.5017 99.4854 54.5394 99.5311 54.5656C99.5768 54.5917 99.6285 54.6055 99.6811 54.6055C99.7338 54.6055 99.7855 54.5917 99.8312 54.5656C99.8769 54.5394 99.9149 54.5017 99.9415 54.4563C99.9681 54.4109 99.9824 54.3593 99.9829 54.3066C99.9834 54.254 99.9701 54.2021 99.9443 54.1562C99.7695 53.8338 99.59 53.847 99.4179 54.1562Z" fill="#2A2929"/>
<path d="M96.5847 56.3812C96.5589 56.4271 96.5457 56.479 96.5462 56.5316C96.5467 56.5843 96.5609 56.6359 96.5875 56.6813C96.6141 56.7267 96.6522 56.7644 96.6978 56.7906C96.7435 56.8167 96.7952 56.8305 96.8479 56.8305C96.9005 56.8305 96.9523 56.8167 96.9979 56.7906C97.0436 56.7644 97.0816 56.7267 97.1082 56.6813C97.1348 56.6359 97.1491 56.5843 97.1496 56.5316C97.1501 56.479 97.1368 56.4271 97.1111 56.3812C96.9362 56.0597 96.7558 56.0719 96.5847 56.3812Z" fill="#2A2929"/>
<path d="M102.008 53.7886C101.852 52.5366 101.549 50.9846 101.4 49.6357C101.389 49.5456 101.357 49.4594 101.307 49.3832C101.258 49.3071 101.192 49.243 101.114 49.1957C101.037 49.1485 100.949 49.1192 100.859 49.1101C100.769 49.101 100.677 49.1123 100.592 49.1432C98.2908 49.9779 92.1536 52.5901 91.1233 53.2444C91.0281 53.2954 90.9469 53.3691 90.8869 53.4589C90.8269 53.5488 90.7899 53.652 90.7793 53.7595C90.679 55.4734 90.0185 57.1069 88.8993 58.4087C83.781 63.2836 71.3927 73.9056 63.5606 81.0966C62.7806 78.3655 63.0057 75.4452 64.1951 72.8659C64.417 72.3019 64.7591 71.2679 64.903 70.9277C64.996 70.7552 65.0512 70.5648 65.0646 70.3693C65.055 70.2219 64.9928 70.0828 64.8893 69.9774C64.7858 69.872 64.6478 69.8073 64.5006 69.795C62.7419 69.6568 60.9437 68.7356 59.2601 69.6267C55.8674 71.3346 53.0165 73.9523 51.0257 77.1871C49.8037 79.2739 49.0865 82.7049 47.2225 84.1027C45.3782 85.4413 42.6625 83.9533 40.2665 84.0219C36.1756 84.1629 33.3048 86.5185 31.0789 89.974C30.0647 88.2914 24.5873 78.8819 23.7168 77.3779C23.5241 76.9437 22.8408 77.2905 23.0701 77.7286C24.3015 80.0786 25.077 81.9661 27.035 85.477C32.0067 94.5113 38.3771 104.22 45.6837 111.39C47.786 113.443 50.015 115.363 52.3577 117.137C52.2335 117.119 52.1068 117.142 51.9966 117.202C51.8864 117.262 51.7986 117.356 51.7463 117.47C51.6939 117.585 51.6799 117.713 51.7062 117.835C51.7326 117.958 51.7979 118.069 51.8924 118.151C52.071 118.322 52.0334 118.33 51.9122 118.494C51.7075 118.699 51.4328 118.819 51.1432 118.829C51.0348 118.829 50.9283 118.858 50.835 118.913C50.7416 118.968 50.665 119.047 50.6131 119.143C50.5613 119.238 50.5362 119.345 50.5405 119.454C50.5448 119.562 50.5783 119.667 50.6375 119.758C50.6792 119.805 50.7074 119.862 50.7193 119.923C50.7193 119.99 50.4786 120.253 49.9908 120.327C49.9 120.34 49.8134 120.374 49.7378 120.426C49.6622 120.478 49.5995 120.547 49.5545 120.627C49.5096 120.707 49.4836 120.796 49.4786 120.888C49.4735 120.98 49.4896 121.071 49.5255 121.156C49.0214 121.261 48.499 121.235 48.0074 121.082C43.2716 119.805 38.7281 117.899 34.4977 115.417C24.0712 109.255 11.0804 95.0584 7.20574 82.6664C4.54178 74.2261 5.91606 66.4232 12.2028 60.144C12.2394 60.1097 12.2688 60.0685 12.2892 60.0228C12.3097 59.977 12.3208 59.9276 12.3219 59.8775C12.3229 59.8274 12.314 59.7775 12.2955 59.7309C12.2771 59.6843 12.2495 59.6419 12.2144 59.6061C12.1793 59.5703 12.1374 59.5419 12.0911 59.5225C12.0449 59.5032 11.9953 59.4933 11.9451 59.4934C11.895 59.4935 11.8454 59.5036 11.7993 59.5232C11.7531 59.5427 11.7113 59.5713 11.6764 59.6072C4.74952 65.9992 3.23518 74.0663 6.01194 83.0368C10.069 96.0586 23.8513 110.662 33.8905 116.458C35.0307 117.116 34.9245 116.697 31.9277 116.801C31.8246 116.805 31.724 116.835 31.6351 116.887C31.5461 116.94 31.4714 117.013 31.4175 117.101C31.3636 117.19 31.3323 117.29 31.3262 117.393C31.3201 117.496 31.3394 117.599 31.3825 117.693C32.5641 120.009 33.6536 122.738 34.619 125.191C32.9082 123.902 30.859 121.831 30.5525 121.619C30.4566 121.544 30.3422 121.495 30.2213 121.479C30.1003 121.462 29.9771 121.478 29.8644 121.525C29.0673 121.928 28.4052 122.554 27.9594 123.328C27.5137 124.102 27.3038 124.989 27.3556 125.881C27.4583 126.431 27.7103 126.942 28.0841 127.358C30.1709 130.11 35.856 135.237 39.475 136.89C41.8626 137.995 44.5134 138.519 46.5964 136.915C50.2803 134.061 51.8605 125.752 52.6049 121.327C52.7723 121.205 53.4406 120.792 53.5355 120.735C56.2629 127.219 57.8442 134.127 58.2092 141.151C58.2178 141.258 58.2541 141.361 58.3144 141.449C58.3748 141.537 58.4571 141.608 58.5532 141.655C60.0031 142.387 61.6609 142.595 63.2467 142.245C63.8423 142.105 64.3784 141.78 64.7782 141.317C65.178 140.854 65.4211 140.276 65.4726 139.666C65.9924 135.718 65.7029 131.378 65.8157 127.424C66.0215 118.046 65.9341 107.981 63.4497 98.8993C64.4734 98.2364 65.4474 97.4997 66.3637 96.695C70.6464 92.8052 70.2741 88.2049 67.189 86.1773C71.3607 81.9746 76.401 76.9512 80.7683 72.9139C81.2261 72.5144 80.7044 72.0557 80.4647 70.7838C80.2419 69.6558 80.6743 68.7393 81.5776 69.4547C81.6511 69.5163 81.7406 69.5557 81.8356 69.5683C81.9306 69.5809 82.0273 69.5661 82.1143 69.5258C82.2012 69.4855 82.2749 69.4212 82.3267 69.3405C82.3785 69.2598 82.4062 69.1661 82.4067 69.0702C82.4093 68.5596 82.5801 68.064 82.8927 67.6602C83.1314 67.3782 83.3279 67.3105 83.6616 67.8238C83.7183 67.9089 83.8016 67.9728 83.8985 68.0055C83.9954 68.0382 84.1004 68.0379 84.1971 68.0046C84.2937 67.9713 84.3766 67.9069 84.4328 67.8214C84.489 67.736 84.5153 67.6343 84.5076 67.5324C84.4918 66.7828 84.7267 66.0494 85.175 65.4484C85.269 65.3544 85.2248 65.3986 85.2765 65.4381C85.52 65.8601 85.3799 66.3104 85.8227 66.3893C86.3406 66.4833 86.1987 65.8366 86.6922 66.035C86.7912 66.0751 86.902 66.0745 87.0006 66.0334C87.0992 65.9922 87.1776 65.9137 87.2186 65.815C87.2409 65.7757 87.2546 65.7321 87.259 65.6872C88.575 64.4323 89.891 63.0025 91.0434 61.8867C90.9022 61.5906 90.7766 61.2872 90.6674 60.9778C89.3122 62.5856 87.7574 64.014 86.0407 65.2284C85.8462 65.4033 85.6018 65.1128 85.7785 64.9568C86.891 63.7612 88.0804 62.6396 89.3392 61.5991C89.3693 61.5709 90.4888 60.5275 90.5217 60.5125C90.3525 59.9485 90.3732 60.0293 90.2059 59.5255C89.0337 60.6065 77.8515 70.859 74.8369 73.7242C66.3609 81.7508 65.5374 82.8817 63.6885 84.5342C61.501 86.3144 59.4423 88.2472 57.5277 90.318L57.5841 90.4487C56.1499 91.6072 54.814 92.8825 53.59 94.2613C53.4021 94.0733 53.5797 94.1833 53.1201 93.8853C56.5981 90.4411 55.33 91.7233 57.2429 89.6732L57.3538 89.9279C58.8173 88.2323 60.3922 86.6361 62.0679 85.1499C64.5758 82.9766 72.4427 74.7159 84.6279 63.8457C90.6637 58.5018 90.0987 59.1927 90.0301 58.9286C89.9897 58.8346 89.7481 58.0205 90.0094 57.935C90.3854 57.8109 90.846 59.4145 90.9804 59.8056C91.1801 60.3601 91.3326 60.9305 91.4363 61.5107L91.4457 61.5023C92.6292 61.8238 92.8078 61.9328 93.024 61.7053C93.6106 61.1987 99.4978 56.3078 101.805 54.2906C101.876 54.2293 101.932 54.1517 101.967 54.0643C102.002 53.977 102.016 53.8824 102.008 53.7886ZM35.3851 129.316C34.9306 128.406 34.6168 127.433 34.4545 126.429C34.3887 126.003 34.8023 125.691 35.1623 126.169C35.6885 127.064 36.0322 128.054 36.1737 129.083C36.2442 129.587 35.6699 129.839 35.3851 129.316ZM40.2815 85.2298C42.5676 85.1706 45.5812 86.8372 47.9491 85.0963C50.2342 83.4109 50.8133 80.0043 52.0964 77.8169C53.9725 74.7837 56.6553 72.332 59.8448 70.7359C60.4919 70.4652 61.2101 70.4154 61.8884 70.594C58.071 72.2023 55.6891 75.2244 53.9172 78.9882C52.8832 81.2489 52.0851 84.396 50.2352 85.9442C48.3618 87.5685 45.5418 86.7234 42.9718 87.2489C38.6647 88.141 35.8569 90.6028 33.9252 94.5489C33.1507 93.3489 32.3902 92.1366 31.6439 90.9121C33.7194 87.7189 36.4858 85.3078 40.2815 85.2316V85.2298ZM44.7183 106.454C44.557 106.151 44.3947 105.848 44.2314 105.545C45.4628 104.332 45.4064 104.433 48.2104 101.672C48.3708 101.797 48.5405 101.91 48.718 102.009C47.2424 103.357 45.9027 104.846 44.7183 106.456V106.454ZM43.7783 104.709C43.5405 104.275 43.3083 103.849 43.0771 103.437C44.4455 102.358 45.7441 101.194 46.9649 99.9511C47.0752 100.231 47.2164 100.497 47.386 100.745C46.0719 101.964 44.8643 103.292 43.7764 104.716L43.7783 104.709ZM48.6184 96.1404C48.954 95.7691 50.5924 93.9633 50.8847 94.3685C50.9956 94.4878 50.9787 94.5659 50.52 95.1073C49.9954 95.6479 49.4626 96.1807 48.922 96.7053C48.7801 96.8566 48.2875 97.3191 48.092 97.148C47.8965 96.977 48.4332 96.35 48.6165 96.1422L48.6184 96.1404ZM67.8179 92.8146C65.8157 96.9083 61.1439 98.1858 58.1679 101.551C55.7351 104.313 54.6109 109.372 52.2402 111.634C51.4312 112.403 50.4961 113.028 49.4757 113.481C48.7067 112.761 47.5017 111.575 45.8849 109.881C46.3746 109.537 45.4468 107.806 45.1611 107.275C46.1302 106.257 47.0486 105.407 50.0491 102.453C52.666 102.772 54.7143 100.18 54.7735 97.3774C57.2654 94.5753 57.5794 94.1128 58.636 92.8494C58.871 93.389 58.933 93.6954 59.3438 93.7612C59.4424 93.7792 59.5439 93.7726 59.6394 93.7419C59.7348 93.7112 59.8212 93.6575 59.8909 93.5854C62.1412 91.2824 64.3922 88.9951 66.6438 86.7234C67.5256 87.4383 68.1267 88.4415 68.3412 89.5562C68.5556 90.6709 68.3696 91.8255 67.816 92.8165L67.8179 92.8146ZM57.9432 91.274L58.1246 91.6904C61.1618 88.5884 63.1273 86.871 64.9866 84.991C71.5281 78.3988 72.9964 76.3844 79.7559 70.327C79.7756 70.3081 79.7989 70.2935 79.8244 70.2839C79.8499 70.2743 79.8771 70.27 79.9044 70.2713C79.9316 70.2726 79.9583 70.2794 79.9828 70.2912C80.0074 70.3031 80.0292 70.3199 80.0471 70.3405C80.0649 70.3611 80.0784 70.3851 80.0867 70.4111C80.095 70.437 80.0979 70.4644 80.0953 70.4916C80.0927 70.5187 80.0846 70.545 80.0715 70.5689C80.0584 70.5928 80.0406 70.6138 80.0191 70.6306C79.0274 71.5857 63.5907 87.2423 62.6404 88.1146C61.3291 89.3272 59.4904 90.9534 58.3512 92.0138C58.3284 92.0345 58.3014 92.0499 58.2719 92.0588C58.2425 92.0678 58.2114 92.07 58.181 92.0655C56.8914 93.2245 55.676 94.4637 54.5423 95.7756C54.4869 95.5989 54.4203 95.4259 54.343 95.2577C57.3858 91.9376 57.084 92.2055 57.9432 91.274ZM54.0591 95.9176C54.2556 95.7296 54.5291 96.0388 54.3411 96.2212C54.2838 96.2785 52.447 98.3682 52.2976 98.5439C51.6033 99.4376 50.8462 100.281 50.0322 101.067C49.9981 101.097 49.9542 101.114 49.9088 101.114C49.8633 101.114 49.8193 101.098 49.7849 101.068C49.7505 101.039 49.728 100.997 49.7216 100.952C49.7152 100.907 49.7254 100.862 49.7501 100.823C50.9458 98.991 52.3968 97.3384 54.0591 95.9157V95.9176ZM53.1483 94.6617C53.3278 94.8497 53.0994 94.9917 52.8249 95.3432C52.7309 95.4372 50.3245 98.0692 48.7989 99.545C48.767 99.5853 48.7204 99.6112 48.6693 99.6171C48.6183 99.623 48.567 99.6084 48.5267 99.5765C48.4865 99.5446 48.4605 99.498 48.4546 99.447C48.4487 99.3959 48.4633 99.3447 48.4952 99.3044C48.7779 98.8369 49.1029 98.3963 49.4663 97.9884C50.468 96.7501 51.6085 95.6308 52.8653 94.6523C52.8839 94.6336 52.9062 94.6188 52.9307 94.6088C52.9552 94.5989 52.9815 94.594 53.008 94.5946C53.0344 94.5951 53.0605 94.601 53.0846 94.6119C53.1087 94.6228 53.1304 94.6385 53.1483 94.658V94.6617ZM56.7898 87.8937C56.5351 88.2697 56.7945 88.6457 56.8838 88.8563C55.1146 90.2522 53.4405 91.7646 51.8727 93.3833C49.0188 92.8015 46.5043 94.9475 46.6895 98.4838C43.4662 101.701 44.0895 101.052 42.6475 102.675C42.4595 102.342 42.6522 102.666 42.2207 101.91C41.4687 100.772 41.3954 100.581 41.0674 100.713C40.5974 100.901 41.1153 102.204 41.2901 102.626C41.6972 103.665 43.6016 107.038 44.2389 108.129C40.6416 104.154 37.3723 99.8942 34.4629 95.3912C36.3241 91.6312 38.9552 89.1693 43.1871 88.3938C46.3831 87.7941 49.9466 89.4551 52.6961 84.8218C54.6701 81.5168 55.8235 73.6527 63.7242 71.2585C63.3072 71.8697 62.9731 72.5335 62.7306 73.2325C61.7248 75.9341 61.2727 79.2702 62.8246 81.7602C60.6484 83.6346 58.63 85.6847 56.7898 87.89V87.8937ZM92.4957 54.927C92.4936 54.8075 92.5178 54.689 92.5665 54.5798C92.6153 54.4707 92.6874 54.3735 92.7777 54.2953C92.9633 54.1712 93.1815 54.105 93.4047 54.105C93.6279 54.105 93.8461 54.1712 94.0317 54.2953C94.1215 54.3757 94.1937 54.4738 94.2437 54.5835C94.2938 54.6932 94.3205 54.812 94.3224 54.9325C94.3243 55.0531 94.3011 55.1727 94.2545 55.2838C94.2079 55.395 94.1387 55.4953 94.0514 55.5784C93.9238 55.707 93.7607 55.7945 93.5831 55.8299C93.4054 55.8652 93.2212 55.8467 93.0541 55.7767C92.887 55.7068 92.7446 55.5885 92.6452 55.4371C92.5457 55.2858 92.4936 55.1081 92.4957 54.927ZM93.1631 59.423C93.0778 59.3387 93.0104 59.238 92.965 59.1269C92.9196 59.0158 92.8971 58.8967 92.899 58.7768C92.9008 58.6568 92.9269 58.5385 92.9757 58.4288C93.0245 58.3192 93.095 58.2206 93.1829 58.139C93.6021 57.7912 94.7207 57.8673 94.7207 58.7706C94.7214 58.9511 94.6686 59.1277 94.569 59.2781C94.4694 59.4285 94.3275 59.5461 94.1611 59.6159C93.9947 59.6857 93.8114 59.7046 93.6343 59.6703C93.4572 59.636 93.2942 59.5499 93.1659 59.423H93.1631ZM95.531 53.1062C95.5288 52.9867 95.553 52.8682 95.6017 52.759C95.6504 52.6498 95.7226 52.5527 95.813 52.4745C95.9985 52.3505 96.2167 52.2842 96.44 52.2842C96.6632 52.2842 96.8814 52.3505 97.0669 52.4745C97.1568 52.5549 97.2291 52.6529 97.2792 52.7626C97.3293 52.8722 97.3562 52.991 97.3581 53.1115C97.3601 53.2321 97.3371 53.3517 97.2905 53.4629C97.2439 53.5741 97.1749 53.6744 97.0876 53.7576C96.9601 53.8853 96.7976 53.9722 96.6206 54.0073C96.4436 54.0423 96.2602 54.024 96.0936 53.9546C95.9271 53.8852 95.7849 53.7678 95.6853 53.6174C95.5856 53.467 95.5329 53.2904 95.5338 53.11L95.531 53.1062ZM96.1974 57.198C96.1122 57.1136 96.0449 57.0129 95.9996 56.9018C95.9543 56.7908 95.9319 56.6717 95.9337 56.5518C95.9356 56.4319 95.9616 56.3136 96.0103 56.2039C96.059 56.0943 96.1294 55.9957 96.2172 55.914C96.6242 55.5756 97.755 55.632 97.755 56.5457C97.7557 56.7261 97.7029 56.9027 97.6034 57.0531C97.5038 57.2036 97.3618 57.3211 97.1954 57.3909C97.0291 57.4607 96.8457 57.4797 96.6686 57.4453C96.4915 57.411 96.3285 57.3249 96.2003 57.198H96.1974ZM98.3594 51.8917C98.3576 51.7722 98.3819 51.6538 98.4306 51.5447C98.4793 51.4356 98.5513 51.3385 98.6414 51.26C98.827 51.136 99.0452 51.0697 99.2684 51.0697C99.4916 51.0697 99.7098 51.136 99.8954 51.26C99.9862 51.3399 100.059 51.4378 100.11 51.5475C100.161 51.6572 100.189 51.7763 100.191 51.8972C100.194 52.0181 100.171 52.1383 100.125 52.2499C100.078 52.3616 100.009 52.4624 99.9217 52.546C99.7938 52.6753 99.63 52.7633 99.4515 52.7987C99.2731 52.834 99.0881 52.815 98.9205 52.7442C98.753 52.6733 98.6105 52.5539 98.5115 52.4013C98.4124 52.2487 98.3615 52.0699 98.3651 51.888L98.3594 51.8917ZM99.0287 54.9721C98.9434 54.8878 98.876 54.7871 98.8306 54.676C98.7852 54.5649 98.7627 54.4458 98.7646 54.3259C98.7664 54.2059 98.7925 54.0876 98.8413 53.9779C98.8901 53.8683 98.9606 53.7697 99.0485 53.6881C99.4677 53.3403 100.586 53.4164 100.586 54.3197C100.586 54.4996 100.533 54.6755 100.434 54.8253C100.335 54.9752 100.193 55.0923 100.027 55.162C99.8615 55.2317 99.6788 55.2508 99.5021 55.217C99.3255 55.1833 99.1627 55.0981 99.0344 54.9721H99.0287Z" fill="#2A2929"/>
<path d="M96.7068 52.9418C96.5329 52.6203 96.3525 52.6325 96.1804 52.9418C96.1481 53.0015 96.1366 53.0703 96.1476 53.1374C96.1587 53.2044 96.1917 53.2659 96.2415 53.3121C96.2943 53.361 96.3628 53.3893 96.4347 53.392C96.5065 53.3947 96.577 53.3715 96.6332 53.3267C96.6895 53.282 96.7278 53.2185 96.7414 53.1479C96.7549 53.0773 96.7426 53.0041 96.7068 52.9418Z" fill="#2A2929"/>
<path d="M93.6725 54.7625C93.4977 54.441 93.3181 54.4532 93.1461 54.7625C93.1135 54.8222 93.1018 54.8911 93.1128 54.9582C93.1239 55.0253 93.1571 55.0868 93.2072 55.1329C93.2603 55.1802 93.3285 55.2072 93.3996 55.2092C93.4707 55.2112 93.5402 55.1879 93.5958 55.1436C93.6515 55.0993 93.6897 55.0368 93.7038 54.9671C93.7178 54.8973 93.7067 54.8249 93.6725 54.7625Z" fill="#2A2929"/>
<path d="M93.5494 58.6071C93.5237 58.653 93.5104 58.7049 93.5109 58.7575C93.5114 58.8101 93.5256 58.8617 93.5523 58.9072C93.5789 58.9526 93.6169 58.9903 93.6626 59.0164C93.7082 59.0426 93.76 59.0564 93.8126 59.0564C93.8653 59.0564 93.917 59.0426 93.9627 59.0164C94.0083 58.9903 94.0464 58.9526 94.073 58.9072C94.0996 58.8617 94.1138 58.8101 94.1143 58.7575C94.1148 58.7049 94.1016 58.653 94.0758 58.6071C93.9057 58.2847 93.7177 58.2978 93.5494 58.6071Z" fill="#2A2929"/>
<path d="M28.9703 50.0023C28.9703 50.396 29.0719 50.7735 29.2528 51.0519C29.4337 51.3302 29.679 51.4866 29.9348 51.4866C30.1906 51.4866 30.4359 51.3302 30.6167 51.0519C30.7976 50.7735 30.8992 50.396 30.8992 50.0023C30.8992 49.6087 30.7976 49.2311 30.6167 48.9528C30.4359 48.6744 30.1906 48.5181 29.9348 48.5181C29.679 48.5181 29.4337 48.6744 29.2528 48.9528C29.0719 49.2311 28.9703 49.6087 28.9703 50.0023Z" fill="#2A2929"/>
<path d="M111.354 120.92C110.233 120.229 104.346 116.032 85.0941 106.742C78.8441 103.729 80.3236 104.817 79.9758 104.11C79.0087 102.159 77.9358 100.262 76.762 98.4283C76.7508 98.3378 76.7215 98.2504 76.6758 98.1714C76.6301 98.0924 76.5689 98.0235 76.4959 97.9687C74.6389 96.4563 72.5743 95.2185 70.3653 94.2933C70.3166 94.2652 70.2627 94.2472 70.2069 94.2404C70.1511 94.2337 70.0945 94.2383 70.0405 94.254C69.9866 94.2697 69.9363 94.2962 69.8929 94.3319C69.8494 94.3675 69.8136 94.4116 69.7876 94.4614C69.7617 94.5113 69.746 94.5659 69.7417 94.6219C69.7374 94.678 69.7445 94.7343 69.7626 94.7876C69.7806 94.8408 69.8092 94.8898 69.8467 94.9317C69.8843 94.9736 69.9299 95.0074 69.9808 95.0312C70.29 95.2192 73.7192 97.493 75.2213 98.6032C74.9233 98.9876 74.7654 99.1879 74.1488 100.04C72.2708 98.7512 70.3254 97.5633 68.3207 96.4816C68.2805 96.4528 68.2349 96.4322 68.1867 96.4211C68.1385 96.4099 68.0885 96.4084 68.0397 96.4166C67.9908 96.4248 67.9441 96.4426 67.9022 96.4689C67.8603 96.4952 67.8239 96.5296 67.7953 96.57C67.738 96.6518 67.7144 96.7525 67.7295 96.8512C67.7445 96.95 67.797 97.0391 67.8761 97.1001C69.7562 98.6832 71.7587 100.115 73.8649 101.382C70.9509 109.265 71.9313 107.304 70.1989 113.308C70.0287 113.907 69.846 114.502 69.6508 115.094C69.039 114.683 68.4047 114.306 67.7511 113.966C66.0911 113.137 65.6916 114.187 67.4268 115.228C68.3377 115.798 68.8067 116.079 69.7138 116.553C69.8519 116.625 70.011 116.646 70.1628 116.611C70.3146 116.577 70.4493 116.49 70.5429 116.365C71.8467 114.463 73.5782 113.012 77.6211 107.811C78.39 108.209 108.005 123.766 109.307 124.421C109.405 124.47 109.518 124.479 109.623 124.446C109.728 124.414 109.817 124.343 109.871 124.247C109.92 124.148 109.928 124.034 109.894 123.928C109.86 123.823 109.786 123.735 109.688 123.683C101.718 119.109 86.6282 110.592 78.1193 107.158C78.6206 106.499 79.1182 105.836 79.612 105.166C87.6622 109.67 91.5811 111.079 110.923 121.629C111.016 121.683 111.127 121.697 111.232 121.67C111.336 121.643 111.426 121.576 111.482 121.484C111.538 121.391 111.556 121.281 111.532 121.176C111.508 121.07 111.444 120.979 111.354 120.92ZM71.5995 113.038C71.6305 112.916 72.8525 108.135 72.9756 107.688C75.0117 100.28 74.5614 101.698 74.8556 101.267C75.2373 100.689 75.9771 99.7161 76.2788 99.3242C77.1004 100.859 77.9059 102.57 78.7228 104.306C76.4829 107.324 74.106 110.238 71.5995 113.038Z" fill="#2A2929"/>
<path d="M66.2583 100.041C66.161 100.024 66.0611 100.031 65.9667 100.06C65.8723 100.089 65.7861 100.14 65.7151 100.208C65.6441 100.277 65.5903 100.361 65.5581 100.455C65.5259 100.548 65.5162 100.648 65.5298 100.745C65.6717 102.042 65.7121 103.349 65.793 104.656C65.8724 105.762 66.0294 106.862 66.263 107.946C66.2798 107.998 66.3069 108.046 66.3427 108.087C66.3786 108.129 66.4224 108.162 66.4715 108.186C66.5207 108.21 66.5742 108.224 66.6288 108.227C66.6834 108.23 66.738 108.221 66.7894 108.202C70.7402 107.16 70.5099 100.708 66.2583 100.041Z" fill="#2A2929"/>
<path d="M159.061 150.701C158.612 150.325 156.264 148.955 155.763 148.664C155.237 148.307 154.652 148.046 154.036 147.892C154.164 147.45 154.793 143.933 154.853 143.592C154.956 142.947 155.212 141.315 154.589 141.095C142.463 131.907 129.856 123.843 115.785 117.595C115.365 117.423 115.108 117.664 114.469 118.095C113.6 118.703 112.79 119.419 111.881 119.975C111.805 120.022 111.74 120.085 111.69 120.158C111.639 120.232 111.605 120.315 111.589 120.403C111.572 120.49 111.574 120.58 111.594 120.667C111.614 120.754 111.652 120.836 111.705 120.907C110.454 126.79 109.095 130.582 106.842 138.072C106.8 138.211 106.808 138.361 106.863 138.495C106.918 138.63 107.018 138.741 107.146 138.811C112.864 141.906 118.323 145.457 123.715 148.752C130.577 152.975 138.131 157.024 144.352 160.493C144.458 160.556 144.582 160.585 144.705 160.575C144.828 160.566 144.946 160.518 145.041 160.439C145.068 160.418 145.744 159.669 145.768 159.643C146.084 159.285 146.464 158.786 146.779 158.351C150.107 153.651 150.134 154.069 152.595 150.729C153.014 151.172 153.495 151.551 154.023 151.857C154.427 152.116 156.715 153.578 157.441 153.925C158.241 154.301 158.649 154.46 158.858 154.127C159.099 153.745 158.285 153.111 157.927 152.838C156.403 151.754 154.79 150.798 153.107 149.982C153.316 149.657 153.523 149.33 153.719 149C153.98 148.664 153.392 148.689 154.847 149.593C155.215 149.827 157.697 151.351 158.325 151.639C159.372 152.116 159.68 152.137 159.863 151.839C160.082 151.489 159.713 151.185 159.061 150.701ZM115.563 118.899C128.83 124.809 141.965 133.157 153.882 141.541C153.478 142.063 152.597 142.944 151.878 143.718C143.99 138.119 135.346 133.812 113.399 120.491C114.177 119.922 114.78 119.407 115.563 118.899ZM144.327 159.051C136.442 154.648 130.934 151.673 124.379 147.656C119.002 144.366 113.726 140.936 108.194 137.949C109.968 132.531 111.379 127.001 112.416 121.395C116.062 123.607 149.772 143.452 151.238 144.435C149.438 148.772 145.963 155.304 144.332 159.048L144.327 159.051ZM147.429 155.257C148.992 151.768 150.625 148.512 151.994 144.812C152.238 144.785 152.144 144.812 153.646 143.125C153.609 143.292 153.056 146.203 152.887 147.442C152.843 147.869 152.83 148.299 152.848 148.728C151.173 150.485 148.789 153.463 147.432 155.257H147.429Z" fill="#2A2929"/>
<path d="M124.728 131.085C124.274 130.175 123.61 129.387 122.791 128.784C121.971 128.181 121.021 127.782 120.017 127.619C119.013 127.456 117.985 127.533 117.017 127.845C116.05 128.157 115.17 128.695 114.45 129.414C110.514 133.504 113.289 140.773 119.002 140.779C123.805 140.773 126.811 135.441 124.728 131.085Z" fill="#2A2929"/>
<path d="M144.706 142.667C144.214 141.734 143.512 140.928 142.656 140.313C141.799 139.699 140.811 139.292 139.77 139.124C138.728 138.957 137.663 139.035 136.657 139.351C135.651 139.667 134.732 140.212 133.973 140.945C129.875 145.111 132.664 152.676 138.722 152.682C143.742 152.677 146.909 147.218 144.706 142.667Z" fill="#2A2929"/>
<path d="M123.958 84.1638C124.559 83.4316 125.152 82.703 125.74 81.9661C126.13 81.4754 127.1 80.2741 126.609 79.884C125.978 79.3943 124.189 81.8035 123.635 82.516C123.334 82.8818 123.057 83.2664 122.806 83.6675C121.967 85.1386 122.556 85.8727 123.958 84.1638Z" fill="#2A2929"/>
<path d="M122.604 77.8997C123.249 78.1309 123.399 78.2606 123.777 79.1217C124.016 79.6688 124.562 79.5522 124.606 78.9967C124.632 78.7353 124.597 78.4715 124.505 78.2256C124.412 77.9798 124.264 77.7585 124.073 77.5789C123.881 77.3994 123.651 77.2663 123.399 77.1901C123.148 77.1138 122.883 77.0964 122.623 77.1392C122.428 77.1919 122.247 77.2953 122.239 77.503C122.231 77.7107 122.393 77.8245 122.604 77.8997Z" fill="#2A2929"/>
<path d="M129.078 80.0729C129.45 80.071 129.816 80.1727 130.134 80.3666C130.451 80.5604 130.709 80.8389 130.878 81.1708C130.905 81.2781 130.974 81.3702 131.069 81.4268C131.164 81.4834 131.278 81.4999 131.385 81.4726C131.493 81.4453 131.585 81.3764 131.641 81.2813C131.698 81.1861 131.714 81.0723 131.687 80.965C131.679 80.6286 131.583 80.3002 131.408 80.0129C131.233 79.7255 130.985 79.4893 130.69 79.3279C130.394 79.1666 130.062 79.0858 129.725 79.0936C129.389 79.1014 129.061 79.1977 128.773 79.3726C128.362 79.6734 128.539 80.1678 129.078 80.0729Z" fill="#2A2929"/>
<path d="M117.06 84.4891C116.756 84.6263 116.453 84.7316 116.169 84.8876C116.092 84.9519 115.992 84.9828 115.892 84.9735C115.791 84.9641 115.699 84.9153 115.635 84.8378C115.57 84.7603 115.539 84.6604 115.549 84.5601C115.558 84.4597 115.607 84.3673 115.684 84.3029C116.388 83.4362 117.331 82.7958 118.395 82.4615C118.526 82.4097 118.671 82.4028 118.806 82.4418C118.941 82.4809 119.06 82.5637 119.143 82.6773C119.226 82.7909 119.269 82.9288 119.266 83.0696C119.262 83.2103 119.212 83.3459 119.123 83.4551C119.061 83.5302 119.007 83.6119 118.962 83.6985C119.437 83.624 119.918 83.5947 120.399 83.6111C120.453 83.6007 120.508 83.6013 120.562 83.6126C120.616 83.624 120.667 83.646 120.712 83.6773C120.758 83.7087 120.796 83.7487 120.826 83.7952C120.856 83.8416 120.876 83.8934 120.885 83.9477C120.894 84.002 120.893 84.0576 120.881 84.1113C120.868 84.1649 120.845 84.2156 120.813 84.2603C120.781 84.305 120.74 84.3429 120.693 84.3717C120.646 84.4005 120.594 84.4196 120.54 84.428C120.176 84.5539 119.831 84.71 119.447 84.8246C118.92 84.9891 118.378 85.1301 117.869 85.3426C117.751 85.3914 117.621 85.4033 117.497 85.3768C117.372 85.3503 117.259 85.2866 117.171 85.1941C117.083 85.1017 117.026 84.9848 117.006 84.8589C116.986 84.733 117.005 84.604 117.06 84.4891Z" fill="#CB7428"/>
<path d="M127.823 87.2809C127.447 87.326 126.681 87.3749 126.387 87.4144C126.29 87.4438 126.186 87.4336 126.097 87.3861C126.008 87.3386 125.941 87.2576 125.912 87.161C125.882 87.0644 125.892 86.9601 125.94 86.871C125.987 86.7819 126.068 86.7153 126.165 86.6859C127.112 86.1903 128.152 85.8989 129.219 85.8305C129.347 85.819 129.476 85.8467 129.588 85.9098C129.701 85.9729 129.791 86.0685 129.848 86.184C129.905 86.2995 129.926 86.4296 129.907 86.5571C129.889 86.6846 129.833 86.8035 129.745 86.8983C129.63 87.0053 129.528 87.1255 129.442 87.2564C130.418 87.1329 131.407 87.1582 132.375 87.3316C132.432 87.329 132.488 87.3377 132.541 87.3574C132.594 87.3771 132.642 87.4073 132.683 87.4462C132.723 87.4851 132.756 87.5319 132.778 87.5837C132.8 87.6355 132.812 87.6912 132.812 87.7476C132.812 87.804 132.8 87.8597 132.778 87.9115C132.756 87.9633 132.723 88.0101 132.683 88.049C132.642 88.0878 132.594 88.1181 132.541 88.1378C132.488 88.1574 132.432 88.1662 132.375 88.1635C130.94 88.2904 129.514 88.5102 128.107 88.8215C127.973 88.8646 127.829 88.8624 127.697 88.8153C127.565 88.7682 127.452 88.6788 127.376 88.561C127.3 88.4431 127.265 88.3035 127.276 88.1636C127.287 88.0238 127.344 87.8916 127.439 87.7875C127.575 87.6254 127.704 87.4563 127.823 87.2809Z" fill="#CB7428"/>
<path d="M126.569 92.1285C126.746 92.5646 126.202 93.2489 125.861 93.5751C122.781 96.522 117.011 94.1758 118.112 89.8508C118.821 87.0619 122.639 86.2525 125.068 87.5319C126.854 88.4719 127.191 90.0501 126.686 91.916C126.671 91.9975 126.629 92.0719 126.569 92.1285ZM125.96 91.9724C125.933 91.9092 125.926 91.8394 125.94 91.7722C126.006 91.2958 125.999 90.812 125.919 90.3378C125.405 87.5732 120.034 87.4849 119.339 90.1704C118.562 93.1944 122.769 94.6984 125.227 92.8429C125.47 92.6697 125.664 92.437 125.791 92.167C125.832 92.0905 125.89 92.024 125.96 91.9724Z" fill="#2A2929"/>
<path d="M118.233 80.338C117.935 79.9201 117.498 79.6221 117 79.4977C116.34 79.3658 115.654 79.4664 115.06 79.7826C114.466 80.0987 113.999 80.6109 113.74 81.232C113.491 81.7431 113.447 82.3299 113.616 82.8725C113.785 83.4151 114.155 83.8726 114.651 84.1516C114.734 84.2233 114.843 84.259 114.953 84.2509C115.063 84.2428 115.165 84.1915 115.237 84.1084C115.305 84.0236 115.338 83.9164 115.331 83.8082C115.323 83.6999 115.275 83.5984 115.197 83.5237C115.029 83.3011 114.911 83.0445 114.853 82.7717C114.783 82.4925 114.786 82.2002 114.861 81.9224C114.936 81.6446 115.081 81.3905 115.281 81.1841C115.482 80.9778 115.732 80.826 116.007 80.7431C116.283 80.6601 116.575 80.6489 116.856 80.7103C117.169 80.7389 117.476 80.8147 117.767 80.9349C117.849 80.9966 117.951 81.0241 118.053 81.0116C118.155 80.9992 118.248 80.9478 118.313 80.8682C118.369 80.7861 118.392 80.6858 118.377 80.5874C118.363 80.489 118.311 80.3999 118.233 80.338Z" fill="#2A2929"/>
<path d="M142.026 78.9703C141.973 78.8763 141.976 78.6404 141.702 78.5737C139.967 78.1347 139.747 75.6221 138.829 74.1369C136.659 70.4633 134.505 68.5091 130.191 68.3164C129.229 68.1855 128.25 68.2786 127.331 68.5884C126.411 68.8982 125.575 69.4164 124.889 70.1024C122.048 69.9896 119.93 72.8124 119.144 75.5487C118.844 76.7499 118.648 77.9745 118.557 79.2091C118.554 79.3508 118.597 79.4896 118.681 79.6042C118.764 79.7187 118.883 79.8026 119.019 79.8428C119.155 79.8831 119.3 79.8774 119.432 79.8267C119.565 79.7761 119.677 79.6832 119.751 79.5625C121.178 77.3569 123.003 75.4361 125.133 73.8981C127.451 76.6055 130.67 78.3844 134.196 78.9074C134.203 81.1593 134.074 83.4097 133.812 85.6462C133.782 85.7939 133.809 85.9473 133.888 86.0757C133.967 86.204 134.091 86.2978 134.236 86.3381C137.98 87.3786 136.586 90.3077 134.706 90.8012C134.274 90.9029 133.823 90.9029 133.39 90.8012C132.213 90.5511 132.039 90.0962 131.55 90.2673C131.469 90.2952 131.394 90.34 131.331 90.3986C131.269 90.4572 131.219 90.5284 131.185 90.6075C129.838 93.5958 127.399 96.8228 124.165 97.4376C120.086 98.2262 115.761 95.9984 115.567 90.8848C115.493 89.224 115.841 87.5715 116.579 86.0814C116.63 85.9956 116.644 85.8929 116.62 85.7962C116.595 85.6994 116.533 85.6164 116.447 85.5654C116.361 85.5144 116.258 85.4996 116.162 85.5243C116.065 85.549 115.982 85.6111 115.931 85.697C115.598 86.2156 115.32 86.7676 115.101 87.3439C112.424 94.8394 118.104 99.8976 124.407 98.6953C127.901 98.0298 130.535 94.8714 132.074 91.6961C136.639 93.6024 139.584 88.3619 136.299 86.183C137.305 84.2513 138.591 82.1588 138.913 79.697C139.85 79.7526 140.79 79.6737 141.705 79.4629C141.811 79.4367 141.903 79.3713 141.962 79.2799C142.022 79.1885 142.045 79.0779 142.026 78.9703Z" fill="#2A2929"/>
<path d="M87.8453 104.559C87.8058 104.089 87.7513 101.666 87.7438 101.118C87.7015 97.5758 87.7297 94.0564 89.5645 90.7467C90.2169 89.5717 91.4135 88.282 92.519 89.096C92.8715 89.3583 93.3838 90.209 93.0247 90.4214C92.9753 90.4453 92.9311 90.4787 92.8946 90.5197C92.8582 90.5606 92.8301 90.6084 92.8121 90.6602C92.7941 90.712 92.7864 90.7668 92.7896 90.8216C92.7928 90.8763 92.8067 90.9299 92.8306 90.9793C92.8545 91.0287 92.8878 91.0729 92.9288 91.1094C92.9698 91.1458 93.0175 91.1739 93.0693 91.1919C93.1211 91.2099 93.176 91.2176 93.2307 91.2144C93.2855 91.2112 93.3391 91.1973 93.3885 91.1734C94.5465 90.6799 94.0982 88.9485 93.207 88.203C90.027 85.5447 85.8506 91.869 86.533 101.036C86.6394 102.257 86.8278 103.47 87.097 104.666C87.1035 104.715 87.1197 104.763 87.1446 104.806C87.1695 104.849 87.2026 104.886 87.2421 104.916C87.2816 104.946 87.3267 104.968 87.3747 104.981C87.4227 104.994 87.4728 104.996 87.5219 104.99C87.6208 104.973 87.7096 104.919 87.7698 104.839C87.83 104.759 87.857 104.659 87.8453 104.559Z" fill="#2A2929"/>
<path d="M93.1256 86.5326C93.6295 86.4757 94.1367 86.4521 94.6437 86.4621C94.9974 86.4828 95.3348 86.618 95.6048 86.8475C95.8748 87.077 96.0628 87.3881 96.1402 87.7339C96.2116 88.1663 96.1402 88.0282 96.1402 88.25C96.0988 88.4487 96.0083 88.6338 95.877 88.7886C95.7875 88.851 95.7251 88.9451 95.7026 89.0518C95.6801 89.1585 95.6991 89.2698 95.7557 89.363C95.8197 89.4544 95.9164 89.5177 96.0259 89.5396C96.1353 89.5615 96.249 89.5403 96.3432 89.4805C96.6682 89.3395 96.9482 89.1119 97.1526 88.8224C97.3018 88.5671 97.3917 88.2815 97.4158 87.9868C97.4106 87.6011 97.3267 87.2205 97.1691 86.8685C97.0114 86.5164 96.7835 86.2004 96.4992 85.9397C96.2149 85.679 95.8803 85.4792 95.5159 85.3526C95.1516 85.226 94.7652 85.1752 94.3805 85.2035C93.802 85.2253 93.25 85.4518 92.8229 85.8426C92.7776 85.8625 92.7367 85.8911 92.7024 85.9268C92.6682 85.9625 92.6413 86.0046 92.6233 86.0507C92.6053 86.0968 92.5966 86.146 92.5976 86.1954C92.5986 86.2449 92.6094 86.2937 92.6293 86.339C92.6491 86.3843 92.6777 86.4252 92.7134 86.4595C92.7491 86.4937 92.7912 86.5206 92.8373 86.5386C92.8834 86.5566 92.9326 86.5653 92.9821 86.5643C93.0315 86.5632 93.0803 86.5525 93.1256 86.5326Z" fill="#2A2929"/>
<path d="M97.4552 85.0051C97.537 85.0352 97.5765 85.0897 97.6583 85.1283C97.74 85.1668 97.7993 85.2618 97.9008 85.3163C98.2418 85.4861 98.5242 85.7542 98.7116 86.0858C98.8991 86.4175 98.983 86.7977 98.9526 87.1775C98.9384 87.3407 98.9046 87.5017 98.8521 87.6569C98.8082 87.6926 98.7721 87.7371 98.7461 87.7874C98.7202 87.8377 98.7049 87.8928 98.7012 87.9493C98.6975 88.0058 98.7055 88.0625 98.7247 88.1157C98.7439 88.169 98.7739 88.2177 98.8128 88.2589C98.8517 88.3 98.8986 88.3327 98.9507 88.3549C99.0028 88.3771 99.0589 88.3883 99.1155 88.3878C99.1722 88.3874 99.2281 88.3752 99.2798 88.3521C99.3315 88.3291 99.3779 88.2956 99.4161 88.2538C100.45 87.7048 100.42 86.496 99.8616 85.5146C99.5328 84.9174 99.0019 84.4568 98.3642 84.2155C98.0636 84.1438 97.7493 84.1529 97.4533 84.2419C97.3521 84.2421 97.2551 84.2826 97.1838 84.3543C97.1124 84.4261 97.0724 84.5232 97.0726 84.6244C97.0729 84.7257 97.1133 84.8226 97.1851 84.894C97.2568 84.9654 97.354 85.0054 97.4552 85.0051Z" fill="#2A2929"/>
<path d="M100.328 88.5884C99.2437 90.4684 99.2653 90.5784 97.1325 91.5212C95.1134 92.4142 93.8792 93.2593 94.0982 95.4542C94.0949 95.5641 94.1355 95.6709 94.2109 95.7509C94.2864 95.8309 94.3905 95.8777 94.5005 95.881C94.6104 95.8842 94.7172 95.8436 94.7972 95.7682C94.8772 95.6927 94.924 95.5886 94.9272 95.4786C94.9809 95.0913 95.1116 94.7186 95.3117 94.3826C96.3382 92.4894 99.678 92.7009 100.67 90.3481C100.882 89.8589 101.012 89.338 101.054 88.8065C101.083 88.7103 101.073 88.6065 101.025 88.518C100.977 88.4295 100.897 88.3636 100.8 88.3346C100.704 88.3057 100.6 88.3162 100.512 88.3638C100.423 88.4114 100.357 88.4922 100.328 88.5884Z" fill="#2A2929"/>
<path d="M98.4675 93.9775C98.5004 94.4475 98.4788 96.0276 98.507 96.6743C98.5888 98.4603 98.7195 100.246 98.789 102.045C98.8586 103.843 98.9479 108.328 98.9714 108.775C99.0062 109.456 99.0926 110.125 99.1331 110.801C99.1331 110.911 99.1767 111.016 99.2545 111.094C99.3322 111.172 99.4377 111.215 99.5476 111.215C99.6575 111.215 99.763 111.172 99.8407 111.094C99.9185 111.016 99.9621 110.911 99.9621 110.801C100.259 107.421 100.273 104.022 100.003 100.64C99.9753 98.3715 99.718 96.1115 99.2346 93.8948C99.2219 93.7941 99.1701 93.7025 99.0904 93.6397C99.0107 93.5769 98.9096 93.548 98.8088 93.5592C98.7093 93.5723 98.6186 93.6229 98.5552 93.7007C98.4918 93.7784 98.4604 93.8774 98.4675 93.9775Z" fill="#2A2929"/>
<path d="M132.942 102.574C133.055 101.407 133.703 101.23 134.317 101.963C135.539 103.427 133.683 106.851 133.001 108.624C132.539 109.831 129.191 118.914 127.985 121.414C127.934 121.514 127.925 121.63 127.96 121.736C127.994 121.842 128.07 121.93 128.17 121.981C128.269 122.032 128.385 122.041 128.491 122.006C128.598 121.971 128.686 121.896 128.736 121.796C131.026 117.807 131.429 116.412 134.199 109.079C134.939 107.12 136.816 103.771 135.554 101.682C134.488 99.9154 132.136 99.9897 132.176 102.554C132.181 102.65 132.223 102.741 132.292 102.808C132.361 102.876 132.453 102.914 132.55 102.917C132.646 102.919 132.74 102.885 132.813 102.822C132.886 102.758 132.932 102.67 132.942 102.574Z" fill="#2A2929"/>
<path d="M136.927 99.7171C137.961 100.463 137.893 102.239 138.627 102.166C139.168 102.111 139.387 100.46 138.181 99.1512C137.923 98.8411 137.589 98.6039 137.21 98.4631C136.829 98.3578 136.018 98.3418 135.976 98.7667C135.917 99.0685 136.102 99.0995 136.927 99.7171Z" fill="#2A2929"/>
<path d="M140.812 100.11C140.812 100.491 140.836 101.468 141.196 101.566C141.666 101.69 142.506 100.517 141.803 98.8128C141.171 97.2468 139.572 96.9488 139.359 97.4695C139.095 98.0899 140.69 98.4302 140.812 100.11Z" fill="#2A2929"/>
<path d="M144.09 105.461C144.09 111.493 144.612 124.882 140.33 129.196C140.253 129.268 140.152 129.308 140.047 129.308C139.942 129.308 139.841 129.268 139.764 129.197C139.687 129.125 139.64 129.027 139.632 128.923C139.624 128.818 139.657 128.714 139.722 128.632C141.672 126.346 142.393 120.034 142.595 117.036C143.159 108.622 142.595 105.108 143.159 104.672C144.224 103.668 144.279 102.04 143.968 100.609C143.955 100.561 143.952 100.511 143.958 100.462C143.964 100.413 143.98 100.366 144.005 100.323C144.029 100.28 144.062 100.242 144.101 100.211C144.141 100.181 144.185 100.159 144.233 100.146C144.281 100.133 144.331 100.129 144.38 100.136C144.429 100.142 144.477 100.158 144.52 100.182C144.563 100.207 144.601 100.24 144.631 100.279C144.661 100.318 144.684 100.363 144.697 100.411C145.039 101.201 145.175 102.066 145.09 102.923C145.004 103.78 144.702 104.602 144.211 105.309C144.211 105.344 144.151 105.411 144.09 105.461ZM144.211 105.307C144.211 105.295 144.19 105.286 144.17 105.283C144.109 105.275 144.09 105.337 144.09 105.443C144.027 105.532 143.949 105.574 144.09 105.461V105.443C144.114 105.413 144.141 105.385 144.17 105.36L144.211 105.307Z" fill="#2A2929"/>
<path d="M128.236 84.5257C128.348 84.6025 128.481 84.6464 128.625 84.655C128.769 84.6637 128.923 84.6367 129.077 84.5759C129.231 84.5151 129.382 84.4215 129.521 84.3008C129.66 84.18 129.785 84.0345 129.888 83.8727C129.99 83.711 130.069 83.5363 130.12 83.359C130.17 83.1817 130.19 83.0052 130.18 82.8401C130.17 82.675 130.129 82.5245 130.06 82.3975C129.991 82.2705 129.895 82.1695 129.778 82.1005C129.666 82.0238 129.534 81.9799 129.389 81.9712C129.245 81.9626 129.091 81.9895 128.937 82.0504C128.783 82.1112 128.632 82.2048 128.493 82.3255C128.354 82.4463 128.229 82.5918 128.126 82.7535C128.024 82.9153 127.945 83.0899 127.895 83.2673C127.844 83.4446 127.824 83.621 127.834 83.7862C127.844 83.9513 127.885 84.1018 127.954 84.2288C128.023 84.3558 128.119 84.4568 128.236 84.5257Z" fill="#2A2929"/>
<path d="M121.108 82.2406C121.22 82.3173 121.353 82.3613 121.497 82.3699C121.641 82.3785 121.795 82.3516 121.949 82.2908C122.103 82.2299 122.254 82.1364 122.393 82.0156C122.532 81.8948 122.657 81.7493 122.76 81.5876C122.862 81.4259 122.941 81.2512 122.991 81.0738C123.042 80.8965 123.062 80.7201 123.052 80.555C123.042 80.3898 123.001 80.2393 122.932 80.1123C122.863 79.9853 122.767 79.8844 122.65 79.8154C122.538 79.7387 122.405 79.6947 122.261 79.6861C122.117 79.6775 121.963 79.7044 121.809 79.7652C121.655 79.8261 121.504 79.9196 121.365 80.0404C121.226 80.1611 121.101 80.3067 120.998 80.4684C120.896 80.6301 120.817 80.8048 120.767 80.9821C120.716 81.1595 120.696 81.3359 120.706 81.501C120.716 81.6661 120.757 81.8166 120.826 81.9436C120.895 82.0706 120.991 82.1716 121.108 82.2406Z" fill="#2A2929"/>
<path d="M111.051 80.4687C109.419 81.2273 108.342 83.3291 108.016 85.1367C107.987 85.2933 107.899 85.4328 107.77 85.5265C107.641 85.6202 107.481 85.6611 107.323 85.6406C107.165 85.6202 107.021 85.54 106.921 85.4165C106.82 85.2931 106.77 85.1358 106.782 84.9769C106.97 83.0847 107.073 80.2769 105.306 79.5992C105.165 79.5453 105.047 79.4433 104.974 79.3112C104.901 79.1792 104.877 79.0254 104.906 78.8772C104.935 78.7289 105.015 78.5957 105.133 78.5009C105.25 78.4062 105.398 78.356 105.549 78.3593C107.378 78.4082 108.246 75.9238 108.603 74.1368C108.633 73.986 108.718 73.8517 108.841 73.7597C108.964 73.6678 109.117 73.6246 109.271 73.6386C109.424 73.6526 109.566 73.7228 109.671 73.8356C109.775 73.9484 109.835 74.0958 109.837 74.2496C109.837 79.9667 111.959 79.4431 111.315 80.3474C111.242 80.4154 111.15 80.458 111.051 80.4687ZM108.906 77.22C108.533 78.0982 107.878 78.8275 107.045 79.2937C107.632 80.0178 107.985 80.9028 108.058 81.8317C108.622 81.0066 109.398 80.3477 110.303 79.9235C109.634 79.1429 109.156 78.2173 108.906 77.22Z" fill="#CB7428"/>
<path d="M148.601 69.6841C148.46 71.1453 148.521 72.619 148.783 74.0635C149.277 76.1155 150.373 76.1259 150.3 76.829C150.296 76.9263 150.268 77.0211 150.219 77.1052C150.17 77.1893 150.101 77.26 150.018 77.3112C148.039 78.7857 146.522 80.7955 145.648 83.1035C145.584 83.2531 145.465 83.3729 145.316 83.4387C145.167 83.5044 144.999 83.5113 144.845 83.4579C144.691 83.4046 144.563 83.2949 144.487 83.151C144.411 83.0071 144.392 82.8396 144.434 82.6824C145.02 80.6858 145.142 77.6741 143.483 76.469C143.393 76.4029 143.322 76.3149 143.276 76.2133C143.23 76.1118 143.21 76.0001 143.22 75.889C143.368 75.0646 144.333 75.5769 145.769 73.5841C146.616 72.2961 147.238 70.8742 147.611 69.3786C147.8 68.714 148.654 69.2611 148.601 69.6841ZM147.486 72.8378C147.004 74.1754 146.102 75.3215 144.916 76.1052C145.684 77.0958 146.097 78.3156 146.09 79.5691C146.815 78.4805 147.703 77.509 148.722 76.688C147.847 75.602 147.407 74.23 147.486 72.8378Z" fill="#CB7428"/>
<path d="M102.068 92.0721C102.555 91.71 103.069 91.3854 103.605 91.101C106.331 89.5707 108.668 89.3451 111.799 89.4175C112.447 89.4316 113.074 89.4175 113.661 89.4664C113.767 89.4824 113.875 89.4569 113.963 89.3952C114.05 89.3335 114.111 89.2403 114.132 89.1351C114.153 89.0298 114.133 88.9205 114.075 88.83C114.018 88.7394 113.927 88.6744 113.823 88.6486C113.065 88.4144 112.285 88.257 111.496 88.1786C108.757 87.9511 105.254 88.4982 103.059 90.0191C102.469 90.4439 101.949 90.9591 101.519 91.5457C101.45 91.6185 101.412 91.716 101.414 91.8168C101.416 91.9177 101.458 92.0135 101.531 92.0833C101.604 92.1531 101.701 92.1912 101.802 92.1891C101.903 92.1869 101.999 92.1449 102.068 92.0721Z" fill="#2A2929"/>
<path d="M131.788 96.2823C133.856 97.4394 134.749 98.8203 135.308 98.3663C135.961 97.837 134.446 96.4863 133.507 95.8367C133.146 95.5873 132.768 95.3643 132.374 95.1693C131.821 94.8873 130.692 94.6119 130.554 95.0584C130.386 95.4645 131.436 96.068 131.788 96.2823Z" fill="#2A2929"/>
<path d="M126.609 98.528C124.603 100.951 122.79 103.529 121.187 106.236C119.671 104.101 119.025 103.048 117.449 101.043C117.991 100.862 118.518 100.637 119.023 100.369C119.814 99.9493 120.11 99.751 119.974 99.3881C119.814 98.9708 119.193 99.1494 118.415 99.3599C118.133 99.4323 117.92 99.5225 116.878 99.8938C116.765 99.2968 116.643 98.7014 116.514 98.1079C116.201 97.1763 116.089 96.6894 115.684 96.7542C115.245 96.8182 115.32 97.3981 115.32 98.3137C115.334 98.4848 115.577 99.9202 115.602 100.045C113.559 100.359 111.416 100.622 109.376 100.831C110.797 98.2827 112.088 95.1262 113.22 93.1061C113.268 93.0204 113.281 92.9196 113.256 92.8246C113.232 92.7296 113.171 92.6477 113.088 92.5959C113.005 92.5441 112.905 92.5264 112.809 92.5465C112.713 92.5666 112.628 92.6229 112.572 92.7038C110.512 95.6996 109.188 98.8204 107.656 101.249C107.598 101.351 107.569 101.466 107.572 101.583C107.574 101.699 107.609 101.813 107.671 101.912C107.733 102.01 107.822 102.09 107.926 102.142C108.03 102.194 108.147 102.217 108.263 102.208C110.69 101.984 113.114 101.713 115.494 101.357C113.819 104.281 112.06 110.069 111.197 113.322C111.009 113.98 110.599 116.048 110.57 116.184C110.539 116.29 110.552 116.404 110.605 116.5C110.658 116.597 110.747 116.669 110.852 116.7C110.959 116.732 111.075 116.72 111.173 116.667C111.272 116.614 111.346 116.525 111.379 116.418C113.635 110.208 113.429 109.637 115.708 103.552C116.069 102.588 116.218 102.048 116.331 101.694C117.704 103.38 119.269 105.746 120.766 107.824C120.832 107.915 120.921 107.987 121.024 108.032C121.128 108.077 121.241 108.093 121.352 108.079C121.464 108.065 121.57 108.022 121.659 107.953C121.748 107.884 121.817 107.793 121.859 107.688C122.428 106.278 127.191 99.1343 127.261 99.0347C127.295 98.992 127.32 98.943 127.335 98.8904C127.35 98.8379 127.354 98.7829 127.348 98.7287C127.341 98.6745 127.324 98.6221 127.297 98.5745C127.271 98.5269 127.235 98.4852 127.191 98.4517C127.148 98.4181 127.099 98.3935 127.046 98.3792C126.994 98.3649 126.939 98.3611 126.884 98.3682C126.83 98.3753 126.778 98.3931 126.731 98.4206C126.684 98.448 126.642 98.4845 126.609 98.528Z" fill="#2A2929"/>
<path d="M101.801 58.4549C103.142 58.8424 104.569 58.8056 105.888 58.3496C106.207 58.2152 107.062 57.7912 106.899 57.3645C106.752 57.0543 106.515 57.0449 105.564 57.1962C104.99 57.3126 104.409 57.3923 103.824 57.435C102.32 57.4782 100.996 56.9509 100.83 57.4829C100.667 57.8862 101.534 58.343 101.801 58.4549Z" fill="#2A2929"/>
<path d="M104.294 55.1573C105.373 55.4393 108.822 55.2513 108.543 54.2248C108.385 53.6514 106.945 53.9701 105.993 53.9898C105.282 54.0049 103.385 53.7924 103.323 54.4335C103.249 54.8142 104.135 55.116 104.294 55.1573Z" fill="#2A2929"/>
<path d="M118.8 72.7448C117.733 70.9955 116.097 69.6663 114.167 68.9801C114.059 68.9379 113.942 68.9256 113.829 68.9443C113.715 68.963 113.608 69.012 113.52 69.0863C112.448 70.0764 111.298 70.9777 110.08 71.7813C107.971 73.0305 105.152 73.5231 104.158 71.2925C105.241 71.6529 106.411 71.6594 107.498 71.3109C108.584 70.9624 109.532 70.2771 110.204 69.3542C110.28 69.2764 110.323 69.1713 110.322 69.062C110.322 68.9527 110.278 68.8482 110.2 68.7714C110.161 68.7334 110.116 68.7033 110.065 68.6829C110.015 68.6625 109.962 68.6522 109.908 68.6525C109.798 68.6533 109.694 68.6973 109.617 68.7751C108.591 69.6286 107.341 70.1693 106.016 70.3327C103.61 70.4662 102.748 68.2459 102.698 65.848C102.713 64.5529 102.81 63.26 102.987 61.977C104.768 62.0904 106.54 61.6525 108.063 60.7231C109.047 60.0651 108.794 59.8987 108.933 60.2202C109.34 61.1771 110.249 62.2995 111.227 62.416C111.241 62.4696 111.265 62.5197 111.299 62.563C111.333 62.6063 111.377 62.6419 111.425 62.6673C111.474 62.6927 111.528 62.7074 111.583 62.7105C111.639 62.7135 111.694 62.7048 111.745 62.6849C112.252 62.5734 112.776 62.5753 113.282 62.6905C114.522 62.9594 115.154 64.9832 113.02 65.3761C112.174 65.5284 111.95 65.3206 111.644 65.6412C111.584 65.7029 111.538 65.7769 111.51 65.8582C111.482 65.9394 111.473 66.0258 111.482 66.1112C111.585 68.1294 111.683 67.821 111.764 68.996C111.757 69.1034 111.793 69.2091 111.864 69.2899C111.935 69.3707 112.035 69.42 112.142 69.427C112.25 69.434 112.355 69.3981 112.436 69.3271C112.517 69.2562 112.566 69.156 112.573 69.0487C112.674 68.5463 112.735 68.0368 112.756 67.5249C112.787 67.2438 112.787 66.96 112.756 66.6789C113.327 66.6483 113.886 66.4957 114.394 66.2315C114.806 65.9968 115.144 65.6517 115.37 65.2352C115.596 64.8186 115.701 64.3472 115.673 63.8741C115.645 63.401 115.486 62.9451 115.213 62.5577C114.94 62.1704 114.564 61.867 114.128 61.6819C116.589 57.3739 113.711 51.9331 109.437 51.8673C108.325 51.8514 107.666 52.0553 106.828 52.0459C106.733 52.041 106.639 52.0721 106.565 52.1331C106.492 52.1941 106.444 52.2805 106.431 52.3752C106.418 52.4699 106.441 52.5659 106.496 52.6442C106.551 52.7226 106.633 52.7774 106.726 52.7979C107.731 52.9699 108.744 53.0811 109.762 53.1307C110.695 53.2862 111.558 53.7243 112.235 54.386C112.911 55.0476 113.368 55.9009 113.544 56.8305C113.898 58.3731 113.81 59.9841 113.29 61.4788C112.768 61.4701 112.251 61.5821 111.779 61.806C111.569 61.5029 111.319 61.2299 111.035 60.9948C110.648 60.6095 110.321 60.1677 110.065 59.6844C109.79 58.9672 109.044 58.2124 108.814 58.9493C108.783 58.9651 108.755 58.985 108.73 59.0085C108.322 59.2623 107.896 59.4851 107.455 59.675C106.516 60.2158 105.473 60.5504 104.395 60.6566C103.317 60.7628 102.229 60.638 101.203 60.2907C100.765 60.143 100.338 59.961 99.9284 59.7464C99.8905 59.7146 99.8468 59.6905 99.7997 59.6756C99.7525 59.6606 99.7029 59.6551 99.6536 59.6593C99.6043 59.6636 99.5564 59.6775 99.5125 59.7002C99.4686 59.723 99.4296 59.7542 99.3977 59.792C99.3659 59.8299 99.3418 59.8736 99.3269 59.9207C99.3119 59.9679 99.3064 60.0175 99.3106 60.0668C99.3149 60.116 99.3288 60.164 99.3515 60.2079C99.3743 60.2518 99.4055 60.2908 99.4433 60.3226C100.111 61.1459 101.063 61.69 102.111 61.8483C101.724 62.9269 101.497 64.0567 101.439 65.2013C99.5542 64.8121 97.4345 64.9193 94.4059 66.4233C92.889 67.157 91.5111 68.1487 90.3338 69.3542C89.8552 69.9004 89.4408 70.4996 89.0986 71.1402C89.0442 71.2247 89.0243 71.3269 89.0432 71.4256C89.0621 71.5243 89.1183 71.6119 89.2001 71.6703C89.2408 71.699 89.2867 71.7193 89.3353 71.7301C89.3838 71.7409 89.434 71.742 89.483 71.7332C89.5319 71.7245 89.5787 71.7061 89.6205 71.6792C89.6623 71.6522 89.6983 71.6173 89.7265 71.5763C90.1854 71.0925 90.6706 70.6344 91.1798 70.2039C93.4239 68.055 96.2829 66.66 99.3578 66.2136C100.041 66.0973 100.733 66.0428 101.426 66.051C101.373 67.7067 101.957 69.3196 103.058 70.5574C103.352 74.5994 107.334 74.9265 110.752 72.882C111.921 72.1143 113.024 71.2496 114.049 70.297C115.615 70.9569 117.012 71.9617 118.136 73.2364C118.166 73.2854 118.206 73.3276 118.253 73.3604C118.301 73.3931 118.354 73.4157 118.411 73.4267C118.467 73.4376 118.525 73.4367 118.581 73.424C118.637 73.4113 118.69 73.387 118.736 73.3528C118.783 73.3186 118.821 73.2751 118.85 73.2252C118.878 73.1753 118.896 73.1199 118.902 73.0628C118.908 73.0056 118.902 72.9478 118.884 72.893C118.867 72.8383 118.838 72.7878 118.8 72.7448Z" fill="#2A2929"/>
<path d="M104.375 63.2621C103.99 64.5151 103.84 65.8282 103.93 67.1358C103.983 67.6754 104.606 67.7383 104.739 67.1696C105.002 65.9236 105.138 64.654 105.144 63.3805C105.123 62.8767 104.57 62.7639 104.375 63.2621Z" fill="#2A2929"/>
<path d="M106.924 63.6474C106.881 64.2697 107.269 64.6927 107.531 64.6917C107.972 64.6917 108.189 64.0215 108.218 63.5374C108.237 63.2235 107.932 62.7506 107.654 62.7516C107.453 62.8043 107.274 62.9194 107.143 63.0804C107.012 63.2414 106.935 63.44 106.924 63.6474Z" fill="#2A2929"/>
<path d="M141.479 58.8759C141.628 58.5939 141.783 58.3552 141.985 58.0074C142.046 57.9175 142.072 57.8081 142.057 57.7004C142.042 57.5927 141.987 57.4944 141.904 57.4246C141.861 57.3898 141.812 57.364 141.759 57.3486C141.706 57.3332 141.651 57.3285 141.596 57.3349C141.541 57.3413 141.489 57.3586 141.441 57.3858C141.393 57.413 141.351 57.4495 141.317 57.4932C141.084 57.8441 140.9 58.2256 140.771 58.6268C140.751 58.6742 140.741 58.7251 140.741 58.7766C140.741 58.828 140.752 58.8789 140.773 58.926C140.793 58.9731 140.823 59.0155 140.861 59.0505C140.899 59.0854 140.943 59.1123 140.992 59.1294C141.041 59.1465 141.092 59.1534 141.143 59.1498C141.195 59.1461 141.245 59.132 141.29 59.1082C141.336 59.0845 141.376 59.0516 141.409 59.0117C141.441 58.9717 141.465 58.9255 141.479 58.8759Z" fill="#2A2929"/>
<path d="M145.849 60.2982C145.998 60.0528 146.301 59.5518 146.456 59.2698C146.517 59.1812 146.541 59.0722 146.523 58.9662C146.505 58.8602 146.446 58.7654 146.359 58.7022C146.272 58.639 146.164 58.6122 146.057 58.6276C145.951 58.643 145.855 58.6994 145.789 58.7848C145.537 59.1684 145.327 59.5781 145.162 60.0068C145.135 60.0529 145.119 60.1041 145.114 60.1571C145.108 60.2101 145.114 60.2636 145.131 60.3141C145.148 60.3646 145.176 60.4109 145.212 60.45C145.248 60.4891 145.292 60.5201 145.341 60.5409C145.39 60.5617 145.443 60.5718 145.496 60.5706C145.549 60.5694 145.602 60.557 145.65 60.534C145.698 60.5111 145.74 60.4782 145.775 60.4375C145.809 60.3969 145.835 60.3494 145.849 60.2982Z" fill="#2A2929"/>
<path d="M143.523 60.2286C143.705 59.9344 143.839 59.6185 144.009 59.3196C144.199 59.0241 144.374 58.7191 144.534 58.4059C144.722 57.826 144.839 57.4735 144.555 57.2779C144.207 57.0439 143.626 57.6229 143.543 57.7188C143.105 58.2668 142.744 58.8721 142.471 59.518C142.31 59.9795 142.173 60.7898 142.552 60.9355C142.93 61.0812 143.473 60.3235 143.523 60.2286Z" fill="#2A2929"/>
<path d="M140.791 62.4225C141.142 63.4744 142.632 63.7771 143.766 63.3757C144.185 63.1877 144.819 62.8352 144.656 62.4056C144.522 62.0531 143.835 62.1236 143.463 62.1838C142.843 62.2721 142.213 62.3868 141.865 61.8849C141.342 61.2588 141.403 61.1423 141.096 61.1799C140.643 61.241 140.68 62.196 140.791 62.4225Z" fill="#2A2929"/>
<path d="M152.688 54.2042C154.067 51.5515 151.372 48.6676 148.6 49.0473C148.133 48.6089 147.576 48.2771 146.968 48.075C146.36 47.8729 145.715 47.8053 145.078 47.8768C144.442 47.9483 143.828 48.1573 143.28 48.4892C142.732 48.8211 142.262 49.2682 141.904 49.7993C140.169 49.4948 138.604 50.9085 138 52.531C136.402 52.3627 135.016 53.7031 134.297 55.1489C133.809 55.0272 133.296 55.0412 132.815 55.1893C132.333 55.3374 131.902 55.6139 131.566 55.9892L131.121 55.6734C131.043 55.6142 130.954 55.573 130.858 55.5529C130.763 55.5327 130.664 55.5341 130.569 55.5569C130.474 55.5796 130.385 55.6232 130.309 55.6845C130.233 55.7458 130.172 55.8232 130.129 55.9112C129.634 57.2327 129.671 58.6947 130.231 59.9899C130.27 60.0834 130.33 60.1664 130.408 60.2318C130.485 60.2972 130.577 60.3432 130.676 60.3659C131.273 60.5003 131.695 59.7304 132.254 59.0837C132.675 59.2489 133.129 59.3119 133.579 59.2676C134.029 59.2234 134.463 59.073 134.844 58.829C135.097 58.9662 135.37 59.0642 135.653 59.1194C135.386 59.4638 135.205 59.8675 135.126 60.2963C134.602 60.3933 134.117 60.6375 133.726 61.0004C133.335 61.3633 133.056 61.8298 132.921 62.3455C132.251 62.2678 131.573 62.3467 130.939 62.5758C130.858 62.6031 130.783 62.6472 130.72 62.7054C130.657 62.7636 130.607 62.8344 130.574 62.9133C130.409 63.2366 130.501 63.4359 131.809 66.0858C131.848 66.1713 131.907 66.2469 131.979 66.3068C132.052 66.3666 132.137 66.4093 132.228 66.4316C132.32 66.4538 132.415 66.4551 132.507 66.4352C132.599 66.4154 132.685 66.375 132.76 66.317C133.392 65.8209 133.916 65.1998 134.297 64.4925C134.794 64.4923 135.281 64.3483 135.698 64.0779C136.115 63.8076 136.444 63.4224 136.647 62.9687C136.973 62.9078 137.279 62.7684 137.538 62.5626C137.62 63.3262 137.902 64.0546 138.357 64.6733C138.812 65.2919 139.423 65.7787 140.127 66.0839C140.602 66.3419 141.127 66.4907 141.667 66.5195C142.206 66.5483 142.744 66.4563 143.243 66.2503C143.348 66.2197 143.438 66.1506 143.494 66.0569C143.55 65.9631 143.569 65.8516 143.547 65.7446C143.514 65.6369 143.441 65.5459 143.343 65.4904C143.245 65.435 143.13 65.4193 143.021 65.4466C142.21 65.4574 141.406 65.2859 140.671 64.9446C139.95 64.6124 139.37 64.0365 139.032 63.3184C138.755 62.4735 138.661 61.5789 138.759 60.6948C138.856 59.8108 139.141 58.9579 139.596 58.1935C139.946 57.5455 140.352 56.9293 140.81 56.3521C141.772 56.4819 142.752 56.3976 143.678 56.1051C144.604 55.8126 145.454 55.3192 146.168 54.6601C146.592 55.0114 147.095 55.2568 147.633 55.3759C148.171 55.4951 148.73 55.4846 149.263 55.3453C149.182 55.663 149.081 55.977 148.981 56.2853C148.295 58.2452 147.947 58.2885 148.071 58.6983C148.238 59.0583 148.441 58.9004 149.204 59.3149C150.654 60.1609 150.401 61.2241 149.204 61.8868C148.912 62.0382 148.59 62.1235 148.262 62.1368C147.933 62.1502 147.606 62.0911 147.302 61.9639C147.156 61.9044 146.993 61.9002 146.844 61.9521C146.695 62.004 146.57 62.1085 146.493 62.2459C146.323 62.5857 146.135 62.9161 145.929 63.2357C145.757 63.5745 145.561 63.9003 145.342 64.2105C145.264 64.2842 145.217 64.3854 145.212 64.4929C145.207 64.6004 145.243 64.7058 145.314 64.787C145.384 64.8682 145.484 64.9189 145.591 64.9285C145.698 64.938 145.805 64.9058 145.889 64.8384C146.501 64.4678 147.003 63.9413 147.346 63.3128C149.284 63.7752 150.997 62.5955 151.157 61.1667C151.417 61.0232 151.646 60.8295 151.83 60.5968C152.014 60.3642 152.15 60.0972 152.23 59.8115C152.311 59.5258 152.333 59.227 152.297 58.9324C152.261 58.6379 152.166 58.3535 152.019 58.0958C152.539 57.6082 152.885 56.9644 153.006 56.2621C153.127 55.5597 153.015 54.8372 152.688 54.2042Z" fill="#2A2929"/>
<path d="M135.794 34.968C135.505 33.673 135.336 32.3543 135.288 31.0285C135.281 30.919 135.317 30.8111 135.39 30.7283C135.462 30.6455 135.563 30.5946 135.673 30.5867C135.783 30.5811 135.89 30.6182 135.973 30.6902C136.056 30.7622 136.108 30.8636 136.118 30.973C136.266 32.3256 136.55 33.6599 136.964 34.9558C137.075 35.4154 136.8 35.3666 134.294 39.292C129.696 46.4933 128.031 52.2753 127.714 57.8213C127.591 59.8566 127.686 61.8991 127.996 63.9144C128.013 64.0139 127.991 64.1161 127.934 64.1996C127.878 64.2832 127.791 64.3416 127.692 64.3628C127.644 64.3727 127.593 64.373 127.545 64.3635C127.496 64.354 127.45 64.3349 127.408 64.3074C127.367 64.2799 127.331 64.2444 127.304 64.2031C127.276 64.1618 127.257 64.1154 127.248 64.0667C124.567 54.0228 129.532 43.1939 135.794 34.968Z" fill="#2A2929"/>
<path d="M137.393 30.5377C137.344 31.4495 137.489 32.3611 137.818 33.213C138.051 33.7666 138.628 33.6313 138.647 33.087C138.67 32.4159 138.384 30.0085 137.716 30.1063C137.494 30.1382 137.418 30.3281 137.393 30.5377Z" fill="#2A2929"/>
<path d="M140.043 30.6609C141.453 41.1748 140.841 39.4593 141.297 47.6448C141.299 47.7519 141.343 47.8539 141.419 47.9296C141.494 48.0052 141.597 48.0487 141.704 48.0508C141.811 48.053 141.915 48.0138 141.993 47.9413C142.072 47.8688 142.12 47.7686 142.127 47.6618C142.195 46.8458 142.315 45.7423 142.369 44.5598C142.49 40.7407 142.218 36.9194 141.56 33.1557C141.356 32.2488 141.099 31.3546 140.791 30.4776C140.767 30.3784 140.704 30.2929 140.617 30.2399C140.529 30.1869 140.425 30.1708 140.325 30.1951C140.226 30.2195 140.141 30.2822 140.088 30.3695C140.035 30.4569 140.018 30.5617 140.043 30.6609Z" fill="#2A2929"/>
<path d="M154.266 60.0331C155.012 59.1316 158.849 54.7757 159.04 54.5604C162.843 50.3711 166.89 46.4096 171.16 42.6967C172.256 41.7162 173.285 40.7151 174.356 39.8503C174.443 39.7833 174.5 39.6843 174.514 39.5752C174.529 39.4661 174.499 39.3557 174.432 39.2685C174.365 39.1812 174.266 39.1242 174.157 39.1099C174.048 39.0956 173.937 39.1253 173.85 39.1923C172.734 40.0177 171.54 40.8326 170.372 41.7783C165.883 45.4067 158.506 52.6992 154.854 57.7799C154.424 58.3787 154.045 58.984 153.661 59.5781C153.336 59.9663 153.972 60.442 154.266 60.0331Z" fill="#2A2929"/>
<path d="M173.43 44.0334C174.221 43.5377 174.937 42.9297 175.554 42.2285C175.908 41.7896 175.54 41.3233 175.028 41.5781C174.182 42.0393 173.455 42.691 172.904 43.4816C172.647 43.8566 172.924 44.305 173.43 44.0334Z" fill="#2A2929"/>
<path d="M170.208 55.836C170.714 55.2367 171.155 54.5857 171.524 53.8939C172.708 51.5928 173.382 48.1543 175.348 45.9613C175.965 45.2779 176.712 44.3887 177.331 43.788C177.373 43.7548 177.409 43.7135 177.436 43.6665C177.463 43.6194 177.48 43.5676 177.487 43.5139C177.493 43.4603 177.489 43.4058 177.475 43.3536C177.461 43.3014 177.436 43.2526 177.403 43.2099C177.37 43.1672 177.328 43.1314 177.281 43.1047C177.234 43.0779 177.183 43.0607 177.129 43.054C177.075 43.0473 177.021 43.0512 176.969 43.0655C176.916 43.0798 176.868 43.1043 176.825 43.1375C173.506 45.2817 172.629 47.5988 171.261 51.2619C171.149 51.5618 169.925 54.7456 169.561 55.4092C169.513 55.4949 169.498 55.5959 169.521 55.6919C169.544 55.7878 169.602 55.8715 169.685 55.9258C169.767 55.9801 169.867 56.0011 169.964 55.9844C170.061 55.9677 170.149 55.9147 170.208 55.836Z" fill="#2A2929"/>
<path d="M136.078 68.1096C136.63 67.2858 137.111 66.4159 137.514 65.5096C137.766 64.9907 137.273 64.6372 136.846 65.0226C136.117 65.7927 135.613 66.7479 135.39 67.7844C135.285 68.2957 135.757 68.526 136.078 68.1096Z" fill="#CB7428"/>
<path d="M146.396 67.6744C145.992 67.5043 145.486 68.3803 145.405 68.5467C144.914 69.7971 144.528 71.0862 144.252 72.4007C143.299 72.475 139.841 74.0927 140.304 74.9171C140.631 75.5055 142.431 74.4603 143.036 74.1651C144.974 73.2749 145.095 73.5851 145.726 71.6271C145.989 70.8366 146.232 70.0338 146.455 69.2282C146.546 68.9255 146.791 67.8417 146.396 67.6744Z" fill="#CB7428"/>
<path d="M173.931 60.9656C173.127 59.5918 171.821 58.5838 170.289 58.154C167.486 57.496 164.206 59.784 164.564 62.666C163.187 62.5889 161.821 62.9389 160.651 63.6681C159.481 64.3974 158.565 65.4703 158.029 66.74C157.565 66.8856 157.112 67.064 156.673 67.2739C154.584 68.2966 152.497 70.766 151.737 74.5176C151.137 78.2632 151.329 82.0931 152.301 85.76C152.333 85.8985 152.411 86.0223 152.522 86.1115C152.632 86.2007 152.77 86.2502 152.912 86.252C153.054 86.2539 153.193 86.208 153.306 86.1216C153.419 86.0353 153.5 85.9136 153.535 85.7759C153.857 84.5682 154.283 83.3909 154.81 82.2575C155.695 85.587 158.758 87.8496 162.033 86.3202C162.087 86.3034 162.136 86.2758 162.179 86.2393C162.222 86.2028 162.257 86.158 162.282 86.1076C162.307 86.0572 162.321 86.0023 162.325 85.9462C162.328 85.89 162.32 85.8338 162.301 85.7809C162.282 85.7279 162.252 85.6794 162.214 85.6381C162.176 85.5969 162.13 85.5638 162.078 85.5409C162.027 85.518 161.971 85.5056 161.915 85.5047C161.859 85.5037 161.803 85.5141 161.751 85.5353C161.259 85.6337 160.755 85.6609 160.255 85.6161C159.696 85.5942 159.148 85.4621 158.641 85.2273C158.134 84.9926 157.678 84.6599 157.3 84.2484C156.389 83.1877 155.829 81.8704 155.697 80.4781C157.553 77.0815 159.877 73.9627 162.601 71.2135C164.575 75.6568 164.605 81.2433 163.471 85.9968C163.445 86.107 163.454 86.2226 163.497 86.3274C163.54 86.4321 163.615 86.5208 163.711 86.5811C163.806 86.6413 163.919 86.67 164.032 86.6632C164.145 86.6563 164.253 86.6143 164.341 86.543C166.903 84.2575 168.71 81.2465 169.52 77.91C173.186 76.1118 173.191 70.9672 170.775 67.758C174.524 67.1799 175.691 63.8673 173.931 60.9656Z" fill="#2A2929"/>
<path d="M160.176 76.7886C160.077 77.252 160.003 77.7201 159.953 78.1911C159.884 78.8444 159.631 80.6116 160.357 80.6774C160.763 80.7141 161.015 79.885 161.086 79.4836C161.172 78.9384 161.368 77.1665 161.349 76.9512C161.349 76.705 161.26 75.9501 160.903 75.8966C160.546 75.843 160.307 76.4399 160.176 76.7886Z" fill="#2A2929"/>
<path d="M158.535 82.8751C158.874 83.3254 159.361 83.6419 159.911 83.769C161.537 84.1563 162.444 82.8826 162.116 82.4662C161.708 81.9464 160.687 83.0556 159.672 82.2538C159.465 82.1081 158.762 81.5394 158.479 81.7029C158.12 81.9116 158.35 82.5076 158.535 82.8751Z" fill="#2A2929"/>
<path d="M158.838 78.2578C158.886 77.8451 159.101 77.0837 158.534 77.0358C158.425 77.0297 158.318 77.0662 158.235 77.1375C158.152 77.2088 158.1 77.3095 158.09 77.4184C158.066 77.6911 158.066 77.9654 158.09 78.2381C158.083 78.2901 158.088 78.3429 158.103 78.3931C158.118 78.4433 158.144 78.4897 158.178 78.5295C158.212 78.5692 158.254 78.6014 158.302 78.6238C158.349 78.6463 158.401 78.6587 158.453 78.66C158.505 78.6614 158.558 78.6518 158.606 78.6319C158.655 78.6119 158.698 78.582 158.735 78.5442C158.771 78.5063 158.799 78.4612 158.817 78.4119C158.834 78.3626 158.842 78.3101 158.838 78.2578Z" fill="#2A2929"/>
<path d="M163.794 77.8029C163.796 77.6955 163.756 77.5918 163.683 77.5133C163.61 77.4348 163.509 77.3877 163.402 77.3819C163.294 77.3761 163.189 77.4119 163.108 77.482C163.027 77.5521 162.975 77.6509 162.965 77.7578C162.96 78.0191 162.96 78.3584 162.965 78.6649C162.973 79.1273 163.878 79.4573 163.794 77.8029Z" fill="#2A2929"/>
<path d="M142.532 87.0948C146.538 84.7307 145.152 85.1988 149.206 83.378C149.631 83.19 150.015 82.9635 150.42 82.7821C150.526 82.7525 150.616 82.6822 150.67 82.5866C150.723 82.4909 150.737 82.3778 150.707 82.2721C150.678 82.1664 150.608 82.0768 150.512 82.0229C150.416 81.9691 150.303 81.9554 150.198 81.9849C148.61 82.1827 147.088 82.7381 145.747 83.6093C144.776 84.1424 143.855 84.7612 142.995 85.4582C142.645 85.7874 142.321 86.1425 142.024 86.5204C141.987 86.5538 141.956 86.5942 141.934 86.6394C141.912 86.6846 141.899 86.7338 141.896 86.784C141.892 86.8342 141.899 86.8846 141.916 86.9322C141.932 86.9798 141.958 87.0237 141.991 87.0614C142.024 87.0991 142.065 87.1299 142.11 87.152C142.155 87.1741 142.204 87.187 142.254 87.1901C142.305 87.1932 142.355 87.1864 142.403 87.17C142.45 87.1537 142.494 87.1281 142.532 87.0948Z" fill="#2A2929"/>
<path d="M169.294 83.6055C169.742 84.1582 170.689 85.4535 171.014 85.9038C172.338 87.6837 173.452 89.611 174.332 91.6472C175.497 94.621 176.431 97.6804 177.124 100.798C177.131 100.852 177.149 100.905 177.177 100.952C177.204 100.999 177.241 101.041 177.285 101.073C177.329 101.106 177.379 101.13 177.432 101.143C177.485 101.156 177.54 101.159 177.594 101.15C177.649 101.142 177.7 101.122 177.747 101.093C177.793 101.064 177.834 101.026 177.865 100.982C177.897 100.937 177.919 100.886 177.931 100.833C177.943 100.779 177.943 100.724 177.933 100.67C177.433 94.5715 174.711 87.217 169.82 83.0725C169.482 82.7125 168.918 83.2558 169.294 83.6055Z" fill="#2A2929"/>
<path d="M157.948 90.8153C159.397 89.4938 161.025 88.3819 162.783 87.5121C162.875 87.4498 162.987 87.4264 163.096 87.447C163.205 87.4676 163.301 87.5306 163.363 87.6221C163.425 87.7136 163.449 87.8261 163.428 87.9349C163.408 88.0436 163.345 88.1398 163.253 88.2021C160.339 90.6461 159.757 90.9102 158.033 92.4199C157.952 92.4909 157.855 92.5403 157.75 92.5635C157.645 92.5867 157.535 92.5828 157.432 92.5523C157.329 92.5218 157.235 92.4656 157.159 92.3891C157.084 92.3125 157.029 92.218 156.999 92.1144C156.755 91.274 156.023 89.0039 155.906 88.5424C155.774 88.0178 155.684 87.4886 155.562 86.9566C155.529 86.86 155.535 86.754 155.579 86.662C155.624 86.57 155.703 86.4994 155.8 86.4659C155.897 86.4324 156.002 86.4386 156.094 86.4832C156.187 86.5278 156.257 86.6071 156.291 86.7037C157 88.0055 157.556 89.3853 157.948 90.8153Z" fill="#2A2929"/>
<path d="M152.142 87.9285C150.573 92.7056 149.456 97.6192 148.804 102.605C148.077 107.581 147.813 112.613 148.014 117.638C148.022 117.744 148.07 117.842 148.147 117.915C148.224 117.987 148.326 118.028 148.432 118.03C148.537 118.031 148.64 117.993 148.719 117.923C148.799 117.853 148.849 117.756 148.86 117.65C150.015 101.053 149.842 103.127 152.017 92.527C152.163 91.8098 152.724 88.8714 152.886 88.1147C152.901 88.0198 152.879 87.923 152.826 87.8431C152.773 87.7633 152.692 87.7061 152.599 87.6828C152.505 87.6596 152.407 87.6719 152.323 87.7173C152.238 87.7627 152.174 87.8381 152.142 87.9285Z" fill="#2A2929"/>
<path d="M147.508 93.906C144.817 92.0062 145.938 90.4111 148.844 84.8058C148.886 84.712 148.963 84.6385 149.059 84.6017C149.155 84.5648 149.262 84.5676 149.355 84.6094C149.449 84.6511 149.523 84.7285 149.559 84.8244C149.596 84.9203 149.594 85.0269 149.552 85.1207L148.338 88.3384C146.959 91.6547 146.532 91.9404 149.208 93.4463C149.311 93.5056 149.396 93.5923 149.452 93.6968C149.509 93.8013 149.536 93.9194 149.53 94.0382C149.523 94.1569 149.484 94.2717 149.417 94.3696C149.35 94.4676 149.256 94.5449 149.148 94.5931C147.853 95.1675 147.516 95.2662 146.314 95.8922C147.19 99.4289 147.632 103.059 147.63 106.702C147.634 106.756 147.627 106.81 147.609 106.861C147.591 106.913 147.564 106.96 147.528 107C147.491 107.04 147.448 107.073 147.399 107.096C147.35 107.119 147.297 107.132 147.243 107.134C147.189 107.136 147.135 107.127 147.084 107.109C147.033 107.09 146.987 107.061 146.948 107.023C146.908 106.986 146.877 106.942 146.855 106.892C146.834 106.843 146.822 106.789 146.821 106.735C146.394 103.052 145.773 99.3947 144.96 95.7775C144.917 95.6406 144.922 95.4933 144.973 95.3593C145.024 95.2252 145.119 95.1123 145.242 95.0387C145.97 94.6084 146.727 94.2299 147.508 93.906Z" fill="#2A2929"/>
<path d="M167.436 86.0937C166.597 87.2217 165.584 88.3976 164.341 90.3519C158.721 99.1879 156.645 108.45 156.531 118.839C156.526 118.946 156.563 119.051 156.635 119.131C156.708 119.21 156.808 119.258 156.916 119.263C157.023 119.269 157.128 119.231 157.208 119.159C157.287 119.087 157.335 118.986 157.341 118.879C158.576 105.017 160.899 98.5383 165.352 90.977C165.885 90.0736 167.474 87.405 168.064 86.5345C168.123 86.4513 168.146 86.3482 168.128 86.248C168.111 86.1477 168.054 86.0586 167.971 86.0001C167.887 85.9417 167.784 85.9187 167.684 85.9362C167.584 85.9538 167.495 86.0104 167.436 86.0937Z" fill="#2A2929"/>
<path d="M171.543 94.9635C170.943 91.7337 171.303 89.8875 170.491 86.7028C170.472 86.5952 170.412 86.4993 170.323 86.4354C170.235 86.3716 170.125 86.3448 170.017 86.3609C169.909 86.3769 169.811 86.4345 169.745 86.5214C169.679 86.6082 169.649 86.7175 169.662 86.8259C169.687 89.324 169.849 91.8188 170.148 94.299C169.17 94.1418 168.184 94.0476 167.194 94.017C166.878 93.9474 166.456 94.299 166.684 94.6665C167.378 96.0692 168.156 97.4285 169.014 98.7367C168.133 100.247 162.833 104.759 161.043 106.62C160.324 107.337 159.667 108.115 159.081 108.944C159.016 109.019 158.984 109.116 158.991 109.215C158.998 109.313 159.044 109.405 159.118 109.47C159.192 109.536 159.289 109.569 159.387 109.564C159.486 109.558 159.578 109.514 159.645 109.441C160.247 108.848 169.697 100.902 170.225 98.9632C170.272 98.8311 170.287 98.6899 170.269 98.5509C170.252 98.4119 170.202 98.2789 170.125 98.1624L167.968 95.0801C168.895 95.3462 169.836 95.5553 170.788 95.7061C170.891 95.7256 170.996 95.72 171.096 95.6898C171.195 95.6595 171.286 95.6056 171.36 95.5326C171.434 95.4596 171.49 95.3697 171.522 95.2706C171.554 95.1715 171.561 95.0661 171.543 94.9635Z" fill="#2A2929"/>
<path d="M176.399 104.11C177.345 103.515 178.325 102.975 179.333 102.493C181.03 101.638 180.398 100.995 178.948 101.352C177.968 101.606 174.273 103.59 174.841 104.405C175.101 104.778 176.132 104.27 176.399 104.11Z" fill="#2A2929"/>
<path d="M179.859 105.769C180.121 105.621 180.365 105.481 180.611 105.34C180.932 105.186 181.573 104.73 181.457 104.333C181.053 103.258 177.433 105.442 177.876 106.23C178.215 106.834 179.682 105.87 179.859 105.769Z" fill="#2A2929"/>
<path d="M183.238 106.996C183.18 106.905 183.088 106.839 182.983 106.815C182.877 106.79 182.766 106.808 182.674 106.865C181.775 107.371 180.541 108.064 179.7 108.666C179.636 108.723 179.584 108.793 179.55 108.872C179.515 108.95 179.497 109.035 179.498 109.121C179.575 112.237 178.21 120.307 175.391 121.717C171.401 123.744 167.388 118.952 166.772 114.667C166.602 112.83 166.839 110.979 167.466 109.245C168.069 108.993 168.7 108.813 169.346 108.708C168.945 109.561 168.697 110.478 168.611 111.416C168.585 111.522 168.601 111.634 168.655 111.728C168.71 111.822 168.798 111.892 168.903 111.922C169.008 111.952 169.12 111.941 169.216 111.89C169.312 111.84 169.385 111.754 169.42 111.65C169.582 111.301 169.785 110.973 169.946 110.605C170.489 109.186 171.152 107.816 171.929 106.509C172.61 105.448 173.207 104.334 173.715 103.179C174.109 102.217 174.824 101.143 174.39 100.797C173.577 100.149 172.361 102.795 172.104 103.815C172.042 104.051 172.014 104.293 172.021 104.536C171.051 105.462 170.283 106.578 169.765 107.814C169.179 107.741 168.585 107.796 168.022 107.975C167.46 108.153 166.942 108.451 166.506 108.848C166.224 109.095 166.293 109.403 166.523 109.516C165.782 111.176 165.456 112.992 165.575 114.806C165.779 116.291 166.276 117.721 167.037 119.013C167.797 120.305 168.807 121.433 170.006 122.333C170.849 122.977 171.858 123.368 172.915 123.46C173.972 123.551 175.033 123.34 175.974 122.851C179.347 121.139 180.768 113.089 180.587 109.323C181.276 108.766 182.18 108.2 183.096 107.559C183.189 107.503 183.256 107.412 183.283 107.307C183.309 107.201 183.293 107.09 183.238 106.996Z" fill="#2A2929"/>
<path d="M173.405 108.619C173.487 110.003 172.819 110.996 173.364 111.28C173.985 111.609 175.203 109.849 174.457 107.249C174.401 107.074 174.333 106.903 174.254 106.736C174.108 106.447 173.665 105.75 173.284 105.902C172.692 106.145 173.343 107.548 173.405 108.619Z" fill="#2A2929"/>
</svg>
