<svg width="188" height="188" viewBox="0 0 188 188" fill="none" xmlns="http://www.w3.org/2000/svg">
<path d="M54.7563 83.992C55.2551 84.1919 55.7937 84.2728 56.3293 84.2281C56.8648 84.1833 57.3826 84.0143 57.8413 83.7345C58.4158 83.4055 58.894 82.9316 59.228 82.3601C59.562 81.7885 59.7402 81.1393 59.7448 80.4773C59.7661 80.3648 59.7419 80.2485 59.6776 80.1537C59.6133 80.059 59.5141 79.9935 59.4017 79.9716C59.2895 79.9531 59.1745 79.9784 59.0804 80.0422C58.9863 80.1061 58.9203 80.2036 58.896 80.3147C58.7299 80.793 58.4928 81.2435 58.1929 81.6514C57.2764 82.9674 56.2415 82.9618 54.7816 82.8349C54.321 82.7728 54.0024 82.6713 53.8642 83.0144C53.6743 83.4365 54.338 83.7899 54.7563 83.992Z" fill="#2A2929"/>
<path d="M55.1784 66.6461C55.5814 66.2125 56.0873 65.8877 56.6493 65.7018C57.2113 65.516 57.8112 65.4751 58.3932 65.5829C58.882 65.66 59.258 65.91 59.4554 65.5143C59.7195 65.0067 58.803 64.5922 58.2644 64.4089C57.5294 64.2263 56.7573 64.2606 56.0413 64.5075C55.3253 64.7543 54.6962 65.2033 54.2299 65.8001C54.0109 66.0915 53.5653 66.9995 53.9902 67.2571C54.3089 67.4488 55.0844 66.7401 55.1784 66.6461Z" fill="#2A2929"/>
<path d="M59.4233 69.9193C59.6545 70.3893 59.0633 71.1535 58.1073 71.6113C57.1466 72.0916 56.1869 72.1001 55.9556 71.6291C55.7244 71.1582 56.3156 70.4071 57.2716 69.9315C58.2276 69.4558 59.192 69.4474 59.4233 69.9193Z" fill="#2A2929"/>
<path d="M70.1816 75.3825C70.0337 74.9551 69.7815 74.5713 69.4478 74.266C69.1141 73.9607 68.7094 73.7435 68.2706 73.6341C68.0484 73.5801 67.8219 73.5455 67.5938 73.5307C66.7061 73.4356 65.8095 73.5902 65.005 73.9772C64.9254 74.01 64.8541 74.0601 64.7962 74.1238C64.7383 74.1875 64.6954 74.2633 64.6704 74.3457C64.3763 75.307 64.475 76.3456 64.9448 77.2343C64.9452 77.3057 64.9645 77.3757 65.0006 77.4373C65.0368 77.4989 65.0885 77.5498 65.1507 77.5849C65.5585 77.8845 66.0343 78.0783 66.5353 78.1489C65.3481 87.3609 61.4979 98.5018 55.5806 106.22C50.6212 100.142 48.0775 92.4481 48.4366 84.6114C48.4445 84.5035 48.4093 84.3968 48.3386 84.3148C48.2679 84.2328 48.1676 84.1823 48.0596 84.1743C47.9517 84.1663 47.845 84.2016 47.763 84.2723C47.681 84.343 47.6305 84.4433 47.6225 84.5513C47.4812 85.7893 47.4097 87.0342 47.4082 88.2802C47.4552 95.3754 50.4557 102.15 55.088 107.711C55.1129 107.741 55.1402 107.769 55.1698 107.794C55.051 111.174 55.2211 114.557 55.6783 117.908C55.8725 119.147 56.1329 120.374 56.4585 121.585C56.4823 121.694 56.5475 121.788 56.64 121.849C56.7326 121.91 56.8452 121.932 56.9539 121.91C57.0626 121.889 57.1586 121.826 57.2215 121.735C57.2844 121.644 57.3091 121.532 57.2904 121.423C56.545 115.756 56.4858 109.364 56.2263 107.562C62.576 99.4879 66.3906 88.6685 67.4246 78.1724C69.0056 78.0277 70.5943 76.9279 70.1816 75.3825ZM68.6992 76.2905C67.8394 76.8779 66.7864 77.1115 65.7589 76.9429C65.5321 76.3164 65.5173 75.6328 65.7166 74.9971C68.2856 74.3203 69.3723 75.6175 68.6992 76.2905Z" fill="#2A2929"/>
<path d="M10.3714 122.764C11.0538 122.988 12.4112 123.51 13.4057 123.956C17.4207 125.653 21.0877 128.076 24.2223 131.105C25.5817 132.333 26.8985 133.608 28.1703 134.927C28.2459 135.009 28.3501 135.06 28.4616 135.068C28.5731 135.076 28.6834 135.041 28.77 134.97C28.812 134.933 28.8462 134.888 28.8707 134.838C28.8952 134.788 28.9095 134.733 28.9127 134.678C28.916 134.622 28.9081 134.566 28.8896 134.513C28.871 134.46 28.8422 134.412 28.8048 134.37C24.0569 128.304 18.4046 124.384 13.8729 122.764C12.7972 122.396 11.6894 122.129 10.5641 121.967C10.4596 121.943 10.3499 121.961 10.2585 122.017C10.1671 122.073 10.1014 122.163 10.0753 122.267C10.0505 122.372 10.0676 122.483 10.1228 122.575C10.1781 122.668 10.2672 122.736 10.3714 122.764Z" fill="#2A2929"/>
<path d="M30.4901 132.598C33.2396 129.749 36.7505 127.747 40.2361 125.87C45.1447 123.264 49.5787 121.279 55.0561 120.307C55.1653 120.292 55.2759 120.32 55.3652 120.385C55.4546 120.449 55.5159 120.545 55.5367 120.653C55.5575 120.761 55.5362 120.873 55.477 120.966C55.4179 121.059 55.3255 121.126 55.2187 121.153C51.37 122.025 47.6544 123.406 44.17 125.259C40.7778 126.912 37.5136 128.815 34.4043 130.953C30.7721 133.631 30.9385 134.66 30.1273 134.509C30.0123 134.484 29.9056 134.43 29.8171 134.352C29.7287 134.274 29.6614 134.175 29.6216 134.064C28.8513 131.951 27.6583 130.017 26.1154 128.381C22.6525 124.823 18.6311 121.855 14.2103 119.595C14.1606 119.575 14.1155 119.545 14.0774 119.508C14.0393 119.47 14.0091 119.425 13.9884 119.376C13.9677 119.326 13.9569 119.273 13.9568 119.22C13.9566 119.166 13.9671 119.113 13.9875 119.063C14.031 118.964 14.1122 118.885 14.2133 118.846C14.3144 118.806 14.4272 118.807 14.5271 118.85C15.9854 119.422 17.3955 120.11 18.7439 120.907C23.2897 123.446 28.4597 127.84 30.4901 132.598Z" fill="#2A2929"/>
<path d="M33.0714 134.841C34.2459 133.959 35.4771 133.154 36.7571 132.433C43.37 128.549 52.5707 125.472 59.9948 123.673C60.1016 123.646 60.1937 123.578 60.2517 123.485C60.3097 123.391 60.3291 123.278 60.3059 123.171C60.2826 123.063 60.2185 122.968 60.127 122.907C60.0355 122.846 59.9238 122.822 59.8153 122.841C54.2447 123.755 48.8068 125.347 43.6229 127.582C39.3195 129.462 35.5755 131.118 32.5309 134.233C32.4502 134.305 32.4013 134.406 32.395 134.513C32.3886 134.621 32.4253 134.727 32.497 134.807C32.5687 134.888 32.6695 134.937 32.7772 134.943C32.8849 134.95 32.9907 134.913 33.0714 134.841Z" fill="#2A2929"/>
<path d="M5.75114 136.521C7.29039 135.579 8.99006 134.928 10.7651 134.601C11.4052 134.453 11.8442 134.446 11.8282 134.009C11.7953 133.553 11.331 133.564 10.6626 133.564C8.71006 133.54 6.81209 134.208 5.30464 135.449C4.83464 136.013 4.53384 136.378 4.80738 136.667C5.04802 136.934 5.29994 136.761 5.75114 136.521Z" fill="#2A2929"/>
<path d="M7.5523 138.923C9.23302 138.359 8.67184 138.101 13.0203 136.874C13.6134 136.699 14.1276 136.705 14.0919 136.223C14.0402 135.761 13.5081 135.816 12.8577 135.838C10.8427 135.98 8.90246 136.659 7.23834 137.804C6.66682 138.329 6.35004 138.642 6.58034 138.961C6.78808 139.264 7.05034 139.111 7.5523 138.923Z" fill="#2A2929"/>
<path d="M11.083 140.949C11.3715 140.88 11.6507 140.776 11.9149 140.641C13.1745 140.113 14.4463 139.733 14.5976 139.681C15.8779 139.225 16.1289 139.182 16.0716 138.781C16.0076 138.347 15.5527 138.405 14.9924 138.429C13.4296 138.579 11.92 139.077 10.5744 139.886C10.0913 140.321 9.77356 140.577 9.9578 140.889C10.1298 141.201 10.4259 141.121 11.083 140.949Z" fill="#2A2929"/>
<path d="M15.4764 142.632C17.3743 141.999 18.0699 141.837 17.9965 141.338C17.9242 140.948 17.5538 140.978 17.0565 140.978C15.8632 141.026 14.7027 141.383 13.6876 142.012C13.3031 142.347 13.0098 142.632 13.1903 142.937C13.477 143.52 14.8598 142.838 15.4764 142.632Z" fill="#2A2929"/>
<path d="M80.5414 131.109C79.6341 130.392 78.615 129.83 77.525 129.446C76.3823 129.033 75.158 128.898 73.9529 129.052C70.3261 129.499 66.8785 130.885 63.9504 133.071C63.9011 133.101 63.8584 133.14 63.8247 133.187C63.791 133.234 63.7671 133.287 63.7544 133.343C63.7417 133.399 63.7405 133.457 63.7508 133.513C63.7612 133.57 63.7829 133.624 63.8146 133.672C63.8463 133.72 63.8874 133.761 63.9354 133.793C63.9833 133.824 64.0373 133.846 64.0939 133.857C64.1504 133.867 64.2086 133.866 64.2647 133.853C64.3208 133.84 64.3738 133.816 64.4204 133.783C67.4199 132.055 70.7124 130.896 74.1325 130.363C74.9321 130.259 75.7443 130.311 76.5239 130.517C77.7563 130.873 78.9645 131.309 80.141 131.82C80.2348 131.866 80.3426 131.875 80.4424 131.844C80.5422 131.813 80.6263 131.745 80.6776 131.654C80.7288 131.563 80.7433 131.455 80.7179 131.354C80.6926 131.253 80.6295 131.165 80.5414 131.109Z" fill="#2A2929"/>
<path d="M73.0034 133.469C70.7228 133.961 68.567 134.915 66.6688 136.272C65.9882 136.782 65.6009 137.003 65.8453 137.395C66.1818 137.947 66.6434 137.319 70.2342 135.766C71.537 135.202 72.8305 134.848 73.6454 134.455C74.0825 134.267 74.5178 134.144 74.4256 133.76C74.3542 133.399 73.9979 133.362 73.0034 133.469Z" fill="#2A2929"/>
<path d="M73.1322 138.126C72.1577 138.384 71.2127 138.743 70.3122 139.196C69.3598 139.601 68.4661 140.131 67.6548 140.774C67.1219 141.196 66.6904 141.509 66.9602 141.879C67.23 142.249 67.48 142.022 68.9831 141.296C72.4376 139.616 72.635 139.717 73.5693 139.214C74.2546 138.792 74.5958 138.661 74.4604 138.274C74.3251 137.887 73.8269 137.992 73.1322 138.126Z" fill="#2A2929"/>
<path d="M72.8203 143.372C71.2335 144.023 69.6943 144.785 68.2143 145.652C68.1242 145.717 68.0125 145.743 67.903 145.727C67.7934 145.71 67.6946 145.652 67.6276 145.564C67.5605 145.475 67.5305 145.364 67.5439 145.255C67.5573 145.145 67.613 145.044 67.6992 144.974C69.1734 143.782 70.8065 142.802 72.5515 142.06C73.0478 141.837 72.7489 142.006 81.4815 145.711C81.584 145.747 81.6693 145.819 81.7202 145.915C81.7712 146.011 81.784 146.122 81.756 146.227C81.7412 146.278 81.7163 146.326 81.6828 146.368C81.6492 146.41 81.6077 146.444 81.5606 146.47C81.5135 146.495 81.4618 146.511 81.4085 146.516C81.3552 146.521 81.3014 146.516 81.2502 146.5C78.4566 146.034 77.0635 145.245 72.8203 143.372Z" fill="#2A2929"/>
<path d="M73.0543 124.144C78.324 128.154 77.0023 126.91 81.3 130.581C81.8405 131.045 83.6322 132.535 83.9828 132.853C84.0647 132.934 84.1753 132.979 84.2903 132.978C84.4053 132.977 84.5153 132.931 84.5961 132.849C84.6769 132.767 84.7218 132.656 84.721 132.541C84.7202 132.426 84.6738 132.316 84.5919 132.236C83.8201 131.405 83.0578 130.556 82.2419 129.75C79.9663 127.548 77.4428 125.618 74.7219 123.998C74.3026 123.792 73.8909 123.622 73.4538 123.441C73.4077 123.414 73.3567 123.397 73.3039 123.391C73.2512 123.384 73.1976 123.387 73.1462 123.401C73.0948 123.415 73.0467 123.439 73.0046 123.472C72.9624 123.504 72.9271 123.545 72.9006 123.591C72.8742 123.637 72.857 123.688 72.8502 123.741C72.8434 123.794 72.8471 123.847 72.861 123.898C72.875 123.95 72.8989 123.998 72.9314 124.04C72.9639 124.082 73.0044 124.118 73.0506 124.144H73.0543Z" fill="#2A2929"/>
<path d="M55.0767 119.37C55.0677 119.307 55.0454 119.248 55.0113 119.194C54.9773 119.141 54.9323 119.096 54.8793 119.062C54.7693 118.012 54.6806 116.96 54.6133 115.907C54.4422 113.301 54.3651 110.704 54.1941 108.105C54.1857 107.974 54.1272 107.851 54.0305 107.762C51.7902 105.584 50.0014 102.986 48.7665 100.117C47.5301 97.2372 46.7466 94.1837 46.4438 91.0646C46.433 90.953 46.3925 90.8464 46.3263 90.7559C46.2601 90.6654 46.1708 90.5944 46.0678 90.5504C45.9651 90.504 45.8516 90.4867 45.7397 90.5003C45.6279 90.5139 45.5219 90.5579 45.4333 90.6275C44.6072 91.2751 43.8224 91.9736 43.0833 92.719C41.9947 93.8338 40.9918 95.0417 40.0405 96.2252C36.2506 100.831 33.5098 106.207 32.0091 111.98C30.6513 117.749 30.2073 123.696 30.6931 129.603C30.7005 129.734 30.7464 129.859 30.825 129.964C30.9035 130.069 31.0113 130.148 31.1348 130.192C31.2582 130.236 31.3919 130.242 31.519 130.211C31.6461 130.179 31.761 130.11 31.8493 130.013C32.7232 129.066 33.691 128.211 34.7379 127.459C35.809 126.707 36.9215 126.015 38.0702 125.387C39.5433 124.576 41.0568 123.841 42.6048 123.184C44.1437 122.528 45.728 121.984 47.3452 121.555C47.4415 121.532 47.531 121.486 47.6068 121.422C47.6826 121.358 47.7426 121.278 47.7823 121.187C47.8188 121.096 47.8346 120.999 47.8286 120.901C47.8225 120.803 47.7949 120.708 47.7475 120.623C47.5163 120.194 47.302 119.757 47.1046 119.32C46.9072 118.883 46.7023 118.42 46.5133 117.957C46.2248 117.324 45.9759 116.675 45.7679 116.011C45.6488 115.614 45.5824 115.203 45.5705 114.789C45.7271 114.84 45.8705 114.925 45.9907 115.037C46.1528 115.259 46.2908 115.498 46.4024 115.749C46.5904 116.186 46.7446 116.657 46.925 117.086C47.2597 117.891 47.5765 118.715 47.9534 119.52C48.1991 120.07 48.4798 120.604 48.7938 121.118C48.8521 121.226 48.9489 121.308 49.0649 121.348C49.1809 121.387 49.3076 121.382 49.4198 121.333C50.2664 120.97 51.1337 120.658 52.017 120.398C52.9032 120.15 53.8052 119.961 54.7167 119.834C54.7713 119.829 54.8243 119.812 54.8723 119.785C54.9203 119.759 54.9624 119.722 54.9961 119.679C55.0297 119.636 55.0542 119.586 55.0681 119.533C55.082 119.48 55.0849 119.424 55.0767 119.37Z" fill="#CB7428"/>
<path d="M58.346 99.1213C56.9622 98.1853 55.8076 96.9488 54.9686 95.5042C54.6701 95.0727 54.4622 94.5852 54.3575 94.0711C54.2528 93.5569 54.2535 93.0269 54.3595 92.5131C54.3811 92.4591 54.3901 92.4008 54.3857 92.3428C54.3813 92.2848 54.3636 92.2286 54.3341 92.1785C54.3073 92.1269 54.2696 92.0819 54.2237 92.0463C54.1778 92.0108 54.1247 91.9856 54.0681 91.9726C53.251 91.6655 52.4874 91.2316 51.8055 90.6867C51.1408 90.1761 50.5989 89.5231 50.2197 88.7757C50.1497 88.6402 50.0333 88.5346 49.8917 88.4779C49.7502 88.4213 49.593 88.4176 49.4489 88.4673C49.3028 88.515 49.1793 88.6147 49.1018 88.7474C49.0244 88.8801 48.9983 89.0367 49.0287 89.1874C49.071 89.4525 49.1312 89.7185 49.1914 89.9845C49.3286 90.5673 49.4912 91.1501 49.6285 91.7414C50.1383 93.9248 50.7998 96.0701 51.6081 98.1616C52.4345 100.275 53.5231 102.276 54.8483 104.118C54.9098 104.206 54.9922 104.277 55.088 104.325C55.1839 104.373 55.2901 104.396 55.3972 104.393C55.5031 104.388 55.6065 104.359 55.6988 104.307C55.7911 104.254 55.8697 104.181 55.9283 104.093L58.534 99.9786C58.6197 99.8391 58.6479 99.6719 58.6129 99.512C58.5778 99.3522 58.4822 99.2121 58.346 99.1213Z" fill="#CB7428"/>
<path d="M132.037 139.026C132.023 138.95 131.992 138.879 131.945 138.818C131.898 138.757 131.837 138.708 131.767 138.676C131.697 138.644 131.62 138.63 131.544 138.634C131.467 138.638 131.392 138.661 131.326 138.7C129.502 139.853 127.463 140.624 125.333 140.966C123.202 141.308 121.024 141.213 118.931 140.689C117.281 140.043 115.775 139.074 114.504 137.839C113.232 136.604 112.219 135.128 111.525 133.497C110.881 131.861 110.586 130.108 110.659 128.351C110.733 126.594 111.172 124.871 111.95 123.294C112.729 121.717 113.828 120.32 115.178 119.193C116.527 118.065 118.098 117.233 119.788 116.748C121.432 116.202 123.186 116.073 124.893 116.372C126.599 116.671 128.204 117.39 129.564 118.463C129.667 118.548 129.793 118.599 129.926 118.608C130.058 118.617 130.191 118.584 130.304 118.514C130.416 118.444 130.504 118.34 130.555 118.216C130.605 118.093 130.616 117.958 130.584 117.828C128.378 108.271 116.672 97.4227 104.298 96.5006C108.21 101.959 110.766 110.095 112.643 115.95C112.665 116.004 112.676 116.061 112.675 116.118C112.674 116.176 112.661 116.233 112.638 116.286C112.614 116.338 112.58 116.386 112.538 116.425C112.496 116.464 112.446 116.495 112.392 116.514C112.338 116.534 112.28 116.542 112.223 116.539C112.165 116.536 112.109 116.521 112.057 116.496C112.005 116.47 111.959 116.435 111.922 116.391C111.884 116.347 111.855 116.296 111.838 116.242C109.264 109.756 108.18 106.753 106.549 103.23C105.523 100.831 104.232 98.5546 102.701 96.4423C95.0025 88.6234 79.7228 81.5799 69.3311 85.3766C69.189 85.4309 69.0695 85.5315 68.9917 85.6622C68.9139 85.7928 68.8825 85.9459 68.9024 86.0967C69.6253 91.1407 66.0241 96.1904 61.796 98.9972C61.7237 99.0451 61.6616 99.1067 61.6132 99.1787C61.5648 99.2506 61.5311 99.3314 61.514 99.4165C60.9303 102.322 59.5569 105.989 56.9287 107.345C56.8184 107.404 56.7264 107.492 56.6629 107.599C56.5994 107.707 56.5668 107.83 56.5687 107.954C56.6625 111.65 57.0263 115.334 57.6572 118.977C57.6778 119.091 57.7272 119.198 57.8007 119.288C57.8743 119.378 57.9695 119.448 58.0774 119.491C58.7767 119.754 59.5739 120.128 59.3802 120.846C59.3542 120.94 59.3495 121.039 59.3664 121.135C59.3833 121.231 59.4215 121.322 59.4781 121.402C59.5347 121.482 59.6084 121.548 59.6937 121.596C59.7791 121.643 59.874 121.671 59.9715 121.678C61.0384 121.743 62.3854 122.416 61.9944 123.451C61.955 123.554 61.9423 123.666 61.9572 123.775C61.9721 123.884 62.0143 123.988 62.0798 124.077C62.1453 124.165 62.2321 124.236 62.3321 124.283C62.4322 124.329 62.5423 124.35 62.6524 124.342L64.5465 124.215C64.9413 125.645 65.1988 127.112 65.5579 128.552C65.8775 129.829 65.9236 130.037 66.261 130.206C66.7978 130.42 66.7968 129.977 69.5952 129.245C73.4877 128.278 74.4127 128.656 74.6007 127.874C74.7821 127.15 73.8074 127.055 72.7668 125.595C72.1436 124.71 71.7384 123.572 72.638 122.971C73.1803 122.644 73.8264 122.534 74.4465 122.663C77.9189 123.313 80.3601 125.517 82.7956 128.055C82.8891 128.151 83.0102 128.216 83.1422 128.241C83.2743 128.265 83.4107 128.248 83.5326 128.192C83.6683 128.096 83.8225 128.029 83.9854 127.995C84.1483 127.962 84.3164 127.962 84.479 127.997C84.6417 128.031 84.7955 128.099 84.9306 128.196C85.0657 128.293 85.1792 128.417 85.2641 128.56C86.8292 130.898 85.5762 137.768 84.9727 140.492C84.3741 143.174 83.5923 145.812 82.633 148.388C82.5833 148.525 82.5834 148.676 82.6334 148.813C82.6834 148.951 82.7801 149.066 82.9065 149.14C89.5082 152.982 98.5745 154.072 105.818 151.479C108.364 150.566 110.982 149.51 112.667 147.373C114.867 147.946 117.34 147.561 119.576 147.331C123.714 146.893 127.802 146.06 131.782 144.845C131.87 144.815 131.948 144.762 132.009 144.691C132.069 144.62 132.109 144.534 132.125 144.442C132.376 142.643 132.346 140.816 132.037 139.026ZM103.902 132.62C103.859 132.725 103.776 132.807 103.671 132.851C103.567 132.894 103.45 132.894 103.345 132.851C99.5662 131.513 87.7241 127.3 84.1624 127.648C84.1095 127.659 84.0551 127.658 84.0024 127.647C83.9496 127.636 83.8996 127.615 83.855 127.585C83.8104 127.555 83.7723 127.516 83.7427 127.471C83.7131 127.426 83.6926 127.376 83.6825 127.323C83.6724 127.27 83.6728 127.215 83.6837 127.163C83.6946 127.11 83.7157 127.06 83.746 127.015C83.7762 126.971 83.815 126.933 83.86 126.903C83.905 126.873 83.9553 126.853 84.0082 126.843C86.0885 126.25 87.9327 126.677 89.9566 127.206C88.8596 125.48 87.9367 123.65 87.2014 121.741C85.3712 117.222 85.2096 115.631 85.0253 114.147C84.9994 114.042 85.0165 113.93 85.0727 113.837C85.1288 113.744 85.2196 113.676 85.3252 113.65C85.3769 113.637 85.4306 113.635 85.4833 113.643C85.5359 113.651 85.5864 113.67 85.6318 113.698C85.6772 113.726 85.7166 113.762 85.7477 113.806C85.7788 113.849 85.801 113.898 85.813 113.95C87.8096 119.16 87.85 120.695 91.3318 127.564C95.5748 128.677 99.7034 130.188 103.663 132.076C103.715 132.095 103.763 132.125 103.803 132.163C103.843 132.202 103.876 132.248 103.898 132.299C103.921 132.35 103.932 132.405 103.933 132.46C103.934 132.516 103.923 132.571 103.902 132.623V132.62Z" fill="#CB7428"/>
<path d="M132.446 124.789C128.289 116.124 115.86 116.271 112.723 125.561C111.82 128.295 112.001 131.272 113.23 133.877C114.458 136.481 116.639 138.515 119.324 139.557C128.465 143.042 136.676 133.614 132.446 124.789ZM126.524 133.217C126.292 133.537 126.037 133.331 125.548 133.2C125.365 133.157 125.178 133.131 124.99 133.123C123.219 132.971 122.193 134.496 121.648 133.98C121.313 133.663 121.857 132.852 122.068 132.703C122.499 132.339 123.006 132.078 123.552 131.939C124.098 131.799 124.669 131.785 125.221 131.897C125.792 132.04 126.911 132.714 126.524 133.217ZM127.527 130.887C126.94 130.318 126.231 129.89 125.454 129.636C124.552 129.328 123.576 129.323 122.671 129.62C121.766 129.916 120.983 130.499 120.439 131.281C120.123 131.67 119.831 132.078 119.564 132.503C119.525 132.601 119.449 132.681 119.353 132.724C119.256 132.768 119.146 132.772 119.046 132.737C118.947 132.701 118.864 132.629 118.817 132.534C118.77 132.439 118.761 132.329 118.793 132.228C119.001 131.23 119.497 130.316 120.22 129.597C120.942 128.878 121.86 128.387 122.859 128.185C123.858 127.982 124.894 128.077 125.84 128.458C126.785 128.838 127.598 129.488 128.179 130.326C128.253 130.412 128.29 130.525 128.281 130.639C128.273 130.753 128.219 130.859 128.132 130.933C128.045 131.008 127.933 131.045 127.819 131.036C127.705 131.027 127.599 130.973 127.524 130.887H127.527ZM129.516 128.468C129.422 128.53 129.307 128.554 129.195 128.535C129.084 128.516 128.984 128.455 128.916 128.365C128.003 127.091 126.74 126.109 125.282 125.536C123.971 125.177 122.58 125.248 121.313 125.738C120.047 126.229 118.971 127.114 118.245 128.262C117.839 128.826 117.497 129.432 117.225 130.071C117.197 130.175 117.129 130.264 117.036 130.318C116.943 130.373 116.832 130.389 116.728 130.362C116.676 130.349 116.628 130.326 116.586 130.295C116.543 130.263 116.508 130.224 116.481 130.178C116.454 130.133 116.436 130.083 116.428 130.03C116.42 129.978 116.423 129.925 116.436 129.873C117.082 125.445 121.834 123.087 125.676 124.302C127.36 124.997 128.75 126.254 129.61 127.859C129.676 127.953 129.702 128.07 129.684 128.183C129.666 128.296 129.605 128.399 129.513 128.468H129.516Z" fill="#2A2929"/>
<path d="M141.1 154.719C141.088 154.631 141.058 154.547 141.013 154.471C140.968 154.395 140.908 154.328 140.837 154.276C140.766 154.223 140.685 154.186 140.599 154.165C140.513 154.144 140.424 154.14 140.337 154.155C134.775 155.105 123.639 157.942 122.534 158.174C118.384 157.168 106.413 155.73 100.934 154.874C100.767 154.846 100.595 154.885 100.457 154.983C100.319 155.081 100.225 155.23 100.196 155.397C99.9627 156.678 99.8079 157.971 99.7325 159.271C96.6841 159.315 71.8145 160.095 68.0733 160.181C66.0824 160.228 61.0355 159.963 59.3896 158.715C59.2714 158.646 59.175 158.545 59.1114 158.424C59.0477 158.303 59.0194 158.166 59.0296 158.029C61.2329 157.089 71.9668 157.069 73.8242 156.855C75.9552 156.581 79.2038 155.814 78.59 153.761C77.5795 150.391 64.0905 151.812 61.2752 149.124C61.1968 149.055 61.0951 149.02 60.9913 149.024C60.8874 149.029 60.7892 149.073 60.7169 149.148C60.6446 149.222 60.6037 149.322 60.6026 149.426C60.6016 149.53 60.6404 149.63 60.7112 149.706C63.8245 152.777 76.7852 152.226 77.3398 154.129C77.4263 154.453 76.851 154.732 76.5427 154.866C73.6362 156.147 68.3807 155.382 61.2856 156.221C60.4077 156.296 59.54 156.462 58.6968 156.718C58.5029 156.772 58.3229 156.867 58.169 156.997C58.0151 157.127 57.8908 157.288 57.8047 157.47C57.3253 158.858 58.3283 159.938 60.1623 160.556C62.7557 161.229 65.4292 161.544 68.1081 161.49C71.3219 161.405 94.7477 160.33 99.8726 160.126C100.132 160.446 98.3902 160.093 122.2 162.818C122.2 162.818 138.966 158.969 140.56 158.652C140.695 158.627 140.817 158.559 140.91 158.459C141.002 158.358 141.06 158.231 141.075 158.095C141.214 156.974 141.223 155.841 141.1 154.719Z" fill="#2A2929"/>
<path d="M136.84 153.685C133.207 153.191 132.015 152.076 116.953 150.727C116.883 150.714 116.81 150.72 116.743 150.744C116.675 150.767 116.615 150.808 116.569 150.863C115.073 150.978 113.584 151.172 112.108 151.445C109.9 151.802 107.729 152.358 105.622 153.108C104.528 153.595 104.118 153.804 104.259 154.205C104.417 154.625 104.86 154.452 105.982 154.214C106.241 154.159 106.505 154.103 106.763 154.034C112.142 152.653 111.232 153 114.151 152.371C114.245 152.35 117.104 151.674 117.2 151.639C120.881 152.64 123.156 152.619 127.916 153.298C130.383 153.639 133.096 154.248 136.736 154.532C136.848 154.546 136.961 154.515 137.051 154.445C137.14 154.375 137.198 154.273 137.212 154.161C137.225 154.048 137.194 153.935 137.124 153.846C137.055 153.756 136.952 153.698 136.84 153.685Z" fill="#2A2929"/>
<path d="M65.4696 142.942C65.1673 142.626 64.9875 142.213 64.9623 141.776C64.9372 141.339 65.0683 140.908 65.3323 140.559C65.3909 140.474 65.427 140.375 65.437 140.272C65.4471 140.169 65.4308 140.065 65.3898 139.97C65.3487 139.875 65.2842 139.792 65.2023 139.729C65.1205 139.665 65.0238 139.624 64.9215 139.608C63.3405 139.385 62.1194 138.057 62.6928 136.48C62.7209 136.399 62.732 136.313 62.7253 136.227C62.7187 136.142 62.6945 136.059 62.6543 135.983C62.614 135.908 62.5586 135.841 62.4915 135.788C62.4244 135.735 62.347 135.696 62.2642 135.674C61.0995 135.361 60.4885 134.946 61.0901 133.908C62.115 132.453 63.4766 131.268 65.0588 130.453C65.1847 130.39 65.286 130.287 65.3464 130.16C65.4069 130.032 65.4231 129.889 65.3925 129.751L64.5183 125.92C64.4831 125.766 64.3931 125.631 64.2651 125.54C64.1372 125.448 63.9801 125.406 63.8236 125.422C54.3024 126.452 39.8705 132.828 31.4237 137.294C31.0972 137.445 30.7477 137.54 30.3897 137.576C29.9157 137.616 29.4388 137.608 28.9665 137.55C22.7183 131.534 15.1485 128.225 7.58059 124.333C7.44968 124.269 7.30142 124.249 7.15839 124.277C7.01536 124.305 6.8854 124.379 6.7883 124.488C6.69121 124.597 6.63231 124.734 6.62058 124.879C6.60884 125.025 6.64492 125.17 6.72331 125.293C7.77423 126.878 9.16731 129.284 10.0575 130.812C10.7286 131.974 12.6462 132.34 12.6462 133.222C12.6452 133.352 12.683 133.479 12.7549 133.587C12.8267 133.696 12.9293 133.78 13.0495 133.83C13.8711 134.168 14.8064 134.802 14.8064 135.69C14.8004 135.826 14.8392 135.959 14.9166 136.071C14.994 136.182 15.1059 136.265 15.235 136.307C16.0594 136.589 17.397 137.378 17.2146 138.236C17.1819 138.376 17.1981 138.522 17.2605 138.652C17.3229 138.781 17.4278 138.886 17.5577 138.947C19.0129 139.666 20.0892 141.354 18.7797 142.425C18.6998 142.492 18.6376 142.578 18.599 142.675C18.5603 142.772 18.5463 142.877 18.5583 142.981C18.5702 143.084 18.6077 143.183 18.6673 143.269C18.727 143.355 18.8069 143.424 18.9001 143.471C24.5634 146.587 29.2807 151.174 32.5545 156.748C32.7989 157.14 32.9916 156.805 34.3969 157.066C34.885 157.147 35.3664 157.264 35.837 157.417V157.443C35.9022 157.466 35.9725 157.471 36.0404 157.458C36.1083 157.444 36.1712 157.412 36.2224 157.365C44.9823 150.572 54.2131 149.238 63.5059 146.367C63.5971 146.338 63.6801 146.288 63.7485 146.221C63.8169 146.154 63.8687 146.072 63.8998 145.981C64.1545 145.14 64.6862 144.409 65.4085 143.908C65.4873 143.856 65.5531 143.787 65.6005 143.706C65.648 143.625 65.6758 143.534 65.6817 143.44C65.6876 143.346 65.6716 143.252 65.6347 143.166C65.5979 143.08 65.5413 143.003 65.4696 142.942ZM32.0215 151.684C31.9674 151.697 31.9113 151.699 31.8564 151.689C31.8016 151.68 31.7491 151.66 31.702 151.631C31.6549 151.601 31.6141 151.563 31.582 151.517C31.5499 151.472 31.5271 151.421 31.5149 151.366C31.2498 150.484 30.9584 149.635 30.7093 148.752C30.4762 147.929 29.2325 142.729 29.0897 141.398C29.0558 141.029 29.0464 140.669 29.0295 140.301C29.0098 140.197 29.0312 140.089 29.0893 140C29.1474 139.912 29.2376 139.849 29.3409 139.826C29.4443 139.802 29.5527 139.82 29.6433 139.875C29.7339 139.93 29.7996 140.018 29.8266 140.12C29.9554 140.48 30.1011 140.806 30.2214 141.154C30.5974 142.247 31.8063 147.794 31.9266 148.474C32.0902 149.374 32.2086 150.266 32.3468 151.175C32.3588 151.229 32.36 151.286 32.3501 151.341C32.3403 151.396 32.3197 151.449 32.2895 151.496C32.2593 151.544 32.2201 151.584 32.1741 151.616C32.1281 151.648 32.0763 151.671 32.0215 151.683V151.684ZM35.4055 155.59C35.2692 154.621 35.0887 153.661 34.9261 152.693C33.362 143.557 33.5077 146.366 32.9634 142.158C32.9471 142.106 32.9416 142.05 32.9473 141.995C32.953 141.94 32.9697 141.887 32.9965 141.839C33.0233 141.791 33.0596 141.749 33.1032 141.715C33.1467 141.681 33.1967 141.657 33.25 141.643C33.3034 141.629 33.359 141.626 33.4135 141.634C33.468 141.642 33.5203 141.661 33.5673 141.69C33.6142 141.719 33.6547 141.757 33.6865 141.802C33.7183 141.847 33.7406 141.898 33.7521 141.952C33.9401 142.406 34.1281 142.843 34.3001 143.307C35.4949 147.274 36.1522 151.384 36.2544 155.527C36.2584 155.637 36.2196 155.745 36.146 155.827C36.0724 155.909 35.9698 155.959 35.8599 155.967C35.7499 155.975 35.6411 155.94 35.5563 155.87C35.4716 155.799 35.4175 155.699 35.4055 155.589V155.59Z" fill="#2A2929"/>
<path d="M139.026 112.483C149.976 111.213 150.42 109.495 150.812 110.35C150.861 110.451 150.867 110.567 150.83 110.672C150.793 110.778 150.716 110.865 150.615 110.914C146.842 112.894 143.119 113.312 138.829 113.828C138.717 113.844 138.602 113.83 138.496 113.787C138.391 113.745 138.299 113.676 138.228 113.587C137.202 112.344 136.06 111.202 134.817 110.176C134.771 110.148 134.732 110.112 134.7 110.069C134.669 110.026 134.646 109.978 134.633 109.926C134.62 109.874 134.618 109.82 134.626 109.768C134.634 109.715 134.652 109.665 134.68 109.619C134.738 109.528 134.828 109.461 134.933 109.434C135.038 109.407 135.149 109.421 135.244 109.473C136.723 110.166 138.019 111.197 139.026 112.483Z" fill="#2A2929"/>
<path d="M159.285 93.407C161.51 98.8717 163.181 104.546 164.274 110.344C164.777 113.723 165.012 117.136 164.976 120.552C164.323 133.508 148.884 134.4 137.89 137.318C137.834 137.33 137.781 137.354 137.734 137.387C137.688 137.42 137.648 137.462 137.618 137.511C137.588 137.559 137.567 137.613 137.558 137.67C137.55 137.726 137.552 137.784 137.566 137.84C137.58 137.895 137.604 137.948 137.638 137.993C137.673 138.039 137.716 138.078 137.765 138.107C137.815 138.136 137.869 138.154 137.926 138.162C137.983 138.169 138.04 138.165 138.096 138.15C147.361 135.957 165.627 135.228 166.305 120.621C166.345 117.113 166.102 113.607 165.576 110.138C164.54 104.208 162.67 98.4537 160.022 93.047C159.998 92.9986 159.965 92.9553 159.925 92.9197C159.885 92.884 159.838 92.8566 159.787 92.8391C159.736 92.8216 159.682 92.8144 159.628 92.8177C159.574 92.821 159.522 92.8349 159.474 92.8585C159.425 92.8822 159.382 92.9151 159.346 92.9555C159.311 92.9958 159.283 93.0428 159.266 93.0937C159.248 93.1447 159.241 93.1985 159.244 93.2523C159.248 93.306 159.261 93.3586 159.285 93.407Z" fill="#2A2929"/>
<path d="M138.446 129.393C139.715 128.211 140.627 126.697 141.078 125.022C141.246 124.324 141.309 123.604 141.266 122.887C141.275 122.776 141.24 122.666 141.168 122.58C141.095 122.495 140.992 122.442 140.881 122.433C140.767 122.425 140.655 122.461 140.569 122.535C140.482 122.609 140.428 122.714 140.418 122.827C140.286 123.452 140.106 124.065 139.878 124.662C138.63 128.2 136.212 129.285 136.758 129.967C137.083 130.415 138.039 129.732 138.446 129.393Z" fill="#2A2929"/>
<path d="M183.067 67.0879C181.825 64.4926 177.912 62.6699 176.064 61.6359C172.655 59.7559 167.682 56.3259 163.868 56.8363C163.085 56.9495 162.343 57.2578 161.711 57.7327C161.079 58.2076 160.576 58.8338 160.25 59.5538C159.672 60.6552 159.166 61.7924 158.733 62.9585C158.254 63.0522 157.784 63.1881 157.329 63.3646C157.237 63.3995 157.161 63.466 157.114 63.5523C157.067 63.6385 157.053 63.7386 157.073 63.8346C151.796 73.5373 148.025 83.0059 143.813 91.3766C142.407 94.2239 140.044 100.777 137.461 102.365C134.034 104.477 126.83 103.224 122.923 102.177C122.818 102.147 122.706 102.159 122.61 102.211C122.515 102.263 122.444 102.351 122.413 102.456C122.382 102.56 122.395 102.673 122.447 102.769C122.499 102.864 122.587 102.935 122.692 102.966C127.258 104.433 134.039 105.995 138.146 103.489C141.209 101.587 143.424 95.1225 145.004 91.9763C149.814 82.284 153.737 72.3989 157.976 64.0263C158.892 63.7893 159.847 63.7378 160.783 63.8748C161.72 64.0118 162.619 64.3345 163.43 64.8241C164.24 65.3137 164.944 65.9603 165.501 66.7258C166.057 67.4913 166.455 68.3604 166.672 69.2819C166.419 70.0029 164.438 74.1953 162.291 78.9423C156.85 90.9809 154.113 100.105 150.505 109.465C150.462 109.571 150.463 109.689 150.507 109.795C150.551 109.9 150.635 109.983 150.741 110.027C150.847 110.07 150.965 110.069 151.071 110.025C151.176 109.981 151.259 109.897 151.303 109.791C153.317 104.974 154.815 101.108 156.745 96.0597C162.467 81.0573 161.386 84.4206 167.254 71.2361C167.588 70.4992 167.818 69.9502 167.912 69.6852C167.989 69.5099 168.01 69.3152 167.972 69.1277C167.876 68.7495 167.756 68.3777 167.613 68.0148C167.779 67.5964 168.021 67.2121 168.326 66.8811C168.747 66.9704 179.541 69.8515 181.724 69.5037C182.006 69.5053 182.284 69.431 182.528 69.2884C182.772 69.1459 182.973 68.9404 183.111 68.6934C183.248 68.4465 183.316 68.1672 183.309 67.8847C183.301 67.6023 183.218 67.3271 183.067 67.0879Z" fill="#2A2929"/>
<path d="M155.415 60.5662C154.831 58.1429 149.066 58.5537 146.552 58.8526C142.381 59.3527 136.817 59.9261 135.691 64.0123C135.172 65.8406 135.968 67.9762 136.429 69.7124C136.429 69.7256 136.437 69.7387 136.44 69.7519C136.314 69.9531 136.197 70.157 136.089 70.362C136.046 70.4353 136.02 70.5167 136.011 70.6009C136.002 70.6851 136.011 70.7702 136.037 70.8508C137.739 77.3475 139.975 83.6922 142.723 89.82C142.768 89.9228 142.852 90.0038 142.956 90.0455C143.06 90.0872 143.176 90.0862 143.28 90.0428C144.245 89.5972 142.528 89.2616 137.383 70.7483C138.976 67.9565 142.453 65.6986 145.594 66.5183C146.694 69.9128 147.964 73.2496 149.4 76.5161C149.418 76.5666 149.446 76.6129 149.483 76.6523C149.519 76.6918 149.562 76.7237 149.611 76.7461C149.66 76.7685 149.712 76.781 149.766 76.7828C149.819 76.7846 149.873 76.7758 149.923 76.7568C150.023 76.7172 150.103 76.6406 150.148 76.5431C150.192 76.4456 150.198 76.3345 150.163 76.2332C146.269 65.0867 146.701 65.6507 146.608 65.5445C148.565 65.0087 152.395 63.922 154.095 62.8297C154.944 62.2986 155.642 61.5335 155.415 60.5662Z" fill="#2A2929"/>
<path d="M28.0038 61.6914C35.9157 49.4329 52.0913 52.6486 63.8178 46.6909C72.1264 42.46 77.8322 34.9334 87.4644 35.4542C87.5764 35.4595 87.6861 35.4214 87.7706 35.3478C87.8552 35.2743 87.9081 35.171 87.9184 35.0594C87.9232 35.0035 87.9166 34.9472 87.8992 34.8938C87.8818 34.8405 87.8539 34.7912 87.8171 34.7489C87.7802 34.7065 87.7353 34.672 87.6849 34.6473C87.6345 34.6227 87.5797 34.6084 87.5236 34.6053C77.3782 33.765 71.1676 41.5181 63.2237 45.5169C51.3167 51.5451 35.1562 47.8603 27.3091 61.2628C27.2523 61.3549 27.2343 61.4658 27.2593 61.5712C27.2842 61.6765 27.35 61.7676 27.4421 61.8244C27.5342 61.8813 27.6451 61.8992 27.7505 61.8743C27.8558 61.8493 27.9469 61.7836 28.0038 61.6914Z" fill="#CB7428"/>
<path d="M32.8128 66.805C32.9716 66.6536 33.8073 65.9195 34.141 65.5961C36.5156 63.2423 39.4463 61.5264 42.6611 60.6076C42.7712 60.581 42.8662 60.5121 42.9257 60.4158C42.9852 60.3195 43.0043 60.2037 42.9789 60.0934C42.9659 60.0382 42.9419 59.9862 42.9083 59.9405C42.8747 59.8949 42.8322 59.8565 42.7833 59.8277C42.7345 59.7989 42.6804 59.7803 42.6241 59.7729C42.5679 59.7656 42.5108 59.7697 42.4562 59.7851C38.8948 60.3087 35.6272 62.0575 33.216 64.7304C32.8173 65.2182 32.4669 65.7437 32.1698 66.2993C32.1027 66.3845 32.0723 66.4929 32.0852 66.6006C32.098 66.7084 32.1532 66.8065 32.2384 66.8736C32.3237 66.9407 32.4321 66.9711 32.5398 66.9582C32.6475 66.9454 32.7457 66.8902 32.8128 66.805Z" fill="#CB7428"/>
<path d="M66.1612 53.0519C74.9239 51.7002 82.5322 40.9964 90.6754 41.4288C90.7325 41.4362 90.7904 41.4319 90.8458 41.4163C90.9011 41.4006 90.9527 41.3739 90.9974 41.3377C91.0421 41.3015 91.079 41.2566 91.1059 41.2058C91.1327 41.1549 91.1489 41.0991 91.1536 41.0418C91.1582 40.9845 91.1512 40.9268 91.1329 40.8723C91.1146 40.8177 91.0854 40.7675 91.0471 40.7246C91.0088 40.6817 90.9622 40.647 90.9101 40.6226C90.858 40.5982 90.8015 40.5847 90.7441 40.5828C83.7777 39.7547 77.977 46.0273 71.1328 49.9424C69.501 50.8861 67.7772 51.6609 65.9882 52.2548C65.8821 52.2789 65.7895 52.3434 65.7302 52.4347C65.6709 52.526 65.6494 52.6368 65.6705 52.7436C65.6951 52.8493 65.7605 52.9409 65.8524 52.9987C65.9443 53.0564 66.0553 53.0755 66.1612 53.0519Z" fill="#CB7428"/>
<path d="M36.9985 74.9755C40.2669 72.7966 39.2122 72.946 44.6614 70.3037C44.7642 70.2621 44.8468 70.1822 44.8919 70.081C44.9371 69.9797 44.9412 69.8649 44.9035 69.7606C44.8658 69.6564 44.7892 69.5708 44.6897 69.5218C44.5902 69.4729 44.4756 69.4644 44.37 69.4981C43.6012 69.6765 42.845 69.9058 42.1065 70.1843C40.333 70.9195 38.7027 71.9609 37.2899 73.2609C36.9558 73.6114 36.6599 73.9965 36.4073 74.4096C36.3322 74.488 36.2914 74.593 36.2938 74.7015C36.2962 74.81 36.3416 74.9131 36.42 74.9882C36.4984 75.0632 36.6034 75.104 36.7119 75.1017C36.8204 75.0993 36.9235 75.0539 36.9985 74.9755Z" fill="#CB7428"/>
<path d="M74.8326 59.8405C82.5491 56.5637 86.6945 51.9257 94.1026 48.7664C96.9526 47.4879 100.031 46.797 103.154 46.735C103.21 46.7362 103.266 46.7263 103.319 46.7058C103.371 46.6854 103.419 46.6548 103.46 46.6158C103.5 46.5768 103.533 46.5302 103.555 46.4787C103.578 46.4271 103.59 46.3716 103.591 46.3153C103.593 46.259 103.583 46.2031 103.562 46.1506C103.542 46.0981 103.511 46.0502 103.472 46.0096C103.433 45.969 103.387 45.9364 103.335 45.9138C103.284 45.8912 103.228 45.8789 103.172 45.8777C91.9698 45.3137 84.3379 53.7014 74.482 59.1035C74.3843 59.15 74.309 59.2335 74.2728 59.3354C74.2366 59.4374 74.2424 59.5496 74.2888 59.6473C74.3353 59.7451 74.4188 59.8203 74.5207 59.8566C74.6227 59.8928 74.7349 59.887 74.8326 59.8405Z" fill="#CB7428"/>
<path d="M109.533 25.2909C106.977 27.2291 103.058 24.5765 99.6628 25.8473C99.5242 25.898 99.407 25.9945 99.3306 26.1208C99.2542 26.2471 99.2232 26.3957 99.2426 26.542C99.5857 29.3056 100.364 33.89 100.801 35.8884C98.7087 34.8131 96.7187 38.0918 96.7187 38.5251H96.7366C96.2957 40.376 98.0686 41.7305 100.139 41.5425C102.267 41.3649 103.396 39.6832 102.248 37.4883C101.974 36.9798 102.139 37.5297 101.977 35.8677C101.765 33.5337 101.037 30.1337 100.623 26.9274C103.478 26.2497 107.245 28.3656 110.077 25.9423C110.163 25.8701 110.218 25.7666 110.228 25.6545C110.238 25.5423 110.203 25.4308 110.131 25.3444C110.058 25.2581 109.955 25.2039 109.843 25.1938C109.731 25.1838 109.619 25.2187 109.533 25.2909ZM97.5469 38.7225C98.0283 37.9767 98.7 37.3729 99.4927 36.9732C100.032 36.7767 100.555 37.0503 101.078 38.1012C102.581 40.9842 97.7217 40.7322 97.5469 38.7225Z" fill="#2A2929"/>
<path d="M30.8323 72.8191C29.2916 73.0071 25.2637 71.3518 23.3555 72.0906C22.846 70.874 22.4538 69.6115 22.1843 68.3203C22.1721 68.184 22.1241 68.0157 22.2021 67.965C25.0043 66.1169 27.5028 70.5133 30.6621 69.939C30.768 69.9141 30.8605 69.85 30.9209 69.7596C30.9814 69.6692 31.0053 69.5593 30.9879 69.452C30.9705 69.3446 30.913 69.2479 30.8271 69.1813C30.7412 69.1147 30.6332 69.0831 30.5249 69.093C27.7989 69.452 25.2374 64.643 21.4812 66.9413C20.4942 67.5053 21.0027 69.249 21.3533 70.3441C22.3713 73.5448 26.1417 81.4361 23.8048 83.6554C22.7332 84.6894 21.8102 84.3134 21.3608 83.0642C21.1395 82.4442 21.1044 81.7731 21.2597 81.1334C21.415 80.4937 21.7541 79.9134 22.235 79.464C22.2769 79.429 22.3113 79.3861 22.3362 79.3376C22.3611 79.2891 22.3761 79.2361 22.3801 79.1817C22.3842 79.1274 22.3773 79.0728 22.3598 79.0211C22.3423 78.9695 22.3147 78.9219 22.2785 78.8811C22.2423 78.8404 22.1982 78.8073 22.149 78.7839C22.0998 78.7605 22.0463 78.7472 21.9919 78.7449C21.9374 78.7425 21.883 78.7511 21.8319 78.7702C21.7809 78.7892 21.7341 78.8183 21.6945 78.8558C18.8586 81.1438 19.949 85.6153 22.6975 85.5589C23.4658 85.5066 24.1854 85.1638 24.7101 84.6001C27.2349 82.1994 25.0221 76.5246 23.7898 73.2478C26.3278 72.993 28.6477 74.4406 31.0118 73.6529C31.1224 73.6291 31.219 73.5623 31.2803 73.4673C31.3417 73.3723 31.3628 73.2568 31.3389 73.1462C31.3151 73.0357 31.2484 72.9391 31.1534 72.8777C31.0583 72.8164 30.9428 72.7953 30.8323 72.8191Z" fill="#2A2929"/>
<path d="M51.4541 73.9659C51.0246 74.3408 50.6973 74.8185 50.5028 75.3543C50.4169 75.6334 50.3869 75.9267 50.4145 76.2174C50.4421 76.5081 50.5268 76.7905 50.6637 77.0485C50.8006 77.3064 50.9871 77.5348 51.2124 77.7206C51.4377 77.9063 51.6974 78.0458 51.9767 78.1311C52.614 78.336 53.7796 78.383 53.7082 77.7203C53.6621 77.3142 53.3228 77.4054 52.6968 77.1967C52.2512 77.0087 51.5424 76.4137 51.7633 75.766C51.9544 75.3601 52.2082 74.9867 52.5153 74.6597C52.6639 74.4153 53.1122 73.6059 52.7212 73.3568C52.3875 73.1528 51.9485 73.5542 51.4541 73.9659Z" fill="#2A2929"/>
<path d="M58.4731 94.3C57.7211 92.812 57.9147 89.8614 55.8167 89.882C52.5445 89.9836 51.0114 87.4691 50.2876 84.2336C49.5255 80.3043 49.0959 76.3177 49.0035 72.3163C49.7001 72.727 51.0913 73.1284 51.4184 72.4761C51.7267 71.8472 50.4558 70.6026 48.9998 70.4269C49.0148 69.1842 49.075 67.6623 49.2009 66.4356C49.3027 66.4722 49.4062 66.5036 49.5111 66.5296C50.5207 66.7815 51.0198 67.652 51.4992 67.3183C51.8452 67.0664 51.5829 66.5964 51.3545 66.195C51.121 65.8899 50.8197 65.6434 50.4745 65.4748C50.1293 65.3063 49.7496 65.2204 49.3654 65.224C49.3804 65.1367 49.3964 65.0496 49.4134 64.9626C49.4334 64.8588 49.4125 64.7512 49.355 64.6624C49.2976 64.5735 49.208 64.5104 49.105 64.4861C49.0021 64.4618 48.8937 64.4783 48.8026 64.5321C48.7115 64.5858 48.6447 64.6728 48.6163 64.7746C47.8857 67.3451 47.579 70.0175 47.7082 72.6866C47.7878 76.6629 48.2206 80.6243 49.0017 84.524C49.796 87.8836 51.4259 90.7365 54.8992 91.0035C55.9689 91.0617 56.156 90.8098 56.5198 91.4735C57.2173 92.7378 57.3968 95.3115 58.3058 94.8763C58.4023 94.82 58.4735 94.7288 58.5046 94.6216C58.5358 94.5143 58.5245 94.3992 58.4731 94.3Z" fill="#2A2929"/>
<path d="M70.0772 71.2757C70.823 68.5281 71.3572 65.7275 71.6752 62.8984C71.8144 60.8417 71.13 58.9777 69.2312 58.1495C68.4069 55.7647 66.0898 54.6931 63.7106 53.8556C58.8226 52.1636 51.3966 53.0143 47.2277 56.5901C45.2199 58.2943 44.7762 61.7676 47.348 62.8213C49.3427 63.6184 51.6119 62.9689 60.1198 61.3982C60.3893 63.8961 61.1034 66.3257 62.2282 68.5722C62.9644 69.9793 63.986 71.2174 65.2278 72.2072C65.5718 72.4892 66.0738 72.1734 68.2649 71.9393C68.5324 71.9114 68.8027 71.9387 69.0591 72.0195C69.3156 72.1004 69.5527 72.233 69.7558 72.4093C72.0268 74.3777 71.7401 76.9129 70.097 78.3605C70.0056 78.4255 69.9429 78.5234 69.922 78.6336C69.9012 78.7438 69.9238 78.8578 69.9851 78.9517C70.0156 78.9989 70.0552 79.0396 70.1017 79.0713C70.1481 79.1029 70.2004 79.125 70.2554 79.1362C70.3105 79.1475 70.3673 79.1475 70.4224 79.1365C70.4775 79.1255 70.5299 79.1036 70.5764 79.0721C74.0375 77.1798 72.8502 72.2053 70.0772 71.2757ZM58.7032 55.4207C53.1121 56.8175 52.3178 57.3233 50.5346 58.3178C50.388 58.3977 49.2083 58.9993 49.1716 59.02C49.0882 59.0823 48.9839 59.1101 48.8805 59.0976C48.777 59.0851 48.6824 59.0333 48.6162 58.9528C48.55 58.8723 48.5174 58.7695 48.5251 58.6656C48.5327 58.5617 48.5802 58.4647 48.6575 58.3949C48.9236 58.0739 49.213 57.7729 49.5232 57.4943C51.4597 56.1372 53.6762 55.2323 56.0092 54.8464C56.8552 54.7007 57.7153 54.632 58.5726 54.5719C58.6305 54.5577 58.6907 54.5557 58.7495 54.5661C58.8082 54.5765 58.8641 54.5989 58.9137 54.6321C58.9633 54.6653 59.0054 54.7084 59.0374 54.7587C59.0694 54.8091 59.0905 54.8655 59.0995 54.9245C59.1085 54.9834 59.1051 55.0436 59.0895 55.1012C59.0739 55.1588 59.0466 55.2125 59.0091 55.2589C58.9717 55.3053 58.925 55.3434 58.872 55.3708C58.819 55.3981 58.7609 55.4142 58.7014 55.4179L58.7032 55.4207ZM63.564 55.9593C63.4437 56.5609 61.8391 56.3353 61.5063 56.1473C61.4123 56.0928 60.8934 55.6717 60.9498 55.384C61.0138 55.056 61.6812 54.9075 61.7808 54.9046C62.0602 54.9347 62.336 54.992 62.6042 55.0757C62.9925 55.2036 63.6505 55.5344 63.5659 55.9593H63.564Z" fill="#2A2929"/>
</svg>
