<svg width="322" height="321" viewBox="0 0 322 321" fill="none" xmlns="http://www.w3.org/2000/svg">
<path d="M115.852 122.917C115.51 120.374 113.867 120.419 113.544 121.292C113.493 121.681 113.523 122.076 113.631 122.453C113.74 122.829 113.925 123.18 114.175 123.482C114.571 124.084 115.964 123.778 115.852 122.917Z" fill="#2A2929"/>
<path d="M102.635 265.644C104.012 270.242 106.936 274.223 110.911 276.913C111.509 277.339 112.722 277.785 112.979 278.469C113.217 279.729 113.372 281.002 113.442 282.282C113.402 283.376 113.669 284.46 114.211 285.411C114.292 285.491 114.39 285.552 114.497 285.588C114.605 285.624 114.72 285.635 114.832 285.619C114.945 285.604 115.052 285.562 115.146 285.498C115.24 285.434 115.318 285.35 115.373 285.25C115.681 284.142 115.675 282.97 115.356 281.865C115.203 280.633 115.094 279.404 114.894 278.189C114.594 276.36 112.453 275.704 111.132 274.684C107.967 272.115 105.375 268.911 103.524 265.279C103.476 265.161 103.382 265.067 103.265 265.018C103.147 264.968 103.015 264.968 102.897 265.017C102.779 265.065 102.685 265.158 102.636 265.276C102.587 265.394 102.586 265.526 102.635 265.644Z" fill="#2A2929"/>
<path d="M120.486 128.438C120.678 128.396 120.848 128.287 120.967 128.13C121.839 126.899 122.608 125.856 121.531 124.505C120.398 123.039 119.114 121.696 117.701 120.498C117.661 120.465 117.615 120.441 117.564 120.429C116.647 118.126 115.555 115.896 114.298 113.76C114.254 113.682 114.189 113.617 114.111 113.572C114.24 112.455 114.297 111.331 114.28 110.207C114.284 110.076 114.261 109.946 114.211 109.825C114.161 109.704 114.086 109.595 113.99 109.505C114.024 105.914 111.186 104.033 108.193 102.017C106.24 100.729 104.018 99.9076 101.697 99.6156C99.3764 99.3235 97.0196 99.5687 94.8086 100.332C85.9134 103.123 81.9866 105.689 78.257 122.306C74.7999 137.731 79.1321 152.308 74.0674 168.167C73.1875 170.92 72.1361 170.571 76.151 174.357C87.3959 184.969 100.373 182.999 113.205 174.152C113.391 174.038 113.536 173.868 113.619 173.666C113.702 173.464 113.719 173.241 113.667 173.03C106.557 155.306 111.36 143.88 106.004 134.73C105.914 134.584 105.789 134.463 105.639 134.379C105.489 134.295 105.32 134.25 105.149 134.25C104.977 134.25 104.808 134.295 104.659 134.379C104.509 134.463 104.383 134.584 104.294 134.73C102.611 136.995 99.54 135.243 98.8444 133.089C98.4622 131.898 98.4266 130.623 98.7418 129.412C99.4278 128.371 101.146 128.784 101.923 129.379C102.116 129.485 102.338 129.527 102.556 129.498C102.775 129.469 102.978 129.371 103.137 129.218C107.82 125.232 112.187 122.763 113.772 115.624C116.635 123.245 122.418 135.243 118.92 138.982C118.123 139.68 117.164 140.166 116.13 140.396C115.096 140.625 114.021 140.592 113.003 140.298C112.434 140.052 111.827 139.907 111.208 139.87C111.088 139.872 110.971 139.905 110.868 139.966C110.765 140.026 110.679 140.112 110.619 140.215C110.559 140.319 110.526 140.436 110.524 140.555C110.523 140.675 110.552 140.793 110.609 140.898C110.929 141.287 111.327 141.606 111.778 141.832C112.229 142.059 112.722 142.189 113.226 142.214C112.508 144.163 112.405 147.663 113.926 149.242C114.042 149.352 114.19 149.423 114.349 149.441C114.508 149.46 114.669 149.425 114.806 149.344C114.944 149.263 115.051 149.138 115.112 148.99C115.172 148.842 115.183 148.678 115.141 148.524C114.723 147.478 114.424 146.388 114.252 145.275C114.183 144.283 114.285 143.291 114.167 142.299C114.252 142.299 114.337 142.315 114.423 142.316C115.928 142.357 117.418 142.009 118.751 141.308C122.996 138.994 121.919 133.06 120.486 128.438ZM87.9633 107.2C82.2719 116.249 84.051 124.697 82.9018 129.259C82.8787 129.331 82.8332 129.395 82.7716 129.44C82.7101 129.485 82.6359 129.509 82.5596 129.509C82.4834 129.509 82.4091 129.485 82.3476 129.44C82.2861 129.395 82.2405 129.331 82.2174 129.259C81.7081 127.055 81.6151 124.776 81.9434 122.538C82.2928 117.918 83.0236 112.423 85.5528 108.569C86.0415 107.855 86.6486 107.23 87.3478 106.721C87.6716 106.463 88.2213 106.791 87.9633 107.2ZM108.227 116.93C107.645 118.025 106.835 118.981 105.85 119.733C105.767 119.779 105.674 119.802 105.58 119.802C105.486 119.801 105.393 119.776 105.311 119.73C105.229 119.684 105.16 119.618 105.11 119.538C105.061 119.457 105.032 119.366 105.028 119.272C104.895 117.244 108.283 114.133 109.15 109.868C109.312 108.695 109.386 107.512 109.371 106.328C109.376 106.195 109.423 106.067 109.505 105.963C109.588 105.859 109.702 105.784 109.83 105.75C109.959 105.715 110.095 105.723 110.218 105.772C110.342 105.82 110.447 105.908 110.517 106.02C112.59 109.017 110.318 113.968 108.227 116.93ZM120.007 126.951C119.614 125.829 118.691 123.274 118.622 123.12C120.198 125.268 121.15 125.393 120.007 126.951Z" fill="#2A2929"/>
<path d="M115.064 152.771C117.148 151.617 117.876 150.269 121.118 150C126.143 149.803 131.164 150.504 135.943 152.069C147.946 155.435 165.069 161.397 173.459 170.538C174.025 171.152 174.481 170.677 173.956 170.057C171.284 166.911 169.115 165.68 165.815 163.005C161.907 160.136 157.671 157.742 153.197 155.874C148.716 154.009 144.117 152.439 139.431 151.173C134.689 149.591 129.776 148.574 124.795 148.146C122.25 147.835 119.668 148.17 117.287 149.12C114.978 150.281 113.324 152.383 110.482 151.874C110.372 151.847 110.256 151.857 110.152 151.901C110.048 151.946 109.961 152.022 109.903 152.12C109.846 152.218 109.821 152.331 109.833 152.444C109.845 152.556 109.893 152.662 109.969 152.746C111.389 154.206 113.503 153.635 115.064 152.771Z" fill="#2A2929"/>
<path d="M205.092 108.245C207.336 105.452 210.66 95.2038 211.88 86.4608C211.997 85.6226 212.404 84.4847 211.641 83.8965C211.544 83.8103 211.424 83.7559 211.295 83.7407C211.167 83.7255 211.037 83.7502 210.923 83.8115C210.035 84.193 210.139 85.3341 210.016 86.1547C208.046 99.3614 204.788 104.362 204.305 107.819C204.288 108.188 204.764 108.654 205.092 108.245Z" fill="#2A2929"/>
<path d="M211.779 96.8915C211.784 96.9804 211.814 97.0662 211.866 97.1388C211.917 97.2114 211.989 97.2678 212.071 97.3014C212.154 97.335 212.244 97.3444 212.332 97.3286C212.419 97.3128 212.501 97.2723 212.566 97.212C213.129 96.7472 213.749 96.3193 214.276 97.0918C215.017 98.1769 214.619 101.943 214.379 103.299C213.546 107.992 212.041 109.032 212.72 110.258C212.766 110.335 212.836 110.395 212.92 110.429C213.003 110.463 213.095 110.469 213.182 110.446C213.932 110.231 214.135 109.521 214.397 108.843C215.597 105.946 216.224 102.844 216.243 99.7075C216.208 98.2538 216.134 96.3016 214.687 95.4842C213.6 94.8752 211.707 95.4538 211.779 96.8915Z" fill="#2A2929"/>
<path d="M217.814 105.508C217.662 106.583 217.434 107.645 217.131 108.688C216.657 109.714 216.357 110.812 216.241 111.937C216.257 112.28 216.685 112.623 217.011 112.382C218.346 111.393 218.722 109.254 219.062 107.734C219.459 105.955 219.66 104.137 219.661 102.314C219.661 101.083 219.883 99.1322 218.737 98.2779C218.539 98.1179 218.301 98.0149 218.049 97.98C217.797 97.9451 217.54 97.9796 217.306 98.0799C217.072 98.1801 216.87 98.3423 216.721 98.5489C216.573 98.7555 216.483 98.9987 216.462 99.2524C216.465 99.3423 216.494 99.4295 216.545 99.5034C216.597 99.5773 216.668 99.6347 216.752 99.6686C216.835 99.7025 216.926 99.7116 217.015 99.6946C217.103 99.6776 217.185 99.6354 217.249 99.573C218.456 98.4094 218.038 103.953 217.814 105.508Z" fill="#2A2929"/>
<path d="M221.781 101.234C221.233 100.672 220.135 100.503 219.765 101.337C219.664 101.56 219.781 101.915 220.086 101.883C221.384 101.752 220.925 104.414 220.855 105.219C220.151 113.369 216.229 116.298 212.785 121.65C211.663 123.397 210.237 125.104 210.578 127.26C209.265 126.509 207.839 125.978 206.355 125.686C204.713 125.33 203.042 125.124 201.362 125.07C202.385 124.048 198.71 117.087 197.77 112.729C197.472 111.8 197.384 110.815 197.515 109.848C197.645 108.88 197.99 107.954 198.524 107.137C199.74 105.671 201.753 105.546 203.072 104.283C203.146 104.204 203.195 104.106 203.214 104C203.233 103.893 203.221 103.784 203.179 103.685C203.138 103.585 203.068 103.5 202.979 103.439C202.89 103.379 202.786 103.345 202.678 103.342C201.694 103.348 200.723 103.556 199.823 103.953C198.923 104.35 198.114 104.927 197.447 105.65C193.6 109.62 197.091 116.839 199.122 121.604C199.502 122.793 200.018 123.935 200.66 125.006C200.896 125.317 201.095 124.99 200.268 125.367C200.194 125.265 200.099 125.181 199.989 125.12C199.88 125.059 199.759 125.022 199.634 125.012C199.509 125.002 199.383 125.019 199.265 125.063C199.147 125.106 199.04 125.174 198.952 125.263C193.182 131.033 188.444 137.791 183.527 144.278C171.378 160.305 169.977 162.285 168.224 165.328C168.182 165.406 168.17 165.495 168.189 165.581C168.207 165.667 168.256 165.743 168.326 165.796C168.395 165.85 168.482 165.876 168.569 165.872C168.657 165.868 168.74 165.832 168.804 165.772C176.284 157.968 191.25 135.48 200.234 126.529C200.325 126.443 200.395 126.338 200.439 126.221C202.46 126.764 207.3 127.011 210.322 129.247C210.484 129.363 210.663 129.455 210.852 129.521C209.177 137.267 207.486 144.962 205.124 152.537C201.616 163.87 196.982 174.823 191.29 185.233C189.67 188.242 187.446 190.885 184.758 192.996C178.138 197.781 168.958 196.176 161.468 194.92C130.396 189.741 140.724 190.818 133.614 189.329C132.793 189.158 132.521 189.717 133.293 190.047C135.489 190.99 137.071 191.573 139.193 192.44C140.704 193.08 142.281 193.55 143.896 193.843C143.262 196.425 143.027 199.145 142.544 201.743C141.018 210.062 138.921 218.267 136.268 226.298C130.294 224.71 124.112 224.052 117.937 224.349C110.085 224.706 102.286 225.817 94.6463 227.667C85.307 210.518 83.2107 200.065 78.9666 188.339C78.7807 187.824 78.263 187.877 78.3255 188.51C78.5996 190.717 79.04 192.901 79.6429 195.042C76.2868 196.967 73.1602 199.267 70.3229 201.898C69.3162 202.68 68.4639 203.643 67.8098 204.737C67.7684 204.813 67.7527 204.901 67.7651 204.987C67.7776 205.073 67.8175 205.153 67.8789 205.214C67.9403 205.276 68.0199 205.316 68.1059 205.329C68.192 205.341 68.2798 205.326 68.3564 205.285C69.8902 204.519 72.1789 201.578 80.0709 196.58C82.4718 204.941 85.5601 213.09 89.3043 220.942C88.7004 220.893 88.0931 220.904 87.4916 220.977C86.5526 220.967 85.6143 221.035 84.6868 221.182C84.6992 221.111 84.6965 221.037 84.6789 220.966C84.6612 220.896 84.629 220.83 84.5842 220.772C81.9894 217.644 67.9733 205.559 64.4409 202.868C62.2527 201.032 59.86 199.454 57.3102 198.167C56.371 197.753 56.4784 197.987 57.3615 198.577C58.2446 199.167 58.9643 199.885 60.918 201.278C62.0784 202.105 63.2596 203.402 64.3896 204.27C66.643 206.003 68.015 207.931 70.1595 209.793C79.239 217.708 80.7601 219.298 83.2058 220.96C81.3075 224.878 80.1977 229.131 79.9394 233.477C78.3367 232.403 69.7027 231.898 53.829 226.124C46.2448 223.365 37.122 219.785 32.7449 213.419C31.5925 211.874 30.7651 210.112 30.3125 208.239C29.8599 206.366 29.7915 204.42 30.1115 202.52C30.985 198.451 33.7225 195.032 36.2677 191.85C52.6654 171.351 70.613 162.966 75.4261 159.892C75.9374 159.571 75.6168 158.634 74.9982 158.864C56.7028 165.711 32.7336 189.53 28.847 200.023C28.1777 201.917 27.8933 203.926 28.0106 205.931C28.1278 207.937 28.6443 209.899 29.5298 211.702C33.1552 219.535 41.4478 223.351 49.024 226.374C56.4143 229.342 64.0379 231.693 71.8167 233.402C74.3718 234.075 76.9919 234.47 79.6317 234.581C79.7311 234.583 79.8292 234.559 79.9164 234.511C80.0035 234.463 80.0767 234.394 80.1286 234.309C80.1838 234.351 80.2484 234.378 80.3167 234.389C80.385 234.401 80.4549 234.395 80.5206 234.373C80.5862 234.351 80.6455 234.314 80.6934 234.264C80.7413 234.214 80.7762 234.153 80.7953 234.086C81.0165 233.312 81.2216 232.548 81.4108 231.778C82.2987 232.445 83.3341 232.929 84.2316 233.607C84.7669 234.011 86.1132 235.42 86.7111 234.325C87.2432 233.351 85.5507 232.474 84.9336 232.081C83.9589 231.394 82.8615 230.901 81.7009 230.627C82.1565 228.556 82.7274 226.512 83.411 224.505C83.669 223.737 84.0441 222.966 84.2492 222.179C85.3298 222.436 86.4391 222.551 87.5493 222.522C88.3363 222.551 89.378 222.779 90.0288 222.282C93.1798 228.762 93.1092 227.746 92.6957 227.994C86.8922 231.948 83.0792 240.675 80.5389 247.266C77.2538 255.55 74.9301 264.185 73.6134 272.999C72.742 277.847 72.5387 282.792 73.0092 287.695C73.131 288.567 74.3987 288.277 74.4628 287.507C74.8139 283.268 74.6872 279.043 75.1985 274.802C76.8659 262.398 80.533 250.346 86.0571 239.116C88.0706 235.414 90.5158 231.964 93.3416 228.839C93.362 228.818 93.3793 228.795 93.3929 228.77C93.4104 228.789 93.4221 228.813 93.4266 228.839C93.4961 228.96 93.595 229.062 93.7143 229.135C93.8335 229.208 93.9692 229.25 94.1089 229.257C94.2486 229.264 94.3878 229.235 94.5136 229.174C94.6395 229.113 94.7479 229.022 94.829 228.908C100.278 228.722 116.432 224.151 131.764 227.162C136.058 228.007 136.103 228.48 137.013 228.257C137.013 228.941 141.307 240.689 143.442 248.623C147.989 265.51 148.193 275.626 149.119 281.659C149.254 282.531 150.621 282.292 150.624 281.454C150.677 270.578 145.274 242.332 137.954 227.967C137.91 227.888 137.844 227.822 137.765 227.778C138.011 227.386 138.195 226.96 138.313 226.513C142.913 213.513 145.316 198.265 145.29 194.138L158.713 196.446C166.544 197.797 175.66 199.768 183.216 196.24C189.802 193.166 193.286 186.133 196.297 179.928C203.661 164.748 210.14 145.642 212.387 129.346C212.405 129.245 212.391 129.14 212.349 129.046C212.306 128.951 212.237 128.872 212.149 128.818C212.145 128.653 212.1 128.492 212.02 128.349C211.939 128.206 211.825 128.084 211.687 127.995C211.771 127.959 211.844 127.903 211.9 127.831C211.956 127.76 211.993 127.675 212.008 127.585C212.788 122.818 218.268 118.095 220.334 113.615C221.622 110.879 222.359 107.916 222.506 104.895C222.414 103.781 222.618 102.096 221.781 101.234Z" fill="#2A2929"/>
<path d="M69.4285 66.4184C65.0514 65.524 44.105 60.9578 42.8325 60.6485C42.3773 60.5395 42.9927 61.8185 36.141 43.8901C34.9396 40.3519 33.3462 36.9591 31.3904 33.7752C31.2156 33.5011 30.9731 33.2767 30.6864 33.1236C30.3997 32.9705 30.0784 32.8938 29.7534 32.9008C29.4284 32.9079 29.1108 32.9986 28.831 33.1641C28.5512 33.3296 28.3188 33.5643 28.1561 33.8457C23.5075 42.0352 20.0662 50.8532 17.9385 60.0266C17.8479 60.4184 17.9117 60.8301 18.1166 61.1761C18.3215 61.5222 18.6519 61.776 19.039 61.8849C19.4261 61.9938 19.8404 61.9494 20.1956 61.761C20.5509 61.5725 20.82 61.2545 20.9469 60.8729C23.3707 53.2673 26.3525 45.8511 29.8678 38.6844C32.3937 43.7202 38.4457 61.6037 39.7119 63.0911C40.9781 64.5784 43.3854 64.6025 44.8792 64.9102C47.9356 65.5353 61.8234 68.6478 64.8142 69.2921C58.9689 73.8888 58.2557 73.9833 49.6185 80.8319C46.4963 83.3081 46.1469 84.5439 47.0156 88.5251C48.326 95.8796 49.2504 103.298 49.7852 110.749C44.0297 106.118 38.5144 101.197 33.2608 96.0035C32.9145 95.6696 32.4555 95.4776 31.9746 95.4655C31.4936 95.4533 31.0256 95.6218 30.6628 95.9378C23.5434 101.49 16.2124 106.886 9.33177 112.691C7.67934 114.083 9.77253 116.85 11.5484 115.56C18.4402 110.582 25.066 105.114 31.7815 99.8165C37.7718 105.66 44.0859 111.163 50.6939 116.298C50.9704 116.54 51.311 116.698 51.6748 116.751C52.0386 116.805 52.4102 116.753 52.7449 116.6C53.0797 116.448 53.3633 116.202 53.5619 115.893C53.7604 115.583 53.8654 115.223 53.8642 114.855C53.3113 105.326 52.1997 95.8384 50.5353 86.4399C50.3221 85.3388 50.2323 85.2699 51.8383 83.9813C60.3072 77.1792 65.5803 73.9016 70.3036 69.6399C70.5432 69.4004 70.7153 69.1018 70.8025 68.7744C70.8896 68.447 70.8888 68.1024 70.7999 67.7754C70.7111 67.4485 70.5375 67.1508 70.2967 66.9125C70.0559 66.6742 69.7564 66.5037 69.4285 66.4184Z" fill="#CB7428"/>
<path d="M312.67 112.659C305.764 106.831 298.356 101.377 291.341 95.8989C290.978 95.5832 290.511 95.4146 290.03 95.4265C289.55 95.4384 289.091 95.6298 288.744 95.963C283.499 101.169 277.983 106.095 272.218 110.72C272.733 104.015 273.786 94.7481 274.823 89.4751C275.624 85.3753 275.982 83.8751 273.037 81.37C267.505 76.6515 262.62 73.5582 257.201 69.2788C260.204 68.6377 278.793 64.578 279.009 64.5395C281.611 64.0907 282.569 63.6452 283.771 60.0053C283.834 59.8146 290.523 41.8814 292.134 38.6711C295.637 45.8472 298.617 53.2663 301.053 60.8708C301.181 61.2512 301.449 61.5682 301.803 61.7564C302.157 61.9445 302.57 61.9895 302.957 61.8819C303.343 61.7743 303.673 61.5224 303.879 61.1782C304.085 60.834 304.151 60.4239 304.063 60.0326C301.936 50.8541 298.494 42.0311 293.843 33.8372C293.679 33.5567 293.446 33.3231 293.165 33.1588C292.885 32.9944 292.567 32.9049 292.243 32.8988C291.918 32.8927 291.597 32.9702 291.311 33.1238C291.025 33.2775 290.783 33.5022 290.608 33.7763C288.693 36.8864 287.134 40.202 285.96 43.6605C285.96 43.6605 280.091 59.1719 279.559 60.3403C279.434 60.6112 279.254 60.6705 278.597 60.7843C278.597 60.7843 256.592 65.6005 252.545 66.4372C252.22 66.5197 251.924 66.6874 251.686 66.923C251.448 67.1586 251.278 67.4534 251.192 67.777C251.106 68.1006 251.109 68.4412 251.199 68.7636C251.289 69.086 251.464 69.3784 251.705 69.6106C257.494 74.5791 271.383 84.2036 271.542 85.4105C271.694 86.4667 269.109 96.6602 268.099 114.794C268.093 115.164 268.195 115.527 268.392 115.84C268.589 116.153 268.873 116.402 269.209 116.556C269.546 116.711 269.92 116.763 270.286 116.709C270.651 116.654 270.993 116.493 271.27 116.247C277.882 111.118 284.196 105.617 290.182 99.7696C296.835 105.014 303.496 110.495 310.422 115.518C310.804 115.751 311.259 115.836 311.7 115.756C312.14 115.676 312.537 115.438 312.814 115.086C313.091 114.733 313.229 114.292 313.202 113.845C313.176 113.398 312.987 112.976 312.67 112.659Z" fill="#2A2929"/>
<path d="M244.012 66.9948C234.422 64.6436 224.228 65.0282 214.995 61.2826C214.995 61.1111 207.795 39.1438 205.846 33.4621C205.828 33.4028 205.793 33.3502 205.745 33.3105C205.697 33.2708 205.639 33.2458 205.578 33.2386C205.516 33.2313 205.454 33.242 205.398 33.2694C205.343 33.2969 205.296 33.3398 205.264 33.3932C191.939 62.2539 194.112 60.3578 193.261 61.164C192.873 61.413 192.436 61.5769 191.979 61.6448C182.992 64.3679 173.804 66.3749 164.5 67.6471C164.447 67.6629 164.399 67.6921 164.361 67.7317C164.323 67.7714 164.296 67.8203 164.282 67.8736C164.268 67.9269 164.268 67.9829 164.282 68.0362C164.296 68.0894 164.324 68.1381 164.362 68.1776C171.261 74.8162 178.677 80.8949 186.541 86.356C184.762 95.0942 183.22 103.893 181.733 112.689C181.717 112.756 181.723 112.826 181.751 112.889C181.778 112.952 181.825 113.005 181.884 113.04C181.944 113.074 182.012 113.089 182.081 113.081C182.149 113.073 182.213 113.044 182.263 112.997C189.038 106.144 198.507 102.566 204.715 95.1102L205.997 96.5976C207.97 85.5979 208.401 82.5174 210.358 81.6023C212.547 80.5765 213.488 83.1233 213.589 84.8174C213.736 87.719 213.512 90.6275 212.922 93.4722C213.337 93.2472 213.801 93.1307 214.273 93.1338C214.745 93.1369 215.208 93.2594 215.619 93.4898C216.031 93.7203 216.377 94.0512 216.626 94.4517C216.875 94.8522 217.018 95.3092 217.043 95.7802C217.319 95.6474 217.618 95.5715 217.924 95.5569C218.23 95.5423 218.535 95.5893 218.822 95.6953C219.349 95.9658 219.797 96.3674 220.124 96.8615C220.45 97.3556 220.644 97.9254 220.686 98.5161C221.066 98.3326 221.497 98.2818 221.909 98.3719C222.321 98.4619 222.691 98.6877 222.96 99.0129C224.093 100.324 223.853 102.775 223.866 104.382C223.885 107.263 223.581 110.136 222.96 112.949L223.371 113.359C223.416 113.398 223.471 113.424 223.53 113.433C223.589 113.442 223.649 113.435 223.704 113.412C223.759 113.388 223.806 113.35 223.841 113.302C223.875 113.253 223.896 113.196 223.9 113.136C224.795 106.245 225.663 99.3527 226.02 92.4128C226.361 85.6316 225.845 85.6027 226.807 84.734C232.863 79.2895 238.64 73.5428 244.117 67.5157C244.16 67.4816 244.193 67.4363 244.212 67.3847C244.231 67.3331 244.235 67.2772 244.224 67.2233C244.213 67.1694 244.188 67.1196 244.151 67.0792C244.113 67.0389 244.065 67.0097 244.012 66.9948Z" fill="#CB7428"/>
<path d="M155.794 63.6478C146.118 61.6716 135.907 62.9282 126.452 59.7483C126.452 59.588 121.92 48.6429 115.576 32.5609C115.557 32.4943 115.516 32.4358 115.461 32.3942C115.405 32.3526 115.338 32.3301 115.268 32.3301C115.199 32.3301 115.132 32.3526 115.076 32.3942C115.021 32.4358 114.98 32.4943 114.961 32.5609C105.006 57.4243 105.617 60.4888 104.461 61.1507C103.884 61.4825 96.1267 64.2216 89.2253 66.1609C85.0197 67.3421 80.7484 68.2846 76.469 69.2061C76.4164 69.2222 76.3687 69.2514 76.3307 69.2912C76.2926 69.3309 76.2655 69.3798 76.2518 69.4331C76.2381 69.4864 76.2384 69.5423 76.2525 69.5955C76.2667 69.6487 76.2944 69.6973 76.3328 69.7367C83.6923 75.8624 91.4748 81.4613 99.6223 86.4918C99.1608 89.8266 98.7221 93.1609 98.3065 96.4946C102.969 95.6387 108.846 96.8808 112.242 100.394C114.502 98.5305 116.533 96.4066 118.294 94.0664C124.297 100.412 131.597 105.286 138.079 111.081C138.124 111.121 138.179 111.146 138.238 111.156C138.297 111.165 138.358 111.158 138.413 111.135C138.469 111.112 138.516 111.074 138.551 111.025C138.585 110.976 138.606 110.918 138.609 110.858C139.048 103.933 139.507 96.9914 139.43 90.0323C139.355 83.203 138.827 83.2238 139.722 82.3198C144.462 77.5228 150.199 71.1327 155.909 64.0485C155.947 64.0219 155.975 63.9844 155.99 63.9413C156.005 63.8981 156.006 63.8513 155.993 63.8074C155.981 63.7635 155.955 63.7245 155.919 63.6959C155.883 63.6674 155.84 63.6506 155.794 63.6478Z" fill="#CB7428"/>
</svg>
