<svg width="188" height="188" viewBox="0 0 188 188" fill="none" xmlns="http://www.w3.org/2000/svg">
<path d="M110.391 89.3687C110.628 88.6721 112.48 84.1244 113.476 82.063C113.88 82.8704 115.691 84.7645 116.68 85.0089C116.586 85.4479 116.284 86.7639 116.109 87.6691C114.171 88.1234 112.262 88.6909 110.391 89.3687Z" fill="#CB7428"/>
<path d="M95.75 142.129C99.2092 142.237 102.613 143.028 105.766 144.455C108.336 145.489 123.499 151.975 125.825 152.493C126.243 152.587 126.396 152.023 126.062 151.797C122.524 149.635 102.422 141.677 98.8962 141.105C99.119 140.576 101.174 131.911 99.2656 133.443C98.5691 133.993 98.1583 139.976 98.0323 141.008C94.4669 140.617 78.204 141.432 73.6553 141.586C74.5671 137.609 75.6397 133.018 76.0927 131.835C77.7368 131.639 98.8548 131.375 101.648 131.437C106.732 131.556 122.829 138.403 127.335 141.132C128.784 142.01 129.94 141.655 130.273 141.216C139.978 128.405 157.739 88.8401 156.297 75.9827C156.242 75.4601 155.419 75.5579 155.399 76.0655C154.792 94.043 138.385 125.058 129.245 140.455C127.963 139.312 121.687 136.601 119.898 135.849C123.074 134.839 126.863 130.773 127.629 126.754C137.38 123.514 139.902 104.852 137.255 94.7771C136.252 90.9381 130.596 87.9508 127.03 88.1247C127.03 87.5335 127.162 84.7191 127.03 82.3719C128.486 82.4659 133.298 82.0796 132.971 77.1126C133.573 77.1024 134.165 76.9481 134.695 76.6627C135.225 76.3774 135.68 75.9692 136.02 75.4723C136.361 74.9754 136.577 74.4042 136.652 73.8065C136.727 73.2088 136.657 72.602 136.449 72.0366C139.354 72.0366 154.328 72.8441 156.578 73.911C158.829 74.9779 163.44 80.2344 164.024 82.8739C164.608 85.5134 163.042 93.6905 152.18 119.572C141.318 145.454 136.394 152.834 131.856 153.281C128.66 153.594 110.029 153.678 103.76 153.281C103.954 152.487 105.606 148.863 106.135 146.879C106.664 144.896 98.2156 142.66 97.6028 144.442C96.5282 147.299 95.6624 150.229 95.0121 153.211C93.7901 153.211 87.0644 153.085 83.4981 153.016C79.9317 152.946 73.4692 149.324 72.1523 147.806C72.2989 147.318 72.7586 145.299 73.316 142.84C80.0877 142.638 89.3355 142.133 95.75 142.129Z" fill="#CB7428"/>
<path d="M74.36 92.198C75.5085 92.4209 76.6703 92.5698 77.838 92.6436C78.3249 92.6436 92.6458 89.5416 93.254 89.6835C93.8621 89.8254 95.4968 96.8848 96.5064 100.388C92.9748 97.4742 92.8845 94.2594 89.3624 96.2099C87.8649 97.0456 86.6805 100.5 86.9456 101.983C87.2107 103.467 89.8493 108.134 93.583 111.601C92.6289 110.96 86.4098 106.357 82.021 103.705C81.9382 103.611 79.295 95.3968 78.6153 94.0658C78.5788 94.0075 78.5234 93.9636 78.4583 93.9413C78.3933 93.9191 78.3225 93.9199 78.258 93.9436C78.1935 93.9672 78.139 94.0124 78.1038 94.0714C78.0686 94.1305 78.0547 94.1998 78.0645 94.2679C78.9425 97.2063 79.9389 100.111 80.8507 103.037L77.5428 101.521C76.568 98.7949 75.5509 96.3114 74.5414 93.6014C74.36 93.1145 73.796 93.1841 73.9699 93.671C74.8826 96.2203 75.7389 98.7207 76.6789 101.263C74.7065 100.654 72.5739 100.842 70.7381 101.786C70.4731 101.249 64.2324 87.2771 64.3649 87.1944C64.4975 87.1117 74.0545 92.072 74.36 92.198Z" fill="#CB7428"/>
<path d="M5.28036 175.038C28.4119 175.038 169.67 175.508 182.658 175.659C183.396 175.659 183.564 176.829 182.798 176.829C159.674 176.954 18.4291 176.488 5.44582 176.411C4.57726 176.404 4.39583 175.038 5.28036 175.038Z" fill="#222222"/>
<path d="M133.988 69.9648C136.934 71.2394 135.528 76.9302 131.523 76.1218C132.47 79.4118 129.712 82.2929 125.714 80.552C125.93 82.1603 126.306 87.3849 125.996 88.9095C126.692 89.0975 127.326 88.9866 127.305 89.5506C127.305 90.359 125.509 89.8571 125.215 89.5506C124.922 89.2442 125.007 86.6535 124.986 86.0726C124.847 82.1303 124.435 79.9015 123.99 76.0644C123.85 74.8941 124.589 75.3679 125.146 73.9748C125.804 72.3167 124.449 70.7638 122.882 71.7809C122.471 72.045 120.027 70.5758 119.657 68.2493C116.99 69.8304 114.246 71.3513 111.056 71.3908C111.564 73.863 114.722 84.3938 118.794 83.6418C120.445 83.3429 121.44 81.4478 122.144 80.1177C122.189 80.0581 122.251 80.014 122.322 79.9915C122.392 79.969 122.469 79.9693 122.539 79.9923C122.61 80.0154 122.672 80.06 122.716 80.1199C122.76 80.1798 122.784 80.2521 122.784 80.3264C122.492 82.3183 120.584 84.6307 118.606 84.7077C117.693 89.8824 118.383 89.1445 116.662 89.5835C115.576 89.8552 114.511 90.1823 113.41 90.391C113.298 90.4111 113.183 90.3893 113.087 90.3297C112.99 90.2701 112.919 90.177 112.887 90.0682C112.855 89.9593 112.865 89.8426 112.914 89.7403C112.962 89.638 113.048 89.5574 113.152 89.514C114.427 89.1163 115.729 88.8174 117.025 88.4894C117.262 87.194 117.495 85.8987 117.722 84.6034C115.158 83.858 113.013 79.8461 112.01 77.638C111.456 77.8227 110.864 77.8679 110.288 77.7697C109.712 77.6715 109.169 77.4328 108.707 77.0747C108.244 76.7167 107.878 76.2503 107.639 75.7169C107.4 75.1834 107.296 74.5993 107.337 74.0162C104.55 74.7964 102.064 71.6662 103.778 68.5491C100.782 68.7719 98.7628 63.6734 101.688 61.8206C98.3445 59.731 101.29 55.6166 103.662 55.7473C102.081 51.3941 105.752 49.5903 109.38 51.6583C110.216 45.8077 115.941 46.9085 117.258 49.3666C118.881 45.8886 123.283 47.2779 123.924 50.1609C125.616 47.7441 132.783 50.9552 130.847 55.7886C134.768 54.4726 136.614 58.6509 134.238 61.5978C137.116 61.8225 137.992 68.9966 133.988 69.9648Z" fill="#222222"/>
<path d="M116.109 78.5179C115.35 78.5264 114.779 77.8768 115.044 77.592C115.309 77.3072 115.441 77.7932 115.837 77.874C116.3 77.9223 116.766 77.8145 117.161 77.5676C117.774 77.2856 117.635 78.501 116.109 78.5179Z" fill="#222222"/>
<path d="M119.431 77.3747C120.08 77.0871 120.524 79.3036 118.651 80.0904C117.711 80.488 117.097 79.61 117.689 79.4643C118.671 79.234 119.187 78.7678 119.312 78.0712C119.361 77.7507 119.222 77.4668 119.431 77.3747Z" fill="#222222"/>
<path d="M117.133 74.2277C117.349 73.5791 118.261 74.9243 117.767 75.2439C117.272 75.5635 117.001 74.5473 117.133 74.2277Z" fill="#222222"/>
<path d="M116.207 71.448C116.674 71.2949 117.179 71.3069 117.638 71.482C118.097 71.657 118.482 71.9845 118.728 72.4096C118.958 73.3984 117.788 72.1276 116.785 72.2629C115.526 72.4096 116.017 71.5138 116.207 71.448Z" fill="#222222"/>
<path d="M113.295 73.1063C112.738 73.378 112.599 73.8997 112.48 73.9523C112.098 74.0914 112.104 73.4926 112.237 73.2558C112.306 73.0607 112.418 72.8836 112.565 72.7372C112.711 72.5909 112.888 72.479 113.083 72.4098C113.646 72.3468 113.546 72.9662 113.295 73.1063Z" fill="#222222"/>
<path d="M113.985 76.1073C113.552 76.2436 113.441 75.4108 113.504 75.1466C113.646 74.3589 114.576 75.9221 113.985 76.1073Z" fill="#222222"/>
<path d="M95.1862 101.85C94.1973 101.014 91.7082 98.3255 91.6057 97.1561C91.6044 97.1232 91.6097 97.0903 91.6212 97.0594C91.6326 97.0284 91.6501 97 91.6725 96.9759C91.6949 96.9517 91.7219 96.9322 91.7519 96.9184C91.7819 96.9047 91.8143 96.897 91.8473 96.8958C91.9093 96.8929 91.9701 96.9138 92.0174 96.954C93.1315 98.4615 94.366 99.8761 95.7088 101.184C96.2177 101.568 96.6847 102.004 97.1019 102.486C97.2476 102.648 97.2278 103.575 95.1862 101.85Z" fill="#222222"/>
<path d="M96.6068 111.579C93.4522 109.941 90.4508 106.376 88.7437 103.221C88.4395 102.758 88.2226 102.243 88.1036 101.702C88.1036 101.431 88.4373 101.187 88.5971 101.445C91.6615 106.411 92.1212 107.1 96.9556 111.092C97.0025 111.144 97.0303 111.21 97.0343 111.28C97.0383 111.35 97.0182 111.419 96.9775 111.476C96.9367 111.533 96.8777 111.574 96.8103 111.593C96.7429 111.611 96.6711 111.606 96.6068 111.579Z" fill="#222222"/>
<path d="M90.3342 97.2257C90.73 97.3884 91.9783 99.712 92.2077 100.102C92.744 100.993 93.3647 101.83 94.0613 102.603C94.4091 102.993 93.7267 104.184 91.5459 100.605C91.2535 100.124 89.8191 97.9853 89.8821 97.4278C89.9 97.2051 90.1641 97.1571 90.3342 97.2257Z" fill="#222222"/>
<path d="M90.1021 101.99C89.7336 101.364 88.709 99.5735 88.9036 98.9052C89.022 98.5292 89.4479 98.7031 89.8022 99.4278C90.5582 101.164 91.5242 102.801 92.6786 104.303C92.8676 104.546 92.6739 106.357 90.1021 101.99Z" fill="#222222"/>
<path d="M101.009 105.904C101.058 105.957 101.089 106.025 101.097 106.098C101.105 106.17 101.09 106.243 101.053 106.306C101.016 106.37 100.961 106.419 100.894 106.448C100.827 106.477 100.752 106.484 100.681 106.468C98.0626 105.772 99.1558 102.038 98.5298 100.63C98.2017 99.8859 97.4431 98.9807 97.4431 98.3669C97.4434 98.2783 97.4787 98.1934 97.5415 98.1309C97.6042 98.0683 97.6892 98.0332 97.7778 98.0332C97.8335 98.0341 97.8883 98.0483 97.9376 98.0746C98.4896 98.6206 98.9338 99.2657 99.247 99.9762C100.103 101.682 99.4275 103.026 99.8317 104.351C100.081 104.963 100.487 105.499 101.009 105.904Z" fill="#222222"/>
<path d="M108.858 94.6212C109.18 94.3796 109.499 94.921 109.242 95.1786C106.115 98.2806 103.189 98.9818 102.542 103.37C102.166 105.883 101.218 105.299 101.552 103.251C102.214 99.1708 104.419 97.961 108.858 94.6212Z" fill="#222222"/>
<path d="M131.349 122.913C130.158 124.222 128.693 125.252 127.057 125.929C127.057 126.576 123.987 132.979 119.975 134.517C119.888 134.533 119.798 134.522 119.719 134.484C119.639 134.446 119.573 134.385 119.53 134.307C119.488 134.23 119.471 134.141 119.482 134.054C119.493 133.966 119.531 133.885 119.591 133.82C122.351 131.815 124.583 129.17 126.097 126.112C125.074 126.304 124.035 126.39 122.995 126.37C113.564 126.07 105.323 119.739 98.5548 113.61C98.3113 113.394 98.332 113.122 98.395 112.795C98.395 112.795 99.022 108.525 101.181 106.93C101.919 106.387 101.839 106.499 102.448 106.853C108.425 110.281 114.198 113.819 121.219 114.299C123.483 107.437 123.517 104.98 123.399 100.271C123.399 99.7704 124.151 99.9368 124.214 100.355C124.653 103.399 123.803 111.061 121.832 114.285C122.668 114.327 123.511 114.348 124.361 114.369C124.751 114.369 124.939 115.01 124.493 115.1C116.921 116.618 107.902 111.179 101.752 107.355C100.282 108.938 99.4227 110.992 99.3284 113.149C105.596 118.652 112.827 124.294 121.418 125.199C125.528 125.645 127.896 125.36 130.696 122.097C134.582 117.57 135.571 109.877 135.912 104.601C136.331 97.49 135.818 92.6358 128.781 90.581C125.647 95.845 114.628 96.691 111.203 90.9711C107.658 91.7513 103.506 95.0319 100.713 97.9356C100.016 98.6321 98.5614 97.3377 105.324 92.9536C105.93 92.5559 111.593 89.1428 111.788 90.3761C111.788 90.3761 116.217 96.9025 125.021 92.7721C128.351 91.2052 127.988 89.4286 128.781 89.6513C135.893 91.6441 137.265 96.0433 137.028 102.991C136.837 109.06 135.974 117.838 131.349 122.913Z" fill="#222222"/>
<path d="M35.4119 122.558C34.4597 122.052 25.5711 116.373 24.9648 116.526C24.7693 116.575 24.8463 116.442 24.8332 116.701C24.82 116.959 32.7292 128.053 33.5319 129.237C35.301 131.807 36.178 130.631 38.8899 129.391C39.5376 129.098 39.8995 130.087 39.2725 130.425C37.3296 131.385 35.3584 132.764 33.6175 130.975C33.4079 130.752 24.131 117.852 23.8659 116.969C23.8092 116.8 23.7957 116.62 23.8266 116.446C23.8576 116.271 23.9319 116.106 24.0429 115.968C24.1539 115.829 24.2979 115.72 24.4618 115.652C24.6257 115.583 24.8041 115.557 24.9808 115.576C26.4293 115.576 34.5161 120.897 35.8114 121.886C36.1856 122.133 35.8143 122.771 35.4119 122.558Z" fill="#222222"/>
<path d="M59.1704 173.841C55.1172 173.566 50.8119 174.05 46.6336 173.925C45.8816 173.925 44.3137 173.925 44.732 172.671C45.0657 171.703 46.2774 171.355 47.1281 171.034C50.1577 169.879 52.9993 168.367 56.043 167.24C56.701 166.994 57.2058 167.977 56.5441 168.221C53.2917 169.405 50.2338 171.006 46.9814 172.169C45.5329 172.502 45.2565 172.957 47.0755 172.997C51.5959 173.091 56.0882 172.509 60.6114 172.948C63.2303 173.206 64.1637 173.23 64.4072 172.209C64.498 171.123 64.442 170.029 64.2408 168.957C64.2408 168.567 64.7841 168.518 64.9373 168.81C65.4954 169.979 65.6473 171.3 65.3688 172.565C64.896 174.795 60.995 173.965 59.1704 173.841Z" fill="#222222"/>
<path d="M105.034 146.828C104.626 149.331 95.6867 167.376 94.0219 170.573C91.327 175.748 90.2892 174.843 91.7095 169.682C93.8622 161.859 95.8399 153.044 98.5715 145.534C98.7389 145.081 99.4561 145.353 99.3517 145.798C97.6663 152.854 94.6987 161.819 92.6373 170.922C95.667 165.133 101.079 153.564 104.353 146.544C104.527 146.19 105.105 146.4 105.034 146.828Z" fill="#222222"/>
<path d="M126.188 155.418C127.769 159.96 129.246 164.536 130.764 169.104C132.61 174.677 132.624 177.059 129.121 170.303C126.474 165.205 122.468 157.07 121.807 155.628C121.563 155.106 122.455 154.652 122.719 155.174C125.042 159.818 127.349 164.461 129.642 169.104C128.167 164.627 126.627 160.169 125.213 155.669C125.066 155.078 126.049 154.912 126.188 155.418Z" fill="#222222"/>
<path d="M169.552 168.116C163.818 154.339 157.447 140.668 151.053 127.161C150.771 126.583 151.625 126.046 151.91 126.631C158.137 139.391 163.806 152.207 169.532 165.191C164.461 150.118 160.053 135.428 154.599 118.162C154.431 117.64 155.344 117.327 155.525 117.863C161.146 134.398 165.889 151.246 171.662 167.899C174.811 176.989 173.044 176.498 169.552 168.116Z" fill="#222222"/>
<path d="M84.9541 49.6044C78.8074 50.5387 71.1145 50.8442 64.7554 51.1723C63.07 51.2663 62.7917 51.0257 62.3321 49.6326C60.8277 45.5981 60.5848 41.2018 61.6355 37.0262C62.9384 32.3798 66.4201 28.3782 71.2959 27.4909C70.5322 25.5366 69.8696 23.5443 69.3106 21.5219C68.6074 21.5502 67.9213 21.2999 67.4015 20.8253C58.8115 27.675 50.0156 34.2624 41.026 40.5785C41.1559 40.9392 41.2133 41.322 41.195 41.705C41.1767 42.0879 41.083 42.4635 40.9193 42.8102C40.7555 43.1568 40.525 43.4678 40.2409 43.7252C39.9567 43.9826 39.6246 44.1815 39.2635 44.3103C39.2128 44.3282 39.1611 44.3451 39.1103 44.3601C39.4656 67.9372 39.3472 92.1685 38.2117 115.745C38.2117 115.916 38.1434 116.081 38.022 116.203C37.9005 116.324 37.7358 116.392 37.564 116.392C37.3922 116.392 37.2275 116.324 37.106 116.203C36.9846 116.081 36.9163 115.916 36.9163 115.745C37.5743 91.8828 38.0443 68.4241 37.8357 44.5274C37.2645 44.4999 36.7228 44.2661 36.311 43.8694C34.3182 45.2625 32.3197 46.586 30.3279 47.9443C29.6313 48.4313 28.9348 47.2863 29.6313 46.8088C31.6505 45.4853 33.6558 44.1455 35.6473 42.7894C35.5266 42.4508 35.4737 42.0917 35.4918 41.7327C35.5098 41.3736 35.5984 41.0217 35.7524 40.6969C35.9065 40.3721 36.123 40.0808 36.3897 39.8397C36.6563 39.5986 36.9678 39.4123 37.3064 39.2916C37.4779 39.2311 37.6548 39.1874 37.8347 39.161C37.8347 37.8309 37.8695 36.4998 37.9174 35.1632C37.9302 35.0621 37.9794 34.9691 38.0558 34.9018C38.1322 34.8344 38.2306 34.7972 38.3324 34.7972C38.4343 34.7972 38.5327 34.8344 38.6091 34.9018C38.6855 34.9691 38.7347 35.0621 38.7475 35.1632C38.8414 36.4792 38.9148 37.8027 38.9702 39.1196C39.4269 39.1707 39.8643 39.332 40.2449 39.5896C49.2999 33.2728 58.0814 26.6176 66.7125 19.781C66.3951 19.1801 66.3157 18.4818 66.4899 17.825C66.664 17.1681 67.0791 16.6009 67.6525 16.2362L66.3844 12.1942C66.1475 11.4422 67.2821 10.9262 67.519 11.6923C67.9589 13.0854 68.4045 14.4784 68.8434 15.9138C69.5298 15.8854 70.2046 16.0971 70.7516 16.5126C72.9935 14.6664 75.2514 12.8353 77.64 11.2119C77.7156 11.1593 77.8083 11.137 77.8996 11.1493C77.991 11.1616 78.0744 11.2078 78.1334 11.2786C78.1924 11.3494 78.2227 11.4397 78.2184 11.5318C78.2141 11.6239 78.1754 11.711 78.11 11.7759C76.0517 13.812 73.8723 15.7218 71.5835 17.4949C71.7873 17.8046 71.9224 18.1543 71.9796 18.5205C72.0368 18.8868 72.0148 19.261 71.9151 19.6181C71.8154 19.9751 71.6404 20.3066 71.4017 20.5903C71.1631 20.8739 70.8664 21.1031 70.5317 21.2624C71.2298 23.2718 71.8259 25.3151 72.3177 27.3846C75.318 27.148 78.3142 27.8894 80.858 29.4978C83.4018 31.1062 85.3563 33.4952 86.429 36.3071C87.8274 39.938 87.9671 43.9332 86.8256 47.6529C86.2851 48.9436 86.241 49.4089 84.9541 49.6044ZM85.5463 38.1364C82.3691 27.097 67.6252 24.6944 63.258 36.3184C61.6205 40.6998 62.3321 45.5614 63.8784 49.8591C71.0726 49.7983 78.2584 49.3496 85.4044 48.5149C86.0408 44.722 86.7091 42.1803 85.5463 38.1401V38.1364Z" fill="#222222"/>
<path d="M36.1996 133.436C36.1996 133.025 37.3624 132.928 37.3558 133.387C37.3558 145.103 37.4329 155.502 37.4329 165.607C39.264 166.443 43.1161 169.236 45.2396 170.656C43.1499 171.646 42.9065 172.984 43.15 173.819C42.0285 173.889 24.944 173.952 22.6937 173.819C20.6745 173.701 32.6887 166.806 35.9693 165.566C36.0398 155.328 36.1018 144.331 36.1996 133.436Z" fill="#222222"/>
<path d="M76.6102 127.433C72.8869 134.389 67.5975 159.393 66.3087 167.586C62.6226 167.499 58.9609 166.962 55.4047 165.988C55.5862 164.226 59.584 141.576 61.6313 126.663C63.1221 115.52 65.3236 115.227 66.9893 114.921C71.6009 114.057 81.2472 128.551 83.9291 130.243C81.8394 130.069 79.4923 130.375 76.4908 130.354C76.7898 129.477 77.0821 128.599 77.3613 127.714C77.3853 127.618 77.3731 127.516 77.3269 127.428C77.2808 127.341 77.2039 127.273 77.111 127.238C77.0181 127.203 76.9156 127.204 76.8231 127.239C76.7306 127.275 76.6545 127.344 76.6093 127.432L76.6102 127.433Z" fill="#222222"/>
<path d="M67.786 113.683C63.4253 113.683 62.0463 117.34 61.315 122.418C60.1936 122.682 47.8166 127.391 41.387 130.135C40.5297 128.686 38.1553 123.08 36.86 121.164C39.21 120.293 68.6404 102.254 74.4713 102.254C83.5253 102.254 111.225 128.164 115.182 133.374C103.634 129.417 99.3775 130.072 86.2842 130.47C81.6115 127.635 74.1169 113.683 67.786 113.683Z" fill="#222222"/>
<path d="M90.4223 89.4107C88.2603 89.6701 86.0043 88.951 83.77 89.1879C81.1435 89.6217 78.6083 90.4926 76.2697 91.7644C75.6286 92.0643 75.6286 91.0679 73.8877 89.9954C71.6581 88.6512 67.5352 88.1078 66.2944 86.7495C66.1356 86.5756 66.2944 86.2203 66.5313 86.3463C67.4209 86.8271 68.3537 87.2234 69.3175 87.5297C71.1918 88.1219 74.9875 88.7141 76.1578 90.7897C79.006 89.4596 81.1173 88.5609 83.6872 88.3654C85.6782 88.2122 88.9935 88.8739 91.1132 88.6794C91.446 88.6512 91.8013 89.2443 90.4223 89.4107Z" fill="#222222"/>
</svg>
