<svg width="995" height="159" viewBox="0 0 995 159" fill="none" xmlns="http://www.w3.org/2000/svg">
<path opacity="0.1" d="M181.084 -775H352.186V-760.734L333.655 -745.771C323.672 -737.223 316.539 -716.542 316.539 -703.711V-79.2051C521.155 -69.2231 675.16 115.415 883.343 115.415C1075.84 115.415 1035.91 -44.2778 953.203 -44.2778C884.041 -44.2778 907.573 56.2402 845.545 56.2402C772.118 56.2402 807.766 -59.9583 936.804 -59.9583C1082.24 -59.9583 1080.11 158.192 883.324 158.192C633.795 158.192 479.073 -64.9396 293.724 -64.9396V-65.6567H195.331V-79.9223L213.862 -94.8856C223.845 -103.433 230.978 -124.115 230.978 -136.946V-703.711C230.978 -716.542 225.997 -740.073 213.862 -745.771L181.065 -760.734C138.285 -760.734 43.4587 -768.584 43.4587 -674.482C43.4587 -637.403 71.9724 -601.061 96.2216 -601.061C114.055 -601.061 129.736 -621.025 129.736 -675.916C129.736 -714.41 148.985 -730.808 169.667 -730.808C192.482 -730.808 216.731 -710.127 216.731 -675.916C216.731 -616.741 161.836 -586.795 106.941 -586.795C52.0458 -586.795 0 -615.307 0 -673.765C0 -770.716 116.924 -775 181.084 -775Z" fill="#AFA69C"/>
</svg>
