<svg width="40" height="40" viewBox="0 0 40 40" fill="none" xmlns="http://www.w3.org/2000/svg">
<path d="M11.1824 21.0473L17.3408 27.2052C17.5471 27.4119 17.6488 27.655 17.6458 27.9344C17.6424 28.2141 17.5351 28.4626 17.3237 28.6798C17.1065 28.8898 16.8592 28.9962 16.582 28.999C16.3051 29.002 16.058 28.895 15.8408 28.6777L8.07701 20.9136C7.81701 20.6536 7.68701 20.3491 7.68701 20.0002C7.68701 19.6514 7.81701 19.3469 8.07701 19.0869L15.8687 11.2952C16.0751 11.0886 16.3195 10.984 16.602 10.9815C16.8842 10.979 17.1305 11.0864 17.3408 11.3036C17.5521 11.5208 17.6594 11.7694 17.6624 12.0494C17.6652 12.3294 17.558 12.578 17.3408 12.7952L11.1824 18.9532H31.8066C32.1085 18.9532 32.3585 19.0522 32.5566 19.2502C32.7547 19.4483 32.8537 19.6983 32.8537 20.0002C32.8537 20.3022 32.7547 20.5522 32.5566 20.7502C32.3585 20.9483 32.1085 21.0473 31.8066 21.0473H11.1824Z" fill="#1C1B1F"/>
</svg>
