<svg width="40" height="40" viewBox="0 0 40 40" fill="none" xmlns="http://www.w3.org/2000/svg">
<path d="M12.0583 35.9125C11.2933 35.9125 10.645 35.6438 10.1133 35.1063C9.58192 34.5688 9.31622 33.916 9.31622 33.1479C9.31622 32.3799 9.58386 31.7292 10.1191 31.1958C10.6544 30.6622 11.3046 30.3954 12.0696 30.3954C12.8346 30.3954 13.4846 30.6642 14.0196 31.2017C14.5548 31.7392 14.8225 32.3918 14.8225 33.1596C14.8225 33.9276 14.5537 34.5785 14.0162 35.1121C13.4787 35.6457 12.8261 35.9125 12.0583 35.9125ZM28.2121 35.9125C27.4471 35.9125 26.7989 35.6438 26.2675 35.1063C25.7358 34.5688 25.47 33.916 25.47 33.1479C25.47 32.3799 25.7376 31.7292 26.2729 31.1958C26.8082 30.6622 27.4583 30.3954 28.2233 30.3954C28.9883 30.3954 29.6384 30.6642 30.1737 31.2017C30.7087 31.7392 30.9762 32.3918 30.9762 33.1596C30.9762 33.9276 30.7076 34.5785 30.1704 35.1121C29.6329 35.6457 28.9801 35.9125 28.2121 35.9125ZM9.80539 9.16042L14.3121 18.5704H25.8321C25.9284 18.5704 26.0158 18.5464 26.0941 18.4983C26.1725 18.4503 26.2347 18.3835 26.2808 18.2979L31.0621 9.60917C31.1262 9.49139 31.1315 9.38708 31.0779 9.29625C31.0246 9.20569 30.9337 9.16042 30.8054 9.16042H9.80539ZM8.76497 7.06625H31.89C32.5714 7.06625 33.0865 7.35917 33.4354 7.945C33.7846 8.53083 33.7954 9.12611 33.4679 9.73083L28.2729 19.1417C27.9968 19.6092 27.639 19.9799 27.1996 20.2537C26.7601 20.5276 26.2833 20.6646 25.7691 20.6646H13.5L11.3225 24.675C11.2441 24.8033 11.2433 24.9422 11.32 25.0917C11.3966 25.2414 11.5151 25.3162 11.6754 25.3162H29.9296C30.2268 25.3162 30.4755 25.4169 30.6758 25.6183C30.8761 25.8197 30.9762 26.0697 30.9762 26.3683C30.9762 26.6669 30.8761 26.9153 30.6758 27.1133C30.4755 27.3111 30.2268 27.41 29.9296 27.41H11.8612C10.7912 27.41 10.0079 27.0089 9.51122 26.2067C9.01455 25.4044 9.0108 24.5521 9.49997 23.6496L12.0812 18.9679L5.85914 5.84417H3.76705C3.46983 5.84417 3.22108 5.74347 3.0208 5.54208C2.82025 5.34069 2.71997 5.09069 2.71997 4.79208C2.71997 4.49347 2.82025 4.24514 3.0208 4.04708C3.22108 3.84903 3.46983 3.75 3.76705 3.75H6.37705C6.63955 3.75 6.87469 3.81458 7.08247 3.94375C7.28997 4.07264 7.4483 4.25417 7.55747 4.48833L8.76497 7.06625Z" fill="#1C1B1F"/>
</svg>
