<svg width="40" height="40" viewBox="0 0 40 40" fill="none" xmlns="http://www.w3.org/2000/svg">
<path d="M34.313 21.0472H15.4038C15.1066 21.0472 14.8578 20.9466 14.6575 20.7452C14.4573 20.5438 14.3571 20.2938 14.3571 19.9952C14.3571 19.6966 14.4573 19.4482 14.6575 19.2502C14.8578 19.0521 15.1066 18.9531 15.4038 18.9531H34.313L31.4713 16.1114C31.2646 15.9047 31.16 15.6617 31.1575 15.3822C31.155 15.1025 31.2575 14.8541 31.465 14.6368C31.6864 14.4196 31.9382 14.3114 32.2205 14.3122C32.5027 14.3128 32.753 14.4182 32.9713 14.6285L37.4467 19.0868C37.7064 19.3479 37.8363 19.6527 37.8363 20.001C37.8363 20.3493 37.7064 20.6535 37.4467 20.9135L32.9713 25.3889C32.7655 25.5956 32.5212 25.6972 32.2384 25.6939C31.9556 25.6909 31.7053 25.5807 31.4875 25.3635C31.2837 25.1463 31.1803 24.8977 31.1775 24.6177C31.1745 24.3377 31.2816 24.0891 31.4988 23.8718L34.313 21.0472ZM24.9305 14.3377V8.44058C24.9305 8.29086 24.8824 8.16794 24.7863 8.07183C24.6902 7.97572 24.5674 7.92766 24.418 7.92766H8.44046C8.29074 7.92766 8.16782 7.97572 8.07171 8.07183C7.9756 8.16794 7.92754 8.29086 7.92754 8.44058V31.5597C7.92754 31.7095 7.9756 31.8324 8.07171 31.9285C8.16782 32.0246 8.29074 32.0727 8.44046 32.0727H24.418C24.5674 32.0727 24.6902 32.0246 24.7863 31.9285C24.8824 31.8324 24.9305 31.7095 24.9305 31.5597V25.6627C24.9305 25.3654 25.0312 25.1166 25.2325 24.916C25.4339 24.7157 25.6839 24.6156 25.9825 24.6156C26.2812 24.6156 26.5295 24.7157 26.7275 24.916C26.9256 25.1166 27.0246 25.3654 27.0246 25.6627V31.5597C27.0246 32.2739 26.7687 32.887 26.2567 33.3989C25.7448 33.9109 25.1318 34.1668 24.418 34.1668H8.44046C7.72629 34.1668 7.11323 33.9109 6.60129 33.3989C6.08935 32.887 5.83337 32.2739 5.83337 31.5597V8.44058C5.83337 7.72641 6.08935 7.11336 6.60129 6.60141C7.11323 6.08947 7.72629 5.8335 8.44046 5.8335H24.418C25.1318 5.8335 25.7448 6.08947 26.2567 6.60141C26.7687 7.11336 27.0246 7.72641 27.0246 8.44058V14.3377C27.0246 14.6349 26.9239 14.8838 26.7225 15.0843C26.5212 15.2846 26.2712 15.3847 25.9725 15.3847C25.6739 15.3847 25.4256 15.2846 25.2275 15.0843C25.0295 14.8838 24.9305 14.6349 24.9305 14.3377Z" fill="#1C1B1F"/>
</svg>
