<svg width="48" height="49" viewBox="0 0 48 49" fill="none" xmlns="http://www.w3.org/2000/svg">
<mask id="mask0_119_4847" style="mask-type:alpha" maskUnits="userSpaceOnUse" x="0" y="0" width="48" height="49">
<rect y="0.5" width="48" height="48" fill="#D9D9D9"/>
</mask>
<g mask="url(#mask0_119_4847)">
<path d="M8.3 36.8001C6.93333 35.1001 5.875 33.2084 5.125 31.1251C4.375 29.0418 4 26.8334 4 24.5001C4 19.2334 5.75833 14.7168 9.275 10.9501C12.7917 7.18343 17.1 5.06676 22.2 4.6001V7.6001C17.9333 8.06676 14.3333 9.89176 11.4 13.0751C8.46667 16.2584 7 20.0668 7 24.5001C7 26.4001 7.30833 28.2168 7.925 29.9501C8.54167 31.6834 9.38333 33.2668 10.45 34.7001L8.3 36.8001ZM24 44.5001C21.5667 44.5001 19.2667 44.0918 17.1 43.2751C14.9333 42.4584 12.9667 41.3168 11.2 39.8501L13.3 37.7001C14.8 38.9001 16.45 39.8334 18.25 40.5001C20.05 41.1668 21.9667 41.5001 24 41.5001C26.0333 41.5001 27.9583 41.1584 29.775 40.4751C31.5917 39.7918 33.25 38.8501 34.75 37.6501L36.85 39.8001C35.1167 41.2668 33.1583 42.4168 30.975 43.2501C28.7917 44.0834 26.4667 44.5001 24 44.5001ZM39.75 36.8001L37.6 34.7001C38.6667 33.2668 39.5 31.6834 40.1 29.9501C40.7 28.2168 41 26.4001 41 24.5001C41 20.1001 39.55 16.3001 36.65 13.1001C33.75 9.9001 30.15 8.06676 25.85 7.6001V4.6001C30.9833 5.06676 35.2917 7.18343 38.775 10.9501C42.2583 14.7168 44 19.2334 44 24.5001C44 26.8334 43.625 29.0418 42.875 31.1251C42.125 33.2084 41.0833 35.1001 39.75 36.8001ZM19.35 32.5501V15.4501L32.75 24.0001L19.35 32.5501Z" fill="white"/>
</g>
</svg>
