<svg width="40" height="40" viewBox="0 0 40 40" fill="none" xmlns="http://www.w3.org/2000/svg">
<path d="M15.8204 25.8394C12.9868 25.8394 10.5872 24.8569 8.62167 22.8919C6.65612 20.9269 5.67334 18.5401 5.67334 15.7315C5.67334 12.9232 6.65584 10.5365 8.62084 8.57152C10.5858 6.60652 12.9746 5.62402 15.7871 5.62402C18.5996 5.62402 20.9881 6.60652 22.9525 8.57152C24.9172 10.5365 25.8996 12.9233 25.8996 15.7319C25.8996 16.9069 25.6997 18.0436 25.3 19.1419C24.9006 20.2403 24.3376 21.2221 23.6113 22.0874L33.5725 32.004C33.7733 32.1968 33.8765 32.4453 33.8821 32.7494C33.8874 33.0539 33.7842 33.3101 33.5725 33.5182C33.3611 33.726 33.1058 33.8299 32.8067 33.8299C32.5078 33.8299 32.2567 33.7242 32.0533 33.5128L22.1196 23.579C21.289 24.2974 20.3251 24.8537 19.2279 25.2482C18.1304 25.6424 16.9946 25.8394 15.8204 25.8394ZM15.8033 23.7457C18.037 23.7457 19.929 22.9685 21.4796 21.414C23.0301 19.8593 23.8054 17.9651 23.8054 15.7315C23.8054 13.4979 23.0301 11.6039 21.4796 10.0494C19.929 8.495 18.037 7.71777 15.8033 7.71777C13.5603 7.71777 11.6601 8.495 10.1029 10.0494C8.5457 11.6039 7.76709 13.4979 7.76709 15.7315C7.76709 17.9651 8.5457 19.8593 10.1029 21.414C11.6601 22.9685 13.5603 23.7457 15.8033 23.7457Z" fill="#1C1B1F"/>
</svg>
