<svg width="40" height="40" viewBox="0 0 40 40" fill="none" xmlns="http://www.w3.org/2000/svg">
<path d="M11.4305 34.1491C10.7191 34.1491 10.1067 33.8925 9.5934 33.3791C9.08007 32.8658 8.8234 32.2534 8.8234 31.5421V9.3733H8.18673C7.89007 9.3733 7.64145 9.27247 7.4409 9.0708C7.24006 8.86913 7.13965 8.61913 7.13965 8.3208C7.13965 8.02275 7.24006 7.77469 7.4409 7.57663C7.64145 7.37858 7.89007 7.27955 8.18673 7.27955H14.3917C14.3917 6.924 14.516 6.6233 14.7646 6.37747C15.013 6.13136 15.3124 6.0083 15.663 6.0083H23.6163C23.9669 6.0083 24.2663 6.13247 24.5146 6.3808C24.7633 6.62941 24.8876 6.929 24.8876 7.27955H31.0926C31.3892 7.27955 31.6378 7.38038 31.8384 7.58205C32.0392 7.784 32.1396 8.034 32.1396 8.33205C32.1396 8.63039 32.0392 8.87858 31.8384 9.07663C31.6378 9.27441 31.3892 9.3733 31.0926 9.3733H30.4559V31.5421C30.4559 32.2534 30.1992 32.8658 29.6859 33.3791C29.1726 33.8925 28.5602 34.1491 27.8488 34.1491H11.4305ZM28.3617 9.3733H10.9176V31.5421C10.9176 31.6918 10.9674 31.8147 11.0671 31.9108C11.1669 32.0069 11.288 32.055 11.4305 32.055H27.8488C27.9913 32.055 28.1124 32.0069 28.2121 31.9108C28.3119 31.8147 28.3617 31.6918 28.3617 31.5421V9.3733ZM16.5063 28.5979C16.8046 28.5979 17.0528 28.4976 17.2509 28.2971C17.4487 28.0962 17.5476 27.8475 17.5476 27.5508V13.85C17.5476 13.5602 17.4467 13.3133 17.2451 13.1091C17.0434 12.905 16.7934 12.8029 16.4951 12.8029C16.197 12.8029 15.949 12.905 15.7509 13.1091C15.5528 13.3133 15.4538 13.5602 15.4538 13.85V27.5508C15.4538 27.8475 15.5546 28.0962 15.7563 28.2971C15.9583 28.4976 16.2083 28.5979 16.5063 28.5979ZM22.7842 28.5979C23.0823 28.5979 23.3303 28.4976 23.5284 28.2971C23.7265 28.0962 23.8255 27.8475 23.8255 27.5508V13.85C23.8255 13.5602 23.7246 13.3133 23.523 13.1091C23.321 12.905 23.071 12.8029 22.773 12.8029C22.4746 12.8029 22.2265 12.905 22.0284 13.1091C21.8306 13.3133 21.7317 13.5602 21.7317 13.85V27.5508C21.7317 27.8475 21.8326 28.0962 22.0342 28.2971C22.2359 28.4976 22.4859 28.5979 22.7842 28.5979Z" fill="#1C1B1F"/>
</svg>
