<svg width="40" height="41" viewBox="0 0 40 41" fill="none" xmlns="http://www.w3.org/2000/svg">
<g clip-path="url(#clip0_251_2104)">
<path d="M20 40.5C31.0457 40.5 40 31.5457 40 20.5C40 9.4543 31.0457 0.5 20 0.5C8.9543 0.5 0 9.4543 0 20.5C0 31.5457 8.9543 40.5 20 40.5Z" fill="#F0F0F0"/>
<path d="M19.1304 20.4996H39.9999C39.9999 18.6945 39.7593 16.9457 39.3109 15.2822H19.1304V20.4996Z" fill="#D80027"/>
<path d="M19.1304 10.0651H37.0644C35.8401 8.06727 34.2747 6.30141 32.4496 4.84766H19.1304V10.0651Z" fill="#D80027"/>
<path d="M20 40.4997C24.7069 40.4997 29.0333 38.8728 32.4497 36.1519H7.55029C10.9667 38.8728 15.293 40.4997 20 40.4997Z" fill="#D80027"/>
<path d="M2.93545 30.9347H37.0645C38.0474 29.3309 38.8097 27.5778 39.311 25.7173H0.688965C1.19029 27.5778 1.95256 29.3309 2.93545 30.9347Z" fill="#D80027"/>
<path d="M9.26437 3.62328H11.087L9.39164 4.85492L10.0392 6.84781L8.34398 5.61617L6.64875 6.84781L7.20813 5.12617C5.71547 6.36953 4.40719 7.82625 3.32906 9.44938H3.91305L2.83391 10.2334C2.66578 10.5138 2.50453 10.7987 2.35 11.0879L2.86531 12.6739L1.90391 11.9754C1.66492 12.4817 1.44633 12.9995 1.24984 13.528L1.81758 15.2755H3.91305L2.21773 16.5071L2.86531 18.5L1.17008 17.2684L0.154609 18.0062C0.0529687 18.8232 0 19.6554 0 20.5H20C20 9.45437 20 8.15219 20 0.5C16.0491 0.5 12.366 1.64609 9.26437 3.62328ZM10.0392 18.5L8.34398 17.2684L6.64875 18.5L7.29633 16.5071L5.60102 15.2755H7.69648L8.34398 13.2826L8.99148 15.2755H11.087L9.39164 16.5071L10.0392 18.5ZM9.39164 10.681L10.0392 12.6739L8.34398 11.4423L6.64875 12.6739L7.29633 10.681L5.60102 9.44938H7.69648L8.34398 7.45648L8.99148 9.44938H11.087L9.39164 10.681ZM17.2131 18.5L15.5179 17.2684L13.8227 18.5L14.4702 16.5071L12.7749 15.2755H14.8704L15.5179 13.2826L16.1654 15.2755H18.2609L16.5655 16.5071L17.2131 18.5ZM16.5655 10.681L17.2131 12.6739L15.5179 11.4423L13.8227 12.6739L14.4702 10.681L12.7749 9.44938H14.8704L15.5179 7.45648L16.1654 9.44938H18.2609L16.5655 10.681ZM16.5655 4.85492L17.2131 6.84781L15.5179 5.61617L13.8227 6.84781L14.4702 4.85492L12.7749 3.62328H14.8704L15.5179 1.63039L16.1654 3.62328H18.2609L16.5655 4.85492Z" fill="#0052B4"/>
</g>
<defs>
<clipPath id="clip0_251_2104">
<rect width="40" height="40" fill="white" transform="translate(0 0.5)"/>
</clipPath>
</defs>
</svg>
