<svg width="188" height="188" viewBox="0 0 188 188" fill="none" xmlns="http://www.w3.org/2000/svg">
<path d="M87.2267 94.5818C87.2737 92.3183 87.3442 90.0774 86.4672 88.0018C85.3157 85.3623 82.6311 85.4714 80.9757 87.6183C80.5248 88.2202 80.1462 88.8729 79.8477 89.5632C77.9508 93.5112 77.8333 97.6942 77.9207 102.065C77.9224 102.163 77.9463 102.259 77.9906 102.347C78.0349 102.434 78.0984 102.51 78.1765 102.569C78.2545 102.629 78.345 102.669 78.441 102.689C78.5371 102.708 78.6363 102.705 78.731 102.68C80.7304 102.153 82.0539 100.825 83.5579 99.4134C84.9394 98.2427 86.1258 96.8596 87.0726 95.316C87.157 95.2421 87.2093 95.1383 87.2183 95.0265C87.263 94.9613 87.2877 94.8844 87.2892 94.8054C87.2907 94.7264 87.269 94.6487 87.2267 94.5818Z" fill="#CB7428"/>
<path d="M68.0758 88.4248C67.6556 85.9815 67.5012 83.4999 67.6152 81.0233C67.6115 80.9636 67.62 80.9038 67.64 80.8474C67.66 80.791 67.6913 80.7393 67.7318 80.6953C67.7723 80.6513 67.8213 80.616 67.8759 80.5914C67.9304 80.5669 67.9893 80.5536 68.0491 80.5524C68.1089 80.5512 68.1683 80.5621 68.2238 80.5844C68.2793 80.6068 68.3297 80.6401 68.372 80.6824C68.4142 80.7247 68.4475 80.7752 68.4698 80.8307C68.4921 80.8862 68.5029 80.9456 68.5016 81.0054C68.5891 82.0808 69.1079 86.3634 69.483 88.7914C69.5055 88.9567 69.4655 89.1244 69.3707 89.2616C69.2759 89.3989 69.1332 89.4957 68.9707 89.5331C66.9224 90.0125 65.6262 92.6238 67.9047 93.7885C67.9591 93.8126 68.0081 93.8471 68.0491 93.8901C68.09 93.9331 68.1221 93.9838 68.1435 94.0392C68.1649 94.0947 68.1752 94.1538 68.1737 94.2132C68.1723 94.2725 68.1591 94.3311 68.135 94.3854C68.111 94.4397 68.0764 94.4887 68.0334 94.5297C67.9904 94.5707 67.9397 94.6028 67.8843 94.6242C67.8289 94.6455 67.7698 94.6558 67.7104 94.6543C67.651 94.6529 67.5925 94.6398 67.5381 94.6157C64.2961 93.3326 65.1712 89.6186 68.0758 88.4248Z" fill="#191919"/>
<path d="M69.7696 74.1256C71.9795 75.5177 74.2816 74.3587 75.9529 72.3264C76.8257 71.2717 77.4806 70.0545 77.8799 68.745C77.9214 68.6363 77.9191 68.5157 77.8734 68.4086C77.8277 68.3015 77.7423 68.2163 77.6351 68.171C77.5278 68.1257 77.4072 68.1237 77.2986 68.1656C77.19 68.2074 77.1018 68.2898 77.0527 68.3953C76.4469 69.4856 75.7357 70.5139 74.9293 71.4654C73.6791 72.9553 71.9542 74.0607 70.171 73.3332C70.119 73.3066 70.0623 73.2906 70.0041 73.2861C69.9459 73.2816 69.8873 73.2886 69.8319 73.3068C69.7764 73.3249 69.725 73.3539 69.6808 73.392C69.6366 73.4301 69.6003 73.4765 69.5741 73.5287C69.522 73.634 69.5133 73.7555 69.5499 73.8671C69.5864 73.9787 69.6653 74.0715 69.7696 74.1256Z" fill="#191919"/>
<path d="M55.718 76.6241C57.0594 72.3105 61.5582 71.0546 64.5775 73.7167C64.6644 73.797 64.7791 73.8403 64.8973 73.8375C65.0156 73.8348 65.1282 73.7862 65.2112 73.702C65.2943 73.6178 65.3415 73.5046 65.3426 73.3864C65.3438 73.2681 65.299 73.154 65.2176 73.0681C61.5432 68.9866 55.639 71.3084 54.8475 76.4286C54.8273 76.5418 54.8516 76.6585 54.9152 76.7543C54.9789 76.85 55.077 76.9176 55.1892 76.9428C55.3014 76.968 55.419 76.9489 55.5175 76.8896C55.616 76.8302 55.6878 76.7351 55.718 76.6241Z" fill="#191919"/>
<path d="M86.4122 94.752C85.7077 95.7988 84.9085 96.7786 84.0246 97.6792C84.0537 96.123 83.9543 94.567 83.7276 93.0271C83.7298 92.9094 83.6852 92.7957 83.6036 92.7109C83.522 92.6261 83.41 92.5772 83.2924 92.575C83.1747 92.5727 83.061 92.6173 82.9762 92.6989C82.8914 92.7806 82.8425 92.8925 82.8402 93.0102C82.7979 93.2659 82.7462 93.53 82.7124 93.7857C82.5545 95.4344 82.6279 97.097 82.9305 98.7254C77.1025 103.958 69.9058 105.224 63.6858 103.101C63.5763 103.064 63.4564 103.07 63.3515 103.119C63.2465 103.168 63.1645 103.256 63.1227 103.364C63.081 103.472 63.0826 103.592 63.1273 103.698C63.1719 103.805 63.2562 103.891 63.3625 103.937C65.4972 104.844 67.7901 105.321 70.1096 105.34C72.429 105.359 74.7294 104.92 76.8788 104.048C81.2257 102.386 84.8629 99.2701 87.1718 95.2295C87.2351 95.1288 87.2558 95.0071 87.2294 94.8911C87.2029 94.7751 87.1315 94.6743 87.0308 94.611C86.93 94.5477 86.8083 94.527 86.6923 94.5534C86.5763 94.5799 86.4756 94.6513 86.4122 94.752Z" fill="#191919"/>
<path d="M81.874 80.3907C81.7714 79.8943 81.5298 79.4373 81.1774 79.0731C80.8249 78.7088 80.3762 78.4523 79.8835 78.3335C79.3907 78.2146 78.8744 78.2384 78.3946 78.4019C77.9149 78.5654 77.4915 78.862 77.174 79.257C76.9606 79.5294 76.8037 79.8417 76.7125 80.1755C76.6213 80.5093 76.5977 80.858 76.6429 81.2011C76.6882 81.5441 76.8015 81.8747 76.9761 82.1735C77.1507 82.4722 77.3832 82.7331 77.66 82.9409C78.0829 83.2615 78.5924 83.4477 79.1224 83.4754C79.6524 83.503 80.1785 83.3709 80.6326 83.0961C81.0867 82.8214 81.4478 82.4166 81.6691 81.9342C81.8904 81.4518 81.9618 80.9141 81.874 80.3907Z" fill="#191919"/>
<path d="M64.0264 83.8903C63.5366 81.0242 60.7166 80.0805 59.3452 82.0648C58.8639 82.8413 58.6632 83.7592 58.7764 84.6657C58.8897 85.5722 59.31 86.4126 59.9674 87.0468C61.9602 88.8544 64.5208 86.777 64.0264 83.8903Z" fill="#191919"/>
<path d="M74.421 91.3558C74.5836 91.3632 74.7404 91.418 74.8721 91.5136C75.0038 91.6092 75.1046 91.7414 75.1619 91.8937C75.2193 92.046 75.2307 92.2117 75.1948 92.3705C75.1589 92.5292 75.0772 92.6739 74.9599 92.7867C74.8425 92.8994 74.6947 92.9753 74.5347 93.0049C74.3746 93.0345 74.2095 93.0165 74.0596 92.9531C73.9097 92.8898 73.7816 92.7839 73.6913 92.6485C73.601 92.5131 73.5524 92.3542 73.5515 92.1915C73.5535 92.0794 73.5775 91.9689 73.6223 91.8662C73.6671 91.7634 73.7318 91.6706 73.8126 91.5929C73.8934 91.5153 73.9887 91.4544 74.0931 91.4137C74.1976 91.373 74.309 91.3533 74.421 91.3558Z" fill="#191919"/>
<path d="M69.4161 92.7714C69.5786 92.779 69.7354 92.834 69.8669 92.9297C69.9985 93.0254 70.0991 93.1576 70.1563 93.3099C70.2135 93.4622 70.2248 93.6279 70.1888 93.7866C70.1528 93.9452 70.071 94.0899 69.9537 94.2025C69.8363 94.3152 69.6885 94.391 69.5285 94.4205C69.3685 94.45 69.2034 94.432 69.0535 94.3686C68.9037 94.3053 68.7757 94.1993 68.6854 94.064C68.5952 93.9286 68.5466 93.7698 68.5457 93.6071C68.547 93.4948 68.5707 93.3838 68.6153 93.2808C68.66 93.1777 68.7247 93.0846 68.8057 93.0068C68.8867 92.929 68.9824 92.8681 69.0872 92.8277C69.192 92.7873 69.3038 92.7682 69.4161 92.7714Z" fill="#191919"/>
<path d="M18.6328 97.243C22.1036 93.4392 26.1148 90.1665 30.5379 87.53C30.591 87.5025 30.6381 87.4647 30.6764 87.4187C30.7147 87.3728 30.7434 87.3197 30.7609 87.2626C30.7784 87.2054 30.7843 87.1453 30.7783 87.0858C30.7723 87.0263 30.7545 86.9687 30.7259 86.9161C30.6673 86.812 30.5702 86.735 30.4554 86.7016C30.3407 86.6682 30.2174 86.6811 30.1121 86.7376C24.1431 89.5688 20.1622 93.2536 17.9259 96.7147C17.8877 96.7608 17.8592 96.8142 17.8423 96.8717C17.8253 96.9291 17.8202 96.9894 17.8273 97.0489C17.8344 97.1084 17.8535 97.1658 17.8834 97.2176C17.9134 97.2695 17.9536 97.3148 18.0015 97.3506C18.0495 97.3865 18.1043 97.4122 18.1625 97.4262C18.2207 97.4403 18.2812 97.4423 18.3403 97.4322C18.3993 97.4222 18.4557 97.4002 18.506 97.3677C18.5563 97.3351 18.5994 97.2927 18.6328 97.243Z" fill="#191919"/>
<path d="M10.8638 78.8228C12.3001 80.1348 13.5896 81.5992 14.7093 83.19C16.3252 85.6574 17.7588 88.2396 18.9985 90.9159C19.0427 91.0267 19.129 91.1154 19.2386 91.1626C19.3481 91.2097 19.4719 91.2114 19.5827 91.1673C19.6936 91.1232 19.7823 91.0368 19.8295 90.9273C19.8766 90.8177 19.8783 90.6939 19.8342 90.5831C19.4253 89.3893 18.9985 88.204 18.4787 87.044C17.4263 84.7077 16.0324 82.5408 14.3427 80.6144C13.4639 79.6685 12.4763 78.8299 11.4005 78.1159C11.3542 78.0802 11.3013 78.0541 11.2448 78.0391C11.1883 78.0241 11.1294 78.0204 11.0715 78.0284C11.0136 78.0364 10.9578 78.0558 10.9075 78.0855C10.8571 78.1152 10.8132 78.1546 10.7782 78.2014C10.7091 78.2959 10.6794 78.4135 10.6954 78.5294C10.7113 78.6453 10.7717 78.7505 10.8638 78.8228Z" fill="#191919"/>
<path d="M18.5087 72.693C21.4846 76.7478 23.637 81.3464 24.8443 86.229C24.866 86.3477 24.9339 86.453 25.0331 86.5217C25.1323 86.5904 25.2547 86.617 25.3735 86.5956C25.4904 86.5687 25.5927 86.4982 25.6592 86.3984C25.7258 86.2986 25.7517 86.1771 25.7317 86.0589C25.1133 80.8338 22.8219 75.9488 19.1996 72.1328C19.1626 72.0874 19.117 72.0498 19.0654 72.022C19.0138 71.9943 18.9573 71.977 18.899 71.9711C18.8407 71.9652 18.7819 71.9708 18.7258 71.9877C18.6697 72.0045 18.6175 72.0323 18.5721 72.0693C18.5268 72.1063 18.4891 72.1519 18.4614 72.2035C18.4337 72.2551 18.4164 72.3116 18.4105 72.3699C18.4046 72.4282 18.4102 72.487 18.4271 72.5431C18.4439 72.5992 18.4717 72.6514 18.5087 72.6967V72.693Z" fill="#191919"/>
<path d="M28.3055 70.4285C31.4075 80.322 32.8438 80.652 36.1075 95.5764C36.1187 95.6347 36.1412 95.6902 36.1739 95.7398C36.2065 95.7893 36.2487 95.832 36.2978 95.8653C36.347 95.8985 36.4022 95.9218 36.4604 95.9337C36.5185 95.9455 36.5785 95.9458 36.6367 95.9345C36.755 95.9119 36.8596 95.8438 36.9282 95.7448C36.9967 95.6458 37.0237 95.5239 37.0034 95.4053C34.7474 81.0346 31.744 77.3432 29.1581 70.155C29.1171 70.048 29.0367 69.9607 28.9333 69.9111C28.83 69.8615 28.7116 69.8534 28.6024 69.8884C28.4933 69.9235 28.4017 69.9989 28.3465 70.0994C28.2913 70.1998 28.2766 70.3176 28.3055 70.4285Z" fill="#191919"/>
<path d="M25.6048 113.686C21.6926 113.814 19.4648 113.327 17.8141 109.03C16.5094 105.67 16.2453 101.423 15.5374 98.7705C13.4234 91.1095 11.3563 89.5501 5.45218 84.4271C5.36306 84.3541 5.24922 84.3182 5.13435 84.3271C5.01949 84.3359 4.91246 84.3887 4.83554 84.4744C4.75862 84.5602 4.71774 84.6723 4.72142 84.7875C4.7251 84.9026 4.77304 85.0119 4.85528 85.0926C7.6264 87.6165 9.52802 89.2624 10.9784 91.2496C14.2506 95.7118 14.8221 102.05 15.4124 105.132C16.139 109.028 17.4212 113.24 21.1257 114.626C19.9404 120.622 14.3465 148.293 13.4506 152.063C13.4223 152.179 13.4415 152.302 13.5039 152.405C13.5663 152.507 13.6668 152.581 13.7834 152.609C13.8999 152.637 14.023 152.618 14.1254 152.556C14.2278 152.493 14.3012 152.393 14.3295 152.276C17.4626 140.195 18.8669 132.891 22.4634 114.73C23.5522 114.852 24.6534 114.802 25.727 114.584C25.786 114.576 25.8429 114.557 25.8943 114.527C25.9458 114.497 25.9908 114.457 26.0269 114.409C26.0629 114.362 26.0893 114.308 26.1044 114.25C26.1196 114.193 26.1233 114.133 26.1153 114.074C26.1072 114.015 26.0877 113.958 26.0577 113.906C26.0277 113.855 25.9879 113.81 25.9405 113.774C25.8931 113.738 25.839 113.711 25.7814 113.696C25.7239 113.681 25.6638 113.677 25.6048 113.686Z" fill="#191919"/>
<path d="M54.4769 98.512C53.7852 97.6101 52.9612 96.8178 52.0329 96.162C51.1398 95.4328 50.1233 94.8696 49.0315 94.4991C48.9392 94.4505 48.8327 94.4362 48.7309 94.4585C48.6291 94.4809 48.5384 94.5386 48.475 94.6213C43.994 94.4427 40.5104 95.7221 38.2487 97.5983C36.7882 97.1929 35.2412 97.2214 33.7965 97.6802C32.3519 98.1391 31.072 99.0085 30.113 100.182C29.0222 101.448 28.0781 102.832 27.2987 104.31C27.2387 104.412 27.2217 104.533 27.2513 104.648C27.2809 104.762 27.3547 104.86 27.4566 104.92C27.5584 104.98 27.6799 104.997 27.7943 104.967C27.9087 104.938 28.0067 104.864 28.0666 104.762C28.8982 103.413 29.8796 102.163 30.9919 101.035C33.0712 99.0036 35.3159 98.0655 38.2055 98.9801C39.0947 99.2752 39.1267 97.6895 43.5447 96.3537C45.3102 95.842 47.137 95.5723 48.9751 95.5519C50.2234 96.5182 49.7675 96.1479 50.3512 96.5793C47.134 97.4606 44.373 99.5337 42.6291 102.377C41.3601 104.615 41.0593 107.518 39.8496 109.521C38.5665 111.659 36.6395 112.276 34.0507 112.565C33.5982 112.623 33.1417 112.643 32.6858 112.625C32.5664 112.618 32.4487 112.657 32.3579 112.735C32.2671 112.813 32.2104 112.923 32.1998 113.043C32.1946 113.101 32.201 113.161 32.2188 113.217C32.2366 113.273 32.2653 113.326 32.3034 113.371C32.3415 113.416 32.3882 113.453 32.4408 113.48C32.4933 113.507 32.5508 113.524 32.6097 113.528C34.5683 113.704 36.5403 113.403 38.3568 112.65C37.8605 114.706 37.3435 116.758 36.8848 118.823C36.5351 120.409 31.0775 149.199 30.6347 151.425C30.6113 151.541 30.6341 151.662 30.6983 151.761C30.7626 151.861 30.8632 151.931 30.9787 151.958C31.0942 151.985 31.2155 151.965 31.3168 151.903C31.4181 151.842 31.4915 151.743 31.5212 151.629C34.2819 140.171 37.1348 123.21 39.4444 111.944C42.2738 109.669 42.2644 105.751 43.7891 103.023C45.4688 100.357 48.016 98.3512 51.0017 97.3436C50.5275 97.9247 50.1911 98.6057 50.0175 99.3354C49.9703 99.4423 49.9666 99.5635 50.0074 99.6731C50.0482 99.7826 50.1301 99.872 50.2358 99.922C50.3415 99.972 50.4625 99.9788 50.5731 99.9408C50.6837 99.9029 50.7751 99.8233 50.8278 99.7189C51.4275 98.8551 51.7725 98.1839 51.9981 97.8145C53.3987 98.8899 53.1421 98.6436 53.8659 99.1775C53.9557 99.248 54.0687 99.2819 54.1824 99.2727C54.2962 99.2634 54.4022 99.2116 54.4794 99.1275C54.5566 99.0434 54.5992 98.9334 54.5987 98.8193C54.5983 98.7051 54.5548 98.5954 54.4769 98.512Z" fill="#191919"/>
<path d="M127.567 55.3923C126.528 55.5145 125.49 55.5803 124.449 55.695C124.878 49.1346 125.867 42.623 127.406 36.2313C127.435 36.1172 127.42 35.9962 127.363 35.8931C127.306 35.79 127.211 35.7126 127.099 35.6767C126.985 35.645 126.863 35.6594 126.759 35.7169C126.655 35.7744 126.578 35.8704 126.545 35.9841C126.292 36.7925 125.999 37.5962 125.751 38.4403C124.131 44.0844 123.373 49.9409 123.503 55.8115C121.089 56.1297 118.708 56.6559 116.385 57.3841C116.562 52.7781 116.99 41.2481 117.659 36.6788C117.678 36.5613 117.651 36.441 117.582 36.3437C117.513 36.2464 117.409 36.1801 117.292 36.1589C117.234 36.1492 117.174 36.1513 117.117 36.165C117.059 36.1788 117.005 36.2039 116.957 36.239C116.909 36.274 116.869 36.3183 116.839 36.3691C116.809 36.4199 116.789 36.4763 116.781 36.5349C115.277 43.9553 115.16 50.1405 115.449 57.7254C114.508 58.122 113.589 58.5676 112.695 59.0602C112.588 59.1141 112.507 59.2077 112.468 59.3209C112.43 59.4342 112.438 59.5579 112.49 59.6655C112.544 59.7698 112.637 59.8487 112.748 59.8855C112.86 59.9222 112.981 59.9138 113.087 59.862C117.356 58.0591 122.561 57.3165 127.704 56.29C127.823 56.2719 127.93 56.2073 128.001 56.1103C128.072 56.0134 128.102 55.892 128.084 55.773C128.066 55.6539 128.002 55.547 127.905 55.4756C127.808 55.4042 127.686 55.3742 127.567 55.3923Z" fill="#191919"/>
<path d="M154.757 116.206C141.534 103.067 130.932 93.5611 122.031 82.6335C124.904 82.0019 127.461 79.7741 127.295 76.8488C127.295 76.788 127.284 76.7278 127.26 76.6717C127.237 76.6156 127.203 76.5648 127.159 76.5223C127.116 76.4798 127.064 76.4465 127.008 76.4243C126.951 76.4021 126.891 76.3916 126.83 76.3933C126.769 76.395 126.71 76.4089 126.654 76.4342C126.599 76.4595 126.55 76.4957 126.509 76.5406C126.468 76.5855 126.436 76.6381 126.416 76.6955C126.396 76.7528 126.388 76.8135 126.392 76.8742C126.38 77.5039 126.223 78.1225 125.933 78.6817C125.643 79.2408 125.227 79.7253 124.719 80.0974C122.745 81.6719 120.418 81.7396 117.951 81.3081C111.789 80.2647 107.775 77.0706 96.6133 83.0556C96.8605 82.3563 97.0588 81.7791 97.6473 80.4452C98.8147 79.5842 100.207 78.9027 101.45 78.0745C103.817 76.5066 104.705 74.8353 106.432 73.1113C110.208 69.2865 117.292 69.2414 120.289 73.3407C120.357 73.4404 120.462 73.5091 120.58 73.5317C120.698 73.5543 120.821 73.5288 120.921 73.461C121.02 73.3932 121.089 73.2886 121.112 73.1701C121.134 73.0516 121.109 72.9291 121.041 72.8293C118.638 69.1586 113.975 68.2036 109.815 69.5224C108.808 59.8132 107.747 49.4337 109.368 39.0279C109.388 38.9123 109.361 38.7937 109.294 38.6976C109.227 38.6015 109.124 38.5357 109.009 38.5143C108.894 38.493 108.775 38.5178 108.678 38.5835C108.581 38.6491 108.513 38.7503 108.49 38.8653C108.08 40.9615 107.705 43.0182 107.5 45.0824C106.644 53.5744 107.664 61.7994 108.925 69.843C104.847 71.5002 104.325 74.4386 100.762 77.1101C99.9691 77.7014 99.1212 78.256 98.3109 78.8303C98.3318 78.7274 98.3156 78.6204 98.2651 78.5283C98.2147 78.4362 98.1333 78.3649 98.0354 78.3271C97.9374 78.2893 97.8292 78.2873 97.73 78.3216C97.6307 78.3559 97.5468 78.4242 97.4931 78.5145C96.7242 79.393 96.1335 80.4127 95.7541 81.5168C95.3143 82.5845 95.0493 83.716 94.9692 84.8679C94.942 84.9856 94.9627 85.1092 95.0267 85.2117C95.0907 85.3141 95.1927 85.3869 95.3104 85.4141C95.4281 85.4412 95.5517 85.4206 95.6542 85.3566C95.7566 85.2926 95.8294 85.1905 95.8566 85.0728C95.9412 84.8228 96.0333 84.5784 96.1282 84.335C108.2 78.5549 111.1 81.4971 117.728 82.6138C118.809 82.8037 119.909 82.8614 121.003 82.7858C122.883 85.2054 124.751 87.6456 126.778 89.974C136.285 100.919 147.452 110.409 154.126 116.858C154.213 116.942 154.329 116.988 154.449 116.985C154.57 116.983 154.684 116.934 154.768 116.847C154.851 116.761 154.897 116.645 154.895 116.524C154.893 116.404 154.843 116.289 154.757 116.206Z" fill="#191919"/>
<path d="M182.308 115.631C179.784 109.069 173.272 102.532 167.998 97.9189C157.328 88.5762 144.895 81.1643 135.461 71.4306C136.424 66.5633 133.735 63.716 134.882 48.6196C135.157 44.964 135.728 40.1737 136.468 35.9211C136.481 35.8626 136.483 35.8019 136.472 35.7427C136.462 35.6834 136.44 35.6269 136.407 35.5765C136.374 35.5261 136.332 35.4828 136.282 35.4492C136.232 35.4156 136.176 35.3924 136.117 35.3809C136.058 35.3695 135.997 35.3701 135.938 35.3826C135.88 35.3952 135.824 35.4194 135.775 35.454C135.726 35.4885 135.684 35.5326 135.652 35.5837C135.62 35.6347 135.599 35.6916 135.59 35.751C134.639 39.9549 133.963 44.2166 133.569 48.5087C133.214 52.8181 133.185 57.1481 133.48 61.4619C133.566 62.6472 133.822 64.0544 134.069 65.5218C134.946 70.8534 135.062 74.386 129.983 75.3918C129.924 75.4013 129.869 75.4221 129.818 75.4532C129.768 75.4843 129.725 75.525 129.69 75.5729C129.656 75.6208 129.631 75.6751 129.617 75.7325C129.604 75.79 129.602 75.8495 129.611 75.9078C129.621 75.9661 129.642 76.0219 129.673 76.0721C129.704 76.1223 129.745 76.1659 129.792 76.2003C129.84 76.2348 129.895 76.2595 129.952 76.273C130.01 76.2866 130.069 76.2886 130.127 76.2791C131.27 76.2645 132.377 75.8841 133.288 75.1939C134.198 74.5037 134.863 73.5399 135.186 72.4439C147.823 85.6171 163.083 93.4059 174.579 106.245C178.486 110.615 183.826 118.153 181.367 123.455C177.872 130.997 165.535 137.273 157.003 138.352C156.884 138.367 156.775 138.428 156.7 138.522C156.625 138.616 156.59 138.736 156.603 138.856C156.62 138.976 156.683 139.084 156.778 139.159C156.873 139.233 156.993 139.268 157.114 139.256C166.265 138.222 178.784 131.909 182.544 124.009C183.74 121.455 183.408 118.513 182.308 115.631Z" fill="#191919"/>
<path d="M89.6112 122.852C91.9693 122.492 94.3567 122.36 96.7402 122.459C96.8601 122.458 96.9755 122.505 97.0611 122.589C97.1467 122.673 97.1954 122.787 97.1965 122.907C97.1977 123.027 97.1511 123.143 97.0671 123.228C96.9831 123.314 96.8685 123.363 96.7486 123.364C94.2576 123.323 91.7697 123.558 89.3301 124.063C89.1889 124.097 89.0401 124.075 88.9145 124.002C88.789 123.929 88.6964 123.811 88.6562 123.671C87.9126 121.12 86.6502 117.695 85.5692 114.597C85.5233 114.469 85.52 114.329 85.56 114.198C85.6 114.068 85.681 113.953 85.791 113.873C92.4932 108.782 95.6855 99.4905 94.1993 91.274C94.1677 91.1102 94.2019 90.9405 94.2944 90.8017C94.3869 90.6629 94.5304 90.5661 94.6938 90.5323C98.7536 89.7512 102.887 86.4029 103.349 82.3374C103.363 82.2206 103.421 82.1135 103.511 82.0387C103.602 81.9638 103.718 81.927 103.835 81.936C103.894 81.9415 103.952 81.9588 104.004 81.9867C104.056 82.0147 104.103 82.0528 104.14 82.0989C104.177 82.1449 104.205 82.198 104.222 82.2549C104.238 82.3119 104.243 82.3715 104.237 82.4305C103.861 86.8795 99.8187 90.46 95.5464 91.6321C96.9131 100.056 93.6758 109.321 86.951 114.623C87.9418 117.567 88.7596 119.786 89.6112 122.852Z" fill="#191919"/>
<path d="M101.629 75.3363C101.251 74.8727 100.748 74.5267 100.18 74.339C98.8888 73.9587 97.51 74.0035 96.2467 74.4668C96.8899 73.389 97.3105 72.1931 97.4835 70.9499C97.6566 69.7067 97.5787 68.4414 97.2543 67.2288C97.2322 67.1295 97.1791 67.0398 97.1028 66.9725C97.0265 66.9053 96.9308 66.8639 96.8295 66.8544C96.7283 66.8449 96.6266 66.8677 96.5391 66.9196C96.4516 66.9715 96.3828 67.0498 96.3425 67.1433C95.6723 68.7178 93.0685 67.258 93.0845 65.8639C93.1522 60.7729 100.814 59.5471 94.1674 52.1399C94.0852 52.0517 93.9761 51.9933 93.8572 51.9737C93.7382 51.9541 93.6162 51.9744 93.51 52.0316C93.4039 52.0887 93.3197 52.1794 93.2706 52.2895C93.2215 52.3996 93.2103 52.5229 93.2387 52.64C93.3833 53.2025 93.3138 53.7987 93.0435 54.3128C92.7733 54.8269 92.3216 55.2222 91.7762 55.4219C91.2309 55.6217 90.6307 55.6116 90.0924 55.3937C89.554 55.1758 89.1158 54.7656 88.863 54.2427C88.1683 52.8788 90.0333 50.4545 90.273 48.8283C90.837 44.9658 87.8675 41.971 84.5756 39.9077C84.4603 39.8378 84.325 39.8079 84.191 39.8228C84.0569 39.8377 83.9315 39.8964 83.8343 39.9899C83.7371 40.0834 83.6734 40.2063 83.6533 40.3397C83.6332 40.4731 83.6577 40.6094 83.723 40.7274C84.8031 42.6328 82.3995 44.0174 80.5082 43.9845C77.1308 43.9027 73.6613 39.6417 68.4245 39.4903C66.7428 39.4214 65.0678 39.7407 63.5294 40.4236C61.9911 41.1065 60.6307 42.1345 59.5537 43.428C58.2114 45.026 57.3513 47.4785 55.4864 48.0932C54.223 48.5237 53.9147 46.2809 52.5526 45.3672C49.4506 43.3547 46.1606 45.3851 43.6066 48.0537C43.5011 48.1625 43.4358 48.304 43.4218 48.4549C43.4077 48.6058 43.4456 48.7569 43.5292 48.8833C43.6128 49.0097 43.737 49.1037 43.8814 49.1498C44.0258 49.1959 44.1816 49.1912 44.3229 49.1366C44.7083 48.9909 45.7395 48.6253 46.0967 48.8302C46.1529 48.8837 46.1865 48.9567 46.1907 49.0342C46.4727 50.3605 43.977 54.4862 43.7862 55.0727C42.6262 58.5507 44.9236 60.1337 45.3635 62.0475C45.4568 62.4668 45.4506 62.902 45.3456 63.3185C45.2406 63.7349 45.0397 64.121 44.7588 64.4459C44.4779 64.7708 44.1249 65.0255 43.728 65.1897C43.3311 65.3538 42.9013 65.4228 42.473 65.3911C41.8971 65.3275 41.3537 65.0916 40.914 64.7143C40.4743 64.3369 40.1586 63.8357 40.0083 63.2761C39.9754 63.1612 39.9125 63.0571 39.8261 62.9744C39.7397 62.8918 39.6329 62.8336 39.5166 62.8058C39.4004 62.7779 39.2788 62.7815 39.1643 62.8161C39.0499 62.8507 38.9467 62.915 38.8653 63.0026C37.6858 64.397 37.0667 66.1801 37.1282 68.0055C37.1897 69.8308 37.9274 71.5682 39.198 72.8801C40.4952 74.2468 42.6441 74.9603 42.7973 76.7256C43.0116 78.82 39.856 79.9216 39.5477 77.5021C39.5296 77.358 39.465 77.2238 39.3638 77.1197C39.2626 77.0157 39.1303 76.9474 38.9868 76.9252C38.8433 76.903 38.6965 76.9281 38.5686 76.9967C38.4407 77.0654 38.3386 77.1738 38.2778 77.3056C37.7454 78.6318 37.7055 80.1049 38.1654 81.4579C38.6253 82.811 39.5545 83.9547 40.7848 84.6818C44.2449 86.8344 47.8197 85.8474 49.0351 89.6102C47.8085 89.9967 46.7607 90.8097 46.0817 91.9019C45.7864 92.4001 45.5648 92.9383 45.4237 93.4999C45.3832 93.6074 45.3857 93.7263 45.4308 93.832C45.4759 93.9376 45.56 94.0217 45.6656 94.0668C45.7712 94.1119 45.8901 94.1145 45.9976 94.074C46.1051 94.0336 46.1928 93.9532 46.2424 93.8496C46.3439 93.6701 46.4633 93.5169 46.5827 93.3467C48.8791 90.1319 49.5719 90.8614 52.2011 90.9112C52.3022 90.9145 52.4028 90.8949 52.4953 90.854C52.5878 90.813 52.6699 90.7518 52.7355 90.6747C52.8011 90.5977 52.8484 90.5068 52.8741 90.4089C52.8997 90.3111 52.9029 90.2087 52.8835 90.1094C52.3345 87.4313 51.7029 84.2005 50.9819 81.3175C50.0419 77.5575 52.5216 73.9602 51.0928 70.172C60.7081 72.2766 61.8633 60.536 68.1585 58.3317C72.3415 56.8493 74.136 63.0242 69.7274 63.3541C69.5881 63.3685 69.4581 63.4305 69.3592 63.5296C69.2603 63.6287 69.1987 63.7589 69.1847 63.8982C69.1706 64.0374 69.2051 64.1773 69.2822 64.2941C69.3593 64.411 69.4744 64.4976 69.608 64.5395C71.0831 64.9951 72.6662 64.9596 74.1194 64.4384C75.5726 63.9171 76.8174 62.9383 77.6666 61.649C78.6545 65.6778 81.7255 69.639 85.9217 69.5798C86.0218 69.5803 86.12 69.5521 86.2045 69.4985C86.2891 69.4449 86.3564 69.3681 86.3986 69.2773C86.4408 69.1865 86.456 69.0855 86.4425 68.9863C86.4289 68.8871 86.3871 68.7939 86.3221 68.7178C86.0304 68.4124 85.8216 68.0374 85.7156 67.6286C85.6097 67.2197 85.6101 66.7905 85.7168 66.3819C85.9048 65.8498 86.1764 65.8564 86.4584 66.066C87.3721 66.7447 88.3732 70.3299 88.6759 71.6431C89.2728 74.2694 89.5971 77.033 90.0915 79.4545C90.1099 79.5392 90.1513 79.6173 90.2113 79.68C90.2712 79.7427 90.3473 79.7876 90.4312 79.8097C90.5151 79.8317 90.6035 79.8302 90.6865 79.8052C90.7696 79.7801 90.8441 79.7326 90.9018 79.6678C92.8185 77.3451 96.806 74.8005 99.8722 75.4134C100.276 75.4922 100.652 75.6746 100.965 75.9426C101.046 76.0299 101.159 76.0815 101.279 76.0862C101.399 76.091 101.515 76.0485 101.604 75.968C101.647 75.9283 101.682 75.8804 101.707 75.8271C101.732 75.7738 101.745 75.7161 101.748 75.6574C101.75 75.5987 101.741 75.5401 101.721 75.485C101.7 75.4299 101.669 75.3794 101.629 75.3363Z" fill="#191919"/>
<path d="M81.2942 116.943C81.2737 116.888 81.2424 116.837 81.2021 116.793C81.1618 116.75 81.1133 116.715 81.0594 116.69C81.0055 116.666 80.9473 116.652 80.888 116.65C80.8288 116.648 80.7697 116.658 80.7142 116.678C73.166 118.705 68.6409 119.855 62.5845 114.256C59.4603 111.348 57.2192 107.618 56.1182 103.494C56.1004 103.41 56.0648 103.33 56.0138 103.261C55.9627 103.192 55.8974 103.134 55.8223 103.092C55.7472 103.05 55.6639 103.024 55.5781 103.017C55.4923 103.01 55.4059 103.021 55.3248 103.05C52.2811 104.135 49.2496 103.486 47.3424 100.888C47.3088 100.84 47.2661 100.799 47.2166 100.767C47.1672 100.736 47.112 100.714 47.0542 100.704C46.9964 100.694 46.9372 100.695 46.8798 100.707C46.8225 100.72 46.7682 100.744 46.7201 100.777C46.6719 100.811 46.6309 100.854 46.5993 100.903C46.5676 100.953 46.546 101.008 46.5357 101.066C46.5254 101.123 46.5266 101.183 46.5392 101.24C46.5518 101.297 46.5756 101.352 46.6092 101.4C47.5131 102.74 48.825 103.754 50.3505 104.29C51.8759 104.827 53.5336 104.857 55.0776 104.377C57.1456 112.474 65.1187 120.806 73.6163 119.59C74.1286 121.304 75.5612 126.096 75.7482 126.787C74.0901 128.017 70.7719 129.215 69.3186 130.634C69.2314 130.717 69.181 130.832 69.1785 130.953C69.176 131.074 69.2217 131.191 69.3055 131.279C69.3892 131.366 69.5042 131.416 69.6252 131.419C69.7461 131.421 69.8631 131.375 69.9503 131.292C71.3678 129.989 75.1485 128.754 76.7719 127.455C76.855 127.386 76.9174 127.295 76.9521 127.192C76.9868 127.09 76.9924 126.98 76.9683 126.875C76.3301 124.106 75.5349 121.592 74.8853 119.308C76.4333 119.211 77.9562 118.869 79.3973 118.296C79.9613 118.066 80.4887 117.793 81.0263 117.529C81.138 117.485 81.2283 117.399 81.2783 117.29C81.3282 117.181 81.334 117.057 81.2942 116.943Z" fill="#191919"/>
<path d="M156.416 146.572C155.645 137.059 152.427 123.885 149.423 114.978C149.378 114.848 149.292 114.735 149.179 114.655C149.066 114.576 148.931 114.533 148.793 114.534C137.864 114.449 126.374 115.698 115.492 117.238C110.708 117.931 105.584 119.807 100.816 119.889C100.669 119.894 100.528 119.948 100.415 120.043C100.302 120.137 100.224 120.266 100.194 120.41C98.0166 131.107 90.7626 141.09 79.8972 139.196C77.4287 138.764 75.1511 137.399 73.0154 136.118C67.4374 132.745 67.475 130.718 66.535 131.042C55.2832 135.001 47.235 142.836 38.993 151.278C38.9307 151.342 38.8891 151.424 38.8739 151.512C38.8586 151.6 38.8703 151.691 38.9075 151.772C39.1011 152.203 30.8075 152.881 155.788 147.296C155.877 147.291 155.964 147.267 156.044 147.228C156.124 147.188 156.195 147.133 156.254 147.066C156.312 146.999 156.357 146.92 156.385 146.835C156.413 146.751 156.423 146.661 156.416 146.572Z" fill="#CB7428"/>
</svg>
