<svg width="222" height="166" viewBox="0 0 222 166" fill="none" xmlns="http://www.w3.org/2000/svg">
<path d="M220.121 118.01C213.118 105.3 198.135 99.0499 184.871 95.266C175.156 92.5155 165.25 90.4911 155.236 89.2094C131.206 86.1403 106.314 86.7338 97.0396 88.2146C95.0485 88.5326 90.2259 89.2094 90.2259 89.2094C90.2259 89.2094 100.463 92.8752 105.004 96.0231C106.318 96.8998 109.783 100.086 109.783 100.086H111.239C111.239 100.086 111.734 99.6888 112.611 101.998C119.463 95.9035 127.11 92.7162 135.555 90.5252C143.003 88.575 159.495 89.1716 160.211 90.2466C160.45 90.6055 163.636 97.6962 163.597 97.6962C165.688 97.4843 167.795 97.4707 169.89 97.6553C170.607 98.0536 172.639 104.228 172.918 104.148C175.436 103.561 178.024 103.333 180.605 103.471C181.323 103.791 193.591 125.778 195.701 130.238C196.817 132.59 201.478 145.057 201.478 145.057C201.478 145.057 185.027 143.345 180.327 142.666C175.945 142.07 150.253 141.391 135.914 144.698C132.567 145.455 117.232 149.241 116.954 149.836C116.077 151.47 113.807 153.979 112.014 154.019C106.318 154.139 105.681 149.757 105.76 149.796C103.177 148.856 100.544 148.059 97.8739 147.407C94.6063 146.689 79.1923 140.357 46.8471 142.468C42.5046 142.747 20.7569 144.857 20.3496 145.734C23.0589 139.677 25.7808 133.621 28.5154 127.564C31.0258 122.027 41.104 103.386 40.8239 103.306C43.314 103.522 45.814 103.602 48.3128 103.545C48.3128 103.545 50.8627 99.283 51.6591 98.2459C52.6948 96.9316 59.1072 97.2495 58.9088 97.8476C59.4267 96.3744 59.9445 94.8602 60.4608 93.387C23.337 99.7206 -5.93898 120.074 1.03214 134.214C8.28035 148.914 25.4886 155.844 73.7262 162.735C115.631 168.546 158.321 163.963 198.038 149.391C209.368 145.295 227.977 132.266 220.121 118.01Z" fill="#CB7428"/>
<path d="M68.7377 88.8008C66.8757 89.1434 65.4689 89.5492 64.3423 90.1293C63.2064 90.7143 62.37 91.4689 61.6368 92.4844C60.9109 93.4898 60.2867 94.7508 59.5702 96.34C59.3207 96.8933 59.0602 97.486 58.7798 98.1241C58.2487 99.3322 57.6462 100.703 56.9118 102.277L56.9115 102.278C50.9182 115.179 48.1594 121.18 46.7337 124.517C45.5501 127.289 45.279 128.241 44.8476 129.757C44.7568 130.076 44.6588 130.42 44.5438 130.811L44.3301 131.538L45.0396 131.273C56.2622 127.073 68.4682 126.247 80.1543 128.896L80.1548 128.897C90.8679 131.311 102.349 135.994 110.57 143.344C110.713 143.475 110.743 143.593 110.739 143.682C110.734 143.782 110.683 143.897 110.579 143.997C110.368 144.202 110.047 144.257 109.789 144.045L109.789 144.045L109.781 144.039C101.038 137.244 90.9115 132.448 80.1146 129.989C67.8562 127.164 55.0289 128.128 43.3306 132.754C43.2149 132.796 43.1526 132.776 43.1184 132.757C43.0744 132.733 43.0231 132.678 42.9898 132.584C42.9172 132.38 42.9781 132.163 43.1215 132.064L43.1291 132.059L43.1364 132.053C43.3787 131.868 43.555 131.583 43.689 131.297C43.8267 131.003 43.939 130.664 44.0336 130.332C44.1284 129.999 44.2088 129.66 44.2789 129.364C44.3503 129.062 44.4087 128.815 44.463 128.643C44.9171 127.28 45.4187 125.935 45.9669 124.608L45.9677 124.606C47.3582 121.191 56.6343 100.648 59.7833 93.8319L59.7892 93.8191L59.7942 93.806C60.2027 92.7159 60.8295 91.7206 61.636 90.8812C62.4408 90.0436 63.4076 89.3786 64.4777 88.9269C66.8203 88.0536 69.2774 87.5252 71.7719 87.3583L71.7835 87.3575L71.7949 87.3561C77.9725 86.5622 84.2464 87.0138 90.2466 88.6841C96.246 90.3542 101.85 93.2089 106.729 97.0798C106.726 97.0906 106.719 97.1109 106.701 97.135C106.676 97.1672 106.648 97.1826 106.633 97.1868C106.627 97.1885 106.625 97.1881 106.624 97.1881C106.624 97.188 106.624 97.188 106.623 97.1878C106.623 97.1877 106.622 97.1875 106.621 97.1871C106.62 97.1867 106.618 97.1858 106.615 97.1843C101.185 93.326 95.0364 90.5959 88.5327 89.1554C82.0245 87.714 75.2933 87.5934 68.7377 88.8008ZM68.7377 88.8008L68.8062 89.1731M68.7377 88.8008L68.8062 89.1731M68.8062 89.1731C75.312 87.9749 81.9921 88.0946 88.4509 89.525C94.9096 90.9555 101.016 93.6677 106.407 97.5009L109.549 144.338C110.424 145.056 111.699 143.861 110.824 143.063C102.538 135.654 90.9884 130.95 80.238 128.527C68.6332 125.896 56.5189 126.671 45.3491 130.755C45.3237 130.842 45.2974 130.932 45.2701 131.025L44.9069 130.918L44.7743 130.564C44.8624 130.531 44.9505 130.498 45.0387 130.465C45.1004 130.251 45.1574 130.051 45.2117 129.86C46.1619 126.521 46.3124 125.993 57.2548 102.437C57.9907 100.86 58.5971 99.4803 59.1294 98.2695C61.8453 92.0905 62.6279 90.31 68.8062 89.1731Z" fill="#191919" stroke="#2A2929" stroke-width="0.757073"/>
<path d="M124.67 133.478L124.667 133.48C120.394 135.796 115.657 138.544 112.972 142.593L112.972 142.593C112.906 142.691 112.907 142.759 112.918 142.804C112.932 142.858 112.972 142.922 113.049 142.976C113.213 143.092 113.424 143.095 113.562 142.974L113.564 142.973C121.244 136.373 130.103 131.076 140.183 128.988C152.372 126.462 165.338 127.987 177.128 131.583C177.239 131.611 177.354 131.61 177.464 131.58C177.577 131.55 177.679 131.491 177.761 131.408C177.843 131.326 177.902 131.224 177.932 131.112C177.962 131.001 177.963 130.884 177.934 130.773C174.709 119.615 170.383 108.806 165.019 98.5041L164.609 97.7162L165.461 97.966C166.722 98.3356 168.028 98.5312 169.342 98.5474L169.583 98.5503L169.682 98.77C171.712 103.263 178.568 118.178 183.242 128.347C185.803 133.919 187.71 138.066 187.809 138.294L188.087 138.936L187.398 138.818C185.423 138.481 183.466 138.103 181.514 137.726C177.443 136.939 173.394 136.157 169.255 135.754L169.254 135.754C149.199 133.737 129.186 136.274 111.495 146.178C111.487 146.184 111.481 146.193 111.479 146.202C111.477 146.213 111.478 146.224 111.484 146.234C111.49 146.243 111.499 146.25 111.51 146.252C111.52 146.255 111.532 146.253 111.541 146.247L111.552 146.241L111.563 146.235C123.006 140.232 135.617 136.793 148.523 136.155C163.325 135.289 173.051 137.293 181.327 138.997C183.935 139.535 186.399 140.042 188.832 140.421L188.847 140.423L188.861 140.427C188.974 140.453 189.092 140.451 189.204 140.419C189.315 140.387 189.417 140.327 189.499 140.245C189.581 140.163 189.641 140.061 189.673 139.95C189.705 139.838 189.707 139.72 189.681 139.607L189.679 139.598L189.679 139.598C189.569 139.077 189.152 138.017 188.538 136.63C187.93 135.258 187.148 133.605 186.332 131.919C185.562 130.327 184.76 128.703 184.049 127.262C183.256 125.657 182.577 124.28 182.178 123.429M124.67 133.478L182.178 123.429M124.67 133.478C129.302 130.915 134.268 129.011 139.426 127.82L124.67 133.478ZM182.178 123.429C180.338 119.528 176.665 111.618 173.86 105.578C172.101 101.789 170.683 98.7355 170.273 97.8682M182.178 123.429L170.273 97.8682M170.273 97.8682C170.239 97.8072 170.188 97.7569 170.127 97.7229C170.066 97.6888 169.996 97.6725 169.927 97.6755C168.528 97.8373 167.112 97.7955 165.725 97.5514L165.711 97.5488L165.696 97.5451C165.349 97.4555 164.995 97.392 164.638 97.3552L164.438 97.3347L164.343 97.1583C163.657 95.8854 163.093 94.8094 162.62 93.9069C162.352 93.3957 162.113 92.9401 161.898 92.5359C161.295 91.4048 160.877 90.6778 160.499 90.1946C160.133 89.7277 159.819 89.5096 159.423 89.3819C158.995 89.2443 158.457 89.205 157.602 89.1513L157.595 89.151L157.595 89.1509C140.704 87.8169 127.7 89.2984 114.951 100.019C124.088 93.5887 134.926 89.9997 146.103 89.7094L146.108 89.7093C147.496 89.6894 150.455 89.7798 153.2 89.9643C154.573 90.0566 155.899 90.173 156.953 90.3119C157.479 90.3813 157.944 90.4572 158.316 90.54C158.668 90.6186 158.992 90.7146 159.193 90.8474L159.196 90.8499C159.316 90.9313 159.434 91.0722 159.539 91.2111C159.653 91.3628 159.786 91.5587 159.933 91.7902C160.227 92.2538 160.591 92.8795 161.004 93.6223C161.83 95.109 162.861 97.0816 163.932 99.202C166.074 103.441 168.389 108.289 169.568 111.05C169.568 111.05 169.569 111.051 169.569 111.051L169.221 111.2L170.273 97.8682Z" fill="#191919" stroke="#2A2929" stroke-width="0.757073"/>
<path d="M50.6889 98.7671L50.69 98.7653C51.1596 97.9784 51.9374 97.5046 52.8674 97.2274C53.7985 96.95 54.8488 96.8803 55.8104 96.88C55.8664 96.8819 55.9217 96.8946 55.973 96.9174C56.0256 96.9407 56.073 96.9742 56.1126 97.0158C56.1523 97.0575 56.1833 97.1066 56.204 97.1602C56.2246 97.2139 56.2345 97.2711 56.2331 97.3286C56.2316 97.386 56.2189 97.4427 56.1956 97.4952C56.1722 97.5478 56.1388 97.5952 56.0971 97.6349C56.0555 97.6745 56.0064 97.7055 55.9528 97.7262C55.8991 97.7468 55.8419 97.7567 55.7844 97.7553L55.7725 97.755L55.7606 97.7555C54.4056 97.8068 53.0771 98.146 51.8633 98.7503L51.7904 98.7866L51.7389 98.8496C51.6977 98.9 51.6447 98.9828 51.592 99.0685C51.5341 99.1624 51.4612 99.285 51.3757 99.432C51.2044 99.7263 50.9784 100.125 50.7126 100.599C50.1807 101.549 49.4867 102.809 48.7471 104.161C47.2678 106.866 45.6043 109.944 44.6877 111.658L44.687 111.66C44.1126 112.744 43.5279 113.834 42.9397 114.931C39.2141 121.88 35.3486 129.089 33.0668 136.658L32.8716 137.305L33.5254 137.133C58.8765 130.468 85.8003 133.469 109.062 145.552L109.067 145.555C109.15 145.596 109.165 145.638 109.17 145.662C109.177 145.699 109.171 145.761 109.13 145.83C109.09 145.898 109.03 145.948 108.97 145.97C108.917 145.99 108.852 145.995 108.768 145.953L108.765 145.951C84.9816 134.37 57.8186 131.758 32.2649 138.596C32.1695 138.62 32.0696 138.619 31.9748 138.593C31.8792 138.566 31.7921 138.516 31.722 138.446C31.6518 138.375 31.6012 138.288 31.5748 138.193C31.5497 138.101 31.5476 138.005 31.5689 137.913C35.8325 125.262 47.9125 103.363 50.6889 98.7671Z" fill="#191919" stroke="#2A2929" stroke-width="0.757073"/>
<path d="M180.679 103.053L180.699 103.054L180.718 103.052C180.846 103.043 180.973 103.065 181.09 103.116C181.203 103.166 181.303 103.243 181.381 103.339C188.217 113.23 197.672 132.963 202.324 144.991L202.325 144.992C202.393 145.167 202.382 145.261 202.368 145.303C202.356 145.343 202.325 145.389 202.241 145.437C202.053 145.544 201.709 145.591 201.319 145.554C199.601 145.39 197.898 145.225 196.209 145.061C175.303 143.034 156.466 141.207 136.171 144.801C129.642 145.927 123.248 147.737 117.097 150.2L116.935 150.265L116.879 150.43C116.369 151.925 115.32 153.177 113.937 153.942C112.558 154.705 110.944 154.928 109.41 154.568C108.466 154.274 107.606 153.757 106.904 153.061C106.198 152.362 105.672 151.503 105.37 150.556L105.305 150.353L105.098 150.303C104.386 150.132 103.39 149.795 102.087 149.353C96.2866 147.389 84.4107 143.365 64.5499 142.804C49.7406 142.373 21.8331 145.358 20.5071 145.558C20.1955 145.605 19.9549 145.615 19.7763 145.599C19.5943 145.582 19.5089 145.539 19.4737 145.512C19.4523 145.495 19.4336 145.473 19.429 145.408C19.4233 145.328 19.4423 145.196 19.5209 144.996C22.3915 137.844 25.5497 130.811 28.9879 123.914L28.9885 123.913C29.5539 122.77 30.112 121.617 30.6711 120.463C33.5512 114.518 36.4553 108.523 40.498 103.387C40.7157 103.111 40.8638 102.999 40.964 102.949C41.0533 102.905 41.1325 102.895 41.2681 102.894C43.2182 102.991 45.16 103.213 47.0814 103.561C47.0937 103.566 47.1045 103.574 47.1127 103.585C47.1228 103.598 47.1283 103.614 47.1283 103.631C47.1283 103.647 47.1228 103.664 47.1127 103.677C47.1068 103.685 47.0995 103.691 47.0912 103.696C45.153 103.853 43.2053 103.851 41.2673 103.692L41.0154 103.671L40.8997 103.896C39.3921 106.823 37.9279 109.501 36.4391 112.223C32.1036 120.15 27.5594 128.459 21.1285 144.437L20.876 145.065L21.5428 144.952C44.4203 141.082 73.8236 140.181 96.3352 146.696L96.3402 146.697C97.9271 147.133 100.418 147.877 102.545 148.616C103.609 148.986 104.574 149.351 105.286 149.673C105.643 149.835 105.926 149.981 106.123 150.106C106.222 150.169 106.29 150.221 106.332 150.261C106.347 150.274 106.356 150.285 106.362 150.291C106.56 151.002 106.928 151.654 107.435 152.19C107.951 152.736 108.594 153.146 109.307 153.382L109.321 153.387L109.335 153.39C110.822 153.759 112.392 153.581 113.76 152.889C115.085 152.219 116.135 151.11 116.731 149.753C119.714 148.227 122.882 147.094 126.156 146.382L126.168 146.38L126.179 146.376C147.856 140.186 177.755 141.145 200.42 144.913L201.083 145.023L200.833 144.399C194.5 128.564 189.753 119.93 185.312 111.853C183.89 109.269 182.501 106.741 181.1 104.053L181.006 103.872L180.803 103.852C180.37 103.808 179.81 103.841 179.258 103.875L179.182 103.88C178.639 103.914 178.091 103.948 177.599 103.93V103.93L177.589 103.93C176.344 103.917 175.102 103.826 173.869 103.657C173.869 103.656 173.868 103.654 173.868 103.652C173.865 103.643 173.864 103.631 173.864 103.616C173.865 103.584 173.875 103.555 173.887 103.535C173.893 103.526 173.899 103.521 173.902 103.519C175.04 103.294 176.195 103.165 177.355 103.133L177.364 103.133L177.374 103.132C178.473 103.046 179.577 103.02 180.679 103.053Z" fill="#191919" stroke="#2A2929" stroke-width="0.757073"/>
<path d="M111.239 142.365C108.102 129.187 113.122 110.362 111.239 100.949" stroke="#2A2929" stroke-width="1.50604" stroke-linecap="round"/>
<path d="M123.388 14.6448C128.622 8.04262 136.934 3.43459 145.828 1.45845C154.722 -0.517734 164.151 0.148572 171.61 4.03427C181.228 9.04605 187.309 20.0033 188.963 31.6522C190.617 43.3005 187.829 55.5298 179.852 63.0671C175.093 67.5633 169.313 70.7425 162.302 71.9118C155.289 73.0816 147.02 72.2439 137.281 68.665L137.065 68.5856L136.895 68.7408C132.155 73.0683 125.805 77.3461 119.522 78.4302L119.521 78.4301L119.514 78.4314C119.438 78.4462 119.358 78.4386 119.286 78.4097C119.213 78.3807 119.15 78.3315 119.105 78.268C119.059 78.2045 119.033 78.1292 119.029 78.0512C119.025 77.9734 119.043 77.8961 119.082 77.8283C121.548 73.5473 126.404 64.2879 127.901 59.4554L127.98 59.2026L127.769 59.0422C121.492 54.2639 117.971 46.2251 117.24 37.8215C116.508 29.418 118.574 20.7171 123.388 14.6448ZM123.388 14.6448L123.091 14.4096M123.388 14.6448L123.091 14.4096M123.091 14.4096C133.69 1.04123 156.673 -4.17349 171.785 3.69855M123.091 14.4096C113.319 26.7378 114.771 49.6226 127.54 59.3434L171.785 3.69855M171.785 3.69855C191.303 13.8691 196.299 48.0479 180.112 63.3422L171.785 3.69855ZM120.738 76.632L120.268 77.4558L136.154 66.9959L136.416 67.2684C136.417 67.2681 136.417 67.2678 136.417 67.2675C136.512 67.1765 136.631 67.1138 136.759 67.0868C136.888 67.0596 137.023 67.0694 137.146 67.1149L137.148 67.1156C151.817 72.4205 167.056 72.6261 178.562 61.7044L178.562 61.7044C186.094 54.5523 188.638 42.9049 187.073 31.9133C185.508 20.9223 179.818 10.4684 170.729 5.72355C163.639 2.022 154.654 1.42211 146.208 3.28958C137.762 5.15712 129.806 9.50325 124.783 15.7579L124.783 15.7579C120.109 21.5769 118.13 30.0305 118.824 38.1174C119.518 46.2034 122.893 54.0009 129.026 58.4698L129.028 58.4709C129.128 58.543 129.203 58.6441 129.244 58.7606C129.285 58.8768 129.289 59.0027 129.256 59.1213C128.628 61.3503 127.09 64.695 125.403 68.0161C123.721 71.3282 121.905 74.5869 120.738 76.632Z" fill="#191919" stroke="#2A2929" stroke-width="0.757073"/>
<path d="M165.39 20.8168L165.39 20.8169L165.401 20.8201C166.704 21.1812 167.871 21.9214 168.752 22.9466C169.634 23.9719 170.19 25.2359 170.352 26.5783C170.481 27.6599 170.5 28.7517 170.409 29.8371C170.054 33.1199 168.732 36.2235 166.612 38.7544L166.604 38.7635L166.597 38.773C163.667 42.7514 157.381 48.2043 153.573 51.3486C153.51 51.3987 153.434 51.4294 153.354 51.4371C153.274 51.4448 153.193 51.4288 153.121 51.3909L153.121 51.3908L153.113 51.3866C150.644 50.157 148.29 48.7088 146.08 47.0591C144.333 45.7364 142.271 43.9096 140.532 41.893C138.788 39.8692 137.402 37.6907 136.957 35.6633C136.585 33.8548 136.597 31.9882 136.992 30.1844C137.386 28.3832 138.153 26.6847 139.245 25.1986C142.019 21.8393 146.322 21.8786 149.682 24.214C150.659 24.9316 151.575 25.7273 152.422 26.5934L152.742 26.9199L153.003 26.5454C156.093 22.1201 160.476 19.2891 165.39 20.8168Z" fill="#CB7428" stroke="#2A2929" stroke-width="0.757073"/>
</svg>
