<svg width="188" height="188" viewBox="0 0 188 188" fill="none" xmlns="http://www.w3.org/2000/svg">
<path d="M133.244 83.9921C132.745 84.1921 132.206 84.2729 131.671 84.2282C131.135 84.1835 130.617 84.0145 130.159 83.7346C129.584 83.4056 129.106 82.9317 128.772 82.3602C128.438 81.7886 128.26 81.1394 128.255 80.4775C128.234 80.3649 128.258 80.2486 128.322 80.1538C128.387 80.0591 128.486 79.9936 128.598 79.9717C128.71 79.9532 128.825 79.9785 128.919 80.0423C129.014 80.1062 129.08 80.2037 129.104 80.3148C129.27 80.7931 129.507 81.2437 129.807 81.6515C130.723 82.9675 131.758 82.9619 133.218 82.835C133.679 82.773 133.998 82.6714 134.136 83.0145C134.326 83.4366 133.662 83.79 133.244 83.9921Z" fill="#2A2929"/>
<path d="M132.822 66.6462C132.419 66.2127 131.913 65.8879 131.351 65.702C130.789 65.5162 130.189 65.4753 129.607 65.5831C129.118 65.6602 128.742 65.9102 128.545 65.5145C128.28 65.0069 129.197 64.5923 129.736 64.409C130.471 64.2265 131.243 64.2608 131.959 64.5076C132.675 64.7545 133.304 65.2035 133.77 65.8002C133.989 66.0916 134.435 66.9997 134.01 67.2573C133.691 67.449 132.916 66.7402 132.822 66.6462Z" fill="#2A2929"/>
<path d="M128.577 69.9191C128.345 70.3891 128.937 71.1533 129.893 71.6111C130.853 72.0914 131.813 72.0999 132.044 71.6289C132.276 71.158 131.684 70.4069 130.728 69.9313C129.772 69.4557 128.808 69.4472 128.577 69.9191Z" fill="#2A2929"/>
<path d="M117.818 75.3825C117.966 74.9551 118.218 74.5713 118.552 74.266C118.886 73.9607 119.29 73.7435 119.729 73.6341C119.951 73.5801 120.178 73.5455 120.406 73.5307C121.294 73.4356 122.19 73.5902 122.995 73.9772C123.074 74.01 123.146 74.0601 123.204 74.1238C123.262 74.1875 123.305 74.2633 123.33 74.3457C123.624 75.307 123.525 76.3456 123.055 77.2343C123.055 77.3057 123.035 77.3757 122.999 77.4373C122.963 77.4989 122.911 77.5498 122.849 77.5849C122.441 77.8845 121.966 78.0783 121.465 78.1489C122.652 87.3609 126.502 98.5018 132.419 106.22C137.379 100.142 139.922 92.4481 139.563 84.6114C139.555 84.5035 139.591 84.3968 139.661 84.3148C139.732 84.2328 139.832 84.1823 139.94 84.1743C140.048 84.1663 140.155 84.2016 140.237 84.2723C140.319 84.343 140.369 84.4433 140.377 84.5513C140.519 85.7893 140.59 87.0342 140.592 88.2802C140.545 95.3754 137.544 102.15 132.912 107.711C132.887 107.741 132.86 107.769 132.83 107.794C132.949 111.174 132.779 114.557 132.322 117.908C132.127 119.147 131.867 120.374 131.541 121.585C131.518 121.694 131.452 121.788 131.36 121.849C131.267 121.91 131.155 121.932 131.046 121.91C130.937 121.889 130.841 121.826 130.778 121.735C130.716 121.644 130.691 121.532 130.709 121.423C131.455 115.756 131.514 109.364 131.774 107.562C125.424 99.4879 121.609 88.6685 120.575 78.1724C118.994 78.0277 117.406 76.9279 117.818 75.3825ZM119.301 76.2905C120.16 76.8779 121.213 77.1115 122.241 76.9429C122.468 76.3164 122.483 75.6328 122.283 74.9971C119.714 74.3203 118.628 75.6175 119.301 76.2905Z" fill="#2A2929"/>
<path d="M177.629 122.764C176.946 122.988 175.589 123.51 174.594 123.956C170.579 125.653 166.912 128.076 163.778 131.105C162.418 132.334 161.102 133.608 159.83 134.927C159.754 135.009 159.65 135.06 159.538 135.068C159.427 135.076 159.317 135.041 159.23 134.97C159.188 134.933 159.154 134.889 159.129 134.838C159.105 134.788 159.09 134.734 159.087 134.678C159.084 134.622 159.092 134.566 159.11 134.513C159.129 134.461 159.158 134.412 159.195 134.371C163.943 128.304 169.595 124.384 174.127 122.764C175.203 122.396 176.311 122.129 177.436 121.967C177.54 121.943 177.65 121.961 177.741 122.018C177.833 122.074 177.899 122.163 177.925 122.267C177.949 122.372 177.932 122.483 177.877 122.576C177.822 122.668 177.733 122.736 177.629 122.764Z" fill="#2A2929"/>
<path d="M157.51 132.598C154.76 129.749 151.249 127.747 147.764 125.87C142.855 123.264 138.421 121.279 132.944 120.307C132.835 120.292 132.724 120.32 132.635 120.384C132.545 120.449 132.484 120.545 132.463 120.653C132.442 120.761 132.464 120.873 132.523 120.966C132.582 121.059 132.674 121.126 132.781 121.153C136.63 122.025 140.346 123.406 143.83 125.259C147.222 126.911 150.486 128.814 153.596 130.952C157.228 133.63 157.061 134.66 157.873 134.509C157.988 134.484 158.094 134.429 158.183 134.351C158.271 134.274 158.339 134.175 158.378 134.064C159.149 131.951 160.342 130.017 161.885 128.38C165.347 124.823 169.369 121.855 173.79 119.595C173.839 119.575 173.885 119.545 173.923 119.507C173.961 119.47 173.991 119.425 174.012 119.375C174.032 119.326 174.043 119.273 174.043 119.219C174.043 119.166 174.033 119.113 174.013 119.063C173.969 118.964 173.888 118.885 173.787 118.845C173.686 118.805 173.573 118.807 173.473 118.85C172.015 119.422 170.605 120.109 169.256 120.906C164.71 123.445 159.54 127.84 157.51 132.598Z" fill="#2A2929"/>
<path d="M154.929 134.841C153.754 133.958 152.523 133.154 151.243 132.433C144.63 128.549 135.429 125.472 128.005 123.673C127.898 123.646 127.806 123.578 127.748 123.484C127.69 123.391 127.671 123.278 127.694 123.17C127.717 123.063 127.781 122.968 127.873 122.907C127.964 122.845 128.076 122.822 128.185 122.841C133.755 123.755 139.193 125.347 144.377 127.581C148.68 129.461 152.424 131.118 155.469 134.233C155.55 134.305 155.599 134.405 155.605 134.513C155.611 134.621 155.575 134.727 155.503 134.807C155.431 134.888 155.331 134.937 155.223 134.943C155.115 134.949 155.009 134.913 154.929 134.841Z" fill="#2A2929"/>
<path d="M182.249 136.521C180.709 135.579 179.01 134.928 177.235 134.601C176.595 134.453 176.156 134.446 176.172 134.01C176.205 133.553 176.669 133.564 177.337 133.564C179.29 133.541 181.188 134.208 182.695 135.45C183.165 136.014 183.466 136.378 183.192 136.667C182.952 136.934 182.7 136.761 182.249 136.521Z" fill="#2A2929"/>
<path d="M180.448 138.923C178.767 138.359 179.328 138.101 174.98 136.875C174.387 136.699 173.873 136.705 173.908 136.223C173.96 135.761 174.492 135.816 175.142 135.838C177.157 135.98 179.098 136.659 180.762 137.804C181.333 138.329 181.65 138.642 181.42 138.961C181.212 139.264 180.95 139.111 180.448 138.923Z" fill="#2A2929"/>
<path d="M176.917 140.949C176.629 140.88 176.349 140.776 176.085 140.641C174.826 140.113 173.554 139.733 173.402 139.681C172.122 139.225 171.871 139.182 171.929 138.781C171.992 138.346 172.447 138.405 173.008 138.429C174.571 138.579 176.08 139.077 177.426 139.886C177.909 140.321 178.227 140.577 178.042 140.889C177.87 141.201 177.574 141.121 176.917 140.949Z" fill="#2A2929"/>
<path d="M172.524 142.632C170.626 141.999 169.93 141.837 170.003 141.338C170.076 140.948 170.446 140.978 170.943 140.978C172.137 141.026 173.297 141.382 174.312 142.012C174.697 142.347 174.99 142.632 174.81 142.937C174.523 143.52 173.14 142.838 172.524 142.632Z" fill="#2A2929"/>
<path d="M107.459 131.108C108.366 130.392 109.385 129.83 110.475 129.445C111.618 129.033 112.842 128.898 114.047 129.052C117.674 129.499 121.122 130.885 124.05 133.071C124.099 133.101 124.142 133.14 124.175 133.187C124.209 133.233 124.233 133.286 124.246 133.342C124.258 133.399 124.26 133.457 124.249 133.513C124.239 133.57 124.217 133.624 124.186 133.672C124.154 133.72 124.113 133.761 124.065 133.793C124.017 133.824 123.963 133.846 123.906 133.856C123.85 133.867 123.792 133.866 123.735 133.853C123.679 133.84 123.626 133.816 123.58 133.783C120.58 132.055 117.288 130.896 113.868 130.363C113.068 130.259 112.256 130.311 111.476 130.517C110.244 130.873 109.036 131.308 107.859 131.82C107.765 131.866 107.658 131.874 107.558 131.843C107.458 131.812 107.374 131.744 107.323 131.653C107.271 131.562 107.257 131.455 107.282 131.354C107.307 131.252 107.371 131.165 107.459 131.108Z" fill="#2A2929"/>
<path d="M114.996 133.469C117.277 133.961 119.433 134.915 121.331 136.272C122.012 136.782 122.399 137.003 122.155 137.395C121.818 137.947 121.357 137.319 117.766 135.766C116.463 135.202 115.169 134.848 114.354 134.455C113.917 134.267 113.482 134.144 113.574 133.76C113.646 133.399 114.002 133.361 114.996 133.469Z" fill="#2A2929"/>
<path d="M114.868 138.126C115.842 138.384 116.787 138.743 117.688 139.196C118.64 139.601 119.534 140.131 120.345 140.774C120.878 141.196 121.309 141.509 121.04 141.879C120.77 142.25 120.52 142.022 119.017 141.296C115.562 139.617 115.365 139.717 114.431 139.214C113.745 138.792 113.404 138.662 113.539 138.274C113.675 137.887 114.173 137.992 114.868 138.126Z" fill="#2A2929"/>
<path d="M115.18 143.372C116.767 144.023 118.306 144.785 119.786 145.652C119.876 145.717 119.987 145.744 120.097 145.727C120.207 145.711 120.305 145.652 120.372 145.564C120.439 145.476 120.469 145.365 120.456 145.255C120.443 145.145 120.387 145.044 120.301 144.975C118.827 143.783 117.193 142.802 115.449 142.061C114.952 141.837 115.251 142.006 106.519 145.712C106.416 145.747 106.331 145.82 106.28 145.915C106.229 146.011 106.216 146.122 106.244 146.227C106.259 146.278 106.284 146.326 106.317 146.368C106.351 146.41 106.392 146.444 106.439 146.47C106.487 146.495 106.538 146.511 106.592 146.516C106.645 146.522 106.699 146.516 106.75 146.5C109.543 146.034 110.937 145.245 115.18 143.372Z" fill="#2A2929"/>
<path d="M114.946 124.144C109.676 128.154 110.998 126.91 106.7 130.581C106.16 131.045 104.368 132.535 104.017 132.853C103.935 132.934 103.825 132.979 103.71 132.978C103.595 132.977 103.485 132.931 103.404 132.849C103.323 132.767 103.278 132.656 103.279 132.541C103.28 132.426 103.326 132.316 103.408 132.236C104.18 131.405 104.942 130.556 105.758 129.75C108.034 127.548 110.557 125.618 113.278 123.998C113.697 123.792 114.109 123.622 114.546 123.441C114.592 123.414 114.643 123.397 114.696 123.391C114.749 123.384 114.803 123.387 114.854 123.401C114.905 123.415 114.953 123.439 114.996 123.472C115.038 123.504 115.073 123.545 115.099 123.591C115.126 123.637 115.143 123.688 115.15 123.741C115.157 123.794 115.153 123.847 115.139 123.898C115.125 123.95 115.101 123.998 115.069 124.04C115.036 124.082 114.996 124.118 114.95 124.144H114.946Z" fill="#2A2929"/>
<path d="M132.923 119.37C132.932 119.307 132.955 119.247 132.989 119.194C133.023 119.141 133.068 119.096 133.121 119.061C133.231 118.012 133.319 116.96 133.387 115.907C133.558 113.301 133.635 110.704 133.806 108.105C133.814 107.974 133.873 107.851 133.969 107.762C136.21 105.584 137.998 102.986 139.233 100.117C140.47 97.237 141.253 94.1835 141.556 91.0644C141.567 90.9528 141.607 90.8462 141.674 90.7557C141.74 90.6652 141.829 90.5942 141.932 90.5502C142.035 90.5038 142.148 90.4865 142.26 90.5001C142.372 90.5137 142.478 90.5577 142.567 90.6273C143.393 91.2749 144.178 91.9734 144.917 92.7188C146.005 93.8336 147.008 95.0415 147.959 96.225C151.749 100.831 154.49 106.207 155.991 111.979C157.349 117.749 157.793 123.695 157.307 129.603C157.299 129.733 157.253 129.859 157.175 129.964C157.096 130.069 156.989 130.148 156.865 130.192C156.742 130.236 156.608 130.242 156.481 130.21C156.354 130.179 156.239 130.11 156.151 130.013C155.277 129.066 154.309 128.211 153.262 127.459C152.191 126.706 151.078 126.014 149.93 125.387C148.457 124.576 146.943 123.841 145.395 123.184C143.856 122.528 142.272 121.984 140.655 121.555C140.558 121.531 140.469 121.486 140.393 121.422C140.317 121.358 140.257 121.278 140.218 121.187C140.181 121.096 140.165 120.998 140.171 120.901C140.177 120.803 140.205 120.708 140.252 120.623C140.484 120.194 140.698 119.757 140.895 119.32C141.093 118.883 141.298 118.42 141.487 117.957C141.775 117.324 142.024 116.674 142.232 116.011C142.351 115.614 142.417 115.203 142.429 114.789C142.273 114.84 142.129 114.925 142.009 115.037C141.847 115.259 141.709 115.498 141.597 115.749C141.409 116.186 141.255 116.657 141.075 117.085C140.74 117.891 140.423 118.714 140.046 119.52C139.801 120.07 139.52 120.604 139.206 121.118C139.148 121.226 139.051 121.308 138.935 121.348C138.819 121.387 138.692 121.382 138.58 121.332C137.733 120.97 136.866 120.658 135.983 120.398C135.097 120.15 134.195 119.961 133.283 119.834C133.229 119.828 133.176 119.812 133.128 119.785C133.08 119.758 133.037 119.722 133.004 119.679C132.97 119.635 132.946 119.586 132.932 119.533C132.918 119.479 132.915 119.424 132.923 119.37Z" fill="#CB7428"/>
<path d="M129.654 99.1214C131.038 98.1854 132.192 96.9489 133.031 95.5042C133.33 95.0728 133.538 94.5852 133.643 94.0711C133.747 93.557 133.747 93.027 133.641 92.5132C133.619 92.4591 133.61 92.4009 133.614 92.3429C133.619 92.2849 133.636 92.2286 133.666 92.1785C133.693 92.127 133.73 92.0819 133.776 92.0464C133.822 92.0108 133.875 91.9857 133.932 91.9727C134.749 91.6656 135.513 91.2316 136.195 90.6867C136.859 90.1762 137.401 89.5232 137.78 88.7757C137.85 88.6403 137.967 88.5346 138.108 88.478C138.25 88.4214 138.407 88.4176 138.551 88.4674C138.697 88.5151 138.821 88.6147 138.898 88.7475C138.976 88.8802 139.002 89.0368 138.971 89.1874C138.929 89.4525 138.869 89.7185 138.809 89.9846C138.671 90.5674 138.509 91.1502 138.372 91.7414C137.862 93.9249 137.2 96.0702 136.392 98.1616C135.566 100.275 134.477 102.276 133.152 104.118C133.09 104.206 133.008 104.277 132.912 104.325C132.816 104.373 132.71 104.396 132.603 104.393C132.497 104.388 132.394 104.359 132.301 104.307C132.209 104.255 132.13 104.181 132.072 104.093L129.466 99.9786C129.38 99.8392 129.352 99.6719 129.387 99.5121C129.422 99.3522 129.518 99.2122 129.654 99.1214Z" fill="#CB7428"/>
<path d="M55.9635 139.026C55.9767 138.95 56.0082 138.879 56.0552 138.818C56.1021 138.757 56.1632 138.709 56.2331 138.676C56.303 138.644 56.3797 138.63 56.4566 138.634C56.5334 138.638 56.6081 138.661 56.6742 138.7C58.4981 139.853 60.5371 140.624 62.6676 140.966C64.7981 141.308 66.9759 141.213 69.069 140.689C70.7196 140.043 72.2247 139.074 73.4964 137.839C74.7681 136.604 75.7808 135.128 76.4753 133.497C77.1193 131.861 77.4142 130.108 77.3409 128.351C77.2676 126.594 76.8278 124.871 76.0497 123.294C75.2716 121.717 74.1724 120.32 72.8226 119.193C71.4728 118.065 69.9022 117.233 68.2117 116.748C66.5677 116.202 64.8137 116.073 63.1074 116.372C61.401 116.671 59.7957 117.39 58.4357 118.463C58.3335 118.548 58.2071 118.599 58.0744 118.608C57.9417 118.617 57.8095 118.584 57.6966 118.514C57.5837 118.444 57.4957 118.34 57.4453 118.217C57.3949 118.093 57.3846 117.958 57.4158 117.828C59.622 108.271 71.3278 97.4228 83.702 96.5006C79.7897 101.959 77.2338 110.095 75.3567 115.95C75.335 116.004 75.3244 116.061 75.3254 116.119C75.3263 116.176 75.339 116.233 75.3624 116.286C75.3859 116.338 75.4198 116.386 75.462 116.425C75.5042 116.464 75.5539 116.495 75.6081 116.514C75.6623 116.534 75.72 116.542 75.7775 116.539C75.8351 116.536 75.8914 116.521 75.9432 116.496C75.9949 116.47 76.041 116.435 76.0786 116.391C76.1163 116.347 76.1447 116.297 76.1622 116.242C78.736 109.756 79.8198 106.753 81.4507 103.23C82.4769 100.831 83.7677 98.5547 85.299 96.4424C92.9977 88.6234 108.277 81.58 118.669 85.3767C118.811 85.431 118.931 85.5316 119.008 85.6622C119.086 85.7929 119.118 85.946 119.098 86.0967C118.375 91.1408 121.976 96.1904 126.204 98.9973C126.276 99.0451 126.339 99.1068 126.387 99.1788C126.435 99.2507 126.469 99.3315 126.486 99.4165C127.07 102.322 128.443 105.989 131.071 107.345C131.182 107.404 131.274 107.492 131.337 107.599C131.401 107.707 131.433 107.83 131.431 107.955C131.338 111.65 130.974 115.334 130.343 118.977C130.322 119.091 130.273 119.199 130.199 119.288C130.126 119.378 130.031 119.448 129.923 119.491C129.223 119.754 128.426 120.128 128.62 120.846C128.646 120.94 128.651 121.039 128.634 121.135C128.617 121.231 128.579 121.323 128.522 121.402C128.465 121.482 128.392 121.548 128.306 121.596C128.221 121.643 128.126 121.671 128.029 121.678C126.962 121.743 125.615 122.416 126.006 123.451C126.045 123.554 126.058 123.666 126.043 123.775C126.028 123.884 125.986 123.988 125.92 124.077C125.855 124.166 125.768 124.236 125.668 124.283C125.568 124.329 125.458 124.35 125.348 124.343L123.454 124.215C123.059 125.645 122.801 127.112 122.442 128.552C122.123 129.829 122.077 130.037 121.739 130.206C121.202 130.421 121.203 129.977 118.405 129.246C114.512 128.278 113.587 128.656 113.399 127.874C113.218 127.15 114.193 127.055 115.233 125.595C115.857 124.71 116.262 123.572 115.362 122.971C114.82 122.644 114.174 122.534 113.554 122.663C110.081 123.313 107.64 125.518 105.204 128.055C105.111 128.151 104.99 128.216 104.858 128.241C104.726 128.265 104.589 128.248 104.468 128.192C104.332 128.096 104.178 128.029 104.015 127.995C103.852 127.962 103.684 127.962 103.521 127.997C103.358 128.031 103.205 128.099 103.07 128.196C102.934 128.293 102.821 128.417 102.736 128.56C101.171 130.898 102.424 137.768 103.027 140.492C103.626 143.174 104.408 145.812 105.367 148.388C105.417 148.525 105.417 148.676 105.367 148.813C105.317 148.951 105.22 149.066 105.094 149.14C98.492 152.982 89.4256 154.072 82.182 151.479C79.6365 150.566 77.0186 149.51 75.3332 147.373C73.1336 147.946 70.6604 147.561 68.4242 147.331C64.2857 146.893 60.1985 146.06 56.2183 144.845C56.1302 144.815 56.0518 144.762 55.9914 144.691C55.931 144.62 55.8908 144.534 55.8752 144.443C55.6242 142.643 55.654 140.816 55.9635 139.026ZM84.0977 132.62C84.1412 132.725 84.2242 132.808 84.3287 132.851C84.4332 132.894 84.5505 132.894 84.6551 132.851C88.4339 131.513 100.276 127.3 103.838 127.648C103.891 127.659 103.945 127.658 103.998 127.647C104.05 127.636 104.101 127.615 104.145 127.585C104.19 127.555 104.228 127.516 104.257 127.471C104.287 127.426 104.307 127.376 104.318 127.323C104.328 127.27 104.327 127.216 104.316 127.163C104.306 127.11 104.284 127.06 104.254 127.015C104.224 126.971 104.185 126.933 104.14 126.903C104.095 126.873 104.045 126.853 103.992 126.843C101.912 126.25 100.067 126.677 98.0436 127.206C99.1406 125.48 100.063 123.65 100.799 121.742C102.629 117.222 102.791 115.632 102.975 114.147C103.001 114.042 102.984 113.93 102.927 113.837C102.871 113.744 102.78 113.676 102.675 113.65C102.623 113.637 102.569 113.635 102.517 113.643C102.464 113.651 102.414 113.67 102.368 113.698C102.323 113.726 102.284 113.762 102.252 113.806C102.221 113.849 102.199 113.898 102.187 113.95C100.191 119.16 100.15 120.695 96.6683 127.564C92.4253 128.677 88.2968 130.188 84.3374 132.076C84.2853 132.095 84.2376 132.125 84.1971 132.163C84.1567 132.202 84.1243 132.248 84.102 132.299C84.0796 132.35 84.0677 132.405 84.067 132.46C84.0663 132.516 84.0767 132.571 84.0977 132.623V132.62Z" fill="#CB7428"/>
<path d="M55.5536 124.789C59.7113 116.124 72.1399 116.271 75.2767 125.561C76.1799 128.295 75.9987 131.272 74.7703 133.877C73.542 136.481 71.3604 138.515 68.676 139.557C59.5345 143.042 51.3236 133.614 55.5536 124.789ZM61.4756 133.217C61.7078 133.537 61.9625 133.331 62.4523 133.2C62.6352 133.157 62.8219 133.131 63.0097 133.123C64.7807 132.971 65.8071 134.497 66.3523 133.98C66.687 133.663 66.1427 132.852 65.9322 132.703C65.5012 132.34 64.9937 132.078 64.4476 131.939C63.9015 131.799 63.3309 131.785 62.7785 131.897C62.2079 132.04 61.0893 132.714 61.4756 133.217ZM60.4726 130.887C61.06 130.318 61.7691 129.89 62.5463 129.636C63.4475 129.329 64.4241 129.323 65.3288 129.62C66.2334 129.917 67.017 130.5 67.5612 131.281C67.8769 131.67 68.1688 132.078 68.4354 132.503C68.4747 132.601 68.5506 132.681 68.6471 132.724C68.7437 132.768 68.8535 132.773 68.9534 132.737C69.0533 132.702 69.1355 132.629 69.1829 132.534C69.2302 132.439 69.2389 132.329 69.2071 132.228C68.999 131.231 68.5028 130.316 67.7801 129.597C67.0574 128.879 66.1398 128.388 65.1409 128.185C64.142 127.983 63.1057 128.078 62.1602 128.458C61.2147 128.838 60.4015 129.488 59.8212 130.326C59.7468 130.412 59.7099 130.525 59.7186 130.639C59.7274 130.753 59.781 130.859 59.8678 130.933C59.9545 131.008 60.0673 131.045 60.1812 131.036C60.2952 131.027 60.401 130.974 60.4755 130.887H60.4726ZM58.4836 128.468C58.5781 128.531 58.6928 128.555 58.8044 128.535C58.916 128.516 59.016 128.455 59.0843 128.365C59.9973 127.091 61.2594 126.109 62.7183 125.536C64.0285 125.177 65.4196 125.248 66.6865 125.739C67.9534 126.229 69.0291 127.114 69.7551 128.262C70.1607 128.826 70.5028 129.432 70.775 130.071C70.8031 130.175 70.871 130.264 70.964 130.319C71.057 130.373 71.1678 130.389 71.2723 130.362C71.3235 130.349 71.3717 130.327 71.4141 130.295C71.4565 130.263 71.4922 130.224 71.5193 130.178C71.5463 130.133 71.5642 130.083 71.5718 130.03C71.5794 129.978 71.5767 129.925 71.5637 129.874C70.9179 125.445 66.1662 123.087 62.3235 124.302C60.64 124.997 59.2497 126.254 58.3896 127.859C58.3243 127.954 58.2979 128.07 58.3159 128.183C58.334 128.297 58.395 128.399 58.4864 128.468H58.4836Z" fill="#2A2929"/>
<path d="M46.9001 154.719C46.9122 154.631 46.9417 154.547 46.9869 154.471C47.0321 154.395 47.0919 154.328 47.163 154.276C47.2341 154.223 47.315 154.186 47.401 154.165C47.4869 154.144 47.5761 154.14 47.6633 154.155C53.2253 155.105 64.3615 157.942 65.466 158.174C69.6161 157.168 81.587 155.73 87.0663 154.874C87.2335 154.846 87.4049 154.885 87.5431 154.983C87.6814 155.081 87.7752 155.23 87.8042 155.397C88.0375 156.678 88.1922 157.971 88.2676 159.271C91.316 159.315 116.186 160.095 119.927 160.181C121.918 160.228 126.965 159.963 128.611 158.715C128.729 158.646 128.825 158.545 128.889 158.424C128.952 158.303 128.981 158.166 128.971 158.029C126.767 157.089 116.033 157.069 114.176 156.855C112.045 156.581 108.796 155.814 109.41 153.761C110.421 150.391 123.91 151.812 126.725 149.124C126.803 149.055 126.905 149.02 127.009 149.024C127.113 149.029 127.211 149.073 127.283 149.148C127.356 149.222 127.396 149.322 127.397 149.426C127.399 149.53 127.36 149.63 127.289 149.706C124.176 152.777 111.215 152.226 110.66 154.129C110.574 154.453 111.149 154.732 111.457 154.866C114.364 156.147 119.619 155.382 126.715 156.221C127.592 156.296 128.46 156.462 129.303 156.718C129.497 156.772 129.677 156.867 129.831 156.997C129.985 157.127 130.109 157.288 130.195 157.47C130.675 158.858 129.672 159.938 127.838 160.556C125.244 161.229 122.571 161.544 119.892 161.49C116.678 161.405 93.2524 160.33 88.1275 160.126C87.8681 160.446 89.6099 160.093 65.7997 162.818C65.7997 162.818 49.0339 158.969 47.4396 158.652C47.3055 158.627 47.1832 158.559 47.0906 158.459C46.998 158.358 46.9402 158.231 46.9255 158.095C46.7859 156.974 46.7774 155.841 46.9001 154.719Z" fill="#2A2929"/>
<path d="M51.1601 153.684C54.7932 153.191 55.9852 152.076 71.0468 150.727C71.1171 150.714 71.1896 150.72 71.2571 150.743C71.3245 150.767 71.3846 150.808 71.4312 150.862C72.9273 150.977 74.4162 151.172 75.8915 151.445C78.0996 151.801 80.2705 152.358 82.3775 153.108C83.4717 153.595 83.8815 153.804 83.7405 154.205C83.5826 154.625 83.1399 154.451 82.0175 154.214C81.759 154.159 81.4949 154.103 81.2373 154.034C75.8577 152.653 76.7676 153 73.8489 152.371C73.7549 152.349 70.8964 151.674 70.8005 151.639C67.1185 152.64 64.8437 152.618 60.0845 153.298C57.617 153.639 54.9042 154.247 51.2645 154.532C51.152 154.546 51.0387 154.515 50.9494 154.445C50.8601 154.375 50.8022 154.273 50.7884 154.16C50.7745 154.048 50.8059 153.935 50.8756 153.845C50.9454 153.756 51.0477 153.698 51.1601 153.684Z" fill="#2A2929"/>
<path d="M122.53 142.942C122.833 142.626 123.013 142.213 123.038 141.776C123.063 141.34 122.932 140.908 122.668 140.559C122.609 140.474 122.573 140.375 122.563 140.272C122.553 140.169 122.569 140.065 122.61 139.97C122.651 139.875 122.716 139.792 122.798 139.729C122.88 139.666 122.976 139.624 123.078 139.608C124.66 139.385 125.881 138.057 125.307 136.48C125.279 136.399 125.268 136.313 125.275 136.228C125.281 136.142 125.305 136.059 125.346 135.984C125.386 135.908 125.441 135.841 125.509 135.788C125.576 135.735 125.653 135.696 125.736 135.674C126.901 135.361 127.512 134.946 126.91 133.908C125.885 132.453 124.523 131.268 122.941 130.454C122.815 130.39 122.714 130.287 122.654 130.16C122.593 130.033 122.577 129.889 122.608 129.751L123.482 125.92C123.517 125.767 123.607 125.631 123.735 125.54C123.863 125.448 124.02 125.407 124.176 125.423C133.698 126.452 148.129 132.828 156.576 137.294C156.903 137.445 157.252 137.54 157.61 137.576C158.084 137.617 158.561 137.608 159.033 137.551C165.282 131.535 172.851 128.225 180.419 124.333C180.55 124.269 180.699 124.25 180.842 124.278C180.985 124.306 181.115 124.38 181.212 124.488C181.309 124.597 181.368 124.734 181.379 124.88C181.391 125.025 181.355 125.17 181.277 125.293C180.226 126.878 178.833 129.284 177.943 130.813C177.271 131.974 175.354 132.34 175.354 133.222C175.355 133.352 175.317 133.479 175.245 133.588C175.173 133.696 175.071 133.78 174.95 133.83C174.129 134.168 173.194 134.802 173.194 135.69C173.2 135.826 173.161 135.96 173.083 136.071C173.006 136.182 172.894 136.265 172.765 136.307C171.941 136.589 170.603 137.379 170.785 138.236C170.818 138.376 170.802 138.523 170.739 138.652C170.677 138.782 170.572 138.886 170.442 138.947C168.987 139.666 167.911 141.354 169.22 142.425C169.3 142.492 169.362 142.578 169.401 142.675C169.44 142.772 169.454 142.877 169.442 142.981C169.43 143.085 169.392 143.184 169.333 143.269C169.273 143.355 169.193 143.424 169.1 143.472C163.437 146.588 158.719 151.175 155.445 156.748C155.201 157.14 155.008 156.806 153.603 157.066C153.115 157.147 152.634 157.264 152.163 157.417V157.443C152.098 157.466 152.028 157.471 151.96 157.458C151.892 157.444 151.829 157.412 151.778 157.366C143.018 150.572 133.787 149.239 124.494 146.368C124.403 146.338 124.32 146.288 124.251 146.221C124.183 146.154 124.131 146.072 124.1 145.981C123.845 145.14 123.314 144.409 122.592 143.908C122.513 143.857 122.447 143.788 122.399 143.707C122.352 143.625 122.324 143.534 122.318 143.44C122.312 143.347 122.328 143.253 122.365 143.166C122.402 143.08 122.459 143.003 122.53 142.942ZM155.978 151.684C156.033 151.697 156.089 151.699 156.144 151.69C156.198 151.681 156.251 151.661 156.298 151.631C156.345 151.602 156.386 151.563 156.418 151.518C156.45 151.472 156.473 151.421 156.485 151.367C156.75 150.484 157.042 149.635 157.291 148.753C157.524 147.929 158.767 142.729 158.91 141.398C158.944 141.029 158.954 140.669 158.97 140.301C158.99 140.197 158.969 140.089 158.911 140.001C158.853 139.912 158.762 139.849 158.659 139.826C158.556 139.803 158.447 139.82 158.357 139.875C158.266 139.93 158.2 140.018 158.173 140.12C158.045 140.481 157.899 140.807 157.779 141.154C157.403 142.247 156.194 147.795 156.073 148.474C155.91 149.374 155.791 150.266 155.653 151.175C155.641 151.23 155.64 151.286 155.65 151.341C155.66 151.397 155.68 151.449 155.71 151.497C155.741 151.544 155.78 151.585 155.826 151.617C155.872 151.649 155.924 151.671 155.978 151.683V151.684ZM152.594 155.59C152.731 154.621 152.911 153.661 153.074 152.693C154.638 143.557 154.492 146.366 155.037 142.158C155.053 142.106 155.058 142.05 155.053 141.996C155.047 141.941 155.03 141.888 155.003 141.839C154.977 141.791 154.94 141.749 154.897 141.715C154.853 141.681 154.803 141.657 154.75 141.643C154.697 141.629 154.641 141.626 154.586 141.634C154.532 141.642 154.48 141.661 154.433 141.69C154.386 141.719 154.345 141.757 154.313 141.803C154.282 141.848 154.259 141.899 154.248 141.953C154.06 142.407 153.872 142.844 153.7 143.307C152.505 147.275 151.848 151.385 151.746 155.527C151.742 155.637 151.78 155.745 151.854 155.827C151.928 155.909 152.03 155.959 152.14 155.967C152.25 155.975 152.359 155.941 152.444 155.87C152.528 155.799 152.582 155.699 152.594 155.589V155.59Z" fill="#2A2929"/>
<path d="M48.9736 112.483C38.0236 111.213 37.5799 109.495 37.1879 110.349C37.1394 110.45 37.133 110.566 37.17 110.672C37.207 110.778 37.2844 110.865 37.3853 110.913C41.1585 112.894 44.8809 113.312 49.171 113.827C49.2835 113.843 49.3981 113.83 49.5035 113.787C49.6089 113.745 49.7014 113.676 49.7717 113.587C50.7978 112.344 51.9401 111.202 53.183 110.176C53.2285 110.148 53.2682 110.112 53.2998 110.069C53.3313 110.026 53.3541 109.977 53.3669 109.926C53.3796 109.874 53.3821 109.82 53.374 109.768C53.366 109.715 53.3477 109.665 53.3202 109.619C53.2624 109.527 53.172 109.461 53.0672 109.434C52.9624 109.407 52.8512 109.421 52.7562 109.472C51.2768 110.166 49.9812 111.197 48.9736 112.483Z" fill="#2A2929"/>
<path d="M28.7148 93.407C26.4899 98.8717 24.8187 104.546 23.7262 110.344C23.2225 113.723 22.9877 117.136 23.0241 120.552C23.6764 133.508 39.1159 134.4 50.1102 137.318C50.1661 137.33 50.2189 137.354 50.2656 137.387C50.3123 137.42 50.352 137.462 50.3821 137.511C50.4123 137.559 50.4325 137.613 50.4414 137.67C50.4503 137.726 50.4478 137.784 50.4341 137.84C50.4204 137.895 50.3956 137.948 50.3614 137.993C50.3271 138.039 50.284 138.078 50.2347 138.107C50.1853 138.136 50.1306 138.154 50.0739 138.162C50.0171 138.169 49.9595 138.165 49.9043 138.15C40.6387 135.957 22.3726 135.228 21.6949 120.621C21.6547 117.113 21.8983 113.607 22.4234 110.138C23.4601 104.208 25.3301 98.4537 27.9779 93.047C28.0015 92.9986 28.0344 92.9553 28.0748 92.9197C28.1152 92.884 28.1621 92.8566 28.2131 92.8391C28.264 92.8216 28.3179 92.8144 28.3716 92.8177C28.4254 92.821 28.478 92.8349 28.5264 92.8585C28.5747 92.8822 28.618 92.9151 28.6537 92.9555C28.6893 92.9958 28.7167 93.0428 28.7342 93.0937C28.7517 93.1447 28.759 93.1985 28.7557 93.2523C28.7523 93.306 28.7385 93.3586 28.7148 93.407Z" fill="#2A2929"/>
<path d="M49.5537 129.393C48.2847 128.211 47.3729 126.697 46.9217 125.022C46.754 124.324 46.6906 123.604 46.7337 122.887C46.7246 122.776 46.7601 122.666 46.8324 122.581C46.9047 122.495 47.0078 122.442 47.1191 122.433C47.2326 122.425 47.3448 122.461 47.4314 122.535C47.518 122.609 47.572 122.714 47.5816 122.827C47.7136 123.452 47.8943 124.066 48.1221 124.662C49.3704 128.2 51.7881 129.285 51.242 129.967C50.9167 130.415 49.9608 129.732 49.5537 129.393Z" fill="#2A2929"/>
<path d="M4.93293 67.088C6.17467 64.4927 10.0879 62.67 11.9359 61.636C15.3453 59.756 20.3179 56.3259 24.1324 56.8363C24.915 56.9496 25.6565 57.2579 26.2888 57.7327C26.921 58.2076 27.4237 58.8339 27.7505 59.5539C28.328 60.6553 28.8344 61.7925 29.2667 62.9586C29.7459 63.0522 30.2158 63.1881 30.6711 63.3646C30.7628 63.3995 30.839 63.4661 30.8859 63.5523C30.9328 63.6385 30.9473 63.7387 30.9268 63.8346C36.2039 73.5373 39.9752 83.006 44.1873 91.3767C45.5926 94.2239 47.9558 100.777 50.5389 102.365C53.9662 104.477 61.1703 103.224 65.077 102.177C65.1815 102.147 65.294 102.159 65.3897 102.211C65.4853 102.263 65.5562 102.351 65.5869 102.456C65.6176 102.561 65.6054 102.673 65.5532 102.769C65.5009 102.864 65.4128 102.935 65.3082 102.966C60.7417 104.433 53.9605 105.995 49.8537 103.489C46.7911 101.587 44.5756 95.1226 42.9964 91.9764C38.1864 82.284 34.2628 72.399 30.0243 64.0264C29.108 63.7894 28.1534 63.7378 27.2169 63.8748C26.2803 64.0118 25.3805 64.3346 24.5704 64.8242C23.7603 65.3138 23.0562 65.9603 22.4995 66.7259C21.9427 67.4914 21.5446 68.3604 21.3284 69.282C21.5813 70.0029 23.5619 74.1953 25.7088 78.9423C31.1505 90.9809 33.8868 100.105 37.4945 109.465C37.5378 109.571 37.5373 109.689 37.4931 109.795C37.449 109.9 37.3648 109.983 37.2591 110.027C37.1534 110.07 37.0348 110.069 36.9295 110.025C36.8241 109.981 36.7407 109.897 36.6974 109.791C34.683 104.974 33.1846 101.108 31.2548 96.0597C25.533 81.0573 26.614 84.4207 20.7456 71.2362C20.4119 70.4992 20.1816 69.9503 20.0876 69.6852C20.0109 69.51 19.9902 69.3153 20.0284 69.1278C20.1242 68.7495 20.2442 68.3778 20.3875 68.0148C20.2211 67.5964 19.9792 67.2122 19.674 66.8812C19.2529 66.9705 8.45887 69.8516 6.27619 69.5038C5.99364 69.5054 5.71586 69.431 5.4719 69.2885C5.22795 69.1459 5.02679 68.9404 4.88948 68.6935C4.75217 68.4465 4.68376 68.1672 4.6914 67.8848C4.69904 67.6023 4.78246 67.3271 4.93293 67.088Z" fill="#2A2929"/>
<path d="M32.5848 60.566C33.1695 58.1427 38.9345 58.5535 41.4481 58.8524C45.6189 59.3525 51.1827 59.9259 52.3089 64.0121C52.8277 65.8404 52.0325 67.9761 51.571 69.7122C51.571 69.7254 51.5634 69.7386 51.5597 69.7517C51.6856 69.9529 51.8032 70.1569 51.9113 70.3618C51.9536 70.4351 51.9801 70.5165 51.989 70.6007C51.9979 70.6849 51.9891 70.77 51.9629 70.8506C50.2614 77.3473 48.025 83.692 45.2767 89.8198C45.2319 89.9226 45.1483 90.0036 45.0442 90.0453C44.94 90.087 44.8237 90.086 44.7202 90.0426C43.7549 89.597 45.4723 89.2614 50.6169 70.7481C49.0245 67.9563 45.5475 65.6984 42.406 66.5181C41.3062 69.9126 40.0359 73.2495 38.5999 76.516C38.5818 76.5664 38.5538 76.6127 38.5176 76.6521C38.4814 76.6916 38.4377 76.7235 38.3891 76.7459C38.3404 76.7683 38.2878 76.7808 38.2342 76.7826C38.1807 76.7845 38.1273 76.7756 38.0773 76.7566C37.9776 76.717 37.897 76.6405 37.8523 76.5429C37.8077 76.4454 37.8024 76.3344 37.8376 76.233C41.7311 65.0865 41.2986 65.6505 41.3917 65.5443C39.4346 65.0085 35.6051 63.9218 33.9056 62.8296C33.0558 62.2985 32.3583 61.5333 32.5848 60.566Z" fill="#2A2929"/>
<path d="M159.996 61.6913C152.084 49.4327 135.909 52.6485 124.182 46.6907C115.874 42.4598 110.168 34.9332 100.536 35.454C100.424 35.4593 100.314 35.4212 100.229 35.3477C100.145 35.2741 100.092 35.1708 100.082 35.0592C100.077 35.0033 100.083 34.947 100.101 34.8936C100.118 34.8403 100.146 34.791 100.183 34.7487C100.22 34.7063 100.265 34.6718 100.315 34.6472C100.366 34.6225 100.42 34.6082 100.476 34.6052C110.622 33.7648 116.832 41.5179 124.776 45.5167C136.683 51.5449 152.844 47.8601 160.691 61.2626C160.748 61.3547 160.766 61.4657 160.741 61.571C160.716 61.6763 160.65 61.7674 160.558 61.8243C160.466 61.8811 160.355 61.899 160.25 61.8741C160.144 61.8491 160.053 61.7834 159.996 61.6913Z" fill="#CB7428"/>
<path d="M155.187 66.8051C155.028 66.6538 154.193 65.9196 153.859 65.5963C151.484 63.2425 148.554 61.5265 145.339 60.6077C145.229 60.5811 145.134 60.5122 145.074 60.4159C145.015 60.3197 144.996 60.2038 145.021 60.0935C145.034 60.0383 145.058 59.9863 145.092 59.9407C145.125 59.895 145.168 59.8566 145.217 59.8278C145.265 59.799 145.32 59.7804 145.376 59.7731C145.432 59.7657 145.489 59.7699 145.544 59.7852C149.105 60.3088 152.373 62.0576 154.784 64.7305C155.183 65.2184 155.533 65.7438 155.83 66.2994C155.897 66.3846 155.928 66.4931 155.915 66.6008C155.902 66.7085 155.847 66.8067 155.761 66.8737C155.676 66.9408 155.568 66.9712 155.46 66.9584C155.352 66.9455 155.254 66.8904 155.187 66.8051Z" fill="#CB7428"/>
<path d="M121.839 53.0518C113.076 51.7001 105.468 40.9963 97.3246 41.4287C97.2675 41.4361 97.2096 41.4319 97.1542 41.4162C97.0989 41.4006 97.0473 41.3738 97.0026 41.3376C96.9579 41.3015 96.921 41.2566 96.8941 41.2057C96.8673 41.1548 96.8511 41.0991 96.8464 41.0417C96.8418 40.9844 96.8488 40.9267 96.8671 40.8722C96.8854 40.8177 96.9146 40.7674 96.9529 40.7245C96.9912 40.6816 97.0378 40.6469 97.0899 40.6225C97.142 40.5982 97.1985 40.5846 97.2559 40.5827C104.222 39.7546 110.023 46.0272 116.867 49.9423C118.499 50.886 120.223 51.6608 122.012 52.2547C122.118 52.2788 122.21 52.3434 122.27 52.4347C122.329 52.5259 122.351 52.6367 122.33 52.7435C122.305 52.8492 122.239 52.9409 122.148 52.9986C122.056 53.0564 121.945 53.0755 121.839 53.0518Z" fill="#CB7428"/>
<path d="M151.001 74.9752C147.733 72.7963 148.788 72.9458 143.338 70.3034C143.236 70.2618 143.153 70.182 143.108 70.0807C143.063 69.9795 143.059 69.8646 143.096 69.7604C143.134 69.6561 143.211 69.5705 143.31 69.5216C143.41 69.4726 143.524 69.4641 143.63 69.4979C144.399 69.6763 145.155 69.9055 145.893 70.1841C147.667 70.9193 149.297 71.9607 150.71 73.2607C151.044 73.6112 151.34 73.9963 151.593 74.4094C151.668 74.4878 151.708 74.5928 151.706 74.7013C151.704 74.8098 151.658 74.9129 151.58 74.9879C151.502 75.063 151.396 75.1038 151.288 75.1014C151.179 75.099 151.076 75.0537 151.001 74.9752Z" fill="#CB7428"/>
<path d="M113.167 59.8404C105.451 56.5635 101.305 51.9256 93.8974 48.7662C91.0474 47.4877 87.969 46.7969 84.8461 46.7349C84.7898 46.7361 84.7338 46.7261 84.6814 46.7057C84.6289 46.6852 84.581 46.6546 84.5404 46.6157C84.4998 46.5767 84.4672 46.5301 84.4446 46.4785C84.4219 46.427 84.4097 46.3715 84.4085 46.3152C84.4074 46.2589 84.4173 46.2029 84.4377 46.1505C84.4582 46.098 84.4888 46.0501 84.5278 46.0095C84.5667 45.9689 84.6133 45.9363 84.6649 45.9137C84.7164 45.891 84.7719 45.8788 84.8282 45.8776C96.0302 45.3136 103.662 53.7012 113.518 59.1034C113.616 59.1499 113.691 59.2333 113.727 59.3353C113.763 59.4373 113.758 59.5495 113.711 59.6472C113.665 59.7449 113.581 59.8202 113.479 59.8564C113.377 59.8927 113.265 59.8869 113.167 59.8404Z" fill="#CB7428"/>
<path d="M78.4671 25.2906C81.0229 27.2289 84.9418 24.5762 88.3371 25.8471C88.4757 25.8978 88.5929 25.9943 88.6693 26.1206C88.7457 26.2469 88.7767 26.3954 88.7573 26.5418C88.4142 29.3054 87.6358 33.8897 87.1987 35.8882C89.2912 34.8128 91.2812 38.0915 91.2812 38.5249H91.2633C91.7042 40.3757 89.9313 41.7303 87.8605 41.5423C85.7333 41.3646 84.6043 39.683 85.7521 37.4881C86.0256 36.9795 85.8611 37.5294 86.0228 35.8675C86.2352 33.5335 86.9628 30.1335 87.3773 26.9272C84.5216 26.2494 80.755 28.3654 77.9228 25.942C77.8364 25.8699 77.7823 25.7663 77.7722 25.6542C77.7622 25.5421 77.7971 25.4306 77.8692 25.3442C77.9414 25.2578 78.0449 25.2036 78.1571 25.1936C78.2692 25.1835 78.3807 25.2184 78.4671 25.2906ZM90.453 38.7223C89.9716 37.9765 89.2999 37.3726 88.5072 36.9729C87.9677 36.7765 87.445 37.05 86.9214 38.1009C85.4184 40.9839 90.2782 40.732 90.453 38.7223Z" fill="#2A2929"/>
<path d="M157.168 72.819C158.708 73.007 162.736 71.3517 164.644 72.0905C165.154 70.8739 165.546 69.6114 165.816 68.3202C165.828 68.1839 165.876 68.0156 165.798 67.9648C162.996 66.1168 160.497 70.5132 157.338 69.9388C157.232 69.914 157.139 69.8499 157.079 69.7595C157.018 69.6691 156.995 69.5592 157.012 69.4519C157.029 69.3445 157.087 69.2478 157.173 69.1812C157.259 69.1145 157.367 69.083 157.475 69.0928C160.201 69.4519 162.762 64.6429 166.519 66.9412C167.506 67.5052 166.997 69.2489 166.647 70.344C165.629 73.5447 161.858 81.436 164.195 83.6553C165.267 84.6893 166.19 84.3133 166.639 83.0641C166.86 82.4441 166.895 81.7729 166.74 81.1333C166.585 80.4936 166.246 79.9133 165.765 79.4639C165.723 79.4289 165.689 79.3859 165.664 79.3375C165.639 79.289 165.624 79.236 165.62 79.1816C165.616 79.1273 165.623 79.0726 165.64 79.021C165.658 78.9693 165.685 78.9217 165.721 78.881C165.758 78.8403 165.802 78.8072 165.851 78.7838C165.9 78.7604 165.954 78.7471 166.008 78.7447C166.062 78.7424 166.117 78.751 166.168 78.77C166.219 78.7891 166.266 78.8182 166.305 78.8557C169.141 81.1436 168.051 85.6152 165.302 85.5588C164.534 85.5065 163.814 85.1637 163.29 84.6C160.765 82.1993 162.978 76.5245 164.21 73.2476C161.672 72.9929 159.352 74.4405 156.988 73.6528C156.877 73.629 156.781 73.5622 156.72 73.4672C156.658 73.3722 156.637 73.2567 156.661 73.1461C156.685 73.0356 156.751 72.939 156.847 72.8776C156.942 72.8163 157.057 72.7952 157.168 72.819Z" fill="#2A2929"/>
<path d="M136.546 73.9662C136.975 74.341 137.303 74.8187 137.497 75.3546C137.583 75.6337 137.613 75.927 137.586 76.2177C137.558 76.5084 137.473 76.7908 137.336 77.0487C137.199 77.3067 137.013 77.5351 136.788 77.7208C136.562 77.9066 136.303 78.0461 136.023 78.1313C135.386 78.3362 134.22 78.3833 134.292 77.7205C134.338 77.3145 134.677 77.4057 135.303 77.197C135.749 77.009 136.458 76.4139 136.237 75.7663C136.046 75.3603 135.792 74.987 135.485 74.6599C135.336 74.4155 134.888 73.6062 135.279 73.3571C135.613 73.1531 136.051 73.5545 136.546 73.9662Z" fill="#2A2929"/>
<path d="M129.527 94.3C130.279 92.812 130.085 89.8613 132.183 89.882C135.456 89.9835 136.989 87.469 137.713 84.2335C138.475 80.3042 138.904 76.3177 138.997 72.3162C138.3 72.727 136.909 73.1284 136.582 72.476C136.273 71.8471 137.544 70.6026 139 70.4268C138.985 69.1841 138.925 67.6623 138.799 66.4356C138.697 66.4722 138.594 66.5036 138.489 66.5296C137.479 66.7815 136.98 67.6519 136.501 67.3182C136.155 67.0663 136.417 66.5963 136.646 66.1949C136.879 65.8898 137.18 65.6433 137.526 65.4748C137.871 65.3062 138.251 65.2203 138.635 65.2239C138.62 65.1366 138.604 65.0495 138.587 64.9626C138.567 64.8587 138.588 64.7511 138.645 64.6623C138.703 64.5735 138.792 64.5103 138.895 64.486C138.998 64.4618 139.106 64.4782 139.198 64.532C139.289 64.5858 139.355 64.6727 139.384 64.7746C140.114 67.345 140.421 70.0174 140.292 72.6866C140.212 76.6629 139.779 80.6243 138.998 84.524C138.204 87.8835 136.574 90.7364 133.101 91.0034C132.031 91.0617 131.844 90.8098 131.48 91.4734C130.783 92.7377 130.603 95.3114 129.694 94.8762C129.598 94.82 129.527 94.7288 129.496 94.6215C129.464 94.5143 129.476 94.3991 129.527 94.3Z" fill="#2A2929"/>
<path d="M117.923 71.2755C117.177 68.528 116.643 65.7273 116.325 62.8982C116.186 60.8415 116.87 58.9775 118.769 58.1493C119.593 55.7646 121.91 54.693 124.289 53.8554C129.177 52.1634 136.603 53.0141 140.772 56.5899C142.78 58.2941 143.224 61.7674 140.652 62.8211C138.657 63.6183 136.388 62.9687 127.88 61.398C127.611 63.8959 126.897 66.3255 125.772 68.5721C125.035 69.9792 124.014 71.2172 122.772 72.207C122.428 72.489 121.926 72.1732 119.735 71.9391C119.468 71.9112 119.197 71.9385 118.941 72.0193C118.684 72.1002 118.447 72.2329 118.244 72.4091C115.973 74.3775 116.26 76.9127 117.903 78.3603C117.994 78.4253 118.057 78.5232 118.078 78.6334C118.099 78.7436 118.076 78.8576 118.015 78.9515C117.984 78.9987 117.945 79.0394 117.898 79.0711C117.852 79.1028 117.8 79.1249 117.744 79.1361C117.689 79.1473 117.633 79.1474 117.577 79.1363C117.522 79.1253 117.47 79.1034 117.424 79.0719C113.962 77.1796 115.15 72.2052 117.923 71.2755ZM129.297 55.4205C134.888 56.8174 135.682 57.3231 137.465 58.3176C137.612 58.3975 138.792 58.9991 138.828 59.0198C138.912 59.0821 139.016 59.11 139.119 59.0975C139.223 59.0849 139.317 59.0331 139.384 58.9526C139.45 58.8722 139.482 58.7693 139.475 58.6654C139.467 58.5615 139.42 58.4645 139.342 58.3947C139.076 58.0737 138.787 57.7727 138.477 57.4942C136.54 56.137 134.324 55.2321 131.991 54.8462C131.145 54.7005 130.285 54.6319 129.427 54.5717C129.369 54.5575 129.309 54.5555 129.25 54.5659C129.192 54.5763 129.136 54.5988 129.086 54.6319C129.037 54.6651 128.994 54.7082 128.963 54.7585C128.931 54.8089 128.909 54.8653 128.9 54.9243C128.891 54.9832 128.895 55.0434 128.91 55.101C128.926 55.1586 128.953 55.2123 128.991 55.2587C129.028 55.3051 129.075 55.3432 129.128 55.3706C129.181 55.398 129.239 55.414 129.299 55.4177L129.297 55.4205ZM124.436 55.9591C124.556 56.5607 126.161 56.3351 126.494 56.1471C126.588 56.0926 127.106 55.6715 127.05 55.3839C126.986 55.0558 126.319 54.9073 126.219 54.9045C125.94 54.9345 125.664 54.9918 125.396 55.0755C125.007 55.2034 124.349 55.5343 124.434 55.9591H124.436Z" fill="#2A2929"/>
</svg>
