<svg width="302" height="303" viewBox="0 0 302 303" fill="none" xmlns="http://www.w3.org/2000/svg">
<path d="M177.33 143.698C177.711 142.579 180.687 135.274 182.286 131.962C182.935 133.259 185.845 136.302 187.434 136.695C187.283 137.4 186.796 139.514 186.516 140.968C183.403 141.698 180.336 142.609 177.33 143.698Z" fill="#CB7428"/>
<path d="M284.055 84.0973C279.298 78.3606 272.727 74.4299 265.434 72.9587C258.295 71.4948 249.566 71.3614 243.075 75.0482C242.976 75.1026 242.892 75.1784 242.826 75.27C242.761 75.3615 242.717 75.4666 242.698 75.5774C227.805 82.1465 217.351 108.306 232.169 127.395C233.248 127.006 234.202 126.854 235.368 126.477C234.478 123.909 234.677 121.191 233.738 118.635C232.983 116.584 233.716 120.488 233.976 119.367C234.179 118.499 236.247 119.644 237 120.121C238.713 121.206 237.783 117.151 238.367 119.366C238.343 118.761 239.434 117.99 240.049 117.981C240.354 117.997 240.651 118.083 240.917 118.234C241.183 118.384 241.41 118.595 241.58 118.849C241.902 119.191 242.146 119.599 242.295 120.045C242.269 119.788 242.322 119.53 242.445 119.303C242.568 119.077 242.756 118.893 242.985 118.775C243.257 118.588 243.578 118.485 243.908 118.478C244.238 118.472 244.562 118.561 244.842 118.737C245.644 119.08 245.771 119.191 246.386 120.121C246.298 119.266 246.787 119.253 247.641 119.367C248.448 119.513 250.521 120.832 251 121.5C254.143 125.22 251.512 133.939 249.746 138.358C256.429 139.713 263.369 138.911 269.569 136.066C275.77 133.222 280.915 128.482 284.265 122.525C290.946 111.002 292.899 95.0496 284.055 84.0973ZM273.803 90.1308C272.544 92.8353 270.465 95.0147 268.633 97.3561C256.61 112.722 259.916 116.621 256.286 119.005C256.034 119.154 255.74 119.215 255.449 119.179C255.158 119.142 254.888 119.01 254.68 118.804C247.859 110.528 242.708 106.018 241.429 103.984C241.345 103.835 241.312 103.662 241.335 103.492C241.359 103.322 241.437 103.164 241.558 103.043C241.679 102.921 241.836 102.843 242.005 102.82C242.175 102.797 242.347 102.83 242.496 102.914C245.557 104.595 253.329 113.218 255.609 115.853C256.292 114.347 256.664 108.247 267.027 95.1364C268.638 92.8586 270.579 90.835 272.786 89.1326C273.454 88.669 274.079 89.5348 273.803 90.1266V90.1308Z" fill="#6DA544"/>
<path d="M153.811 228.453C159.368 228.627 164.835 229.897 169.9 232.19C174.028 233.851 198.386 244.27 202.123 245.102C202.794 245.253 203.04 244.347 202.504 243.983C196.82 240.51 164.529 227.726 158.865 226.808C159.223 225.958 162.524 212.039 159.458 214.5C158.339 215.384 157.68 224.995 157.477 226.653C151.75 226.024 125.625 227.334 118.318 227.581C119.783 221.192 121.506 213.818 122.234 211.917C124.875 211.602 158.798 211.178 163.285 211.278C171.452 211.468 197.31 222.467 204.548 226.852C206.875 228.262 208.733 227.692 209.269 226.986C224.858 206.407 253.389 142.851 251.073 122.197C250.984 121.357 249.663 121.514 249.629 122.33C248.656 151.209 222.298 201.031 207.617 225.765C205.557 223.929 195.476 219.574 192.601 218.366C197.704 216.743 203.79 210.212 205.021 203.755C220.684 198.55 224.736 168.572 220.483 152.388C218.872 146.221 209.787 141.422 204.059 141.702C204.059 140.752 204.271 136.231 204.059 132.46C206.397 132.611 214.128 131.991 213.602 124.012C214.57 123.995 215.519 123.748 216.371 123.289C217.224 122.831 217.954 122.175 218.5 121.377C219.047 120.579 219.395 119.661 219.515 118.701C219.635 117.741 219.523 116.766 219.189 115.858C223.855 115.858 247.91 117.155 251.525 118.869C255.139 120.583 262.548 129.027 263.485 133.267C264.423 137.507 261.907 150.642 244.459 192.219C227.011 233.795 219.1 245.65 211.812 246.367C206.678 246.87 176.748 247.004 166.678 246.367C166.99 245.091 169.643 239.27 170.493 236.084C171.344 232.898 157.772 229.306 156.787 232.169C155.061 236.757 153.67 241.465 152.626 246.255C150.663 246.255 139.859 246.053 134.13 245.941C128.401 245.83 118.019 240.012 115.904 237.573C116.139 236.789 116.878 233.546 117.773 229.596C128.651 229.271 143.507 228.46 153.811 228.453Z" fill="#CB7428"/>
<path d="M119.45 148.244C121.295 148.602 123.161 148.841 125.037 148.96C125.819 148.96 148.824 143.977 149.801 144.205C150.778 144.433 153.404 155.773 155.025 161.401C149.352 156.72 149.207 151.555 143.549 154.689C141.144 156.031 139.241 161.58 139.667 163.963C140.093 166.346 144.332 173.843 150.329 179.413C148.797 178.384 138.806 170.989 131.756 166.729C131.623 166.578 127.377 153.382 126.286 151.244C126.227 151.151 126.138 151.08 126.033 151.044C125.929 151.009 125.815 151.01 125.712 151.048C125.608 151.086 125.52 151.159 125.464 151.253C125.407 151.348 125.385 151.46 125.401 151.569C126.811 156.289 128.412 160.955 129.876 165.656L124.563 163.22C122.997 158.841 121.363 154.852 119.741 150.498C119.45 149.716 118.544 149.828 118.823 150.61C120.289 154.705 121.665 158.722 123.175 162.806C120.006 161.828 116.581 162.129 113.632 163.646C113.206 162.784 103.181 140.339 103.394 140.206C103.607 140.073 118.959 148.042 119.45 148.244Z" fill="#CB7428"/>
<path d="M8.48328 281.315C45.6413 281.315 272.557 282.07 293.42 282.313C294.606 282.313 294.874 284.192 293.644 284.192C256.498 284.393 29.6052 283.644 8.74905 283.521C7.35382 283.509 7.06238 281.315 8.48328 281.315Z" fill="#222222"/>
<path d="M215.237 112.53C219.97 114.577 217.711 123.719 211.277 122.42C212.799 127.705 208.369 132.333 201.945 129.537C202.292 132.12 202.896 140.513 202.398 142.962C203.517 143.264 204.535 143.086 204.501 143.992C204.501 145.291 201.616 144.484 201.145 143.992C200.674 143.5 200.809 139.338 200.776 138.405C200.553 132.072 199.891 128.492 199.176 122.328C198.952 120.448 200.139 121.209 201.033 118.971C202.09 116.308 199.914 113.813 197.397 115.447C196.737 115.871 192.809 113.511 192.216 109.774C187.932 112.314 183.523 114.757 178.4 114.82C179.215 118.792 184.289 135.708 190.83 134.5C193.481 134.02 195.081 130.976 196.211 128.839C196.283 128.743 196.382 128.672 196.496 128.636C196.61 128.6 196.732 128.601 196.846 128.638C196.959 128.675 197.059 128.746 197.129 128.843C197.2 128.939 197.239 129.055 197.24 129.174C196.77 132.374 193.705 136.089 190.528 136.212C189.062 144.525 190.17 143.34 187.405 144.045C185.66 144.481 183.949 145.007 182.181 145.342C182.001 145.374 181.816 145.339 181.661 145.243C181.506 145.148 181.392 144.998 181.341 144.823C181.29 144.649 181.305 144.461 181.383 144.297C181.462 144.132 181.599 144.003 181.767 143.933C183.814 143.294 185.906 142.814 187.988 142.287C188.369 140.206 188.743 138.126 189.107 136.045C184.989 134.847 181.543 128.403 179.932 124.856C179.041 125.152 178.091 125.225 177.165 125.067C176.24 124.909 175.367 124.526 174.625 123.951C173.883 123.376 173.294 122.627 172.91 121.77C172.526 120.913 172.359 119.974 172.424 119.038C167.949 120.291 163.955 115.263 166.708 110.256C161.895 110.613 158.652 102.423 163.351 99.447C157.98 96.0902 162.712 89.481 166.522 89.6908C163.982 82.698 169.879 79.8004 175.707 83.1224C177.05 73.7241 186.247 75.4923 188.363 79.441C190.969 73.854 198.04 76.0857 199.07 80.7169C201.788 76.8347 213.302 81.9929 210.191 89.7573C216.489 87.6433 219.455 94.3552 215.639 99.0891C220.261 99.45 221.669 110.974 215.237 112.53Z" fill="#222222"/>
<path d="M186.516 126.269C185.297 126.283 184.379 125.239 184.805 124.782C185.231 124.324 185.442 125.105 186.08 125.235C186.823 125.313 187.572 125.139 188.206 124.743C189.19 124.29 188.967 126.242 186.516 126.269Z" fill="#222222"/>
<path d="M191.852 124.433C192.895 123.971 193.608 127.531 190.599 128.795C189.089 129.434 188.103 128.024 189.054 127.79C190.632 127.42 191.459 126.671 191.662 125.552C191.74 125.037 191.517 124.581 191.852 124.433Z" fill="#222222"/>
<path d="M188.162 119.376C188.508 118.334 189.974 120.495 189.179 121.008C188.385 121.522 187.949 119.889 188.162 119.376Z" fill="#222222"/>
<path d="M186.673 114.912C187.422 114.666 188.234 114.686 188.971 114.967C189.709 115.248 190.327 115.774 190.722 116.457C191.092 118.046 189.212 116.004 187.601 116.221C185.579 116.457 186.368 115.018 186.673 114.912Z" fill="#222222"/>
<path d="M181.996 117.574C181.101 118.01 180.877 118.848 180.687 118.933C180.072 119.156 180.083 118.194 180.296 117.814C180.407 117.501 180.587 117.216 180.822 116.981C181.057 116.746 181.342 116.566 181.655 116.455C182.559 116.354 182.399 117.349 181.996 117.574Z" fill="#222222"/>
<path d="M183.103 122.395C182.408 122.614 182.23 121.276 182.331 120.852C182.559 119.587 184.053 122.098 183.103 122.395Z" fill="#222222"/>
<path d="M152.906 163.746C151.318 162.404 147.319 158.085 147.155 156.207C147.153 156.154 147.161 156.101 147.179 156.052C147.198 156.002 147.226 155.956 147.262 155.917C147.298 155.879 147.341 155.847 147.39 155.825C147.438 155.803 147.49 155.791 147.543 155.789C147.642 155.784 147.74 155.818 147.816 155.882C149.606 158.304 151.589 160.576 153.746 162.677C154.563 163.294 155.313 163.995 155.984 164.769C156.218 165.028 156.186 166.519 152.906 163.746Z" fill="#222222"/>
<path d="M155.188 179.377C150.12 176.747 145.299 171.02 142.556 165.952C142.068 165.208 141.719 164.381 141.528 163.512C141.528 163.077 142.064 162.684 142.321 163.098C147.243 171.075 147.982 172.182 155.748 178.595C155.823 178.679 155.868 178.785 155.874 178.898C155.881 179.01 155.848 179.121 155.783 179.212C155.717 179.304 155.623 179.37 155.514 179.4C155.406 179.43 155.291 179.422 155.188 179.377Z" fill="#222222"/>
<path d="M145.111 156.321C145.747 156.582 147.752 160.315 148.121 160.942C148.982 162.373 149.979 163.718 151.098 164.958C151.657 165.585 150.561 167.498 147.058 161.75C146.588 160.977 144.284 157.541 144.385 156.646C144.414 156.288 144.838 156.211 145.111 156.321Z" fill="#222222"/>
<path d="M144.738 163.975C144.146 162.969 142.5 160.093 142.813 159.019C143.003 158.415 143.687 158.695 144.257 159.859C145.471 162.648 147.023 165.278 148.877 167.69C149.181 168.081 148.87 170.989 144.738 163.975Z" fill="#222222"/>
<path d="M162.259 170.261C162.338 170.347 162.388 170.456 162.401 170.572C162.414 170.689 162.389 170.806 162.33 170.907C162.272 171.009 162.182 171.089 162.075 171.135C161.967 171.182 161.848 171.193 161.733 171.167C157.527 170.049 159.283 164.05 158.277 161.79C157.75 160.594 156.532 159.14 156.532 158.153C156.532 158.011 156.589 157.875 156.689 157.774C156.79 157.674 156.927 157.617 157.069 157.617C157.159 157.619 157.247 157.642 157.326 157.684C158.212 158.561 158.926 159.597 159.429 160.739C160.805 163.479 159.719 165.639 160.368 167.766C160.768 168.749 161.421 169.61 162.259 170.261Z" fill="#222222"/>
<path d="M174.868 152.136C175.384 151.748 175.898 152.618 175.484 153.032C170.46 158.015 165.761 159.141 164.721 166.19C164.117 170.228 162.594 169.289 163.13 166C164.194 159.445 167.736 157.501 174.868 152.136Z" fill="#222222"/>
<path d="M210.995 197.585C209.082 199.688 206.728 201.342 204.102 202.429C204.102 203.47 199.169 213.754 192.724 216.225C192.585 216.251 192.441 216.233 192.313 216.172C192.185 216.112 192.079 216.013 192.01 215.889C191.942 215.764 191.915 215.622 191.932 215.481C191.95 215.341 192.011 215.209 192.108 215.106C196.542 211.884 200.128 207.635 202.559 202.724C200.916 203.031 199.247 203.17 197.576 203.137C182.426 202.656 169.188 192.486 158.316 182.641C157.925 182.293 157.958 181.857 158.059 181.332C158.059 181.332 159.066 174.472 162.535 171.911C163.72 171.038 163.592 171.218 164.57 171.787C174.171 177.292 183.445 182.976 194.723 183.748C198.359 172.725 198.415 168.777 198.225 161.214C198.225 160.409 199.433 160.676 199.534 161.348C200.239 166.238 198.874 178.546 195.708 183.725C197.05 183.793 198.405 183.826 199.77 183.859C200.396 183.859 200.698 184.889 199.983 185.034C187.82 187.473 173.331 178.736 163.451 172.593C161.09 175.135 159.71 178.435 159.558 181.901C169.627 190.74 181.242 199.803 195.043 201.258C201.645 201.973 205.449 201.516 209.947 196.275C216.19 189.002 217.778 176.645 218.326 168.169C218.998 156.746 218.175 148.948 206.87 145.647C201.835 154.103 184.135 155.462 178.633 146.274C172.939 147.527 166.269 152.797 161.783 157.461C160.664 158.58 158.326 156.501 169.189 149.458C170.163 148.82 179.259 143.337 179.574 145.318C179.574 145.318 186.689 155.802 200.831 149.167C206.18 146.65 205.597 143.796 206.871 144.154C218.294 147.355 220.499 154.422 220.119 165.582C219.812 175.331 218.426 189.433 210.995 197.585Z" fill="#222222"/>
<path d="M56.8849 197.014C55.3553 196.202 41.0767 187.078 40.1028 187.325C39.7887 187.403 39.9125 187.19 39.8914 187.605C39.8702 188.021 52.5754 205.842 53.8649 207.744C56.7067 211.873 58.1156 209.982 62.4719 207.99C63.5123 207.521 64.0937 209.109 63.0865 209.651C59.9653 211.195 56.7988 213.41 54.0023 210.535C53.6656 210.177 38.7634 189.455 38.3376 188.036C38.2465 187.765 38.2248 187.477 38.2745 187.196C38.3242 186.915 38.4436 186.651 38.6219 186.428C38.8001 186.205 39.0315 186.031 39.2948 185.921C39.558 185.811 39.8447 185.768 40.1284 185.798C42.4554 185.798 55.4459 194.346 57.5267 195.935C58.1276 196.332 57.5312 197.357 56.8849 197.014Z" fill="#222222"/>
<path d="M95.0512 279.395C88.5401 278.953 81.6243 279.73 74.9123 279.53C73.7043 279.53 71.1856 279.53 71.8576 277.515C72.3936 275.96 74.34 275.401 75.7066 274.886C80.5733 273.031 85.138 270.601 90.0274 268.79C91.0844 268.396 91.8953 269.974 90.8322 270.367C85.6076 272.268 80.6956 274.841 75.471 276.709C73.1441 277.243 72.7002 277.974 75.622 278.039C82.8836 278.19 90.0999 277.256 97.366 277.961C101.573 278.374 103.072 278.414 103.463 276.774C103.609 275.028 103.519 273.271 103.196 271.549C103.196 270.923 104.069 270.844 104.315 271.314C105.212 273.191 105.455 275.313 105.008 277.345C104.249 280.928 97.9821 279.594 95.0512 279.395Z" fill="#222222"/>
<path d="M168.725 236.001C168.069 240.021 153.709 269.008 151.035 274.144C146.706 282.458 145.039 281.004 147.321 272.712C150.778 260.146 153.956 245.985 158.344 233.922C158.612 233.194 159.765 233.631 159.597 234.346C156.889 245.68 152.122 260.081 148.811 274.704C153.678 265.406 162.371 246.82 167.63 235.544C167.911 234.976 168.838 235.313 168.725 236.001Z" fill="#222222"/>
<path d="M202.706 249.8C205.246 257.097 207.618 264.447 210.056 271.786C213.022 280.737 213.045 284.563 207.417 273.711C203.165 265.522 196.731 252.453 195.669 250.137C195.277 249.299 196.71 248.57 197.134 249.409C200.865 256.869 204.572 264.327 208.255 271.786C205.884 264.594 203.411 257.432 201.14 250.203C200.904 249.254 202.482 248.988 202.706 249.8Z" fill="#222222"/>
<path d="M272.367 270.197C263.156 248.066 252.921 226.105 242.65 204.408C242.197 203.479 243.568 202.617 244.027 203.556C254.029 224.054 263.136 244.642 272.333 265.498C264.189 241.285 257.107 217.688 248.346 189.953C248.077 189.113 249.543 188.61 249.833 189.471C258.863 216.033 266.482 243.097 275.757 269.848C280.815 284.45 277.976 283.662 272.367 270.197Z" fill="#222222"/>
<path d="M136.468 79.823C126.594 81.324 114.237 81.8147 104.021 82.3417C101.314 82.4927 100.867 82.1062 100.129 79.8683C97.712 73.3875 97.3218 66.3254 99.0097 59.6177C101.103 52.1538 106.696 45.7257 114.528 44.3003C113.301 41.161 112.237 37.9606 111.339 34.7118C110.209 34.7572 109.107 34.3552 108.272 33.5929C94.4732 44.5961 80.3437 55.178 65.9029 65.324C66.1116 65.9035 66.2038 66.5184 66.1744 67.1336C66.145 67.7488 65.9944 68.3521 65.7314 68.909C65.4684 69.4659 65.0981 69.9654 64.6417 70.3789C64.1853 70.7924 63.6517 71.1118 63.0717 71.3187C62.9901 71.3474 62.9071 71.3746 62.8255 71.3988C63.3963 109.273 63.2061 148.197 61.382 186.07C61.382 186.346 61.2724 186.61 61.0773 186.805C60.8822 187 60.6175 187.11 60.3416 187.11C60.0657 187.11 59.801 187 59.6059 186.805C59.4108 186.61 59.3012 186.346 59.3012 186.07C60.3582 147.738 61.1132 110.055 60.778 71.6675C59.8605 71.6234 58.9903 71.2478 58.3288 70.6105C55.1276 72.8484 51.9173 74.9744 48.7176 77.1564C47.5987 77.9386 46.4798 76.0994 47.5987 75.3323C50.8422 73.2062 54.0635 71.054 57.2627 68.8755C57.0687 68.3316 56.9838 67.7548 57.0128 67.1781C57.0418 66.6013 57.184 66.0359 57.4315 65.5142C57.679 64.9924 58.0268 64.5245 58.4552 64.1372C58.8835 63.7499 59.3839 63.4507 59.9279 63.2568C60.2033 63.1597 60.4875 63.0894 60.7765 63.0469C60.7765 60.9103 60.8323 58.7721 60.9094 56.6249C60.9298 56.4626 61.0089 56.3133 61.1316 56.205C61.2543 56.0968 61.4124 56.0371 61.576 56.0371C61.7397 56.0371 61.8977 56.0968 62.0204 56.205C62.1432 56.3133 62.2222 56.4626 62.2427 56.6249C62.3937 58.7389 62.5115 60.865 62.6005 62.9805C63.3341 63.0626 64.0368 63.3217 64.6481 63.7355C79.1939 53.5883 93.3004 42.8975 107.165 31.9153C106.655 30.95 106.528 29.8283 106.808 28.7731C107.087 27.718 107.754 26.8069 108.675 26.2211L106.638 19.7281C106.258 18.5201 108.08 17.6911 108.461 18.9217C109.167 21.1596 109.883 23.3974 110.588 25.7031C111.691 25.6574 112.775 25.9976 113.654 26.665C117.255 23.6994 120.882 20.7579 124.719 18.1501C124.84 18.0656 124.989 18.0297 125.136 18.0495C125.283 18.0693 125.417 18.1434 125.512 18.2572C125.606 18.3709 125.655 18.5161 125.648 18.664C125.641 18.8119 125.579 18.9518 125.474 19.0561C122.168 22.3269 118.667 25.3948 114.99 28.243C115.317 28.7404 115.534 29.3022 115.626 29.8905C115.718 30.4788 115.683 31.08 115.523 31.6536C115.362 32.2271 115.081 32.7596 114.698 33.2153C114.315 33.671 113.838 34.0391 113.3 34.295C114.422 37.5228 115.379 40.8052 116.169 44.1297C120.989 43.7495 125.802 44.9404 129.888 47.5242C133.975 50.1079 137.114 53.9455 138.837 58.4626C141.084 64.2952 141.308 70.713 139.475 76.6883C138.606 78.7615 138.535 79.509 136.468 79.823ZM137.42 61.401C132.316 43.6676 108.631 39.8081 101.616 58.4807C98.9855 65.5188 100.129 73.3285 102.613 80.2323C114.169 80.1346 125.712 79.4138 137.192 78.073C138.214 71.9801 139.287 67.8971 137.42 61.4071V61.401Z" fill="#222222"/>
<path d="M58.1502 214.49C58.1502 213.83 60.0181 213.673 60.0075 214.411C60.0075 233.23 60.1313 249.935 60.1313 266.168C63.0728 267.512 69.2608 271.998 72.6719 274.28C69.3151 275.87 68.9241 278.018 69.3152 279.359C67.5137 279.473 40.0695 279.574 36.4545 279.359C33.2111 279.171 52.5104 268.095 57.7803 266.103C57.8935 249.656 57.9932 231.991 58.1502 214.49Z" fill="#222222"/>
<path d="M123.065 204.844C117.084 216.018 108.588 256.184 106.517 269.345C100.596 269.204 94.7139 268.342 89.0013 266.778C89.2927 263.946 95.7148 227.561 99.0036 203.607C101.398 185.706 104.935 185.236 107.611 184.744C115.019 183.356 130.514 206.639 134.822 209.357C131.466 209.078 127.695 209.57 122.874 209.535C123.354 208.126 123.823 206.716 124.272 205.295C124.31 205.14 124.291 204.977 124.217 204.836C124.143 204.695 124.019 204.586 123.87 204.53C123.721 204.474 123.556 204.475 123.407 204.532C123.259 204.59 123.137 204.7 123.064 204.842L123.065 204.844Z" fill="#222222"/>
<path d="M108.89 182.758C101.885 182.758 99.6697 188.631 98.4949 196.788C96.6934 197.213 76.8113 204.778 66.4829 209.186C65.1058 206.857 61.2915 197.852 59.2107 194.774C62.9857 193.376 110.262 164.397 119.629 164.397C134.173 164.397 178.67 206.019 185.025 214.389C166.475 208.032 159.638 209.084 138.605 209.723C131.099 205.169 119.06 182.758 108.89 182.758Z" fill="#222222"/>
<path d="M145.253 143.767C141.78 144.184 138.156 143.029 134.567 143.409C130.348 144.106 126.275 145.505 122.519 147.548C121.489 148.03 121.489 146.429 118.692 144.707C115.111 142.547 108.488 141.674 106.495 139.493C106.239 139.213 106.495 138.642 106.875 138.845C108.304 139.617 109.803 140.254 111.351 140.746C114.362 141.697 120.459 142.648 122.339 145.983C126.914 143.846 130.306 142.402 134.434 142.088C137.632 141.842 142.958 142.905 146.363 142.593C146.898 142.547 147.468 143.5 145.253 143.767Z" fill="#222222"/>
</svg>
