<svg width="426" height="142" viewBox="0 0 426 142" fill="none" xmlns="http://www.w3.org/2000/svg">
<path d="M172.418 75.8101C172.225 80.9799 173.279 86.1497 175.674 90.6505L185.631 76.8644C192.045 67.7691 188.791 53.025 183.142 53.025C175.96 53.025 172.42 64.4189 172.42 75.8127L172.418 75.8101ZM124.067 75.8101C123.781 80.9799 124.929 86.1497 127.324 90.6505L137.184 76.8644C143.598 67.7691 140.345 53.025 134.696 53.025C127.514 53.025 123.974 64.4189 124.067 75.8127V75.8101ZM197.025 91.0331H199.61C196.353 97.0645 190.035 100.8 183.142 100.511C168.398 100.511 160.93 88.2556 160.834 75.8101C160.834 74.0868 161.026 72.2673 161.313 70.544C153.269 83.4685 153.558 100.511 134.792 100.511C119.952 100.511 112.483 88.2556 112.483 75.8101C112.387 63.3646 119.759 50.9165 134.696 50.9165C144.077 50.9165 148.961 55.0346 151.067 60.9697L128.568 92.5664C130.867 95.6302 134.503 97.3535 138.335 97.2572C156.814 96.4919 154.995 50.9165 183.142 50.9165C192.524 50.9165 197.407 55.0346 199.513 60.9697L177.015 92.5664C179.409 95.7265 183.335 97.4498 187.354 97.1609C191.472 96.8745 195.013 94.576 197.025 91.0331Z" fill="#222222"/>
<path d="M227.973 100.223H217.868L203.657 61.9263C203.025 60.2994 201.288 57.4255 200.185 56.2776L198.131 54.2679V52.3521H216.131V54.2679L214.078 56.2776C212.971 57.4255 212.815 59.9167 213.763 61.9263L227.106 97.8311L239.107 61.9263C239.658 60.2994 239.895 57.4255 238.792 56.2776L236.738 54.2679V52.3521H246.291V54.2679L245.029 55.3222C243.292 56.7591 241.556 59.534 240.765 61.9289L227.976 100.226L227.973 100.223Z" fill="#CB7428"/>
<path d="M310.049 59.7223L299.819 71.8815V66.808C299.819 65.0847 299.142 62.0209 297.791 61.1592L294.748 59.1496V57.2337L309.966 52.4466C310.049 52.254 310.049 54.2662 310.049 59.7223ZM323.492 55.5105C319.433 55.5105 315.037 59.7223 310.049 65.3711C310.049 71.7851 309.966 80.3078 309.966 90.7436C309.966 92.4669 310.812 95.2444 311.994 96.3924L314.191 98.402V100.318H295.591V98.402L297.788 96.3924C298.973 95.2444 299.816 92.4669 299.816 90.7436V77.6265C295.758 82.4137 291.192 87.2971 286.29 91.4127C286.46 93.1359 287.306 95.3381 288.318 96.3924L290.515 98.402V100.318H276.143V98.1157C271.494 100.414 266.59 101.755 261.181 101.755C250.612 101.755 246.049 95.7234 246.049 89.1167C246.049 74.3726 259.405 68.8202 275.977 65.4674C275.386 59.626 273.186 51.4886 266.762 51.4886C262.873 51.4886 257.63 56.2758 251.206 68.8176L245.71 59.147C250.446 53.1156 258.729 49.6691 266.507 49.5728C276.737 49.5728 286.29 55.1252 286.29 68.0523V86.7218C283.417 89.5931 280.288 91.8916 276.146 94.0939V67.1906C262.113 69.9682 256.362 78.2018 256.362 88.4451C256.362 95.1481 260.421 98.7847 264.987 98.7847C292.884 98.7847 309.37 50.0517 328.815 50.0517C336.171 50.0517 342.088 56.5621 342.088 68.0523V90.7436C342.088 92.4669 342.934 95.2444 344.116 96.3924L346.313 98.402V100.318H327.714V98.402L329.911 96.3924C331.095 95.2444 331.939 92.4669 331.939 90.7436V68.5312C331.939 63.2651 329.234 55.5105 323.484 55.5105H323.492Z" fill="#CB7428"/>
<path d="M369.265 102.715C361.487 102.715 354.807 96.4909 354.807 87.1093V52.4488H346.353V50.5329H347.199C354.3 50.5329 363.262 41.3413 363.262 33.3003H364.954V50.5329H377.637V52.4488H364.954V84.1391C364.954 87.1067 364.785 100.799 368.843 100.799C371.548 100.799 375.354 92.3728 377.889 86.6277L381.862 97.1599C378.902 100.224 374.76 102.712 369.265 102.712V102.715Z" fill="#CB7428"/>
<path d="M391.15 75.8101C390.863 80.9799 391.915 86.056 394.31 90.6505L404.267 76.8644C410.681 67.7691 407.427 53.025 401.778 53.025C394.596 52.9287 391.056 64.4189 391.15 75.8127V75.8101ZM415.661 91.0331H418.246C414.989 97.0645 408.671 100.704 401.875 100.511C387.034 100.511 379.566 88.1593 379.566 75.8101C379.47 63.3646 386.842 50.9165 401.778 50.9165C411.16 50.9165 416.043 55.0346 418.149 60.9697L395.651 92.5664C398.139 95.7265 401.971 97.4498 406.086 97.1609C410.108 96.8745 413.651 94.576 415.661 91.0331Z" fill="#CB7428"/>
<path d="M86.3945 6.77783H109.372V8.69373L106.884 10.7033C105.543 11.8513 104.585 14.6288 104.585 16.3521V100.224C132.064 101.565 152.745 126.362 180.703 126.362C206.554 126.362 201.192 104.915 190.084 104.915C180.796 104.915 183.957 118.415 175.627 118.415C165.766 118.415 170.553 102.809 187.882 102.809C207.413 102.809 207.127 132.107 180.7 132.107C147.19 132.107 126.412 102.14 101.521 102.14V102.044H88.3078V100.128L90.7964 98.1186C92.137 96.9706 93.0949 94.1931 93.0949 92.4698V16.3521C93.0949 14.6288 92.4259 11.4686 90.7964 10.7033L86.3919 8.69373C80.6468 8.69373 67.9124 7.63946 67.9124 20.2776C67.9124 25.2574 71.7415 30.1382 74.998 30.1382C77.3929 30.1382 79.4988 27.457 79.4988 20.085C79.4988 14.9152 82.0837 12.7129 84.8612 12.7129C87.9251 12.7129 91.1816 15.4905 91.1816 20.085C91.1816 28.0323 83.8096 32.0541 76.4376 32.0541C69.0655 32.0541 62.0762 28.2249 62.0762 20.3739C62.0762 7.35312 77.7782 6.77783 86.3945 6.77783Z" fill="#065C8D"/>
<path d="M86.3945 6.77783H109.372V8.69373L106.884 10.7033C105.543 11.8513 104.585 14.6288 104.585 16.3521V100.224C132.064 101.565 152.745 126.362 180.703 126.362C206.554 126.362 201.192 104.915 190.084 104.915C180.796 104.915 183.957 118.415 175.627 118.415C165.766 118.415 170.553 102.809 187.882 102.809C207.413 102.809 207.127 132.107 180.7 132.107C147.19 132.107 126.412 102.14 101.521 102.14V102.044H88.3078V100.128L90.7964 98.1186C92.137 96.9706 93.0949 94.1931 93.0949 92.4698V16.3521C93.0949 14.6288 92.4259 11.4686 90.7964 10.7033L86.3919 8.69373C80.6468 8.69373 67.9124 7.63946 67.9124 20.2776C67.9124 25.2574 71.7415 30.1382 74.998 30.1382C77.3929 30.1382 79.4988 27.457 79.4988 20.085C79.4988 14.9152 82.0837 12.7129 84.8612 12.7129C87.9251 12.7129 91.1816 15.4905 91.1816 20.085C91.1816 28.0323 83.8096 32.0541 76.4376 32.0541C69.0655 32.0541 62.0762 28.2249 62.0762 20.3739C62.0762 7.35312 77.7782 6.77783 86.3945 6.77783Z" fill="#222222"/>
<path d="M61.887 75.807C61.6943 80.9768 62.7486 86.0529 65.1435 90.6474L75.1004 76.8613C81.5145 67.766 78.2606 53.0219 72.5155 53.0219C65.4298 52.9256 61.887 64.4158 61.887 75.8096V75.807ZM86.4916 91.03H88.9802C85.82 97.0615 79.5023 100.701 72.6092 100.508C57.8652 100.508 50.3968 88.1562 50.3005 75.807C50.3005 63.3615 57.6725 50.9134 72.6092 50.9134C81.9908 50.9134 86.8743 55.0315 88.9802 60.9667L66.4815 92.5633C68.8763 95.7235 72.8018 97.4467 76.821 97.1578C80.8429 96.8714 84.4794 94.5729 86.4916 91.03ZM77.6853 47.1805C61.0253 39.8085 39.9609 52.254 38.5266 69.8719V93.3286C38.5266 96.3925 42.3558 96.3925 44.558 96.3925V98.4021H21.3877V96.3925C23.5899 96.3925 27.4191 96.3925 27.4191 93.3286V62.3073C27.4191 59.2434 23.5899 59.2434 21.3877 59.2434V57.2338C27.3228 57.1375 33.2605 55.7031 38.5266 53.0219V62.1172C44.4617 43.2551 69.069 25.1608 77.589 42.4897C77.7816 44.0204 77.8753 45.6499 77.6853 47.1805Z" fill="#CB7428"/>
</svg>
