<svg width="84" height="81" viewBox="0 0 84 81" fill="none" xmlns="http://www.w3.org/2000/svg">
<path d="M12.9857 28.6634C5.13392 25.1132 9.08099 21.9531 11.9607 24.9435C6.37477 18.959 11.478 19.6061 12.3275 20.7808C8.57635 15.6063 12.5222 16.1033 13.1306 16.9149C12.9468 16.0501 13.0094 15.1532 13.3115 14.3202C13.3739 14.1698 13.4869 14.0442 13.6322 13.9638C13.7774 13.8834 13.9464 13.853 14.1118 13.8773C14.2772 13.9016 14.4293 13.9794 14.5433 14.098C14.6574 14.2165 14.7268 14.3689 14.7403 14.5305C14.8105 15.375 14.8009 15.6762 14.8698 16.6997C17.7997 13.0864 17.9209 16.941 16.3489 18.9566C18.9655 17.9223 17.6279 20.8399 16.7639 21.7355C19.6058 19.9085 18.279 23.772 17.4225 24.8562C21.2861 22.6922 20.7134 24.9141 20.0345 25.7586C19.3796 26.6032 16.9448 28.3063 16.3489 28.6634H12.9857Z" fill="#CB7428"/>
<path d="M35.3909 25.9413C34.9137 23.6414 32.637 24.6544 31.6497 25.8653C31.6676 22.3843 31.8203 18.7005 31.0388 17.8198C28.8949 16.068 24.9305 18.4657 25.5447 21.1553C20.1119 19.8632 22.3633 26.8257 22.894 28.6261H34.9577C35.4253 27.809 35.5788 26.8577 35.3909 25.9413Z" fill="#CB7428"/>
<path d="M30.1864 67.6872C30.1825 67.702 30.1737 67.715 30.1613 67.7244C30.1489 67.7337 30.1336 67.7387 30.1179 67.7387H27.457C27.457 67.6631 27.437 67.6466 27.2229 66.3227C27.2213 66.3124 27.2221 66.3018 27.2254 66.2918C27.2288 66.2818 27.2344 66.2727 27.242 66.2652C27.8482 65.6544 28.4887 65.0764 29.1605 64.5339C29.4261 64.3196 29.0414 63.9528 28.7808 64.166C28.2383 64.6035 27.717 65.064 27.2171 65.5474C27.2077 65.5562 27.196 65.5623 27.1832 65.5651C27.1704 65.5678 27.1571 65.5671 27.1447 65.5629C27.1324 65.5587 27.1215 65.5513 27.1132 65.5414C27.1049 65.5316 27.0997 65.5197 27.098 65.5072C27.0291 65.039 26.9642 64.5708 26.9033 64.1024C26.9019 64.0896 26.9042 64.0766 26.9098 64.0649C26.9154 64.0532 26.9242 64.0433 26.9353 64.0361C26.971 64.0127 27.3536 63.6186 28.841 62.111C29.0792 61.8697 28.7003 61.5005 28.4617 61.743C27.9479 62.2634 27.4345 62.784 26.9216 63.305C26.9122 63.3137 26.9004 63.3196 26.8877 63.3223C26.875 63.325 26.8617 63.3242 26.8494 63.32C26.8371 63.3159 26.8262 63.3085 26.818 63.2988C26.8097 63.289 26.8043 63.2772 26.8025 63.2647C26.7411 62.7492 26.6857 62.2328 26.6365 61.7156C26.6353 61.7023 26.6381 61.6889 26.6447 61.6771C26.6512 61.6653 26.6612 61.6556 26.6734 61.6493C27.222 61.0673 27.807 60.5187 28.4252 60.0065C28.692 59.7925 28.3098 59.4266 28.0458 59.6385C27.5623 60.0253 27.1049 60.4417 26.6763 60.8852C26.6672 60.8951 26.6552 60.9021 26.6419 60.9055C26.6286 60.9088 26.6147 60.9083 26.6017 60.904C26.5887 60.8998 26.5773 60.8919 26.5689 60.8814C26.5605 60.8709 26.5554 60.8582 26.5543 60.845C26.509 60.3179 26.4693 59.7911 26.4352 59.2645C26.4345 59.2535 26.4364 59.2425 26.441 59.2325C26.4455 59.2224 26.4525 59.2135 26.4614 59.2066C26.5444 59.1411 27.0262 58.5004 28.1396 57.3245C28.3729 57.078 27.9936 56.7088 27.7595 56.957C27.3296 57.4114 26.911 57.8758 26.5037 58.35C26.4946 58.3605 26.4825 58.3681 26.4688 58.3719C26.4552 58.3756 26.4408 58.3753 26.4273 58.3709C26.4139 58.3666 26.4021 58.3585 26.3936 58.3476C26.385 58.3367 26.38 58.3235 26.3792 58.3098C26.3538 57.8272 26.3326 57.3446 26.3157 56.8621C26.3045 56.5279 25.7679 56.5267 25.7799 56.8621C25.7979 57.4004 25.8221 57.9389 25.8526 58.4775C25.8529 58.4901 25.8496 58.5025 25.843 58.5134C25.8365 58.5242 25.827 58.5331 25.8156 58.5391C25.8042 58.5451 25.7913 58.5479 25.7784 58.5473C25.7654 58.5466 25.7529 58.5425 25.7422 58.5354L24.8669 57.9543C24.581 57.7645 24.3121 58.2149 24.5955 58.4031L25.8721 59.2513C25.9252 59.2866 25.88 59.2263 26.0215 60.8824C26.0225 60.8951 26.0199 60.9078 26.0139 60.9191C26.0079 60.9305 25.9988 60.9399 25.9875 60.9465C25.9763 60.9531 25.9633 60.9565 25.9502 60.9563C25.9371 60.9561 25.9242 60.9524 25.9132 60.9455L24.7985 60.2522C24.508 60.0696 24.2374 60.5196 24.5275 60.7014C26.185 61.7398 26.0912 61.6666 26.0958 61.714C26.1511 62.28 26.2126 62.8449 26.2804 63.4087C26.2819 63.4208 26.2799 63.4331 26.2748 63.4443C26.2697 63.4555 26.2616 63.4651 26.2514 63.4722C26.2411 63.4793 26.2291 63.4836 26.2165 63.4847C26.204 63.4857 26.1914 63.4835 26.18 63.4783C25.7465 63.2668 25.3466 62.9959 24.9927 62.674C24.7408 62.4431 24.3602 62.8127 24.6134 63.0416C25.1148 63.496 25.6971 63.8587 26.3319 64.1121C26.3979 64.139 26.3427 64.055 26.5884 65.699C26.5904 65.7116 26.5888 65.7246 26.5835 65.7364C26.5783 65.7482 26.5698 65.7583 26.5589 65.7656C26.548 65.7728 26.5352 65.777 26.522 65.7775C26.5088 65.778 26.4957 65.7749 26.4842 65.7686C26.1771 65.6019 25.8803 65.418 25.5953 65.218C25.3139 65.0226 25.0462 65.4738 25.3243 65.6684C25.7486 65.9672 26.1992 66.2292 26.6709 66.4514C26.7286 66.4747 26.688 66.414 26.9075 67.6579C26.9108 67.676 26.9065 67.6946 26.8956 67.7097C26.8847 67.7248 26.8681 67.7351 26.8494 67.7383H18.9565C18.9385 67.7384 18.9212 67.7318 18.9081 67.7198C18.895 67.7078 18.8872 67.6914 18.8864 67.674C18.8465 66.9863 18.8097 66.2985 18.776 65.6105C18.7756 65.5993 18.7781 65.5881 18.7833 65.578C18.7885 65.568 18.7963 65.5594 18.8059 65.553C19.4628 65.0519 20.0726 64.4954 20.6281 63.8901C20.8568 63.64 20.4779 63.2704 20.248 63.5213C19.816 63.9937 19.3491 64.4351 18.8511 64.842C18.841 64.8508 18.8284 64.8567 18.815 64.8588C18.8016 64.861 18.7878 64.8594 18.7752 64.8542C18.7627 64.849 18.752 64.8404 18.7443 64.8295C18.7367 64.8185 18.7324 64.8057 18.732 64.7925C18.6855 63.8542 18.6415 62.9158 18.6 61.9774C18.5995 61.9678 18.6012 61.9581 18.605 61.9491C18.6088 61.9401 18.6146 61.9321 18.622 61.9256C18.6884 61.8632 18.7498 61.7957 18.8075 61.7422L20.4368 60.2373C20.6858 60.0065 20.3078 59.6377 20.0575 59.8698L18.5685 61.2447C18.4573 58.6774 18.4548 58.8242 18.4992 58.7916C18.6349 58.6734 18.7619 58.5461 18.8793 58.4108L20.5642 56.7571C20.807 56.5186 20.4277 56.1498 20.1845 56.3887L18.5581 57.9885C18.5483 57.9974 18.536 58.0033 18.5228 58.0057C18.5096 58.0081 18.4959 58.0068 18.4834 58.0019C18.471 57.9971 18.4602 57.9889 18.4523 57.9783C18.4444 57.9678 18.4398 57.9552 18.439 57.9422C18.4199 57.413 18.3589 55.5921 18.3469 55.2108C18.3469 55.1706 18.2307 55.3069 20.0276 53.4663C20.2658 53.225 19.8865 52.8546 19.6483 53.0983L18.4403 54.3285C18.4308 54.339 18.4184 54.3465 18.4045 54.3499C18.3906 54.3534 18.376 54.3527 18.3625 54.348C18.349 54.3432 18.3373 54.3347 18.329 54.3234C18.3206 54.312 18.316 54.2986 18.3158 54.2847L18.2788 52.9841C18.2761 52.917 18.2467 52.8536 18.1967 52.807C18.1468 52.7605 18.0802 52.7345 18.0109 52.7345C17.9417 52.7345 17.8751 52.7605 17.8251 52.807C17.7752 52.8536 17.7458 52.917 17.7431 52.9841C17.7585 53.5495 17.7747 54.1153 17.7916 54.6816C17.6733 54.5573 16.3694 53.2849 16.4109 53.3255C16.3601 53.2793 16.2927 53.2541 16.223 53.2552C16.1533 53.2563 16.0868 53.2836 16.0375 53.3313C15.9882 53.379 15.96 53.4434 15.9588 53.5109C15.9576 53.5785 15.9836 53.6438 16.0312 53.6931L17.0687 54.7073C17.2597 54.9466 17.4974 55.1471 17.7684 55.2973C17.836 55.3214 17.7999 55.1296 17.902 57.9426C17.9026 57.9557 17.8994 57.9686 17.8926 57.9799C17.8859 57.9913 17.876 58.0005 17.8641 58.0066C17.8522 58.0127 17.8387 58.0153 17.8253 58.0143C17.8119 58.0132 17.799 58.0084 17.7883 58.0006L16.3076 56.895C16.0378 56.694 15.6527 57.0583 15.9283 57.263L17.9061 58.7457C17.9497 58.7791 17.9203 58.6146 18.0369 61.3223C18.0377 61.3357 18.0346 61.349 18.0277 61.3607C18.0209 61.3723 18.0107 61.3817 17.9984 61.3878C17.9861 61.3939 17.9723 61.3964 17.9585 61.395C17.9448 61.3936 17.9318 61.3883 17.9211 61.3799C17.5248 61.014 17.0674 60.7159 16.5682 60.4983C16.2445 60.3829 16.1038 60.8844 16.4254 61.0002C17.0089 61.2122 17.6206 61.9063 18.0261 62.0627C18.039 62.0676 18.0501 62.0759 18.0582 62.0868C18.0663 62.0976 18.071 62.1105 18.0717 62.1238C18.1132 62.9965 18.1962 64.8038 18.1962 64.8038C18.1972 64.8175 18.1939 64.8313 18.1867 64.8432C18.1795 64.8551 18.1688 64.8646 18.156 64.8706C18.1432 64.8765 18.1288 64.8786 18.1147 64.8765C18.1006 64.8744 18.0876 64.8683 18.0771 64.8589C17.9008 64.7137 16.9736 63.9118 17.0164 63.9488C16.7591 63.7268 16.3781 64.0936 16.6371 64.3168C18.1921 65.6576 18.0551 65.5683 18.2012 65.6439C18.2577 65.6724 18.2282 65.5409 18.3444 67.6707C18.3454 67.6887 18.339 67.7064 18.3267 67.7199C18.3143 67.7334 18.297 67.7416 18.2784 67.7427H2.64576C2.63632 67.7426 2.62699 67.7407 2.61832 67.7371C2.60964 67.7335 2.6018 67.7282 2.59523 67.7216C2.58867 67.715 2.58352 67.7072 2.58009 67.6987C2.57665 67.6902 2.57499 67.6811 2.57521 67.6719C2.59347 66.6284 2.97195 64.2914 3.83806 63.7843C4.73446 63.2615 5.93796 63.5052 6.77792 64.1113C7.51707 64.709 8.12319 65.4461 8.55952 66.2777C8.56749 66.2904 8.5795 66.3002 8.59374 66.3057C8.60798 66.3113 8.62369 66.3122 8.6385 66.3083C8.65332 66.3045 8.66645 66.2961 8.67593 66.2844C8.6854 66.2727 8.69072 66.2584 8.69107 66.2435C8.66632 65.1038 8.76087 63.9645 8.97327 62.8433C9.6186 59.9301 11.5708 58.4691 13.8703 58.453C13.8806 58.453 13.8907 58.4508 13.9001 58.4465C13.9094 58.4423 13.9176 58.4361 13.9242 58.4284C13.9308 58.4207 13.9355 58.4118 13.9381 58.4021C13.9407 58.3924 13.941 58.3824 13.9392 58.3725C13.5055 56.1937 13.2611 53.942 14.1259 51.9228C14.3326 51.4209 14.6244 50.9559 14.9891 50.547C16.6761 48.7092 20.1845 48.4892 21.6652 50.317C23.265 52.294 22.2939 56.4728 21.8271 58.7839C21.6262 59.7786 21.4413 60.7741 21.2722 61.7703C21.27 61.7827 21.2714 61.7955 21.2762 61.8071C21.281 61.8188 21.2891 61.829 21.2995 61.8365C21.3099 61.844 21.3222 61.8485 21.3351 61.8496C21.3481 61.8507 21.361 61.8483 21.3726 61.8427C22.0454 61.5207 22.8069 61.416 23.5456 61.5439C23.5565 61.5458 23.5678 61.5451 23.5784 61.542C23.5891 61.5388 23.5988 61.5333 23.6069 61.5259C23.6149 61.5185 23.6211 61.5093 23.6249 61.4992C23.6286 61.4891 23.6299 61.4782 23.6286 61.4675C23.4626 60.2876 23.3074 59.0892 23.1787 57.8208C23.0542 56.6047 22.9646 55.2647 23.7058 54.277C24.4918 53.2314 26.0713 52.9262 27.3196 53.3818C27.9347 53.6384 28.489 54.0144 28.9484 54.4866C29.4078 54.9588 29.7624 55.5172 29.9905 56.1273C30.4877 57.3282 31.2413 63.7803 30.1864 67.6872Z" fill="#191919"/>
<path d="M44.0797 41.8259C44.0797 41.8259 49.7706 41.2014 52.4021 42.6584C52.4021 42.6584 55.2009 52.2011 56.2981 53.856C57.3954 55.5108 58.1474 56.447 59.1139 57.0197L60.1344 64.2263H30.6553V59.6731C30.6553 59.6731 36.7765 61.3384 38.9241 52.3885C39.5437 49.8106 39.8857 47.1775 39.9446 44.5312C39.9446 44.5312 42.2541 47.4452 44.3474 46.6663C47.0121 45.6721 44.0797 41.8259 44.0797 41.8259Z" fill="#CB7428"/>
<path d="M44.5089 30.564C44.5089 30.564 42.5762 31.5533 42.7368 33.478C42.7806 34.0286 42.9787 34.5572 43.3099 35.0066C43.6411 35.456 44.0927 35.8092 44.616 36.028L40.6963 35.4047C40.6963 35.4047 38.8504 35.4807 39.1927 33.4792C39.5148 31.6063 40.6963 31.3441 40.6963 31.3441L44.5089 30.564Z" fill="#CB7428"/>
<path d="M48.1152 32.7875C47.025 29.7034 43.1543 31.604 44.1312 34.2063C45.2035 36.2702 48.9414 35.1256 48.1152 32.7875ZM46.6444 33.4647C46.2493 33.4712 46.1564 32.5659 46.6444 32.5064C47.0399 32.5 47.1329 33.4048 46.6444 33.4647Z" fill="#CB7428"/>
<path d="M35.9985 34.0057C35.2715 33.8827 36.0579 36.7955 37.0506 36.861C31.751 41.6064 28.9527 46.0358 27.8164 49.7348L28.1974 49.8409C29.713 44.8221 34.3705 40.4844 37.8499 36.7094C34.9664 35.166 37.1489 34.2008 35.9985 34.0057Z" fill="#191919"/>
<path d="M37.5553 32.362C36.5178 30.6854 36.7058 36.433 37.8438 35.3757C37.6425 34.4238 37.0441 33.3963 37.5553 32.362Z" fill="#191919"/>
<path d="M39.0036 31.4278C37.3668 32.9049 38.0234 35.8852 38.6625 35.317C38.8895 35.062 38.6027 34.8416 38.5637 34.5127C38.0317 32.4621 40.3731 31.2102 39.0036 31.4278Z" fill="#191919"/>
<path d="M46.0817 36.9291C44.9263 37.2315 45.8207 38.7014 46.7075 38.4291C47.5375 38.0612 46.8287 36.8603 46.0817 36.9291ZM46.0713 37.7901C45.8385 37.4101 46.1958 37.213 46.4826 37.5593C46.9258 38.0716 46.3398 38.1259 46.0713 37.7901Z" fill="#191919"/>
<path d="M54.2375 28.9997C52.4207 29.0745 50.6043 29.1706 48.7886 29.2881C48.7023 28.0189 49.0098 26.4983 48.4313 25.3216C46.8634 22.3791 41.9481 21.4678 39.4996 23.4902C37.872 24.6629 36.7942 26.7589 37.1084 28.493L38.0575 28.3776C38.0882 28.6161 38.1335 29.0013 38.182 29.3448L37.2748 29.4735L37.4823 30.4036C36.8872 30.4611 32.675 30.9896 34.7105 31.3499C48.9782 29.0411 56.0963 30.0851 54.2375 28.9997ZM47.9237 27.961C47.9943 27.7482 47.7349 27.0666 48.2437 27.1438C48.1931 27.3875 48.4329 28.0337 47.9237 27.961ZM47.4075 27.2455L47.3867 28.0378L39.6104 29.1397C39.5797 28.9092 39.5366 28.5364 39.4913 28.2022L47.4075 27.2455ZM38.5854 28.312L38.9647 28.2674C38.9373 28.5815 39.3461 29.3532 38.7082 29.2692C38.6665 28.9498 38.6255 28.6308 38.5854 28.312Z" fill="#191919"/>
<path d="M52.94 31.3081C49.7681 30.4005 49.166 34.5133 51.8402 35.2432C54.2016 35.5681 55.3897 32.0091 52.94 31.3081ZM52.7387 33.4098C52.3474 33.4158 52.2556 32.5214 52.7387 32.4627C53.1292 32.4571 53.2209 33.3507 52.7387 33.4098ZM54.4817 31.5599C53.6812 30.5143 51.0542 29.7128 49.9507 31.3773C49.687 31.2189 49.383 31.1346 49.0728 31.1339C48.7625 31.1332 48.4581 31.2161 48.1936 31.3733C46.2116 28.787 42.1388 31.7754 43.3468 34.4823C45.1467 37.5057 49.9067 35.7161 48.6763 32.3035C48.8059 32.2388 48.9479 32.2011 49.0934 32.1926C49.2389 32.1842 49.3846 32.2052 49.5212 32.2544C48.7506 38.8755 57.549 35.5593 54.4805 31.5587L54.4817 31.5599ZM47.1466 35.4314C42.7613 36.6298 42.4201 31.5647 45.6057 30.7692C48.4978 30.2999 49.749 34.4735 47.1466 35.4314ZM54.6261 33.7922C52.8831 37.7008 48.7867 35.0144 49.8453 32.18C51.0828 29.4413 55.601 31.0853 54.624 33.7922H54.6261Z" fill="#CB7428"/>
<path d="M48.3543 36.4561C47.787 36.5252 48.1971 38.7612 47.8779 39.3222C46.6217 40.4796 43.5619 39.286 42.5971 39.0234C41.7314 39.5808 43.6491 39.8144 44.0417 40.0288C43.9668 40.6928 44.0217 41.3646 44.2035 42.009C44.2035 42.009 44.5936 42.2555 44.6853 41.9615C44.5405 41.7367 44.6297 41.2417 44.5799 40.1539C48.5154 40.9932 49.2084 38.9233 48.3543 36.4561Z" fill="#191919"/>
<path d="M80.3195 37.893C79.5347 37.4374 78.4827 37.6517 77.7465 38.1818C77.0998 38.7045 76.5694 39.3492 76.1877 40.0767C76.1831 40.0909 76.173 40.1028 76.1595 40.11C76.146 40.1171 76.1302 40.119 76.1154 40.1151C76.1005 40.1113 76.0878 40.1021 76.0798 40.0894C76.0718 40.0767 76.0691 40.0615 76.0724 40.0469C76.0944 39.0494 76.0117 38.0523 75.8254 37.071C75.2573 34.5053 73.5309 33.2393 71.543 33.2304C71.534 33.2307 71.5249 33.229 71.5167 33.2254C71.5084 33.2217 71.5011 33.2163 71.4953 33.2095C71.4895 33.2027 71.4854 33.1947 71.4833 33.1861C71.4813 33.1776 71.4812 33.1686 71.4833 33.1601C71.8618 31.2543 72.0759 29.2849 71.3198 27.5187C71.0641 26.8752 70.6361 26.3094 70.0799 25.8795C69.5236 25.4496 68.8592 25.1712 68.155 25.0728C66.9158 24.8544 65.5027 25.1532 64.725 26.1111C64.278 26.7287 64.0231 27.4575 63.9905 28.2112C63.7784 30.468 64.4204 32.3071 65.0695 36.1336C65.0721 36.1446 65.0713 36.1562 65.0672 36.1668C65.0631 36.1775 65.0559 36.1867 65.0464 36.1934C65.037 36.2 65.0257 36.2039 65.014 36.2044C65.0023 36.2049 64.9907 36.2021 64.9806 36.1963C64.3848 35.9109 63.7098 35.8192 63.0559 35.9349C62.9368 35.9144 63.0617 36.0395 63.4012 32.6775C63.5086 31.6134 63.5887 30.4427 62.9397 29.5773C62.5659 29.1397 62.0587 28.8282 61.4908 28.6876C60.9229 28.547 60.3236 28.5845 59.779 28.7947C59.241 29.019 58.7562 29.3478 58.3543 29.7607C57.9525 30.1736 57.6422 30.662 57.4426 31.1955C57.116 31.9846 56.6607 35.3884 56.8508 38.4806C56.8508 38.4806 55.3713 36.8353 54.6513 36.0033L54.228 36.3709C55.0348 37.2496 58.1394 40.6502 58.761 41.3576C63.502 46.7516 68.2417 53.1708 65.3479 56.4785C56.5026 63.7692 52.912 40.6562 52.1659 40.8042C51.6438 40.9063 52.1833 41.5393 52.3086 42.8238C53.2909 46.9901 54.5081 51.0921 56.8126 54.7099C61.393 62.0069 69.7581 57.2503 65.6725 49.9242C64.0253 46.8007 61.7872 44.0335 59.4263 41.3552H59.655C59.6549 41.339 59.6563 41.3228 59.6591 41.3069C59.7297 40.9109 59.7965 40.514 59.8595 40.1161C59.8612 40.107 59.8605 40.0976 59.8576 40.0888C59.8547 40.08 59.8497 40.072 59.8429 40.0654C59.313 39.5312 58.7529 39.0258 58.1651 38.5517C57.9327 38.3635 58.2668 38.0434 58.4971 38.23C58.9735 38.6126 59.43 39.0154 59.8666 39.4385C59.8743 39.4472 59.8846 39.4535 59.896 39.4566C59.9074 39.4597 59.9195 39.4594 59.9308 39.4558C59.9421 39.4521 59.952 39.4453 59.9592 39.4362C59.9665 39.4272 59.9708 39.4162 59.9716 39.4047C60.0316 38.9953 60.0884 38.5857 60.1417 38.1757C60.1471 38.1291 60.109 38.1194 60.0749 38.0856L58.4469 36.4344C58.2394 36.2225 58.5714 35.8999 58.7789 36.1127C60.2293 37.5829 60.1293 37.4997 60.1708 37.5005C60.1786 37.5007 60.1864 37.4994 60.1937 37.4967C60.201 37.494 60.2077 37.4899 60.2134 37.4847C60.2191 37.4794 60.2236 37.4732 60.2268 37.4662C60.2299 37.4593 60.2316 37.4518 60.2318 37.4442C60.2871 36.993 60.3361 36.5416 60.3787 36.0902C60.3845 36.0367 60.3372 36.0403 60.287 35.9844C59.8345 35.4837 59.3411 35.019 58.8117 34.5949C58.5784 34.4083 58.9129 34.0886 59.1437 34.2732C60.1285 35.0667 60.2974 35.39 60.3837 35.388C60.3915 35.3879 60.3992 35.3863 60.4064 35.3833C60.4135 35.3802 60.42 35.3759 60.4254 35.3704C60.4308 35.365 60.4351 35.3585 60.4379 35.3514C60.4407 35.3444 60.442 35.3368 60.4418 35.3293C60.4808 34.8676 60.5155 34.4059 60.546 33.9443C60.546 33.904 60.5132 33.8916 60.4866 33.859C60.029 33.3072 59.5526 32.7702 59.0574 32.248C58.854 32.0324 59.1848 31.7095 59.3894 31.9263C60.5099 33.1174 60.4684 33.1729 60.5397 33.1705C60.5476 33.1703 60.5553 33.1685 60.5624 33.1653C60.5695 33.1622 60.5759 33.1577 60.5812 33.1521C60.5866 33.1466 60.5907 33.14 60.5934 33.1329C60.5961 33.1258 60.5973 33.1182 60.597 33.1106C60.6194 32.6897 60.638 32.2677 60.6526 31.8446C60.6622 31.5519 61.1319 31.5502 61.122 31.8446C61.1057 32.3159 61.0843 32.7866 61.0581 33.2566C61.0565 33.2681 61.0586 33.2798 61.064 33.2901C61.0694 33.3005 61.0778 33.309 61.0883 33.3147C61.0988 33.3203 61.1107 33.3228 61.1227 33.3217C61.1346 33.3207 61.1459 33.3162 61.1552 33.3089L61.9213 32.8001C62.1723 32.6344 62.4072 33.0286 62.1595 33.193C60.9398 34.0022 61.0178 33.9398 61.0162 33.9805C60.9249 35.388 60.8916 35.3691 60.9228 35.4093C60.9325 35.4211 60.9466 35.4289 60.9621 35.4308C60.9776 35.4328 60.9932 35.4288 61.0058 35.4198L61.9798 34.8105C62.2354 34.6496 62.4711 35.0446 62.218 35.2034L60.8734 36.0451C60.8257 36.0745 60.868 36.027 60.6842 37.5733C60.6819 37.5842 60.6829 37.5954 60.6871 37.6057C60.6913 37.6161 60.6984 37.625 60.7077 37.6314C60.717 37.6379 60.7281 37.6416 60.7395 37.6421C60.7509 37.6427 60.7622 37.64 60.7721 37.6344C61.1513 37.4497 61.5008 37.2126 61.8096 36.9307C62.0296 36.7296 62.3624 37.0513 62.1416 37.2524C61.703 37.6493 61.1937 37.9658 60.6385 38.1866C60.6285 38.1905 60.6197 38.197 60.6131 38.2054C60.6066 38.2137 60.6024 38.2236 60.6012 38.234C60.4244 39.6014 60.3937 39.5796 60.4227 39.6203C60.427 39.6266 60.4326 39.6321 60.4391 39.6364C60.4457 39.6407 60.453 39.6437 60.4607 39.6452C60.4685 39.6467 60.4764 39.6466 60.4841 39.6451C60.4919 39.6436 60.4992 39.6406 60.5057 39.6363C60.7739 39.4895 61.0335 39.3284 61.2834 39.1538C61.5303 38.9816 61.7648 39.3766 61.5216 39.5463C61.1508 39.8076 60.7566 40.0364 60.3439 40.2299C60.3342 40.2337 60.3256 40.2399 60.3192 40.2479C60.3127 40.2559 60.3085 40.2653 60.3069 40.2754C60.1745 41.1452 60.1347 41.2808 60.1351 41.2992C60.1353 41.3068 60.137 41.3143 60.1401 41.3213C60.1433 41.3282 60.1478 41.3345 60.1535 41.3397C60.1592 41.3449 60.1659 41.349 60.1732 41.3518C60.1805 41.3545 60.1883 41.3558 60.1961 41.3556H67.0959C67.1037 41.3556 67.1115 41.3542 67.1187 41.3513C67.126 41.3484 67.1326 41.3442 67.1381 41.3388C67.1437 41.3335 67.1481 41.3271 67.1511 41.3201C67.1541 41.3131 67.1557 41.3056 67.1557 41.298C67.1886 40.6964 67.2205 40.0949 67.2515 39.4936C67.2569 39.4131 67.081 39.3959 66.451 38.7991C66.1646 38.5411 65.892 38.2705 65.633 37.9871C65.4322 37.7691 65.7642 37.4458 65.965 37.6654C66.343 38.0782 66.7513 38.464 67.1868 38.8196C67.1957 38.8267 67.2065 38.8314 67.218 38.8329C67.2295 38.8345 67.2412 38.8329 67.2518 38.8284C67.2625 38.8239 67.2716 38.8166 67.2782 38.8074C67.2848 38.7982 67.2886 38.7874 67.2893 38.7761C67.33 37.9552 67.3684 37.1341 67.4047 36.3129C67.4052 36.3045 67.4038 36.296 67.4006 36.2882C67.3974 36.2803 67.3924 36.2733 67.386 36.2675C67.3275 36.2132 67.2731 36.1537 67.2233 36.1066L65.8007 34.7916C65.5816 34.5905 65.914 34.2688 66.1327 34.4699C66.1742 34.5101 67.3922 35.6361 67.435 35.6727C67.4657 34.9757 67.4942 34.2771 67.5204 33.5771C67.5211 33.5673 67.5191 33.5575 67.5146 33.5487C67.5102 33.5399 67.5035 33.5324 67.4951 33.5268C67.3768 33.4231 67.2659 33.3117 67.1631 33.1934L65.6907 31.7457C65.4782 31.5386 65.8098 31.2148 66.0227 31.424L67.4495 32.8231C67.4575 32.8323 67.4684 32.8389 67.4805 32.8419C67.4927 32.8449 67.5055 32.8441 67.5171 32.8397C67.5287 32.8352 67.5387 32.8273 67.5454 32.8171C67.5522 32.807 67.5555 32.795 67.5549 32.7828C67.5719 32.3188 67.6358 30.3936 67.6358 30.3936C67.6361 30.3851 67.6344 30.3766 67.6311 30.3687C67.6277 30.3608 67.6227 30.3537 67.6163 30.3478C67.547 30.2867 67.6964 30.4359 66.1638 28.8687C65.9563 28.6559 66.2883 28.3338 66.4958 28.547L67.552 29.6255C67.5598 29.6355 67.5708 29.6428 67.5833 29.6462C67.5958 29.6496 67.609 29.649 67.6211 29.6444C67.6332 29.6399 67.6434 29.6317 67.6503 29.621C67.6571 29.6104 67.6602 29.5978 67.6591 29.5853C67.6707 29.2062 67.6817 28.8271 67.6923 28.448C67.6948 28.3894 67.7206 28.3339 67.7644 28.2933C67.8081 28.2527 67.8664 28.23 67.9269 28.23C67.9875 28.23 68.0458 28.2527 68.0895 28.2933C68.1332 28.3339 68.1591 28.3894 68.1616 28.448C68.1483 28.9429 68.1345 29.4381 68.1201 29.9336C68.145 29.907 69.0701 29.0026 69.3294 28.7488C69.5423 28.5405 69.8743 28.8631 69.6614 29.0706C69.3599 29.3655 69.0579 29.6604 68.7555 29.9553C68.5904 30.1665 68.382 30.3423 68.1434 30.4717C68.1317 30.4754 68.1215 30.4825 68.1141 30.492C68.1067 30.5014 68.1024 30.5129 68.1019 30.5248C68.0305 32.7812 68.0018 32.7937 68.0404 32.8339C68.0511 32.8448 68.0657 32.8513 68.0812 32.852C68.0967 32.8527 68.1118 32.8475 68.1234 32.8375L69.4158 31.8679C69.6523 31.691 69.9864 32.0107 69.7478 32.1897C69.3506 32.4852 68.016 33.4846 68.016 33.4846C67.9745 33.5148 67.9998 33.4231 67.9022 35.7367C67.9007 35.7486 67.9031 35.7607 67.909 35.7712C67.9149 35.7818 67.9241 35.7903 67.9352 35.7956C67.9463 35.8009 67.9589 35.8027 67.9711 35.8008C67.9834 35.7989 67.9947 35.7934 68.0035 35.7849C68.3547 35.4712 68.7538 35.212 69.1867 35.0164C69.4701 34.9139 69.593 35.3534 69.3112 35.4556C69.0019 35.5943 68.7172 35.7797 68.4679 36.0049C68.3034 36.158 68.1159 36.2862 67.9118 36.3849C67.8554 36.4058 67.8811 36.2542 67.7636 38.7826C67.7619 38.7946 67.7641 38.8069 67.77 38.8177C67.7759 38.8285 67.7851 38.8371 67.7965 38.8425C67.8078 38.8478 67.8205 38.8495 67.8329 38.8473C67.8453 38.8452 67.8566 38.8392 67.8653 38.8304C68.0695 38.6619 67.8993 38.8027 68.7928 38.0346C69.0178 37.8403 69.351 38.1612 69.1248 38.3563C68.8105 38.6287 68.4967 38.8995 68.1832 39.1686C68.0548 39.3002 67.9116 39.4175 67.7562 39.5181C67.7467 39.5231 67.7386 39.5303 67.7327 39.5391C67.7268 39.5479 67.7234 39.5579 67.7226 39.5684C67.6939 40.1423 67.6308 41.2976 67.6308 41.2976C67.6309 41.3129 67.6373 41.3276 67.6485 41.3383C67.6597 41.3491 67.6748 41.3552 67.6906 41.3552C74.253 41.3552 81.4229 41.3507 81.3698 41.3552C81.3855 41.3538 81.4 41.3466 81.4103 41.335C81.4205 41.3234 81.4256 41.3084 81.4246 41.2932C81.3711 40.3839 81.0789 38.3398 80.3195 37.893Z" fill="#191919"/>
<path d="M51.5969 30.252L47.4092 30.3038L48.2678 31.1351C48.5135 30.9826 48.7951 30.893 49.0862 30.8748C49.3774 30.8566 49.6685 30.9103 49.9324 31.0309C49.9324 31.0309 50.1474 30.4607 51.5969 30.252Z" fill="#CB7428"/>
<path d="M50.7917 36.0278L48.1602 35.4045C48.1602 35.4045 49.0196 34.6758 49.0196 33.9993C49.0046 33.4769 48.9506 32.9563 48.8582 32.4414H49.2881C49.2401 33.1749 49.3124 33.9111 49.5023 34.6227C49.6092 34.9286 49.7784 35.2106 49.9999 35.452C50.2214 35.6933 50.4906 35.8891 50.7917 36.0278Z" fill="#CB7428"/>
<path d="M40.8111 35.7362C40.6036 36.2059 40.1056 36.7685 39.5392 36.779C39.4868 36.7816 39.4363 36.7986 39.3935 36.828C39.3507 36.8574 39.3175 36.898 39.2977 36.945C39.2779 36.9921 39.2723 37.0436 39.2816 37.0936C39.291 37.1436 39.3148 37.19 39.3503 37.2274C39.2076 38.1407 39.5163 40.1607 39.491 40.6513C39.6101 47.0749 38.8955 57.1774 33.842 59.3575C31.7139 60.2825 29.9975 59.5413 28.9338 58.1225L28.208 58.0646C31.2985 62.7674 39.4362 60.6359 39.9342 45.486L39.9795 44.6093C40.0309 40.8126 40.0986 38.2625 39.85 37.2584C40.1676 37.1613 40.4596 36.9984 40.7057 36.7809C40.9518 36.5635 41.1461 36.2968 41.2751 35.9992C41.4108 35.6948 40.9481 35.4298 40.8111 35.7362Z" fill="#191919"/>
<path d="M29.9559 26.0715L29.1068 26.916C29.0775 26.5364 29.0519 26.1573 29.0301 25.7787C29.1712 25.6661 29.3002 25.5113 29.4081 25.4168L30.2352 24.6764C30.4639 24.4709 30.1215 24.1404 29.8933 24.3451L28.9973 25.1494C28.9644 24.4697 28.943 23.7894 28.9334 23.1084C29.0637 23.028 29.1824 22.9074 29.2907 22.8314L30.0161 22.2969C30.2605 22.1171 30.0202 21.7106 29.7717 21.8927C29.4915 22.0986 29.2089 22.3037 28.9292 22.5108C28.9267 22.1103 28.9287 21.71 28.935 21.31C29.0725 21.2208 29.2016 21.1198 29.3206 21.0084L30.1091 20.3915C30.351 20.2021 30.0074 19.8723 29.7675 20.0601L28.9437 20.7036C28.9526 20.3451 28.9644 19.9865 28.979 19.6278C28.9915 19.327 28.508 19.3274 28.4955 19.6278C28.4823 19.9385 28.4717 20.2498 28.464 20.5616C28.2097 20.3447 27.9282 20.1597 27.6261 20.0111C27.3493 19.8743 27.1045 20.2781 27.3821 20.4152C27.6632 20.5509 27.9247 20.7218 28.1598 20.9235C28.2515 21.004 28.3445 21.1286 28.4503 21.2252C28.4439 21.6506 28.4416 22.0758 28.4433 22.5008C28.4018 22.4702 27.7726 21.9816 27.8154 22.0158C27.5771 21.8276 27.2323 22.1569 27.4738 22.3464C28.437 23.1012 28.2698 22.9898 28.4495 23.1165C28.4594 23.8178 28.4817 24.5184 28.5163 25.2181C28.2632 24.9991 27.9877 24.8056 27.6942 24.6406C27.6395 24.6147 27.5768 24.6097 27.5185 24.6267C27.4602 24.6436 27.4107 24.6812 27.3798 24.7321C27.3489 24.7829 27.339 24.8431 27.3519 24.9007C27.3649 24.9583 27.3998 25.0091 27.4497 25.0428C27.8446 25.2844 28.213 25.5646 28.5491 25.8789C28.574 26.296 28.6032 26.7132 28.6366 27.1304C28.2855 26.9552 27.9358 26.7774 27.5875 26.5971C27.314 26.4536 27.0696 26.8581 27.3435 26.9993C27.634 27.1513 27.9245 27.3017 28.22 27.4469C28.4312 27.5518 28.6927 27.7416 28.9404 27.6701C29.1882 27.5985 29.406 27.284 29.5816 27.1071L30.2975 26.4057C30.5149 26.1869 30.173 25.8551 29.9559 26.0715Z" fill="#191919"/>
<path d="M33.5761 25.9582C32.8479 26.7914 32.1775 27.6706 31.5696 28.5899C31.4011 28.8444 31.8186 29.0797 31.9846 28.8263C32.5698 27.9395 33.2151 27.0914 33.9164 26.2875C34.1181 26.0607 33.7774 25.7278 33.5761 25.9582Z" fill="#191919"/>
<path d="M28.0027 28.3886L24.5885 28.4252C24.6041 28.2633 24.6112 28.1007 24.6097 27.9382C24.7014 27.8806 25.4364 27.3402 25.3936 27.3715C25.6389 27.1926 25.3982 26.786 25.15 26.9674C24.967 27.0884 24.792 27.2202 24.6259 27.3623C24.6356 26.9183 24.6382 26.4746 24.6338 26.0311C24.696 25.9829 25.5804 25.2317 25.5389 25.2671C25.7734 25.0684 25.4306 24.7386 25.1969 24.9357L24.6234 25.4219C24.6151 25.0801 24.6031 24.7384 24.5873 24.3968C24.9058 24.1209 25.1907 23.8105 25.4364 23.4718C25.619 23.2269 25.1982 22.9929 25.0214 23.2354C24.8728 23.4365 24.8089 23.5004 24.5562 23.7932C24.5367 23.4775 24.5147 23.1618 24.4881 22.8469C24.4632 22.5485 23.9797 22.5457 24.0055 22.8469C24.0312 23.1481 24.0519 23.459 24.071 23.765L23.5465 23.3629C23.3045 23.1783 22.9601 23.508 23.2045 23.6942C24.1685 24.4282 24.0507 24.3441 24.108 24.3803C24.1279 24.7993 24.1417 25.2181 24.1495 25.6366C23.8728 25.3882 23.5761 25.1616 23.2622 24.959C23.0028 24.7921 22.7605 25.1979 23.0186 25.3612C23.7274 25.8164 23.9079 26.1011 24.1549 26.1671C24.1582 26.5861 24.1546 27.0054 24.1441 27.425C24.064 27.3611 23.9864 27.2911 23.9548 27.267C23.8083 27.1552 23.6685 27.0361 23.5319 26.9115C23.3053 26.706 22.963 27.0369 23.1904 27.2428C23.4822 27.5086 23.796 27.7507 24.1287 27.9667C24.1287 27.9872 24.1121 28.426 24.1125 28.4336L14.7261 28.5346C14.7261 28.1521 14.7215 27.7705 14.7165 27.3864L16.4915 25.927C16.7297 25.7315 16.3856 25.4042 16.1499 25.596L14.707 26.7836C14.6915 25.8015 14.6671 24.8205 14.6339 23.8406C15.1465 23.2683 15.7049 22.7361 16.3039 22.2489C16.5421 22.0555 16.1997 21.7261 15.9628 21.9175C15.4853 22.304 15.0334 22.7194 14.6099 23.161C14.585 22.5012 14.5553 21.842 14.521 21.1836C14.8849 20.9064 15.2337 20.6111 15.566 20.2988C15.7988 20.0978 15.456 19.768 15.2245 19.9675C14.98 20.1778 14.7373 20.3889 14.492 20.5976C14.4721 20.2365 14.451 19.8758 14.4289 19.5155C14.5837 19.4471 14.6887 19.2987 15.2714 18.6307C15.4714 18.3999 15.1315 18.0677 14.9302 18.2997L14.5729 18.7019C14.5239 18.7594 14.4605 18.8563 14.3907 18.9287C14.3664 18.5437 14.3405 18.1606 14.3131 17.7794C14.292 17.4802 13.8089 17.4781 13.8305 17.7794C13.854 18.1161 13.8765 18.4524 13.8981 18.7884C13.8056 18.7055 13.3072 18.3315 13.3487 18.3633C13.1063 18.1795 12.7623 18.5085 13.0071 18.6943C14.0591 19.4929 13.7753 19.2995 13.9384 19.4145C13.966 19.8625 13.9916 20.3105 14.0152 20.7585C13.8658 20.6576 13.7562 20.6081 13.1814 20.2192C12.9324 20.0515 12.6834 20.4533 12.9374 20.6234C13.2798 20.8812 13.6507 21.1011 14.0434 21.2793C14.0782 21.9798 14.1088 22.6804 14.1351 23.381L12.7199 22.353C12.4709 22.1725 12.2298 22.5787 12.4759 22.7552L14.1542 23.9777C14.1877 24.9778 14.2117 25.9798 14.2264 26.9838C13.5152 26.6136 12.8367 26.1871 12.1979 25.7086C11.9518 25.5248 11.7107 25.9314 11.9543 26.1128C12.4999 26.5223 13.0743 26.8945 13.6732 27.2267C13.8483 27.3409 14.0363 27.4353 14.2334 27.5083C14.2376 27.8517 14.2404 28.195 14.2417 28.5382L8.5052 28.5997C8.44114 28.5997 8.37971 28.6244 8.33441 28.6683C8.28912 28.7121 8.26367 28.7717 8.26367 28.8338C8.26367 28.8958 8.28912 28.9554 8.33441 28.9993C8.37971 29.0431 8.44114 29.0678 8.5052 29.0678L28.0073 28.8543C28.0661 28.847 28.1201 28.8191 28.1591 28.7758C28.1981 28.7325 28.2193 28.6769 28.2188 28.6195C28.2182 28.562 28.1959 28.5068 28.1561 28.4642C28.1162 28.4216 28.0617 28.3947 28.0027 28.3886Z" fill="#191919"/>
</svg>
